<svg width="34" height="34" viewBox="0 0 34 34" fill="none" xmlns="http://www.w3.org/2000/svg">
<mask id="mask0_62_34626" style="mask-type:luminance" maskUnits="userSpaceOnUse" x="7" y="6" width="20" height="21">
<path d="M27 6.39941H7V26.3994H27V6.39941Z" fill="white"/>
</mask>
<g mask="url(#mask0_62_34626)">
<path fill-rule="evenodd" clip-rule="evenodd" d="M10.3335 12.2137C10.3335 11.9247 10.5678 11.6904 10.8567 11.6904H23.4149C23.7039 11.6904 23.9381 11.9247 23.9381 12.2137C23.9381 12.5027 23.7039 12.7369 23.4149 12.7369H10.8567C10.5678 12.7369 10.3335 12.5027 10.3335 12.2137Z" fill="#555555"/>
<path fill-rule="evenodd" clip-rule="evenodd" d="M12.2521 11.6904C12.5411 11.6904 12.7754 11.9247 12.7754 12.2137V21.9811C12.7754 22.1598 12.87 22.3822 13.0582 22.5704C13.2463 22.7586 13.4688 22.8532 13.6475 22.8532H20.6242C20.8029 22.8532 21.0253 22.7586 21.2135 22.5704C21.4017 22.3822 21.4963 22.1598 21.4963 21.9811V12.2137C21.4963 11.9247 21.7306 11.6904 22.0195 11.6904C22.3085 11.6904 22.5428 11.9247 22.5428 12.2137V21.9811C22.5428 22.5001 22.2886 22.9754 21.9535 23.3104C21.6184 23.6455 21.1432 23.8997 20.6242 23.8997H13.6475C13.1284 23.8997 12.6532 23.6455 12.3182 23.3104C11.9831 22.9754 11.7289 22.5001 11.7289 21.9811V12.2137C11.7289 11.9247 11.9631 11.6904 12.2521 11.6904Z" fill="#555555"/>
<path fill-rule="evenodd" clip-rule="evenodd" d="M15.1512 10.2287C14.963 10.4169 14.8684 10.6394 14.8684 10.818V12.2134C14.8684 12.5024 14.6341 12.7366 14.3451 12.7366C14.0561 12.7366 13.8219 12.5024 13.8219 12.2134V10.818C13.8219 10.299 14.0761 9.82378 14.4112 9.48871C14.7462 9.15365 15.2215 8.89941 15.7405 8.89941H18.5312C19.0502 8.89941 19.5254 9.15365 19.8605 9.48871C20.1955 9.82378 20.4498 10.299 20.4498 10.818V12.2134C20.4498 12.5024 20.2155 12.7366 19.9265 12.7366C19.6375 12.7366 19.4033 12.5024 19.4033 12.2134V10.818C19.4033 10.6394 19.3087 10.4169 19.1205 10.2287C18.9323 10.0405 18.7098 9.94592 18.5312 9.94592H15.7405C15.5618 9.94592 15.3394 10.0405 15.1512 10.2287Z" fill="#555555"/>
<path fill-rule="evenodd" clip-rule="evenodd" d="M15.7405 15.1787C16.0295 15.1787 16.2637 15.413 16.2637 15.702V19.888C16.2637 20.177 16.0295 20.4113 15.7405 20.4113C15.4515 20.4113 15.2172 20.177 15.2172 19.888V15.702C15.2172 15.413 15.4515 15.1787 15.7405 15.1787Z" fill="#555555"/>
<path fill-rule="evenodd" clip-rule="evenodd" d="M18.5312 15.1787C18.8202 15.1787 19.0544 15.413 19.0544 15.702V19.888C19.0544 20.177 18.8202 20.4113 18.5312 20.4113C18.2422 20.4113 18.0079 20.177 18.0079 19.888V15.702C18.0079 15.413 18.2422 15.1787 18.5312 15.1787Z" fill="#555555"/>
</g>
</svg>
