<svg width="34" height="34" viewBox="0 0 34 34" fill="none" xmlns="http://www.w3.org/2000/svg">
<path fill-rule="evenodd" clip-rule="evenodd" d="M14.2186 8.31345C14.5492 8.64413 14.5492 9.18028 14.2186 9.51097L9.87779 13.8517L14.2186 18.1925C14.5492 18.5232 14.5492 19.0594 14.2186 19.39C13.8879 19.7207 13.3517 19.7207 13.021 19.39L8.08151 14.4505C7.75082 14.1198 7.75082 13.5836 8.08151 13.253L13.021 8.31345C13.3517 7.98276 13.8879 7.98276 14.2186 8.31345Z" fill="#555555"/>
<path fill-rule="evenodd" clip-rule="evenodd" d="M7.8335 13.8517C7.8335 13.384 8.21261 13.0049 8.68027 13.0049H19.0533C19.878 13.0049 20.6946 13.1673 21.4566 13.4829C22.2186 13.7986 22.9109 14.2612 23.4941 14.8443C24.0772 15.4275 24.5398 16.1198 24.8554 16.8818C25.1711 17.6437 25.3335 18.4604 25.3335 19.2851C25.3335 20.1099 25.1711 20.9265 24.8554 21.6885C24.5398 22.4504 24.0772 23.1428 23.4941 23.7259C22.9109 24.3091 22.2186 24.7717 21.4566 25.0873C20.6946 25.4029 19.878 25.5654 19.0533 25.5654H15.5956C15.1279 25.5654 14.7488 25.1863 14.7488 24.7186C14.7488 24.2509 15.1279 23.8718 15.5956 23.8718H19.0533C19.6556 23.8718 20.252 23.7532 20.8085 23.5227C21.365 23.2922 21.8706 22.9543 22.2965 22.5284C22.7224 22.1025 23.0603 21.5969 23.2908 21.0404C23.5213 20.4839 23.6399 19.8875 23.6399 19.2851C23.6399 18.6828 23.5213 18.0864 23.2908 17.5299C23.0603 16.9734 22.7224 16.4678 22.2965 16.0418C21.8706 15.6159 21.365 15.2781 20.8085 15.0476C20.252 14.8171 19.6556 14.6984 19.0533 14.6984H8.68027C8.21261 14.6984 7.8335 14.3193 7.8335 13.8517Z" fill="#555555"/>
</svg>
