<svg width="20" height="20" viewBox="0 0 20 20" fill="none" xmlns="http://www.w3.org/2000/svg">
<g clip-path="url(#clip0_11_4291)">
<path fill-rule="evenodd" clip-rule="evenodd" d="M1.875 5C1.875 4.65482 2.15482 4.375 2.5 4.375L17.5 4.375C17.8452 4.375 18.125 4.65482 18.125 5C18.125 5.34518 17.8452 5.625 17.5 5.625L2.5 5.625C2.15482 5.625 1.875 5.34518 1.875 5Z" fill="#808080"/>
<path fill-rule="evenodd" clip-rule="evenodd" d="M5.20833 10C5.20833 9.65482 5.48816 9.375 5.83333 9.375L14.1667 9.375C14.5118 9.375 14.7917 9.65482 14.7917 10C14.7917 10.3452 14.5118 10.625 14.1667 10.625L5.83333 10.625C5.48816 10.625 5.20833 10.3452 5.20833 10Z" fill="#808080"/>
<path fill-rule="evenodd" clip-rule="evenodd" d="M7.70833 15C7.70833 14.6548 7.98816 14.375 8.33333 14.375H11.6667C12.0118 14.375 12.2917 14.6548 12.2917 15C12.2917 15.3452 12.0118 15.625 11.6667 15.625H8.33333C7.98816 15.625 7.70833 15.3452 7.70833 15Z" fill="#808080"/>
</g>
<defs>
<clipPath id="clip0_11_4291">
<rect width="20" height="20" fill="white"/>
</clipPath>
</defs>
</svg>
