<svg width="34" height="34" viewBox="0 0 34 34" fill="none" xmlns="http://www.w3.org/2000/svg">
<g clip-path="url(#clip0_11_4303)">
<path fill-rule="evenodd" clip-rule="evenodd" d="M11.4186 12.213C10.937 12.213 10.5465 12.6035 10.5465 13.0851V20.0619C10.5465 20.5435 10.937 20.9339 11.4186 20.9339H22.5814C23.063 20.9339 23.4535 20.5435 23.4535 20.0619V13.0851C23.4535 12.6035 23.063 12.213 22.5814 12.213H11.4186ZM9.5 13.0851C9.5 12.0255 10.359 11.1665 11.4186 11.1665H22.5814C23.641 11.1665 24.5 12.0255 24.5 13.0851V20.0619C24.5 21.1215 23.641 21.9805 22.5814 21.9805H11.4186C10.359 21.9805 9.5 21.1215 9.5 20.0619V13.0851Z" fill="#808080"/>
<path fill-rule="evenodd" clip-rule="evenodd" d="M9.5 15.1781C9.5 14.8891 9.73427 14.6549 10.0233 14.6549H23.9767C24.2657 14.6549 24.5 14.8891 24.5 15.1781C24.5 15.4671 24.2657 15.7014 23.9767 15.7014H10.0233C9.73427 15.7014 9.5 15.4671 9.5 15.1781Z" fill="#808080"/>
</g>
<defs>
<clipPath id="clip0_11_4303">
<rect width="20" height="20" fill="white" transform="translate(7 7)"/>
</clipPath>
</defs>
</svg>
