<svg width="34" height="34" viewBox="0 0 34 34" fill="none" xmlns="http://www.w3.org/2000/svg">
<g clip-path="url(#clip0_11_4302)">
<path fill-rule="evenodd" clip-rule="evenodd" d="M11.1665 10.7498C11.1665 9.59924 12.0992 8.6665 13.2498 8.6665H21.5832C22.7338 8.6665 23.6665 9.59924 23.6665 10.7498V22.4165C23.6665 23.5671 22.7338 24.4998 21.5832 24.4998H13.2498C12.0992 24.4998 11.1665 23.5671 11.1665 22.4165V10.7498ZM13.2498 9.49984C12.5595 9.49984 11.9998 10.0595 11.9998 10.7498V22.4165C11.9998 23.1069 12.5595 23.6665 13.2498 23.6665H21.5832C22.2735 23.6665 22.8332 23.1069 22.8332 22.4165V10.7498C22.8332 10.0595 22.2735 9.49984 21.5832 9.49984H13.2498Z" fill="#808080"/>
<path fill-rule="evenodd" clip-rule="evenodd" d="M18.7126 19.1202C19.2547 19.1202 19.6941 19.5596 19.6941 20.1017C19.6941 20.6437 19.2547 21.0832 18.7126 21.0832H16.12C15.578 21.0832 15.1385 20.6437 15.1385 20.1017C15.1385 19.5596 15.578 19.1202 16.12 19.1202H18.7126ZM19.0274 20.1017C19.0274 19.9278 18.8865 19.7869 18.7126 19.7869H16.12C15.9461 19.7869 15.8052 19.9278 15.8052 20.1017C15.8052 20.2755 15.9461 20.4165 16.12 20.4165H18.7126C18.8865 20.4165 19.0274 20.2755 19.0274 20.1017Z" fill="#808080"/>
<path fill-rule="evenodd" clip-rule="evenodd" d="M17.084 17.077C17.084 16.893 17.2332 16.7437 17.4173 16.7437H17.4213C17.6054 16.7437 17.7546 16.893 17.7546 17.077C17.7546 17.2611 17.6054 17.4104 17.4213 17.4104H17.4173C17.2332 17.4104 17.084 17.2611 17.084 17.077Z" fill="#808080"/>
<path fill-rule="evenodd" clip-rule="evenodd" d="M17.4171 13.9535C16.5318 13.9535 15.6829 14.2439 15.032 14.7614C14.8879 14.8759 14.6782 14.852 14.5636 14.7079C14.4491 14.5638 14.473 14.3541 14.6171 14.2395C15.3922 13.6233 16.3893 13.2869 17.4171 13.2869C18.445 13.2869 19.4421 13.6233 20.2172 14.2395C20.3613 14.3541 20.3852 14.5638 20.2706 14.7079C20.1561 14.852 19.9464 14.8759 19.8023 14.7614C19.1514 14.2439 18.3024 13.9535 17.4171 13.9535Z" fill="#808080"/>
<path fill-rule="evenodd" clip-rule="evenodd" d="M17.4172 15.106C16.8142 15.106 16.2417 15.3165 15.8214 15.6828C15.6826 15.8037 15.472 15.7892 15.3511 15.6504C15.2301 15.5116 15.2446 15.3011 15.3834 15.1801C15.9323 14.7019 16.663 14.4393 17.4172 14.4393C18.1714 14.4393 18.9021 14.7019 19.451 15.1801C19.5898 15.3011 19.6043 15.5116 19.4833 15.6504C19.3624 15.7892 19.1518 15.8037 19.013 15.6828C18.5927 15.3165 18.0202 15.106 17.4172 15.106Z" fill="#808080"/>
<path fill-rule="evenodd" clip-rule="evenodd" d="M17.4173 16.2579C17.1536 16.2579 16.9069 16.3502 16.7288 16.5053C16.59 16.6262 16.3795 16.6117 16.2585 16.4729C16.1376 16.3341 16.1521 16.1236 16.2909 16.0026C16.5975 15.7355 17.0023 15.5912 17.4173 15.5912C17.8322 15.5912 18.237 15.7355 18.5436 16.0026C18.6824 16.1236 18.6969 16.3341 18.576 16.4729C18.455 16.6117 18.2445 16.6262 18.1057 16.5053C17.9277 16.3502 17.6809 16.2579 17.4173 16.2579Z" fill="#808080"/>
</g>
<defs>
<clipPath id="clip0_11_4302">
<rect width="20" height="20" fill="white" transform="translate(7 7)"/>
</clipPath>
</defs>
</svg>
