<svg width="16" height="16" viewBox="0 0 16 16" fill="none" xmlns="http://www.w3.org/2000/svg">
<g clip-path="url(#clip0_14_2558)">
<path fill-rule="evenodd" clip-rule="evenodd" d="M1.37625 2.26729C1.45188 2.10429 1.61523 2 1.79492 2H14.1026C14.2823 2 14.4457 2.10429 14.5213 2.26729C14.5969 2.43029 14.5711 2.62236 14.455 2.75957L9.64107 8.45207V13.5385C9.64107 13.6984 9.55825 13.847 9.42218 13.9311C9.28611 14.0152 9.1162 14.0228 8.97313 13.9513L6.51159 12.7205C6.35523 12.6423 6.25646 12.4825 6.25646 12.3077V8.45207L1.4425 2.75957C1.32647 2.62236 1.30062 2.43029 1.37625 2.26729ZM2.78967 2.92308L7.07041 7.98505C7.14087 8.06837 7.17953 8.17396 7.17953 8.28308V12.0224L8.718 12.7917V8.28308C8.718 8.17396 8.75666 8.06837 8.82712 7.98505L13.1079 2.92308H2.78967Z" fill="#262262"/>
</g>
<defs>
<clipPath id="clip0_14_2558">
<rect width="16" height="16" fill="white"/>
</clipPath>
</defs>
</svg>
