<svg width="34" height="34" viewBox="0 0 34 34" fill="none" xmlns="http://www.w3.org/2000/svg">
<g clip-path="url(#clip0_11_4300)">
<path d="M16.7918 18.25C17.5972 18.25 18.2502 17.5971 18.2502 16.7917C18.2502 15.9863 17.5972 15.3333 16.7918 15.3333C15.9864 15.3333 15.3335 15.9863 15.3335 16.7917C15.3335 17.5971 15.9864 18.25 16.7918 18.25Z" fill="#808080"/>
<path d="M16.7918 12.4167C17.5972 12.4167 18.2502 11.7637 18.2502 10.9583C18.2502 10.1529 17.5972 9.5 16.7918 9.5C15.9864 9.5 15.3335 10.1529 15.3335 10.9583C15.3335 11.7637 15.9864 12.4167 16.7918 12.4167Z" fill="#808080"/>
<path d="M16.7918 24.0833C17.5972 24.0833 18.2502 23.4304 18.2502 22.625C18.2502 21.8196 17.5972 21.1667 16.7918 21.1667C15.9864 21.1667 15.3335 21.8196 15.3335 22.625C15.3335 23.4304 15.9864 24.0833 16.7918 24.0833Z" fill="#808080"/>
</g>
<defs>
<clipPath id="clip0_11_4300">
<rect width="20" height="20" fill="white" transform="translate(7 7)"/>
</clipPath>
</defs>
</svg>
