<svg width="34" height="34" viewBox="0 0 34 34" fill="none" xmlns="http://www.w3.org/2000/svg">
<path fill-rule="evenodd" clip-rule="evenodd" d="M22.0656 15.3397C22.2672 15.3397 22.4306 15.5031 22.4306 15.7046C22.4306 16.834 21.982 17.917 21.1834 18.7156C20.3849 19.5141 19.3018 19.9627 18.1725 19.9627C17.9709 19.9627 17.8075 19.7993 17.8075 19.5977C17.8075 19.3962 17.9709 19.2328 18.1725 19.2328C19.1082 19.2328 20.0056 18.8611 20.6673 18.1994C21.3289 17.5378 21.7006 16.6404 21.7006 15.7046C21.7006 15.5031 21.8641 15.3397 22.0656 15.3397Z" fill="#808080"/>
<path fill-rule="evenodd" clip-rule="evenodd" d="M18.1995 12.8118C18.4505 12.5608 18.7909 12.4198 19.1458 12.4198C19.5007 12.4198 19.8411 12.5608 20.0921 12.8118C20.3431 13.0628 20.484 13.4032 20.484 13.7581V14.2447C20.484 14.4463 20.3206 14.6097 20.1191 14.6097C19.9175 14.6097 19.7541 14.4463 19.7541 14.2447V13.7581C19.7541 13.5968 19.69 13.442 19.5759 13.328C19.4618 13.2139 19.3071 13.1498 19.1458 13.1498C18.9845 13.1498 18.8297 13.2139 18.7157 13.328C18.6016 13.442 18.5375 13.5968 18.5375 13.7581C18.5375 13.9597 18.3741 14.1231 18.1725 14.1231C17.9709 14.1231 17.8075 13.9597 17.8075 13.7581C17.8075 13.4032 17.9485 13.0628 18.1995 12.8118Z" fill="#808080"/>
<path fill-rule="evenodd" clip-rule="evenodd" d="M16.253 12.3252C16.5039 12.0742 16.8443 11.9332 17.1992 11.9332C17.5542 11.9332 17.8946 12.0742 18.1455 12.3252C18.3965 12.5761 18.5375 12.9165 18.5375 13.2714V13.7581C18.5375 13.9597 18.3741 14.1231 18.1725 14.1231C17.9709 14.1231 17.8075 13.9597 17.8075 13.7581V13.2714C17.8075 13.1101 17.7435 12.9554 17.6294 12.8413C17.5153 12.7272 17.3606 12.6631 17.1992 12.6631C17.0379 12.6631 16.8832 12.7272 16.7691 12.8413C16.655 12.9554 16.5909 13.1101 16.5909 13.2714V13.7581C16.5909 13.9597 16.4275 14.1231 16.226 14.1231C16.0244 14.1231 15.861 13.9597 15.861 13.7581V13.2714C15.861 12.9165 16.002 12.5761 16.253 12.3252Z" fill="#808080"/>
<path fill-rule="evenodd" clip-rule="evenodd" d="M14.3064 9.89197C14.5574 9.64099 14.8978 9.5 15.2527 9.5C15.6076 9.5 15.948 9.64099 16.199 9.89197C16.4499 10.1429 16.5909 10.4833 16.5909 10.8383V13.5148C16.5909 13.7163 16.4275 13.8797 16.226 13.8797C16.0244 13.8797 15.861 13.7163 15.861 13.5148V10.8383C15.861 10.6769 15.7969 10.5222 15.6828 10.4081C15.5687 10.294 15.414 10.23 15.2527 10.23C15.0914 10.23 14.9366 10.294 14.8226 10.4081C14.7085 10.5222 14.6444 10.6769 14.6444 10.8383V15.7046C14.6444 15.9062 14.481 16.0696 14.2794 16.0696C14.0778 16.0696 13.9144 15.9062 13.9144 15.7046V10.8383C13.9144 10.4833 14.0554 10.1429 14.3064 9.89197Z" fill="#808080"/>
<path fill-rule="evenodd" clip-rule="evenodd" d="M21.0923 13.6364C20.931 13.6364 20.7763 13.7005 20.6622 13.8146C20.5481 13.9287 20.484 14.0834 20.484 14.2447C20.484 14.4463 20.3206 14.6097 20.1191 14.6097C19.9175 14.6097 19.7541 14.4463 19.7541 14.2447C19.7541 13.8898 19.8951 13.5494 20.1461 13.2984C20.397 13.0475 20.7374 12.9065 21.0923 12.9065C21.4473 12.9065 21.7877 13.0475 22.0386 13.2984C22.2896 13.5494 22.4306 13.8898 22.4306 14.2447V15.7046C22.4306 16.834 21.982 17.917 21.1834 18.7156C20.3849 19.5141 19.3018 19.9627 18.1725 19.9627H17.1992C15.7385 19.9627 14.8193 19.5049 14.0271 18.718L14.0262 18.7171L12.2743 16.9652C12.2699 16.9608 12.2656 16.9563 12.2615 16.9517C12.0313 16.6967 11.9079 16.363 11.917 16.0196C11.926 15.6762 12.0668 15.3494 12.3101 15.1069C12.5535 14.8644 12.8808 14.7248 13.2242 14.717C13.5677 14.7091 13.901 14.8336 14.1551 15.0648C14.1594 15.0687 14.1636 15.0726 14.1676 15.0767L15.0241 15.9332C15.1667 16.0757 15.1667 16.3068 15.0241 16.4494C14.8816 16.5919 14.6505 16.5919 14.508 16.4494L13.6583 15.5997C13.5435 15.4979 13.3944 15.4432 13.2409 15.4467C13.0848 15.4503 12.936 15.5137 12.8254 15.624C12.7148 15.7342 12.6508 15.8827 12.6467 16.0388C12.6426 16.1922 12.6967 16.3413 12.7978 16.4564L14.5415 18.2001C15.1993 18.8534 15.935 19.2328 17.1992 19.2328H18.1725C19.1082 19.2328 20.0056 18.8611 20.6673 18.1994C21.3289 17.5378 21.7006 16.6404 21.7006 15.7046V14.2447C21.7006 14.0834 21.6366 13.9287 21.5225 13.8146C21.4084 13.7005 21.2537 13.6364 21.0923 13.6364Z" fill="#808080"/>
<path fill-rule="evenodd" clip-rule="evenodd" d="M13.4165 20.9167C13.5316 20.9167 13.6248 21.01 13.6248 21.125V23.375C13.6248 23.4901 13.5316 23.5834 13.4165 23.5834C13.3014 23.5834 13.2082 23.4901 13.2082 23.375V21.125C13.2082 21.01 13.3014 20.9167 13.4165 20.9167Z" fill="#808080"/>
<path fill-rule="evenodd" clip-rule="evenodd" d="M14.5712 21.5834C14.6287 21.683 14.5946 21.8104 14.4949 21.8679L12.5464 22.9929C12.4468 23.0505 12.3194 23.0163 12.2618 22.9167C12.2043 22.817 12.2384 22.6896 12.3381 22.6321L14.2866 21.5071C14.3862 21.4496 14.5136 21.4837 14.5712 21.5834Z" fill="#808080"/>
<path fill-rule="evenodd" clip-rule="evenodd" d="M12.2618 21.5834C12.3194 21.4837 12.4468 21.4496 12.5464 21.5071L14.4949 22.6321C14.5946 22.6896 14.6287 22.817 14.5712 22.9167C14.5136 23.0163 14.3862 23.0505 14.2866 22.9929L12.3381 21.8679C12.2384 21.8104 12.2043 21.683 12.2618 21.5834Z" fill="#808080"/>
<path fill-rule="evenodd" clip-rule="evenodd" d="M17.1665 20.9167C17.2816 20.9167 17.3748 21.01 17.3748 21.1251V23.3751C17.3748 23.4901 17.2816 23.5834 17.1665 23.5834C17.0514 23.5834 16.9582 23.4901 16.9582 23.3751V21.1251C16.9582 21.01 17.0514 20.9167 17.1665 20.9167Z" fill="#808080"/>
<path fill-rule="evenodd" clip-rule="evenodd" d="M18.3212 21.5834C18.3787 21.683 18.3446 21.8105 18.2449 21.868L16.2964 22.993C16.1968 23.0505 16.0694 23.0164 16.0118 22.9167C15.9543 22.8171 15.9884 22.6897 16.0881 22.6321L18.0366 21.5071C18.1362 21.4496 18.2636 21.4838 18.3212 21.5834Z" fill="#808080"/>
<path fill-rule="evenodd" clip-rule="evenodd" d="M16.0118 21.5834C16.0694 21.4838 16.1968 21.4496 16.2964 21.5071L18.2449 22.6321C18.3446 22.6897 18.3787 22.8171 18.3212 22.9167C18.2636 23.0164 18.1362 23.0505 18.0366 22.993L16.0881 21.868C15.9884 21.8105 15.9543 21.683 16.0118 21.5834Z" fill="#808080"/>
<path fill-rule="evenodd" clip-rule="evenodd" d="M20.9165 20.9167C21.0316 20.9167 21.1248 21.01 21.1248 21.1251V23.3751C21.1248 23.4901 21.0316 23.5834 20.9165 23.5834C20.8014 23.5834 20.7082 23.4901 20.7082 23.3751V21.1251C20.7082 21.01 20.8014 20.9167 20.9165 20.9167Z" fill="#808080"/>
<path fill-rule="evenodd" clip-rule="evenodd" d="M22.0712 21.5834C22.1287 21.683 22.0946 21.8105 21.9949 21.868L20.0464 22.993C19.9468 23.0505 19.8194 23.0164 19.7618 22.9167C19.7043 22.8171 19.7384 22.6897 19.8381 22.6321L21.7866 21.5071C21.8862 21.4496 22.0136 21.4838 22.0712 21.5834Z" fill="#808080"/>
<path fill-rule="evenodd" clip-rule="evenodd" d="M19.7618 21.5834C19.8194 21.4838 19.9468 21.4496 20.0464 21.5071L21.9949 22.6321C22.0946 22.6897 22.1287 22.8171 22.0712 22.9167C22.0136 23.0164 21.8862 23.0505 21.7866 22.993L19.8381 21.868C19.7384 21.8105 19.7043 21.683 19.7618 21.5834Z" fill="#808080"/>
</svg>
