<svg width="34" height="34" viewBox="0 0 34 34" fill="none" xmlns="http://www.w3.org/2000/svg">
<path fill-rule="evenodd" clip-rule="evenodd" d="M10.4532 8.18562C10.8634 7.77539 11.4198 7.54492 12 7.54492H19.5C19.6381 7.54492 19.7706 7.59979 19.8683 7.69747L22.3683 10.1975C22.5717 10.4009 22.5717 10.7306 22.3683 10.934C22.1649 11.1374 21.8351 11.1374 21.6317 10.934L19.2843 8.58658H12C11.6961 8.58658 11.4047 8.70731 11.1898 8.92219C10.9749 9.13708 10.8542 9.42852 10.8542 9.73242V23.0657C10.8542 23.3696 10.9749 23.6611 11.1898 23.8759C11.4047 24.0908 11.6961 24.2115 12 24.2115H22C22.3039 24.2115 22.5953 24.0908 22.8102 23.8759C23.0251 23.6611 23.1458 23.3696 23.1458 23.0657C23.1458 22.7781 23.379 22.5449 23.6667 22.5449C23.9543 22.5449 24.1875 22.7781 24.1875 23.0657C24.1875 23.6459 23.957 24.2023 23.5468 24.6125C23.1366 25.0227 22.5802 25.2532 22 25.2532H12C11.4198 25.2532 10.8634 25.0227 10.4532 24.6125C10.043 24.2023 9.8125 23.6459 9.8125 23.0657V9.73242C9.8125 9.15226 10.043 8.59586 10.4532 8.18562ZM23.5833 14.4022C23.2526 14.4022 22.9355 14.5335 22.7016 14.7674L19.137 18.332L18.5492 20.6832L20.9004 20.0954L24.465 16.5308C24.6989 16.2969 24.8303 15.9798 24.8303 15.6491C24.8303 15.3184 24.6989 15.0012 24.465 14.7674C24.2312 14.5335 23.914 14.4022 23.5833 14.4022ZM21.965 14.0308C22.3942 13.6016 22.9764 13.3605 23.5833 13.3605C24.1903 13.3605 24.7724 13.6016 25.2016 14.0308C25.6308 14.46 25.8719 15.0421 25.8719 15.6491C25.8719 16.256 25.6308 16.8381 25.2016 17.2673L21.535 20.934C21.4682 21.0007 21.3846 21.0481 21.293 21.071L17.9597 21.9043C17.7822 21.9487 17.5944 21.8967 17.465 21.7673C17.3357 21.638 17.2837 21.4502 17.3281 21.2727L18.1614 17.9394C18.1843 17.8478 18.2316 17.7642 18.2984 17.6974L21.965 14.0308ZM13.1458 21.399C13.1458 21.1114 13.379 20.8782 13.6667 20.8782H14.5C14.7876 20.8782 15.0208 21.1114 15.0208 21.399C15.0208 21.6867 14.7876 21.9199 14.5 21.9199H13.6667C13.379 21.9199 13.1458 21.6867 13.1458 21.399Z" fill="#555555"/>
</svg>
