<svg width="34" height="34" viewBox="0 0 34 34" fill="none" xmlns="http://www.w3.org/2000/svg">
<path fill-rule="evenodd" clip-rule="evenodd" d="M24.5 22.8571C24.1548 22.8571 23.875 22.5773 23.875 22.2321V10.5654C23.875 10.2202 24.1548 9.94043 24.5 9.94043C24.8452 9.94043 25.125 10.2202 25.125 10.5654V22.2321C25.125 22.5773 24.8452 22.8571 24.5 22.8571Z" fill="#555555"/>
<path fill-rule="evenodd" clip-rule="evenodd" d="M21.7917 16.3984C21.7917 16.7436 21.5118 17.0234 21.1667 17.0234H9.5C9.15482 17.0234 8.875 16.7436 8.875 16.3984C8.875 16.0533 9.15482 15.7734 9.5 15.7734H21.1667C21.5118 15.7734 21.7917 16.0533 21.7917 16.3984Z" fill="#555555"/>
<path fill-rule="evenodd" clip-rule="evenodd" d="M14.9419 21.8404C14.6979 22.0845 14.3021 22.0845 14.0581 21.8404L9.05806 16.8404C8.81398 16.5963 8.81398 16.2006 9.05806 15.9565L14.0581 10.9565C14.3021 10.7124 14.6979 10.7124 14.9419 10.9565C15.186 11.2006 15.186 11.5963 14.9419 11.8404L10.3839 16.3984L14.9419 20.9565C15.186 21.2006 15.186 21.5963 14.9419 21.8404Z" fill="#555555"/>
</svg>
