<svg width="34" height="34" viewBox="0 0 34 34" fill="none" xmlns="http://www.w3.org/2000/svg">
<mask id="mask0_62_34626" style="mask-type:luminance" maskUnits="userSpaceOnUse" x="7" y="6" width="20" height="21">
<path d="M27 6.39941H7V26.3994H27V6.39941Z" fill="white"/>
</mask>
<g mask="url(#mask0_62_34626)">
<path fill-rule="evenodd" clip-rule="evenodd" d="M25.7751 7.62448C25.9449 7.79425 26.0024 8.04627 25.9231 8.27289L20.0898 24.9395C20.0051 25.1814 19.7814 25.3471 19.5253 25.3575C19.2693 25.368 19.0328 25.2211 18.9287 24.9869L15.693 17.7066L8.41267 14.4709C8.1785 14.3668 8.03158 14.1303 8.04203 13.8743C8.05247 13.6182 8.21816 13.3945 8.46004 13.3098L25.1267 7.47651C25.3533 7.39719 25.6053 7.45471 25.7751 7.62448ZM10.3609 13.9689L16.4203 16.6619C16.5617 16.7248 16.6748 16.8378 16.7376 16.9792L19.4307 23.0386L24.3144 9.08515L10.3609 13.9689Z" fill="#555555"/>
<path fill-rule="evenodd" clip-rule="evenodd" d="M25.7751 7.62447C26.0192 7.86855 26.0192 8.26428 25.7751 8.50835L16.6084 17.675C16.3644 17.9191 15.9686 17.9191 15.7246 17.675C15.4805 17.4309 15.4805 17.0352 15.7246 16.7911L24.8912 7.62447C25.1353 7.38039 25.531 7.38039 25.7751 7.62447Z" fill="#555555"/>
</g>
</svg>
