<svg width="34" height="34" viewBox="0 0 34 34" fill="none" xmlns="http://www.w3.org/2000/svg">
<mask id="mask0_62_34626" style="mask-type:luminance" maskUnits="userSpaceOnUse" x="7" y="6" width="20" height="21">
<path d="M27 6.39941H7V26.3994H27V6.39941Z" fill="white"/>
</mask>
<g mask="url(#mask0_62_34626)">
<path fill-rule="evenodd" clip-rule="evenodd" d="M17.1359 19.0153C17.0396 19.0153 16.9615 19.0933 16.9615 19.1897C16.9615 19.286 17.0396 19.3642 17.1359 19.3642C17.2322 19.3642 17.3103 19.286 17.3103 19.1897C17.3103 19.0933 17.2322 19.0153 17.1359 19.0153ZM15.9149 19.1897C15.9149 18.5154 16.4616 17.9688 17.1359 17.9688C17.8102 17.9688 18.3568 18.5154 18.3568 19.1897C18.3568 19.864 17.8102 20.4106 17.1359 20.4106C16.4616 20.4106 15.9149 19.864 15.9149 19.1897Z" fill="#555555"/>
<path fill-rule="evenodd" clip-rule="evenodd" d="M12.2521 15.527C11.7705 15.527 11.38 15.9174 11.38 16.399V21.9805C11.38 22.4622 11.7705 22.8526 12.2521 22.8526H22.0197C22.5013 22.8526 22.8918 22.4622 22.8918 21.9805V16.399C22.8918 15.9174 22.5013 15.527 22.0197 15.527H12.2521ZM10.3335 16.399C10.3335 15.3395 11.1925 14.4805 12.2521 14.4805H22.0197C23.0793 14.4805 23.9383 15.3395 23.9383 16.399V21.9805C23.9383 23.0401 23.0793 23.8991 22.0197 23.8991H12.2521C11.1925 23.8991 10.3335 23.0401 10.3335 21.9805V16.399Z" fill="#555555"/>
<path fill-rule="evenodd" clip-rule="evenodd" d="M18.2705 10.1716C17.6675 9.92185 16.9989 9.87804 16.3684 10.047C15.738 10.2159 15.1809 10.5881 14.7835 11.106C14.3862 11.6238 14.1708 12.2582 14.1707 12.9109V15.004C14.1707 15.293 13.9365 15.5272 13.6475 15.5272C13.3585 15.5272 13.1242 15.293 13.1242 15.004V12.9109C13.1242 12.0279 13.4157 11.1694 13.9533 10.4689C14.4908 9.76829 15.2446 9.26467 16.0976 9.03612C16.9505 8.80756 17.8551 8.86683 18.671 9.20475C19.4869 9.54266 20.1684 10.1403 20.61 10.9051C20.7545 11.1553 20.6688 11.4754 20.4185 11.6199C20.1682 11.7644 19.8482 11.6786 19.7037 11.4284C19.3773 10.8631 18.8736 10.4214 18.2705 10.1716Z" fill="#555555"/>
</g>
</svg>
