<svg width="269" height="94" viewBox="0 0 269 94" fill="none" xmlns="http://www.w3.org/2000/svg">
<rect width="269" height="94" rx="8" fill="white" fill-opacity="0.5"/>
<rect x="0.5" y="0.5" width="268" height="93" rx="7.5" stroke="white" stroke-opacity="0.5"/>
<path fill-rule="evenodd" clip-rule="evenodd" d="M249.233 69.0482C249.482 68.8097 249.878 68.8186 250.116 69.0681L252.241 71.2903C252.472 71.5319 252.472 71.9125 252.241 72.1541L250.116 74.3763C249.878 74.6258 249.482 74.6347 249.233 74.3962C248.983 74.1577 248.974 73.7621 249.213 73.5126L250.924 71.7222L249.213 69.9319C248.974 69.6824 248.983 69.2867 249.233 69.0482Z" fill="#F89721"/>
<path fill-rule="evenodd" clip-rule="evenodd" d="M240.542 71.7222C240.542 71.377 240.822 71.0972 241.167 71.0972H251.789C252.134 71.0972 252.414 71.377 252.414 71.7222C252.414 72.0674 252.134 72.3472 251.789 72.3472H241.167C240.822 72.3472 240.542 72.0674 240.542 71.7222Z" fill="#F89721"/>
<rect x="13" y="13" width="58" height="58" rx="7" fill="white" stroke="#555555" stroke-width="2"/>
<g clip-path="url(#clip0_1002_192777)">
<path d="M27.75 56.25H56.25M51.5 56.25V32.8167C51.5 31.0432 51.5 30.1564 51.1548 29.479C50.8513 28.8832 50.3668 28.3987 49.771 28.0952C49.0937 27.75 48.2068 27.75 46.4333 27.75H37.5667C35.7932 27.75 34.9064 27.75 34.229 28.0952C33.6332 28.3987 33.1487 28.8832 32.8452 29.479C32.5 30.1564 32.5 31.0432 32.5 32.8167V56.25M46.75 42H46.7658" stroke="#555555" stroke-width="2" stroke-linecap="round" stroke-linejoin="round"/>
<rect x="28" y="42" width="12" height="12" rx="6" fill="#F89721"/>
</g>
<path d="M88.8295 40.4545C88.7784 40.0227 88.571 39.6875 88.2074 39.4489C87.8438 39.2102 87.3977 39.0909 86.8693 39.0909C86.483 39.0909 86.1449 39.1534 85.8551 39.2784C85.5682 39.4034 85.3438 39.5753 85.1818 39.794C85.0227 40.0128 84.9432 40.2614 84.9432 40.5398C84.9432 40.7727 84.9986 40.973 85.1094 41.1406C85.223 41.3054 85.3679 41.4432 85.544 41.554C85.7202 41.6619 85.9048 41.7514 86.098 41.8224C86.2912 41.8906 86.4688 41.946 86.6307 41.9886L87.517 42.2273C87.7443 42.2869 87.9972 42.3693 88.2756 42.4744C88.5568 42.5795 88.8253 42.723 89.081 42.9048C89.3395 43.0838 89.5526 43.3139 89.7202 43.5952C89.8878 43.8764 89.9716 44.2216 89.9716 44.6307C89.9716 45.1023 89.848 45.5284 89.6009 45.9091C89.3565 46.2898 88.9986 46.5923 88.527 46.8168C88.0582 47.0412 87.4886 47.1534 86.8182 47.1534C86.1932 47.1534 85.652 47.0526 85.1946 46.8509C84.7401 46.6491 84.3821 46.3679 84.1207 46.0071C83.8622 45.6463 83.7159 45.2273 83.6818 44.75H84.7727C84.8011 45.0795 84.9119 45.3523 85.1051 45.5682C85.3011 45.7812 85.5483 45.9403 85.8466 46.0455C86.1477 46.1477 86.4716 46.1989 86.8182 46.1989C87.2216 46.1989 87.5838 46.1335 87.9048 46.0028C88.2259 45.8693 88.4801 45.6847 88.6676 45.4489C88.8551 45.2102 88.9489 44.9318 88.9489 44.6136C88.9489 44.3239 88.8679 44.0881 88.706 43.9062C88.544 43.7244 88.331 43.5767 88.0668 43.4631C87.8026 43.3494 87.517 43.25 87.2102 43.1648L86.1364 42.858C85.4545 42.6619 84.9148 42.3821 84.517 42.0185C84.1193 41.6548 83.9205 41.179 83.9205 40.5909C83.9205 40.1023 84.0526 39.6761 84.3168 39.3125C84.5838 38.946 84.9418 38.6619 85.3906 38.4602C85.8423 38.2557 86.3466 38.1534 86.9034 38.1534C87.4659 38.1534 87.9659 38.2543 88.4034 38.456C88.8409 38.6548 89.1875 38.9276 89.4432 39.2741C89.7017 39.6207 89.8381 40.0142 89.8523 40.4545H88.8295ZM91.5728 47V40.4545H92.5444V41.4773H92.6296C92.766 41.1278 92.9862 40.8565 93.2901 40.6634C93.5941 40.4673 93.9592 40.3693 94.3853 40.3693C94.8171 40.3693 95.1765 40.4673 95.4634 40.6634C95.7532 40.8565 95.979 41.1278 96.141 41.4773H96.2092C96.3768 41.1392 96.6282 40.8707 96.9634 40.6719C97.2987 40.4702 97.7006 40.3693 98.1694 40.3693C98.7546 40.3693 99.2333 40.5526 99.6055 40.919C99.9776 41.2827 100.164 41.8494 100.164 42.6193V47H99.158V42.6193C99.158 42.1364 99.0259 41.7912 98.7617 41.5838C98.4975 41.3764 98.1864 41.2727 97.8285 41.2727C97.3683 41.2727 97.0117 41.4119 96.7589 41.6903C96.506 41.9659 96.3796 42.3153 96.3796 42.7386V47H95.3569V42.517C95.3569 42.1449 95.2362 41.8452 94.9947 41.6179C94.7532 41.3878 94.4421 41.2727 94.0614 41.2727C93.8001 41.2727 93.5558 41.3423 93.3285 41.4815C93.104 41.6207 92.9222 41.8139 92.783 42.0611C92.6467 42.3054 92.5785 42.5881 92.5785 42.9091V47H91.5728ZM103.929 47.1534C103.514 47.1534 103.137 47.0753 102.799 46.919C102.461 46.7599 102.193 46.5312 101.994 46.233C101.795 45.9318 101.696 45.5682 101.696 45.142C101.696 44.767 101.77 44.4631 101.917 44.2301C102.065 43.9943 102.262 43.8097 102.51 43.6761C102.757 43.5426 103.029 43.4432 103.328 43.3778C103.629 43.3097 103.931 43.2557 104.235 43.2159C104.633 43.1648 104.956 43.1264 105.203 43.1009C105.453 43.0724 105.635 43.0256 105.748 42.9602C105.865 42.8949 105.923 42.7812 105.923 42.6193V42.5852C105.923 42.1648 105.808 41.8381 105.578 41.6051C105.35 41.3722 105.005 41.2557 104.542 41.2557C104.062 41.2557 103.686 41.3608 103.413 41.571C103.14 41.7812 102.949 42.0057 102.838 42.2443L101.883 41.9034C102.054 41.5057 102.281 41.196 102.565 40.9744C102.852 40.75 103.164 40.5937 103.502 40.5057C103.843 40.4148 104.179 40.3693 104.508 40.3693C104.718 40.3693 104.96 40.3949 105.233 40.446C105.508 40.4943 105.774 40.5952 106.029 40.7486C106.288 40.902 106.502 41.1335 106.673 41.4432C106.843 41.7528 106.929 42.1676 106.929 42.6875V47H105.923V46.1136H105.872C105.804 46.2557 105.69 46.4077 105.531 46.5696C105.372 46.7315 105.16 46.8693 104.896 46.983C104.632 47.0966 104.309 47.1534 103.929 47.1534ZM104.082 46.25C104.48 46.25 104.815 46.1719 105.088 46.0156C105.363 45.8594 105.571 45.6577 105.71 45.4105C105.852 45.1634 105.923 44.9034 105.923 44.6307V43.7102C105.88 43.7614 105.787 43.8082 105.642 43.8509C105.5 43.8906 105.335 43.9261 105.147 43.9574C104.963 43.9858 104.782 44.0114 104.606 44.0341C104.433 44.054 104.292 44.071 104.184 44.0852C103.923 44.1193 103.679 44.1747 103.451 44.2514C103.227 44.3253 103.045 44.4375 102.906 44.5881C102.77 44.7358 102.701 44.9375 102.701 45.1932C102.701 45.5426 102.831 45.8068 103.089 45.9858C103.35 46.1619 103.681 46.25 104.082 46.25ZM108.764 47V40.4545H109.736V41.4432H109.804C109.923 41.1193 110.139 40.8565 110.452 40.6548C110.764 40.4531 111.116 40.3523 111.509 40.3523C111.582 40.3523 111.675 40.3537 111.786 40.3565C111.896 40.3594 111.98 40.3636 112.037 40.3693V41.392C112.003 41.3835 111.925 41.3707 111.803 41.3537C111.683 41.3338 111.557 41.3239 111.423 41.3239C111.105 41.3239 110.821 41.3906 110.571 41.5241C110.324 41.6548 110.128 41.8366 109.983 42.0696C109.841 42.2997 109.77 42.5625 109.77 42.858V47H108.764ZM116.486 40.4545V41.3068H113.094V40.4545H116.486ZM114.082 38.8864H115.088V45.125C115.088 45.4091 115.129 45.6222 115.212 45.7642C115.297 45.9034 115.405 45.9972 115.536 46.0455C115.669 46.0909 115.81 46.1136 115.957 46.1136C116.068 46.1136 116.159 46.108 116.23 46.0966C116.301 46.0824 116.358 46.071 116.401 46.0625L116.605 46.9659C116.537 46.9915 116.442 47.017 116.32 47.0426C116.197 47.071 116.043 47.0852 115.855 47.0852C115.571 47.0852 115.293 47.0241 115.02 46.902C114.75 46.7798 114.526 46.5938 114.347 46.3438C114.17 46.0938 114.082 45.7784 114.082 45.3977V38.8864ZM119.499 45.8068L119.43 46.267C119.382 46.5909 119.308 46.9375 119.209 47.3068C119.112 47.6761 119.011 48.0241 118.906 48.3509C118.801 48.6776 118.714 48.9375 118.646 49.1307H117.879C117.916 48.9489 117.964 48.7088 118.024 48.4105C118.084 48.1122 118.143 47.7784 118.203 47.4091C118.266 47.0426 118.317 46.6676 118.357 46.2841L118.408 45.8068H119.499ZM129.373 41.9205L128.47 42.1761C128.413 42.0256 128.329 41.8793 128.218 41.7372C128.11 41.5923 127.963 41.473 127.775 41.3793C127.588 41.2855 127.348 41.2386 127.055 41.2386C126.654 41.2386 126.321 41.331 126.054 41.5156C125.789 41.6974 125.657 41.929 125.657 42.2102C125.657 42.4602 125.748 42.6577 125.93 42.8026C126.112 42.9474 126.396 43.0682 126.782 43.1648L127.754 43.4034C128.339 43.5455 128.775 43.7628 129.062 44.0554C129.349 44.3452 129.493 44.7187 129.493 45.1761C129.493 45.5511 129.385 45.8864 129.169 46.1818C128.956 46.4773 128.657 46.7102 128.274 46.8807C127.89 47.0511 127.444 47.1364 126.936 47.1364C126.268 47.1364 125.716 46.9915 125.278 46.7017C124.841 46.4119 124.564 45.9886 124.447 45.4318L125.402 45.1932C125.493 45.5455 125.664 45.8097 125.917 45.9858C126.173 46.1619 126.507 46.25 126.919 46.25C127.387 46.25 127.76 46.1506 128.035 45.9517C128.314 45.75 128.453 45.5085 128.453 45.2273C128.453 45 128.373 44.8097 128.214 44.6562C128.055 44.5 127.811 44.3835 127.481 44.3068L126.39 44.0511C125.791 43.9091 125.35 43.6889 125.069 43.3906C124.791 43.0895 124.652 42.7131 124.652 42.2614C124.652 41.892 124.755 41.5653 124.963 41.2812C125.173 40.9972 125.458 40.7741 125.819 40.6122C126.183 40.4503 126.595 40.3693 127.055 40.3693C127.703 40.3693 128.211 40.5114 128.581 40.7955C128.953 41.0795 129.217 41.4545 129.373 41.9205ZM133.751 47.1364C133.12 47.1364 132.576 46.9972 132.119 46.7188C131.664 46.4375 131.313 46.0455 131.066 45.5426C130.822 45.0369 130.7 44.4489 130.7 43.7784C130.7 43.108 130.822 42.517 131.066 42.0057C131.313 41.4915 131.657 41.0909 132.097 40.804C132.54 40.5142 133.058 40.3693 133.648 40.3693C133.989 40.3693 134.326 40.4261 134.658 40.5398C134.991 40.6534 135.293 40.8381 135.566 41.0938C135.839 41.3466 136.056 41.6818 136.218 42.0994C136.38 42.517 136.461 43.0312 136.461 43.642V44.0682H131.415V43.1989H135.438C135.438 42.8295 135.364 42.5 135.217 42.2102C135.072 41.9205 134.864 41.6918 134.594 41.5241C134.327 41.3565 134.012 41.2727 133.648 41.2727C133.248 41.2727 132.901 41.3722 132.609 41.571C132.319 41.767 132.096 42.0227 131.94 42.3381C131.783 42.6534 131.705 42.9915 131.705 43.3523V43.9318C131.705 44.4261 131.79 44.8452 131.961 45.1889C132.134 45.5298 132.374 45.7898 132.681 45.9688C132.988 46.1449 133.344 46.233 133.751 46.233C134.015 46.233 134.254 46.196 134.467 46.1222C134.683 46.0455 134.869 45.9318 135.025 45.7812C135.181 45.6278 135.302 45.4375 135.387 45.2102L136.359 45.483C136.256 45.8125 136.085 46.1023 135.843 46.3523C135.602 46.5994 135.303 46.7926 134.948 46.9318C134.593 47.0682 134.194 47.1364 133.751 47.1364ZM139.917 47.1534C139.502 47.1534 139.126 47.0753 138.788 46.919C138.45 46.7599 138.181 46.5312 137.982 46.233C137.783 45.9318 137.684 45.5682 137.684 45.142C137.684 44.767 137.758 44.4631 137.906 44.2301C138.053 43.9943 138.251 43.8097 138.498 43.6761C138.745 43.5426 139.018 43.4432 139.316 43.3778C139.617 43.3097 139.92 43.2557 140.224 43.2159C140.621 43.1648 140.944 43.1264 141.191 43.1009C141.441 43.0724 141.623 43.0256 141.737 42.9602C141.853 42.8949 141.911 42.7812 141.911 42.6193V42.5852C141.911 42.1648 141.796 41.8381 141.566 41.6051C141.339 41.3722 140.994 41.2557 140.531 41.2557C140.05 41.2557 139.674 41.3608 139.401 41.571C139.129 41.7812 138.937 42.0057 138.826 42.2443L137.871 41.9034C138.042 41.5057 138.269 41.196 138.553 40.9744C138.84 40.75 139.153 40.5937 139.491 40.5057C139.832 40.4148 140.167 40.3693 140.496 40.3693C140.707 40.3693 140.948 40.3949 141.221 40.446C141.496 40.4943 141.762 40.5952 142.018 40.7486C142.276 40.902 142.491 41.1335 142.661 41.4432C142.832 41.7528 142.917 42.1676 142.917 42.6875V47H141.911V46.1136H141.86C141.792 46.2557 141.678 46.4077 141.519 46.5696C141.36 46.7315 141.148 46.8693 140.884 46.983C140.62 47.0966 140.298 47.1534 139.917 47.1534ZM140.07 46.25C140.468 46.25 140.803 46.1719 141.076 46.0156C141.352 45.8594 141.559 45.6577 141.698 45.4105C141.84 45.1634 141.911 44.9034 141.911 44.6307V43.7102C141.869 43.7614 141.775 43.8082 141.63 43.8509C141.488 43.8906 141.323 43.9261 141.136 43.9574C140.951 43.9858 140.771 44.0114 140.594 44.0341C140.421 44.054 140.281 44.071 140.173 44.0852C139.911 44.1193 139.667 44.1747 139.44 44.2514C139.215 44.3253 139.033 44.4375 138.894 44.5881C138.758 44.7358 138.69 44.9375 138.69 45.1932C138.69 45.5426 138.819 45.8068 139.077 45.9858C139.339 46.1619 139.67 46.25 140.07 46.25ZM144.752 47V40.4545H145.724V41.4773H145.809C145.946 41.1278 146.166 40.8565 146.47 40.6634C146.774 40.4673 147.139 40.3693 147.565 40.3693C147.997 40.3693 148.356 40.4673 148.643 40.6634C148.933 40.8565 149.159 41.1278 149.321 41.4773H149.389C149.556 41.1392 149.808 40.8707 150.143 40.6719C150.478 40.4702 150.88 40.3693 151.349 40.3693C151.934 40.3693 152.413 40.5526 152.785 40.919C153.157 41.2827 153.343 41.8494 153.343 42.6193V47H152.338V42.6193C152.338 42.1364 152.206 41.7912 151.941 41.5838C151.677 41.3764 151.366 41.2727 151.008 41.2727C150.548 41.2727 150.191 41.4119 149.939 41.6903C149.686 41.9659 149.559 42.3153 149.559 42.7386V47H148.537V42.517C148.537 42.1449 148.416 41.8452 148.174 41.6179C147.933 41.3878 147.622 41.2727 147.241 41.2727C146.98 41.2727 146.735 41.3423 146.508 41.4815C146.284 41.6207 146.102 41.8139 145.963 42.0611C145.826 42.3054 145.758 42.5881 145.758 42.9091V47H144.752ZM156.188 38.2727V47H155.182V38.2727H156.188ZM160.774 47.1364C160.143 47.1364 159.599 46.9972 159.142 46.7188C158.688 46.4375 158.337 46.0455 158.089 45.5426C157.845 45.0369 157.723 44.4489 157.723 43.7784C157.723 43.108 157.845 42.517 158.089 42.0057C158.337 41.4915 158.68 41.0909 159.121 40.804C159.564 40.5142 160.081 40.3693 160.672 40.3693C161.013 40.3693 161.349 40.4261 161.682 40.5398C162.014 40.6534 162.317 40.8381 162.589 41.0938C162.862 41.3466 163.08 41.6818 163.241 42.0994C163.403 42.517 163.484 43.0312 163.484 43.642V44.0682H158.439V43.1989H162.462C162.462 42.8295 162.388 42.5 162.24 42.2102C162.095 41.9205 161.888 41.6918 161.618 41.5241C161.351 41.3565 161.036 41.2727 160.672 41.2727C160.271 41.2727 159.925 41.3722 159.632 41.571C159.342 41.767 159.119 42.0227 158.963 42.3381C158.807 42.6534 158.729 42.9915 158.729 43.3523V43.9318C158.729 44.4261 158.814 44.8452 158.984 45.1889C159.158 45.5298 159.398 45.7898 159.705 45.9688C160.011 46.1449 160.368 46.233 160.774 46.233C161.038 46.233 161.277 46.196 161.49 46.1222C161.706 46.0455 161.892 45.9318 162.048 45.7812C162.205 45.6278 162.325 45.4375 162.411 45.2102L163.382 45.483C163.28 45.8125 163.108 46.1023 162.866 46.3523C162.625 46.5994 162.327 46.7926 161.972 46.9318C161.616 47.0682 161.217 47.1364 160.774 47.1364ZM169.651 41.9205L168.747 42.1761C168.69 42.0256 168.607 41.8793 168.496 41.7372C168.388 41.5923 168.24 41.473 168.053 41.3793C167.865 41.2855 167.625 41.2386 167.332 41.2386C166.932 41.2386 166.598 41.331 166.331 41.5156C166.067 41.6974 165.935 41.929 165.935 42.2102C165.935 42.4602 166.026 42.6577 166.207 42.8026C166.389 42.9474 166.673 43.0682 167.06 43.1648L168.031 43.4034C168.616 43.5455 169.053 43.7628 169.339 44.0554C169.626 44.3452 169.77 44.7187 169.77 45.1761C169.77 45.5511 169.662 45.8864 169.446 46.1818C169.233 46.4773 168.935 46.7102 168.551 46.8807C168.168 47.0511 167.722 47.1364 167.213 47.1364C166.545 47.1364 165.993 46.9915 165.555 46.7017C165.118 46.4119 164.841 45.9886 164.724 45.4318L165.679 45.1932C165.77 45.5455 165.942 45.8097 166.195 45.9858C166.45 46.1619 166.784 46.25 167.196 46.25C167.665 46.25 168.037 46.1506 168.312 45.9517C168.591 45.75 168.73 45.5085 168.73 45.2273C168.73 45 168.651 44.8097 168.491 44.6562C168.332 44.5 168.088 44.3835 167.759 44.3068L166.668 44.0511C166.068 43.9091 165.628 43.6889 165.347 43.3906C165.068 43.0895 164.929 42.7131 164.929 42.2614C164.929 41.892 165.033 41.5653 165.24 41.2812C165.45 40.9972 165.736 40.7741 166.097 40.6122C166.46 40.4503 166.872 40.3693 167.332 40.3693C167.98 40.3693 168.489 40.5114 168.858 40.7955C169.23 41.0795 169.494 41.4545 169.651 41.9205ZM175.92 41.9205L175.017 42.1761C174.96 42.0256 174.876 41.8793 174.765 41.7372C174.657 41.5923 174.51 41.473 174.322 41.3793C174.135 41.2855 173.895 41.2386 173.602 41.2386C173.201 41.2386 172.868 41.331 172.6 41.5156C172.336 41.6974 172.204 41.929 172.204 42.2102C172.204 42.4602 172.295 42.6577 172.477 42.8026C172.659 42.9474 172.943 43.0682 173.329 43.1648L174.301 43.4034C174.886 43.5455 175.322 43.7628 175.609 44.0554C175.896 44.3452 176.039 44.7187 176.039 45.1761C176.039 45.5511 175.931 45.8864 175.716 46.1818C175.502 46.4773 175.204 46.7102 174.821 46.8807C174.437 47.0511 173.991 47.1364 173.483 47.1364C172.815 47.1364 172.262 46.9915 171.825 46.7017C171.387 46.4119 171.11 45.9886 170.994 45.4318L171.949 45.1932C172.039 45.5455 172.211 45.8097 172.464 45.9858C172.72 46.1619 173.054 46.25 173.466 46.25C173.934 46.25 174.306 46.1506 174.582 45.9517C174.86 45.75 175 45.5085 175 45.2273C175 45 174.92 44.8097 174.761 44.6562C174.602 44.5 174.358 44.3835 174.028 44.3068L172.937 44.0511C172.338 43.9091 171.897 43.6889 171.616 43.3906C171.338 43.0895 171.199 42.7131 171.199 42.2614C171.199 41.892 171.302 41.5653 171.51 41.2812C171.72 40.9972 172.005 40.7741 172.366 40.6122C172.73 40.4503 173.142 40.3693 173.602 40.3693C174.25 40.3693 174.758 40.5114 175.127 40.7955C175.5 41.0795 175.764 41.4545 175.92 41.9205ZM181.423 47H180.315L183.519 38.2727H184.61L187.815 47H186.707L184.099 39.6534H184.031L181.423 47ZM181.832 43.5909H186.298V44.5284H181.832V43.5909ZM190.231 38.2727V47H189.174V38.2727H190.231ZM195.963 42.7898V43.7273H192.145V42.7898H195.963ZM197.733 49.4545V40.4545H198.705V41.4943H198.824C198.898 41.3807 199 41.2358 199.131 41.0597C199.264 40.8807 199.455 40.7216 199.702 40.5824C199.952 40.4403 200.29 40.3693 200.716 40.3693C201.267 40.3693 201.753 40.5071 202.173 40.7827C202.594 41.0582 202.922 41.4489 203.158 41.9545C203.393 42.4602 203.511 43.0568 203.511 43.7443C203.511 44.4375 203.393 45.0384 203.158 45.5469C202.922 46.0526 202.595 46.4446 202.178 46.723C201.76 46.9986 201.278 47.1364 200.733 47.1364C200.313 47.1364 199.976 47.0668 199.723 46.9276C199.47 46.7855 199.276 46.625 199.139 46.446C199.003 46.2642 198.898 46.1136 198.824 45.9943H198.739V49.4545H197.733ZM198.722 43.7273C198.722 44.2216 198.794 44.6577 198.939 45.0355C199.084 45.4105 199.295 45.7045 199.574 45.9176C199.852 46.1278 200.193 46.233 200.597 46.233C201.017 46.233 201.368 46.1222 201.649 45.9006C201.933 45.6761 202.146 45.375 202.288 44.9972C202.433 44.6165 202.506 44.1932 202.506 43.7273C202.506 43.267 202.435 42.8523 202.293 42.483C202.153 42.1108 201.942 41.8168 201.658 41.6009C201.376 41.3821 201.023 41.2727 200.597 41.2727C200.188 41.2727 199.844 41.3764 199.565 41.5838C199.287 41.7884 199.077 42.0753 198.935 42.4446C198.793 42.8111 198.722 43.2386 198.722 43.7273ZM207.705 47.1364C207.114 47.1364 206.595 46.9957 206.149 46.7145C205.706 46.4332 205.359 46.0398 205.109 45.5341C204.862 45.0284 204.739 44.4375 204.739 43.7614C204.739 43.0795 204.862 42.4844 205.109 41.9759C205.359 41.4673 205.706 41.0724 206.149 40.7912C206.595 40.5099 207.114 40.3693 207.705 40.3693C208.295 40.3693 208.813 40.5099 209.256 40.7912C209.702 41.0724 210.048 41.4673 210.295 41.9759C210.545 42.4844 210.67 43.0795 210.67 43.7614C210.67 44.4375 210.545 45.0284 210.295 45.5341C210.048 46.0398 209.702 46.4332 209.256 46.7145C208.813 46.9957 208.295 47.1364 207.705 47.1364ZM207.705 46.233C208.153 46.233 208.523 46.1179 208.812 45.8878C209.102 45.6577 209.317 45.3551 209.456 44.9801C209.595 44.6051 209.665 44.1989 209.665 43.7614C209.665 43.3239 209.595 42.9162 209.456 42.5384C209.317 42.1605 209.102 41.8551 208.812 41.6222C208.523 41.3892 208.153 41.2727 207.705 41.2727C207.256 41.2727 206.886 41.3892 206.597 41.6222C206.307 41.8551 206.092 42.1605 205.953 42.5384C205.814 42.9162 205.744 43.3239 205.744 43.7614C205.744 44.1989 205.814 44.6051 205.953 44.9801C206.092 45.3551 206.307 45.6577 206.597 45.8878C206.886 46.1179 207.256 46.233 207.705 46.233ZM213.466 47L211.472 40.4545H212.528L213.943 45.4659H214.011L215.409 40.4545H216.483L217.864 45.4489H217.932L219.347 40.4545H220.403L218.409 47H217.42L215.989 41.9716H215.886L214.455 47H213.466ZM224.255 47.1364C223.624 47.1364 223.08 46.9972 222.623 46.7188C222.168 46.4375 221.817 46.0455 221.57 45.5426C221.326 45.0369 221.203 44.4489 221.203 43.7784C221.203 43.108 221.326 42.517 221.57 42.0057C221.817 41.4915 222.161 41.0909 222.601 40.804C223.044 40.5142 223.561 40.3693 224.152 40.3693C224.493 40.3693 224.83 40.4261 225.162 40.5398C225.495 40.6534 225.797 40.8381 226.07 41.0938C226.343 41.3466 226.56 41.6818 226.722 42.0994C226.884 42.517 226.965 43.0312 226.965 43.642V44.0682H221.919V43.1989H225.942C225.942 42.8295 225.868 42.5 225.721 42.2102C225.576 41.9205 225.368 41.6918 225.098 41.5241C224.831 41.3565 224.516 41.2727 224.152 41.2727C223.752 41.2727 223.405 41.3722 223.113 41.571C222.823 41.767 222.6 42.0227 222.444 42.3381C222.287 42.6534 222.209 42.9915 222.209 43.3523V43.9318C222.209 44.4261 222.294 44.8452 222.465 45.1889C222.638 45.5298 222.878 45.7898 223.185 45.9688C223.492 46.1449 223.848 46.233 224.255 46.233C224.519 46.233 224.757 46.196 224.971 46.1222C225.186 46.0455 225.373 45.9318 225.529 45.7812C225.685 45.6278 225.806 45.4375 225.891 45.2102L226.863 45.483C226.76 45.8125 226.588 46.1023 226.347 46.3523C226.105 46.5994 225.807 46.7926 225.452 46.9318C225.097 47.0682 224.698 47.1364 224.255 47.1364ZM228.495 47V40.4545H229.466V41.4432H229.534C229.654 41.1193 229.87 40.8565 230.182 40.6548C230.495 40.4531 230.847 40.3523 231.239 40.3523C231.313 40.3523 231.405 40.3537 231.516 40.3565C231.627 40.3594 231.711 40.3636 231.767 40.3693V41.392C231.733 41.3835 231.655 41.3707 231.533 41.3537C231.414 41.3338 231.287 41.3239 231.154 41.3239C230.836 41.3239 230.551 41.3906 230.301 41.5241C230.054 41.6548 229.858 41.8366 229.713 42.0696C229.571 42.2997 229.5 42.5625 229.5 42.858V47H228.495ZM235.505 47.1364C234.874 47.1364 234.33 46.9972 233.873 46.7188C233.418 46.4375 233.067 46.0455 232.82 45.5426C232.576 45.0369 232.453 44.4489 232.453 43.7784C232.453 43.108 232.576 42.517 232.82 42.0057C233.067 41.4915 233.411 41.0909 233.851 40.804C234.294 40.5142 234.811 40.3693 235.402 40.3693C235.743 40.3693 236.08 40.4261 236.412 40.5398C236.745 40.6534 237.047 40.8381 237.32 41.0938C237.593 41.3466 237.81 41.6818 237.972 42.0994C238.134 42.517 238.215 43.0312 238.215 43.642V44.0682H233.169V43.1989H237.192C237.192 42.8295 237.118 42.5 236.971 42.2102C236.826 41.9205 236.618 41.6918 236.348 41.5241C236.081 41.3565 235.766 41.2727 235.402 41.2727C235.002 41.2727 234.655 41.3722 234.363 41.571C234.073 41.767 233.85 42.0227 233.694 42.3381C233.537 42.6534 233.459 42.9915 233.459 43.3523V43.9318C233.459 44.4261 233.544 44.8452 233.715 45.1889C233.888 45.5298 234.128 45.7898 234.435 45.9688C234.742 46.1449 235.098 46.233 235.505 46.233C235.769 46.233 236.007 46.196 236.221 46.1222C236.436 46.0455 236.623 45.9318 236.779 45.7812C236.935 45.6278 237.056 45.4375 237.141 45.2102L238.113 45.483C238.01 45.8125 237.838 46.1023 237.597 46.3523C237.355 46.5994 237.057 46.7926 236.702 46.9318C236.347 47.0682 235.948 47.1364 235.505 47.1364ZM242.216 47.1364C241.671 47.1364 241.189 46.9986 240.772 46.723C240.354 46.4446 240.027 46.0526 239.792 45.5469C239.556 45.0384 239.438 44.4375 239.438 43.7443C239.438 43.0568 239.556 42.4602 239.792 41.9545C240.027 41.4489 240.355 41.0582 240.776 40.7827C241.196 40.5071 241.682 40.3693 242.233 40.3693C242.659 40.3693 242.996 40.4403 243.243 40.5824C243.493 40.7216 243.684 40.8807 243.814 41.0597C243.948 41.2358 244.051 41.3807 244.125 41.4943H244.211V38.2727H245.216V47H244.245V45.9943H244.125C244.051 46.1136 243.946 46.2642 243.81 46.446C243.674 46.625 243.479 46.7855 243.226 46.9276C242.973 47.0668 242.637 47.1364 242.216 47.1364ZM242.353 46.233C242.756 46.233 243.097 46.1278 243.375 45.9176C243.654 45.7045 243.865 45.4105 244.01 45.0355C244.155 44.6577 244.228 44.2216 244.228 43.7273C244.228 43.2386 244.157 42.8111 244.015 42.4446C243.873 42.0753 243.662 41.7884 243.384 41.5838C243.105 41.3764 242.762 41.2727 242.353 41.2727C241.926 41.2727 241.571 41.3821 241.287 41.6009C241.006 41.8168 240.794 42.1108 240.652 42.483C240.513 42.8523 240.444 43.267 240.444 43.7273C240.444 44.1932 240.515 44.6165 240.657 44.9972C240.801 45.375 241.015 45.6761 241.296 45.9006C241.58 46.1222 241.932 46.233 242.353 46.233ZM85.8466 63.1534C85.4318 63.1534 85.0554 63.0753 84.7173 62.919C84.3793 62.7599 84.1108 62.5312 83.9119 62.233C83.7131 61.9318 83.6136 61.5682 83.6136 61.142C83.6136 60.767 83.6875 60.4631 83.8352 60.2301C83.983 59.9943 84.1804 59.8097 84.4276 59.6761C84.6747 59.5426 84.9474 59.4432 85.2457 59.3778C85.5469 59.3097 85.8494 59.2557 86.1534 59.2159C86.5511 59.1648 86.8736 59.1264 87.1207 59.1009C87.3707 59.0724 87.5526 59.0256 87.6662 58.9602C87.7827 58.8949 87.8409 58.7812 87.8409 58.6193V58.5852C87.8409 58.1648 87.7259 57.8381 87.4957 57.6051C87.2685 57.3722 86.9233 57.2557 86.4602 57.2557C85.9801 57.2557 85.6037 57.3608 85.331 57.571C85.0582 57.7812 84.8665 58.0057 84.7557 58.2443L83.8011 57.9034C83.9716 57.5057 84.1989 57.196 84.483 56.9744C84.7699 56.75 85.0824 56.5937 85.4205 56.5057C85.7614 56.4148 86.0966 56.3693 86.4261 56.3693C86.6364 56.3693 86.8778 56.3949 87.1506 56.446C87.4261 56.4943 87.6918 56.5952 87.9474 56.7486C88.206 56.902 88.4205 57.1335 88.5909 57.4432C88.7614 57.7528 88.8466 58.1676 88.8466 58.6875V63H87.8409V62.1136H87.7898C87.7216 62.2557 87.608 62.4077 87.4489 62.5696C87.2898 62.7315 87.0781 62.8693 86.8139 62.983C86.5497 63.0966 86.2273 63.1534 85.8466 63.1534ZM86 62.25C86.3977 62.25 86.733 62.1719 87.0057 62.0156C87.2813 61.8594 87.4886 61.6577 87.6278 61.4105C87.7699 61.1634 87.8409 60.9034 87.8409 60.6307V59.7102C87.7983 59.7614 87.7045 59.8082 87.5597 59.8509C87.4176 59.8906 87.2528 59.9261 87.0653 59.9574C86.8807 59.9858 86.7003 60.0114 86.5241 60.0341C86.3509 60.054 86.2102 60.071 86.1023 60.0852C85.8409 60.1193 85.5966 60.1747 85.3693 60.2514C85.1449 60.3253 84.9631 60.4375 84.8239 60.5881C84.6875 60.7358 84.6193 60.9375 84.6193 61.1932C84.6193 61.5426 84.7486 61.8068 85.0071 61.9858C85.2685 62.1619 85.5994 62.25 86 62.25ZM93.3413 63.1364C92.7276 63.1364 92.1992 62.9915 91.756 62.7017C91.3129 62.4119 90.9719 62.0128 90.7333 61.5043C90.4947 60.9957 90.3754 60.4148 90.3754 59.7614C90.3754 59.0966 90.4975 58.5099 90.7418 58.0014C90.989 57.4901 91.3327 57.0909 91.7731 56.804C92.2163 56.5142 92.7333 56.3693 93.3242 56.3693C93.7844 56.3693 94.1992 56.4545 94.5685 56.625C94.9379 56.7955 95.2404 57.0341 95.4762 57.3409C95.712 57.6477 95.8583 58.0057 95.9151 58.4148H94.9094C94.8327 58.1165 94.6623 57.8523 94.3981 57.6222C94.1367 57.3892 93.7844 57.2727 93.3413 57.2727C92.9492 57.2727 92.6055 57.375 92.31 57.5795C92.0174 57.7812 91.7887 58.0668 91.6239 58.4361C91.462 58.8026 91.381 59.233 91.381 59.7273C91.381 60.233 91.4606 60.6733 91.6197 61.0483C91.7816 61.4233 92.0089 61.7145 92.3015 61.9219C92.5969 62.1293 92.9435 62.233 93.3413 62.233C93.6026 62.233 93.8398 62.1875 94.0529 62.0966C94.266 62.0057 94.4464 61.875 94.5941 61.7045C94.7418 61.5341 94.8469 61.3295 94.9094 61.0909H95.9151C95.8583 61.4773 95.7177 61.8253 95.4933 62.1349C95.2717 62.4418 94.9776 62.6861 94.6112 62.8679C94.2475 63.0469 93.8242 63.1364 93.3413 63.1364ZM100.044 63.1364C99.4308 63.1364 98.9023 62.9915 98.4592 62.7017C98.016 62.4119 97.6751 62.0128 97.4364 61.5043C97.1978 60.9957 97.0785 60.4148 97.0785 59.7614C97.0785 59.0966 97.2006 58.5099 97.445 58.0014C97.6921 57.4901 98.0359 57.0909 98.4762 56.804C98.9194 56.5142 99.4364 56.3693 100.027 56.3693C100.488 56.3693 100.902 56.4545 101.272 56.625C101.641 56.7955 101.944 57.0341 102.179 57.3409C102.415 57.6477 102.561 58.0057 102.618 58.4148H101.613C101.536 58.1165 101.365 57.8523 101.101 57.6222C100.84 57.3892 100.488 57.2727 100.044 57.2727C99.6523 57.2727 99.3086 57.375 99.0131 57.5795C98.7205 57.7812 98.4918 58.0668 98.3271 58.4361C98.1651 58.8026 98.0842 59.233 98.0842 59.7273C98.0842 60.233 98.1637 60.6733 98.3228 61.0483C98.4847 61.4233 98.712 61.7145 99.0046 61.9219C99.3001 62.1293 99.6467 62.233 100.044 62.233C100.306 62.233 100.543 62.1875 100.756 62.0966C100.969 62.0057 101.15 61.875 101.297 61.7045C101.445 61.5341 101.55 61.3295 101.613 61.0909H102.618C102.561 61.4773 102.421 61.8253 102.196 62.1349C101.975 62.4418 101.681 62.6861 101.314 62.8679C100.951 63.0469 100.527 63.1364 100.044 63.1364ZM106.833 63.1364C106.202 63.1364 105.658 62.9972 105.201 62.7188C104.746 62.4375 104.395 62.0455 104.148 61.5426C103.904 61.0369 103.782 60.4489 103.782 59.7784C103.782 59.108 103.904 58.517 104.148 58.0057C104.395 57.4915 104.739 57.0909 105.179 56.804C105.623 56.5142 106.14 56.3693 106.73 56.3693C107.071 56.3693 107.408 56.4261 107.74 56.5398C108.073 56.6534 108.375 56.8381 108.648 57.0938C108.921 57.3466 109.138 57.6818 109.3 58.0994C109.462 58.517 109.543 59.0312 109.543 59.642V60.0682H104.498V59.1989H108.52C108.52 58.8295 108.446 58.5 108.299 58.2102C108.154 57.9205 107.946 57.6918 107.676 57.5241C107.409 57.3565 107.094 57.2727 106.73 57.2727C106.33 57.2727 105.983 57.3722 105.691 57.571C105.401 57.767 105.178 58.0227 105.022 58.3381C104.865 58.6534 104.787 58.9915 104.787 59.3523V59.9318C104.787 60.4261 104.873 60.8452 105.043 61.1889C105.216 61.5298 105.456 61.7898 105.763 61.9688C106.07 62.1449 106.426 62.233 106.833 62.233C107.097 62.233 107.336 62.196 107.549 62.1222C107.765 62.0455 107.951 61.9318 108.107 61.7812C108.263 61.6278 108.384 61.4375 108.469 61.2102L109.441 61.483C109.338 61.8125 109.167 62.1023 108.925 62.3523C108.684 62.5994 108.385 62.7926 108.03 62.9318C107.675 63.0682 107.276 63.1364 106.833 63.1364ZM115.709 57.9205L114.806 58.1761C114.749 58.0256 114.665 57.8793 114.554 57.7372C114.446 57.5923 114.299 57.473 114.111 57.3793C113.924 57.2855 113.684 57.2386 113.391 57.2386C112.99 57.2386 112.657 57.331 112.39 57.5156C112.125 57.6974 111.993 57.929 111.993 58.2102C111.993 58.4602 112.084 58.6577 112.266 58.8026C112.448 58.9474 112.732 59.0682 113.118 59.1648L114.09 59.4034C114.675 59.5455 115.111 59.7628 115.398 60.0554C115.685 60.3452 115.828 60.7187 115.828 61.1761C115.828 61.5511 115.721 61.8864 115.505 62.1818C115.292 62.4773 114.993 62.7102 114.61 62.8807C114.226 63.0511 113.78 63.1364 113.272 63.1364C112.604 63.1364 112.051 62.9915 111.614 62.7017C111.176 62.4119 110.9 61.9886 110.783 61.4318L111.738 61.1932C111.828 61.5455 112 61.8097 112.253 61.9858C112.509 62.1619 112.843 62.25 113.255 62.25C113.723 62.25 114.096 62.1506 114.371 61.9517C114.65 61.75 114.789 61.5085 114.789 61.2273C114.789 61 114.709 60.8097 114.55 60.6562C114.391 60.5 114.147 60.3835 113.817 60.3068L112.726 60.0511C112.127 59.9091 111.686 59.6889 111.405 59.3906C111.127 59.0895 110.988 58.7131 110.988 58.2614C110.988 57.892 111.091 57.5653 111.299 57.2812C111.509 56.9972 111.794 56.7741 112.155 56.6122C112.519 56.4503 112.931 56.3693 113.391 56.3693C114.039 56.3693 114.547 56.5114 114.917 56.7955C115.289 57.0795 115.553 57.4545 115.709 57.9205ZM121.979 57.9205L121.075 58.1761C121.018 58.0256 120.935 57.8793 120.824 57.7372C120.716 57.5923 120.568 57.473 120.381 57.3793C120.193 57.2855 119.953 57.2386 119.661 57.2386C119.26 57.2386 118.926 57.331 118.659 57.5156C118.395 57.6974 118.263 57.929 118.263 58.2102C118.263 58.4602 118.354 58.6577 118.536 58.8026C118.717 58.9474 119.001 59.0682 119.388 59.1648L120.359 59.4034C120.945 59.5455 121.381 59.7628 121.668 60.0554C121.955 60.3452 122.098 60.7187 122.098 61.1761C122.098 61.5511 121.99 61.8864 121.774 62.1818C121.561 62.4773 121.263 62.7102 120.879 62.8807C120.496 63.0511 120.05 63.1364 119.541 63.1364C118.874 63.1364 118.321 62.9915 117.884 62.7017C117.446 62.4119 117.169 61.9886 117.053 61.4318L118.007 61.1932C118.098 61.5455 118.27 61.8097 118.523 61.9858C118.778 62.1619 119.112 62.25 119.524 62.25C119.993 62.25 120.365 62.1506 120.641 61.9517C120.919 61.75 121.058 61.5085 121.058 61.2273C121.058 61 120.979 60.8097 120.82 60.6562C120.661 60.5 120.416 60.3835 120.087 60.3068L118.996 60.0511C118.396 59.9091 117.956 59.6889 117.675 59.3906C117.396 59.0895 117.257 58.7131 117.257 58.2614C117.257 57.892 117.361 57.5653 117.568 57.2812C117.778 56.9972 118.064 56.7741 118.425 56.6122C118.788 56.4503 119.2 56.3693 119.661 56.3693C120.308 56.3693 120.817 56.5114 121.186 56.7955C121.558 57.0795 121.822 57.4545 121.979 57.9205ZM129.646 63.1364C129.032 63.1364 128.504 62.9915 128.061 62.7017C127.618 62.4119 127.277 62.0128 127.038 61.5043C126.799 60.9957 126.68 60.4148 126.68 59.7614C126.68 59.0966 126.802 58.5099 127.047 58.0014C127.294 57.4901 127.637 57.0909 128.078 56.804C128.521 56.5142 129.038 56.3693 129.629 56.3693C130.089 56.3693 130.504 56.4545 130.873 56.625C131.243 56.7955 131.545 57.0341 131.781 57.3409C132.017 57.6477 132.163 58.0057 132.22 58.4148H131.214C131.137 58.1165 130.967 57.8523 130.703 57.6222C130.441 57.3892 130.089 57.2727 129.646 57.2727C129.254 57.2727 128.91 57.375 128.615 57.5795C128.322 57.7812 128.093 58.0668 127.929 58.4361C127.767 58.8026 127.686 59.233 127.686 59.7273C127.686 60.233 127.765 60.6733 127.924 61.0483C128.086 61.4233 128.314 61.7145 128.606 61.9219C128.902 62.1293 129.248 62.233 129.646 62.233C129.907 62.233 130.145 62.1875 130.358 62.0966C130.571 62.0057 130.751 61.875 130.899 61.7045C131.047 61.5341 131.152 61.3295 131.214 61.0909H132.22C132.163 61.4773 132.022 61.8253 131.798 62.1349C131.576 62.4418 131.282 62.6861 130.916 62.8679C130.552 63.0469 130.129 63.1364 129.646 63.1364ZM136.349 63.1364C135.758 63.1364 135.24 62.9957 134.794 62.7145C134.35 62.4332 134.004 62.0398 133.754 61.5341C133.507 61.0284 133.383 60.4375 133.383 59.7614C133.383 59.0795 133.507 58.4844 133.754 57.9759C134.004 57.4673 134.35 57.0724 134.794 56.7912C135.24 56.5099 135.758 56.3693 136.349 56.3693C136.94 56.3693 137.457 56.5099 137.9 56.7912C138.346 57.0724 138.693 57.4673 138.94 57.9759C139.19 58.4844 139.315 59.0795 139.315 59.7614C139.315 60.4375 139.19 61.0284 138.94 61.5341C138.693 62.0398 138.346 62.4332 137.9 62.7145C137.457 62.9957 136.94 63.1364 136.349 63.1364ZM136.349 62.233C136.798 62.233 137.167 62.1179 137.457 61.8878C137.747 61.6577 137.961 61.3551 138.1 60.9801C138.24 60.6051 138.309 60.1989 138.309 59.7614C138.309 59.3239 138.24 58.9162 138.1 58.5384C137.961 58.1605 137.747 57.8551 137.457 57.6222C137.167 57.3892 136.798 57.2727 136.349 57.2727C135.9 57.2727 135.531 57.3892 135.241 57.6222C134.951 57.8551 134.737 58.1605 134.598 58.5384C134.458 58.9162 134.389 59.3239 134.389 59.7614C134.389 60.1989 134.458 60.6051 134.598 60.9801C134.737 61.3551 134.951 61.6577 135.241 61.8878C135.531 62.1179 135.9 62.233 136.349 62.233ZM141.856 59.0625V63H140.85V56.4545H141.822V57.4773H141.907C142.06 57.1449 142.293 56.8778 142.606 56.6761C142.918 56.4716 143.322 56.3693 143.816 56.3693C144.259 56.3693 144.647 56.4602 144.979 56.642C145.312 56.821 145.57 57.0938 145.755 57.4602C145.94 57.8239 146.032 58.2841 146.032 58.8409V63H145.026V58.9091C145.026 58.3949 144.893 57.9943 144.626 57.7074C144.359 57.4176 143.992 57.2727 143.526 57.2727C143.205 57.2727 142.918 57.3423 142.665 57.4815C142.415 57.6207 142.218 57.8239 142.073 58.0909C141.928 58.358 141.856 58.6818 141.856 59.0625ZM150.716 56.4545V57.3068H147.324V56.4545H150.716ZM148.313 54.8864H149.319V61.125C149.319 61.4091 149.36 61.6222 149.442 61.7642C149.527 61.9034 149.635 61.9972 149.766 62.0455C149.9 62.0909 150.04 62.1136 150.188 62.1136C150.299 62.1136 150.39 62.108 150.461 62.0966C150.532 62.0824 150.588 62.071 150.631 62.0625L150.836 62.9659C150.767 62.9915 150.672 63.017 150.55 63.0426C150.428 63.071 150.273 63.0852 150.086 63.0852C149.801 63.0852 149.523 63.0241 149.25 62.902C148.98 62.7798 148.756 62.5938 148.577 62.3438C148.401 62.0938 148.313 61.7784 148.313 61.3977V54.8864ZM152.229 63V56.4545H153.201V57.4432H153.269C153.388 57.1193 153.604 56.8565 153.917 56.6548C154.229 56.4531 154.581 56.3523 154.973 56.3523C155.047 56.3523 155.14 56.3537 155.25 56.3565C155.361 56.3594 155.445 56.3636 155.502 56.3693V57.392C155.468 57.3835 155.39 57.3707 155.267 57.3537C155.148 57.3338 155.022 57.3239 154.888 57.3239C154.57 57.3239 154.286 57.3906 154.036 57.5241C153.789 57.6548 153.593 57.8366 153.448 58.0696C153.306 58.2997 153.235 58.5625 153.235 58.858V63H152.229ZM159.154 63.1364C158.563 63.1364 158.044 62.9957 157.598 62.7145C157.155 62.4332 156.809 62.0398 156.559 61.5341C156.311 61.0284 156.188 60.4375 156.188 59.7614C156.188 59.0795 156.311 58.4844 156.559 57.9759C156.809 57.4673 157.155 57.0724 157.598 56.7912C158.044 56.5099 158.563 56.3693 159.154 56.3693C159.745 56.3693 160.262 56.5099 160.705 56.7912C161.151 57.0724 161.498 57.4673 161.745 57.9759C161.995 58.4844 162.12 59.0795 162.12 59.7614C162.12 60.4375 161.995 61.0284 161.745 61.5341C161.498 62.0398 161.151 62.4332 160.705 62.7145C160.262 62.9957 159.745 63.1364 159.154 63.1364ZM159.154 62.233C159.603 62.233 159.972 62.1179 160.262 61.8878C160.551 61.6577 160.766 61.3551 160.905 60.9801C161.044 60.6051 161.114 60.1989 161.114 59.7614C161.114 59.3239 161.044 58.9162 160.905 58.5384C160.766 58.1605 160.551 57.8551 160.262 57.6222C159.972 57.3892 159.603 57.2727 159.154 57.2727C158.705 57.2727 158.336 57.3892 158.046 57.6222C157.756 57.8551 157.542 58.1605 157.402 58.5384C157.263 58.9162 157.194 59.3239 157.194 59.7614C157.194 60.1989 157.263 60.6051 157.402 60.9801C157.542 61.3551 157.756 61.6577 158.046 61.8878C158.336 62.1179 158.705 62.233 159.154 62.233ZM164.661 54.2727V63H163.655V54.2727H164.661Z" fill="#555555"/>
<path d="M85.2628 27H83.2855L86.2983 18.2727H88.6761L91.6847 27H89.7074L87.5213 20.267H87.4531L85.2628 27ZM85.1392 23.5696H89.8097V25.0099H85.1392V23.5696ZM95.3537 27.1278C94.6832 27.1278 94.1065 26.9858 93.6236 26.7017C93.1435 26.4148 92.7741 26.017 92.5156 25.5085C92.2599 25 92.1321 24.4148 92.1321 23.7528C92.1321 23.0824 92.2614 22.4943 92.5199 21.9886C92.7813 21.4801 93.152 21.0838 93.6321 20.7997C94.1122 20.5128 94.6832 20.3693 95.3452 20.3693C95.9162 20.3693 96.4162 20.473 96.8452 20.6804C97.2741 20.8878 97.6136 21.179 97.8636 21.554C98.1136 21.929 98.2514 22.3693 98.277 22.875H96.5639C96.5156 22.5483 96.3878 22.2855 96.1804 22.0866C95.9759 21.8849 95.7074 21.7841 95.375 21.7841C95.0938 21.7841 94.848 21.8608 94.6378 22.0142C94.4304 22.1648 94.2685 22.3849 94.152 22.6747C94.0355 22.9645 93.9773 23.3153 93.9773 23.7273C93.9773 24.1449 94.0341 24.5 94.1477 24.7926C94.2642 25.0852 94.4276 25.3082 94.6378 25.4616C94.848 25.6151 95.0938 25.6918 95.375 25.6918C95.5824 25.6918 95.7685 25.6491 95.9332 25.5639C96.1009 25.4787 96.2386 25.3551 96.3466 25.1932C96.4574 25.0284 96.5298 24.831 96.5639 24.6009H98.277C98.2486 25.1009 98.1122 25.5412 97.8679 25.9219C97.6264 26.2997 97.2926 26.5952 96.8665 26.8082C96.4403 27.0213 95.9361 27.1278 95.3537 27.1278ZM102.397 27.1278C101.726 27.1278 101.15 26.9858 100.667 26.7017C100.186 26.4148 99.8171 26.017 99.5586 25.5085C99.3029 25 99.1751 24.4148 99.1751 23.7528C99.1751 23.0824 99.3043 22.4943 99.5629 21.9886C99.8242 21.4801 100.195 21.0838 100.675 20.7997C101.155 20.5128 101.726 20.3693 102.388 20.3693C102.959 20.3693 103.459 20.473 103.888 20.6804C104.317 20.8878 104.657 21.179 104.907 21.554C105.157 21.929 105.294 22.3693 105.32 22.875H103.607C103.559 22.5483 103.431 22.2855 103.223 22.0866C103.019 21.8849 102.75 21.7841 102.418 21.7841C102.137 21.7841 101.891 21.8608 101.681 22.0142C101.473 22.1648 101.311 22.3849 101.195 22.6747C101.078 22.9645 101.02 23.3153 101.02 23.7273C101.02 24.1449 101.077 24.5 101.191 24.7926C101.307 25.0852 101.471 25.3082 101.681 25.4616C101.891 25.6151 102.137 25.6918 102.418 25.6918C102.625 25.6918 102.811 25.6491 102.976 25.5639C103.144 25.4787 103.282 25.3551 103.39 25.1932C103.5 25.0284 103.573 24.831 103.607 24.6009H105.32C105.292 25.1009 105.155 25.5412 104.911 25.9219C104.669 26.2997 104.336 26.5952 103.909 26.8082C103.483 27.0213 102.979 27.1278 102.397 27.1278ZM109.465 27.1278C108.792 27.1278 108.212 26.9915 107.727 26.7188C107.244 26.4432 106.871 26.054 106.61 25.5511C106.349 25.0455 106.218 24.4474 106.218 23.7571C106.218 23.0838 106.349 22.4929 106.61 21.9844C106.871 21.4759 107.239 21.0795 107.714 20.7955C108.191 20.5114 108.751 20.3693 109.393 20.3693C109.825 20.3693 110.227 20.4389 110.599 20.5781C110.974 20.7145 111.3 20.9205 111.579 21.196C111.86 21.4716 112.079 21.8182 112.235 22.2358C112.391 22.6506 112.469 23.1364 112.469 23.6932V24.1918H106.942V23.0668H110.761C110.761 22.8054 110.704 22.5739 110.59 22.3722C110.477 22.1705 110.319 22.0128 110.117 21.8991C109.918 21.7827 109.687 21.7244 109.423 21.7244C109.147 21.7244 108.903 21.7884 108.69 21.9162C108.479 22.0412 108.315 22.2102 108.195 22.4233C108.076 22.6335 108.015 22.8679 108.012 23.1264V24.196C108.012 24.5199 108.072 24.7997 108.191 25.0355C108.313 25.2713 108.485 25.4531 108.707 25.581C108.928 25.7088 109.191 25.7727 109.495 25.7727C109.697 25.7727 109.881 25.7443 110.049 25.6875C110.217 25.6307 110.36 25.5455 110.479 25.4318C110.599 25.3182 110.69 25.179 110.752 25.0142L112.431 25.125C112.346 25.5284 112.171 25.8807 111.907 26.1818C111.646 26.4801 111.308 26.7131 110.893 26.8807C110.481 27.0455 110.005 27.1278 109.465 27.1278ZM119.1 22.321L117.438 22.4233C117.41 22.2812 117.349 22.1534 117.255 22.0398C117.161 21.9233 117.038 21.831 116.884 21.7628C116.734 21.6918 116.553 21.6562 116.343 21.6562C116.062 21.6562 115.825 21.7159 115.631 21.8352C115.438 21.9517 115.342 22.108 115.342 22.304C115.342 22.4602 115.404 22.5923 115.529 22.7003C115.654 22.8082 115.869 22.8949 116.173 22.9602L117.357 23.1989C117.994 23.3295 118.468 23.5398 118.781 23.8295C119.093 24.1193 119.249 24.5 119.249 24.9716C119.249 25.4006 119.123 25.777 118.87 26.1009C118.62 26.4247 118.276 26.6776 117.839 26.8594C117.404 27.0384 116.903 27.1278 116.335 27.1278C115.468 27.1278 114.778 26.9474 114.263 26.5866C113.752 26.223 113.452 25.7287 113.364 25.1037L115.15 25.0099C115.204 25.2741 115.335 25.4759 115.542 25.6151C115.749 25.7514 116.015 25.8196 116.339 25.8196C116.657 25.8196 116.913 25.7585 117.106 25.6364C117.302 25.5114 117.401 25.3509 117.404 25.1548C117.401 24.9901 117.332 24.8551 117.195 24.75C117.059 24.642 116.849 24.5597 116.565 24.5028L115.431 24.277C114.792 24.1491 114.316 23.9276 114.004 23.6122C113.694 23.2969 113.539 22.8949 113.539 22.4062C113.539 21.9858 113.653 21.6236 113.88 21.3196C114.11 21.0156 114.433 20.7812 114.847 20.6165C115.265 20.4517 115.754 20.3693 116.313 20.3693C117.14 20.3693 117.79 20.544 118.265 20.8935C118.742 21.2429 119.021 21.7187 119.1 22.321ZM125.838 22.321L124.176 22.4233C124.148 22.2812 124.087 22.1534 123.993 22.0398C123.9 21.9233 123.776 21.831 123.623 21.7628C123.472 21.6918 123.292 21.6562 123.081 21.6562C122.8 21.6562 122.563 21.7159 122.37 21.8352C122.176 21.9517 122.08 22.108 122.08 22.304C122.08 22.4602 122.142 22.5923 122.267 22.7003C122.392 22.8082 122.607 22.8949 122.911 22.9602L124.096 23.1989C124.732 23.3295 125.206 23.5398 125.519 23.8295C125.831 24.1193 125.988 24.5 125.988 24.9716C125.988 25.4006 125.861 25.777 125.608 26.1009C125.358 26.4247 125.015 26.6776 124.577 26.8594C124.142 27.0384 123.641 27.1278 123.073 27.1278C122.206 27.1278 121.516 26.9474 121.002 26.5866C120.49 26.223 120.191 25.7287 120.103 25.1037L121.888 25.0099C121.942 25.2741 122.073 25.4759 122.28 25.6151C122.488 25.7514 122.753 25.8196 123.077 25.8196C123.395 25.8196 123.651 25.7585 123.844 25.6364C124.04 25.5114 124.14 25.3509 124.142 25.1548C124.14 24.9901 124.07 24.8551 123.934 24.75C123.797 24.642 123.587 24.5597 123.303 24.5028L122.169 24.277C121.53 24.1491 121.054 23.9276 120.742 23.6122C120.432 23.2969 120.277 22.8949 120.277 22.4062C120.277 21.9858 120.391 21.6236 120.618 21.3196C120.848 21.0156 121.171 20.7812 121.586 20.6165C122.003 20.4517 122.492 20.3693 123.051 20.3693C123.878 20.3693 124.529 20.544 125.003 20.8935C125.48 21.2429 125.759 21.7187 125.838 22.321ZM137.642 21.3281H135.776C135.742 21.0866 135.672 20.8722 135.567 20.6847C135.462 20.4943 135.327 20.3324 135.162 20.1989C134.998 20.0653 134.807 19.9631 134.591 19.892C134.378 19.821 134.147 19.7855 133.897 19.7855C133.445 19.7855 133.051 19.8977 132.716 20.1222C132.381 20.3437 132.121 20.6676 131.936 21.0938C131.752 21.517 131.659 22.0312 131.659 22.6364C131.659 23.2585 131.752 23.7812 131.936 24.2045C132.124 24.6278 132.385 24.9474 132.721 25.1634C133.056 25.3793 133.444 25.4872 133.884 25.4872C134.131 25.4872 134.36 25.4545 134.57 25.3892C134.783 25.3239 134.972 25.2287 135.137 25.1037C135.301 24.9759 135.438 24.821 135.546 24.6392C135.657 24.4574 135.733 24.25 135.776 24.017L137.642 24.0256C137.594 24.4261 137.473 24.8125 137.28 25.1847C137.09 25.554 136.833 25.8849 136.509 26.1776C136.188 26.4673 135.804 26.6974 135.358 26.8679C134.915 27.0355 134.414 27.1193 133.854 27.1193C133.076 27.1193 132.38 26.9432 131.766 26.5909C131.155 26.2386 130.672 25.7287 130.317 25.0611C129.965 24.3935 129.789 23.5852 129.789 22.6364C129.789 21.6847 129.968 20.875 130.326 20.2074C130.684 19.5398 131.169 19.0312 131.783 18.6818C132.397 18.3295 133.087 18.1534 133.854 18.1534C134.36 18.1534 134.828 18.2244 135.26 18.3665C135.695 18.5085 136.08 18.7159 136.415 18.9886C136.75 19.2585 137.023 19.5895 137.233 19.9815C137.446 20.3736 137.583 20.8224 137.642 21.3281ZM141.889 27.1278C141.227 27.1278 140.654 26.9872 140.172 26.706C139.691 26.4219 139.321 26.027 139.059 25.5213C138.798 25.0128 138.667 24.4233 138.667 23.7528C138.667 23.0767 138.798 22.4858 139.059 21.9801C139.321 21.4716 139.691 21.0767 140.172 20.7955C140.654 20.5114 141.227 20.3693 141.889 20.3693C142.551 20.3693 143.122 20.5114 143.602 20.7955C144.085 21.0767 144.457 21.4716 144.718 21.9801C144.98 22.4858 145.11 23.0767 145.11 23.7528C145.11 24.4233 144.98 25.0128 144.718 25.5213C144.457 26.027 144.085 26.4219 143.602 26.706C143.122 26.9872 142.551 27.1278 141.889 27.1278ZM141.897 25.7216C142.199 25.7216 142.45 25.6364 142.652 25.4659C142.853 25.2926 143.005 25.0568 143.108 24.7585C143.213 24.4602 143.265 24.1207 143.265 23.7401C143.265 23.3594 143.213 23.0199 143.108 22.7216C143.005 22.4233 142.853 22.1875 142.652 22.0142C142.45 21.8409 142.199 21.7543 141.897 21.7543C141.593 21.7543 141.338 21.8409 141.13 22.0142C140.926 22.1875 140.771 22.4233 140.666 22.7216C140.564 23.0199 140.512 23.3594 140.512 23.7401C140.512 24.1207 140.564 24.4602 140.666 24.7585C140.771 25.0568 140.926 25.2926 141.13 25.4659C141.338 25.6364 141.593 25.7216 141.897 25.7216ZM148.106 23.2159V27H146.291V20.4545H148.021V21.6094H148.098C148.243 21.2287 148.485 20.9276 148.826 20.706C149.167 20.4815 149.581 20.3693 150.066 20.3693C150.521 20.3693 150.917 20.4688 151.255 20.6676C151.593 20.8665 151.856 21.1506 152.044 21.5199C152.231 21.8864 152.325 22.3239 152.325 22.8324V27H150.51V23.1562C150.512 22.7557 150.41 22.4432 150.203 22.2188C149.995 21.9915 149.71 21.8778 149.346 21.8778C149.102 21.8778 148.886 21.9304 148.699 22.0355C148.514 22.1406 148.369 22.294 148.264 22.4957C148.162 22.6946 148.109 22.9347 148.106 23.2159ZM157.237 20.4545V21.8182H153.295V20.4545H157.237ZM154.19 18.8864H156.006V24.9886C156.006 25.1562 156.031 25.2869 156.082 25.3807C156.134 25.4716 156.205 25.5355 156.295 25.5724C156.389 25.6094 156.497 25.6278 156.619 25.6278C156.705 25.6278 156.79 25.6207 156.875 25.6065C156.96 25.5895 157.026 25.5767 157.071 25.5682L157.357 26.919C157.266 26.9474 157.138 26.9801 156.973 27.017C156.808 27.0568 156.608 27.081 156.372 27.0895C155.935 27.1065 155.551 27.0483 155.222 26.9148C154.895 26.7812 154.641 26.5739 154.459 26.2926C154.277 26.0114 154.188 25.6562 154.19 25.2273V18.8864ZM158.42 27V20.4545H160.18V21.5966H160.248C160.367 21.1903 160.567 20.8835 160.849 20.6761C161.13 20.4659 161.454 20.3608 161.82 20.3608C161.911 20.3608 162.009 20.3665 162.114 20.3778C162.219 20.3892 162.312 20.4048 162.391 20.4247V22.0355C162.306 22.0099 162.188 21.9872 162.038 21.9673C161.887 21.9474 161.749 21.9375 161.624 21.9375C161.357 21.9375 161.119 21.9957 160.908 22.1122C160.701 22.2259 160.536 22.3849 160.414 22.5895C160.295 22.794 160.235 23.0298 160.235 23.2969V27H158.42ZM165.983 27.1278C165.321 27.1278 164.748 26.9872 164.265 26.706C163.785 26.4219 163.414 26.027 163.153 25.5213C162.892 25.0128 162.761 24.4233 162.761 23.7528C162.761 23.0767 162.892 22.4858 163.153 21.9801C163.414 21.4716 163.785 21.0767 164.265 20.7955C164.748 20.5114 165.321 20.3693 165.983 20.3693C166.645 20.3693 167.216 20.5114 167.696 20.7955C168.179 21.0767 168.551 21.4716 168.812 21.9801C169.074 22.4858 169.204 23.0767 169.204 23.7528C169.204 24.4233 169.074 25.0128 168.812 25.5213C168.551 26.027 168.179 26.4219 167.696 26.706C167.216 26.9872 166.645 27.1278 165.983 27.1278ZM165.991 25.7216C166.292 25.7216 166.544 25.6364 166.745 25.4659C166.947 25.2926 167.099 25.0568 167.201 24.7585C167.306 24.4602 167.359 24.1207 167.359 23.7401C167.359 23.3594 167.306 23.0199 167.201 22.7216C167.099 22.4233 166.947 22.1875 166.745 22.0142C166.544 21.8409 166.292 21.7543 165.991 21.7543C165.687 21.7543 165.431 21.8409 165.224 22.0142C165.02 22.1875 164.865 22.4233 164.76 22.7216C164.657 23.0199 164.606 23.3594 164.606 23.7401C164.606 24.1207 164.657 24.4602 164.76 24.7585C164.865 25.0568 165.02 25.2926 165.224 25.4659C165.431 25.6364 165.687 25.7216 165.991 25.7216ZM172.2 18.2727V27H170.385V18.2727H172.2ZM181.2 20.7827C181.166 20.4389 181.02 20.1719 180.761 19.9815C180.502 19.7912 180.152 19.696 179.708 19.696C179.407 19.696 179.153 19.7386 178.946 19.8239C178.738 19.9062 178.579 20.0213 178.468 20.169C178.36 20.3168 178.306 20.4844 178.306 20.6719C178.301 20.8281 178.333 20.9645 178.404 21.081C178.478 21.1974 178.579 21.2983 178.707 21.3835C178.835 21.4659 178.983 21.5384 179.15 21.6009C179.318 21.6605 179.497 21.7116 179.687 21.7543L180.471 21.9418C180.852 22.027 181.201 22.1406 181.52 22.2827C181.838 22.4247 182.113 22.5994 182.346 22.8068C182.579 23.0142 182.76 23.2585 182.887 23.5398C183.018 23.821 183.085 24.1435 183.088 24.5071C183.085 25.0412 182.949 25.5043 182.679 25.8963C182.412 26.2855 182.025 26.5881 181.52 26.804C181.017 27.017 180.41 27.1236 179.7 27.1236C178.995 27.1236 178.382 27.0156 177.859 26.7997C177.339 26.5838 176.933 26.2642 176.64 25.8409C176.35 25.4148 176.199 24.8878 176.184 24.2599H177.97C177.99 24.5526 178.074 24.7969 178.221 24.9929C178.372 25.1861 178.572 25.3324 178.822 25.4318C179.075 25.5284 179.36 25.5767 179.679 25.5767C179.991 25.5767 180.262 25.5312 180.493 25.4403C180.725 25.3494 180.906 25.223 181.034 25.0611C181.162 24.8991 181.225 24.7131 181.225 24.5028C181.225 24.3068 181.167 24.142 181.051 24.0085C180.937 23.875 180.77 23.7614 180.548 23.6676C180.329 23.5739 180.061 23.4886 179.743 23.4119L178.792 23.1733C178.056 22.9943 177.475 22.7145 177.049 22.3338C176.623 21.9531 176.412 21.4403 176.414 20.7955C176.412 20.267 176.552 19.8054 176.836 19.4105C177.123 19.0156 177.517 18.7074 178.017 18.4858C178.517 18.2642 179.085 18.1534 179.721 18.1534C180.369 18.1534 180.934 18.2642 181.417 18.4858C181.903 18.7074 182.281 19.0156 182.551 19.4105C182.821 19.8054 182.96 20.2628 182.968 20.7827H181.2ZM187.252 27.1278C186.59 27.1278 186.018 26.9872 185.535 26.706C185.055 26.4219 184.684 26.027 184.423 25.5213C184.161 25.0128 184.031 24.4233 184.031 23.7528C184.031 23.0767 184.161 22.4858 184.423 21.9801C184.684 21.4716 185.055 21.0767 185.535 20.7955C186.018 20.5114 186.59 20.3693 187.252 20.3693C187.914 20.3693 188.485 20.5114 188.965 20.7955C189.448 21.0767 189.82 21.4716 190.082 21.9801C190.343 22.4858 190.474 23.0767 190.474 23.7528C190.474 24.4233 190.343 25.0128 190.082 25.5213C189.82 26.027 189.448 26.4219 188.965 26.706C188.485 26.9872 187.914 27.1278 187.252 27.1278ZM187.261 25.7216C187.562 25.7216 187.813 25.6364 188.015 25.4659C188.217 25.2926 188.369 25.0568 188.471 24.7585C188.576 24.4602 188.629 24.1207 188.629 23.7401C188.629 23.3594 188.576 23.0199 188.471 22.7216C188.369 22.4233 188.217 22.1875 188.015 22.0142C187.813 21.8409 187.562 21.7543 187.261 21.7543C186.957 21.7543 186.701 21.8409 186.494 22.0142C186.289 22.1875 186.134 22.4233 186.029 22.7216C185.927 23.0199 185.876 23.3594 185.876 23.7401C185.876 24.1207 185.927 24.4602 186.029 24.7585C186.134 25.0568 186.289 25.2926 186.494 25.4659C186.701 25.6364 186.957 25.7216 187.261 25.7216ZM193.469 18.2727V27H191.654V18.2727H193.469ZM199.121 24.2131V20.4545H200.936V27H199.194V25.8111H199.125C198.978 26.1946 198.732 26.5028 198.388 26.7358C198.047 26.9687 197.631 27.0852 197.14 27.0852C196.702 27.0852 196.317 26.9858 195.985 26.7869C195.652 26.5881 195.392 26.3054 195.205 25.9389C195.02 25.5724 194.926 25.1335 194.924 24.6222V20.4545H196.739V24.2983C196.742 24.6847 196.846 24.9901 197.05 25.2145C197.255 25.4389 197.529 25.5511 197.873 25.5511C198.091 25.5511 198.296 25.5014 198.486 25.402C198.676 25.2997 198.83 25.1491 198.946 24.9503C199.066 24.7514 199.124 24.5057 199.121 24.2131ZM205.87 20.4545V21.8182H201.928V20.4545H205.87ZM202.823 18.8864H204.638V24.9886C204.638 25.1562 204.664 25.2869 204.715 25.3807C204.766 25.4716 204.837 25.5355 204.928 25.5724C205.022 25.6094 205.13 25.6278 205.252 25.6278C205.337 25.6278 205.423 25.6207 205.508 25.6065C205.593 25.5895 205.658 25.5767 205.704 25.5682L205.989 26.919C205.898 26.9474 205.771 26.9801 205.606 27.017C205.441 27.0568 205.241 27.081 205.005 27.0895C204.567 27.1065 204.184 27.0483 203.854 26.9148C203.528 26.7812 203.273 26.5739 203.092 26.2926C202.91 26.0114 202.82 25.6562 202.823 25.2273V18.8864ZM207.053 27V20.4545H208.868V27H207.053ZM207.964 19.6108C207.695 19.6108 207.463 19.5213 207.27 19.3423C207.08 19.1605 206.984 18.9432 206.984 18.6903C206.984 18.4403 207.08 18.2259 207.27 18.0469C207.463 17.8651 207.695 17.7741 207.964 17.7741C208.234 17.7741 208.464 17.8651 208.655 18.0469C208.848 18.2259 208.945 18.4403 208.945 18.6903C208.945 18.9432 208.848 19.1605 208.655 19.3423C208.464 19.5213 208.234 19.6108 207.964 19.6108ZM213.279 27.1278C212.618 27.1278 212.045 26.9872 211.562 26.706C211.082 26.4219 210.711 26.027 210.45 25.5213C210.189 25.0128 210.058 24.4233 210.058 23.7528C210.058 23.0767 210.189 22.4858 210.45 21.9801C210.711 21.4716 211.082 21.0767 211.562 20.7955C212.045 20.5114 212.618 20.3693 213.279 20.3693C213.941 20.3693 214.512 20.5114 214.993 20.7955C215.475 21.0767 215.848 21.4716 216.109 21.9801C216.37 22.4858 216.501 23.0767 216.501 23.7528C216.501 24.4233 216.37 25.0128 216.109 25.5213C215.848 26.027 215.475 26.4219 214.993 26.706C214.512 26.9872 213.941 27.1278 213.279 27.1278ZM213.288 25.7216C213.589 25.7216 213.841 25.6364 214.042 25.4659C214.244 25.2926 214.396 25.0568 214.498 24.7585C214.603 24.4602 214.656 24.1207 214.656 23.7401C214.656 23.3594 214.603 23.0199 214.498 22.7216C214.396 22.4233 214.244 22.1875 214.042 22.0142C213.841 21.8409 213.589 21.7543 213.288 21.7543C212.984 21.7543 212.728 21.8409 212.521 22.0142C212.316 22.1875 212.162 22.4233 212.056 22.7216C211.954 23.0199 211.903 23.3594 211.903 23.7401C211.903 24.1207 211.954 24.4602 212.056 24.7585C212.162 25.0568 212.316 25.2926 212.521 25.4659C212.728 25.6364 212.984 25.7216 213.288 25.7216ZM219.497 23.2159V27H217.681V20.4545H219.412V21.6094H219.488C219.633 21.2287 219.876 20.9276 220.217 20.706C220.558 20.4815 220.971 20.3693 221.457 20.3693C221.912 20.3693 222.308 20.4688 222.646 20.6676C222.984 20.8665 223.247 21.1506 223.434 21.5199C223.622 21.8864 223.716 22.3239 223.716 22.8324V27H221.9V23.1562C221.903 22.7557 221.801 22.4432 221.593 22.2188C221.386 21.9915 221.1 21.8778 220.737 21.8778C220.493 21.8778 220.277 21.9304 220.089 22.0355C219.904 22.1406 219.76 22.294 219.654 22.4957C219.552 22.6946 219.5 22.9347 219.497 23.2159Z" fill="#555555"/>
<defs>
<clipPath id="clip0_1002_192777">
<rect width="38" height="38" fill="white" transform="translate(23 23)"/>
</clipPath>
</defs>
</svg>
