<svg width="100" height="100" viewBox="0 0 100 100" fill="none" xmlns="http://www.w3.org/2000/svg">
<path d="M35.4557 8.19096C36.1878 8.05716 36.9168 8.051 37.6427 7.99871C41.1092 7.75418 44.5773 7.50658 48.0438 7.26205C49.2526 7.17746 50.4629 7.09749 51.6717 7.01597C51.7533 7.00982 51.8517 6.96215 51.8994 7.06826C51.9501 7.18207 51.8532 7.26051 51.8025 7.33894C51.2827 8.15097 50.7582 8.95992 50.2307 9.76734C49.1849 11.3699 48.1376 12.9724 47.0902 14.5734C45.8707 16.4405 44.6449 18.3029 43.4376 20.1776C43.2608 20.4514 43.2116 20.4283 43.0532 20.1715C42.3749 19.0673 41.669 17.9799 40.9877 16.8772C40.8554 16.6635 40.7355 16.6988 40.5709 16.7942C39.4805 17.4324 38.3901 18.0722 37.2967 18.7043C35.445 19.7747 33.5871 20.8359 31.7339 21.9063C30.2298 22.7752 28.7319 23.6565 27.2262 24.5239C25.3484 25.6081 23.4568 26.6677 21.5897 27.7689C20.6131 28.3441 19.5596 28.8024 18.6953 29.5483C17.6141 30.4803 16.9205 31.6722 16.9159 33.1025C16.8882 44.1064 16.8775 55.1103 16.9236 66.1158C16.9313 67.9121 17.9186 69.2947 19.4689 70.219C20.9484 71.1003 22.4479 71.9508 23.9412 72.8105C26.0559 74.0285 28.1736 75.2404 30.2867 76.4585C32.1399 77.5273 33.9886 78.6054 35.8402 79.6758C37.6796 80.7401 39.522 81.7982 41.363 82.8609C43.0916 83.859 44.8095 84.874 46.5473 85.8568C47.3794 86.3274 48.1776 86.878 49.1726 86.9933C50.2661 87.1194 51.3242 87.0579 52.3054 86.5104C54.8014 85.1201 57.2606 83.6637 59.7321 82.2288C62.7495 80.4771 65.7916 78.7684 68.8151 77.0275C70.8437 75.8587 72.8538 74.6591 74.8792 73.4841C76.817 72.3598 78.7856 71.2879 80.6988 70.1252C82.1429 69.2471 82.9565 67.9291 83.1103 66.2096C83.2733 64.3933 83.181 62.577 83.1841 60.7623C83.1995 51.7792 83.1933 42.7976 83.1887 33.8145C83.1887 31.9167 82.512 30.3111 80.9187 29.2192C79.9621 28.564 78.9132 28.0411 77.9074 27.4582C75.236 25.9095 72.5692 24.3562 69.8948 22.8121C66.7866 21.0189 63.6646 19.2457 60.5626 17.4401C58.5033 16.2421 56.404 15.1101 54.4093 13.7998C53.8479 13.4307 53.5788 12.8786 53.4773 12.2542C53.1958 10.5071 54.3032 8.93224 56.0333 8.56314C56.6301 8.43549 57.1453 8.66157 57.6374 8.9384C58.6263 9.49513 59.6014 10.078 60.5841 10.6455C62.548 11.7805 64.5151 12.9124 66.4805 14.0474C68.4091 15.1609 70.3346 16.2774 72.2632 17.3894C74.2656 18.5443 76.288 19.6686 78.2719 20.8543C80.4281 22.1447 82.7166 23.2212 84.7328 24.7376C86.9782 26.4263 88.3085 28.6917 88.8329 31.4507C88.9621 32.1351 89.0006 32.8164 88.999 33.5085C88.9959 44.3402 89.0082 55.1703 88.9883 66.002C88.9836 68.3505 88.2454 70.479 86.829 72.3722C85.7355 73.8347 84.3191 74.8821 82.7504 75.7756C80.2159 77.2182 77.7044 78.6992 75.1791 80.1587C71.971 82.0135 68.7613 83.8621 65.5516 85.7138C62.1928 87.6516 58.837 89.5955 55.472 91.5256C54.1863 92.2638 52.7821 92.656 51.318 92.8452C48.6912 93.1835 46.292 92.533 44.0313 91.2088C41.6767 89.8293 39.2975 88.4897 36.9352 87.124C34.6468 85.803 32.3645 84.468 30.0776 83.1439C27.9768 81.9274 25.8744 80.7155 23.772 79.5036C21.3344 78.0964 18.8737 76.7276 16.4622 75.2742C13.5201 73.4995 11.7238 70.9111 11.1656 67.4907C11.061 66.8494 11.0041 66.2112 11.0056 65.5622C11.0087 54.7305 10.9795 43.9003 11.0302 33.0686C11.041 30.7402 11.8253 28.5886 13.291 26.7323C14.4706 25.2375 15.9609 24.1363 17.6311 23.2381C19.1352 22.4292 20.5916 21.5295 22.0711 20.6744C23.5506 19.8193 25.0331 18.9688 26.5126 18.1153C28.2797 17.0956 30.0437 16.0744 31.8108 15.0548C33.5764 14.0351 35.3419 13.0155 37.109 11.9943C37.1582 11.9651 37.2075 11.9343 37.2597 11.9112C37.5827 11.7682 37.6611 11.6067 37.4335 11.2699C36.7599 10.2703 36.1278 9.24444 35.4511 8.18634L35.4557 8.19096Z" fill="#F89823"/>
<path d="M58.8438 55.7548C58.8438 53.3295 58.8361 50.9041 58.8453 48.4788C58.8577 45.6259 60.9323 43.0868 63.7206 42.4901C67.7392 41.6288 71.358 44.4925 71.3826 48.6018C71.4118 53.3941 71.4088 58.1878 71.3826 62.98C71.3642 66.1974 69.0496 68.8042 65.8737 69.1671C61.7782 69.6347 58.8161 66.3989 58.8407 62.9877C58.8576 60.5778 58.8438 58.1663 58.8438 55.7548ZM62.7317 55.7194C62.7317 58.074 62.7348 60.427 62.7286 62.7816C62.7286 63.1769 62.7779 63.5552 62.9593 63.912C63.4469 64.8732 64.4604 65.3515 65.5292 65.1208C66.5335 64.904 67.2932 63.9781 67.2979 62.8447C67.3132 58.0786 67.3055 53.3141 67.2994 48.548C67.2994 48.1728 67.2194 47.8052 67.0349 47.4669C66.532 46.5456 65.4908 46.0535 64.5234 46.2857C63.4376 46.5456 62.7394 47.4069 62.7348 48.528C62.7271 50.9257 62.7317 53.3218 62.7317 55.7194Z" fill="#231F20"/>
<path d="M48.0631 53.6801C48.1739 53.7216 48.2246 53.6263 48.2815 53.5755C50.3716 51.7377 54.8208 52.1852 55.8082 56.23C55.9943 56.9897 56.0942 57.7587 56.0912 58.5415C56.085 60.2025 56.1358 61.865 56.0589 63.5214C55.9343 66.2128 54.0411 68.4643 51.5081 69.0579C48.1 69.8561 44.7873 67.5938 44.2737 64.1273C44.2244 63.7967 44.1921 63.4691 44.1921 63.1369C44.1921 58.2262 44.186 53.3171 44.1937 48.4081C44.1983 45.4783 46.0531 43.1314 48.8521 42.4778C52.1371 41.7103 55.4391 43.9373 55.9897 47.2838C56.0773 47.8144 56.0819 48.345 56.0973 48.8787C56.1035 49.1001 56.045 49.177 55.8113 49.1739C54.6271 49.1616 53.4428 49.1647 52.2586 49.1739C52.0495 49.1755 51.9818 49.114 51.991 48.9063C52.0079 48.5326 52.0018 48.1589 51.9095 47.7883C51.6696 46.8255 50.9729 46.238 50.044 46.2319C49.0766 46.2242 48.3646 46.7886 48.1231 47.7744C48.0616 48.0251 48.0262 48.2866 48.0247 48.5449C48.0155 50.1905 48.0201 51.8377 48.0216 53.4832C48.0216 53.5494 47.9893 53.6278 48.0601 53.6801H48.0631ZM51.9941 60.487C51.9941 59.6642 51.9895 58.8414 51.9956 58.0202C51.9987 57.6972 51.9357 57.3896 51.8219 57.0928C51.4927 56.2315 50.8407 55.7594 49.9963 55.7671C49.1474 55.7748 48.5045 56.2531 48.1954 57.1235C48.0754 57.4634 48.017 57.8187 48.0185 58.1832C48.0216 59.7273 48.0155 61.2714 48.0247 62.8154C48.0247 63.0877 48.0554 63.3645 48.117 63.629C48.383 64.7886 49.3842 65.3992 50.5361 65.1177C51.3513 64.9194 51.9726 64.0489 51.9895 63.04C52.0049 62.1895 51.9926 61.3375 51.9926 60.4855L51.9941 60.487Z" fill="#231F20"/>
<path d="M38.214 55.0626C38.7261 55.3887 39.1798 55.6932 39.5551 56.0915C40.504 57.0973 41.2406 58.2262 41.3575 59.6411C41.479 61.1083 41.5667 62.5908 41.2929 64.0427C40.7793 66.7633 38.6877 68.6795 35.8702 69.1271C32.9819 69.5854 30.2382 68.0797 29.0863 65.4068C28.6911 64.4887 28.5742 63.5244 28.5973 62.5339C28.6003 62.3724 28.648 62.3002 28.8126 62.2879C29.9353 62.2048 31.0564 62.1187 32.1776 62.0249C32.3975 62.0064 32.3637 62.1633 32.379 62.274C32.4236 62.6016 32.436 62.9353 32.4944 63.2614C32.6836 64.321 33.3787 65.03 34.4491 65.1561C35.6718 65.3007 36.899 64.8977 37.2989 63.792C37.3835 63.5597 37.4435 63.3244 37.4589 63.0799C37.5219 62.0849 37.5588 61.0852 37.4158 60.0978C37.1528 58.2769 35.8517 57.1681 33.9262 57.065C33.4853 57.0414 33.2649 56.8046 33.2649 56.3545C33.2649 55.5886 33.2772 54.8242 33.2587 54.0584C33.2526 53.7769 33.2941 53.6554 33.6202 53.6585C34.0354 53.6616 34.4522 53.5862 34.8551 53.4709C36.3885 53.0279 37.2174 51.9637 37.5204 50.4396C37.6849 49.6106 37.6572 48.7694 37.5942 47.9374C37.5065 46.7824 36.7483 46.0426 35.6687 45.975C34.3384 45.8934 33.4956 46.4794 33.1926 47.6898C33.0696 48.1865 33.0619 48.691 33.0803 49.1954C33.0896 49.4353 33.0234 49.5214 32.7697 49.5184C31.6716 49.5045 30.575 49.5122 29.477 49.5138C29.3232 49.5138 29.2047 49.5199 29.2017 49.2984C29.1801 47.7174 29.3893 46.1887 30.2767 44.8338C31.5901 42.8299 33.5356 42.1409 35.8117 42.3762C38.7046 42.6745 40.5332 44.3355 41.0069 47.1961C41.3468 49.2446 41.3191 51.3147 40.1226 53.1725C39.6381 53.923 39.0183 54.5382 38.2124 55.0642L38.214 55.0626Z" fill="#231F20"/>
<path d="M37.5203 38.4822C36.984 38.5427 36.6083 38.3499 36.393 37.9039C36.0884 37.2703 35.7732 36.6428 35.4825 36.003C35.3856 35.7893 35.2703 35.7078 35.0303 35.7108C33.9922 35.7247 32.9526 35.7262 31.9145 35.7108C31.6699 35.7078 31.5561 35.8 31.4608 36.0077C31.1501 36.6859 30.7933 37.3441 30.5165 38.0347C30.3565 38.4361 30.1412 38.6037 29.7229 38.5253C29.6276 38.5068 29.5276 38.5222 29.3938 38.5222C30.6042 35.9615 31.7945 33.4424 32.9849 30.9217C33.0895 30.7018 33.1864 30.4788 33.2955 30.2604C33.3371 30.1773 33.3478 30.0589 33.4786 30.0466C33.6462 30.0312 33.6462 30.1835 33.6893 30.2742C34.4198 31.8306 35.1441 33.3901 35.8701 34.948C36.4145 36.1153 36.9604 37.2826 37.5203 38.4837V38.4822ZM33.4893 31.7445C32.9864 32.8041 32.5189 33.7838 32.059 34.7665C31.9914 34.9126 32.0744 34.9742 32.2236 34.9742C33.0618 34.9726 33.8984 34.9726 34.7366 34.9742C34.9042 34.9742 34.9934 34.928 34.9073 34.7465C34.449 33.7746 33.9892 32.8041 33.4893 31.746V31.7445Z" fill="#231F20"/>
<path d="M58.312 35.4155C57.4892 35.4155 56.6648 35.434 55.8436 35.4078C55.4514 35.3955 55.4145 35.5662 55.476 35.8784C55.699 37.0104 56.3896 37.7978 57.4369 37.97C58.5396 38.1515 59.4454 37.7747 60.096 36.835C60.1929 36.6951 60.2236 36.4598 60.5374 36.609C60.9049 36.7843 60.9234 36.935 60.7081 37.258C59.893 38.476 58.3904 38.9974 56.8894 38.5545C55.6467 38.1869 54.7271 36.9242 54.6978 35.5493C54.6625 33.8638 55.6375 32.5273 57.1508 32.1828C59.184 31.7214 61.0049 33.0717 61.1664 35.151C61.1864 35.414 61.0664 35.4217 60.8696 35.4201C60.0176 35.4125 59.1655 35.4171 58.3135 35.4171L58.312 35.4155ZM57.9367 34.8034C58.5996 34.8034 59.2655 34.7804 59.9268 34.8127C60.3528 34.8326 60.3313 34.6635 60.216 34.362C59.8499 33.4024 58.8872 32.7564 57.8598 32.7918C56.7987 32.8287 55.9528 33.49 55.6098 34.502C55.5037 34.8127 55.6437 34.8065 55.8605 34.805C56.5526 34.8004 57.2462 34.805 57.9383 34.805L57.9367 34.8034Z" fill="#231F20"/>
<path d="M45.1331 33.527C45.0393 33.5885 44.947 33.6331 44.8732 33.7008C44.6456 33.9084 44.5041 33.8438 44.2919 33.6285C43.4798 32.8042 42.4786 32.5981 41.3928 32.9241C40.3532 33.2363 39.7334 33.9622 39.5412 35.0403C39.2889 36.4614 40.4916 37.9194 41.9926 38.0101C42.9031 38.0655 43.6936 37.8055 44.3365 37.1381C44.5133 36.9551 45.0285 37.0596 45.1008 37.2903C45.1316 37.3903 45.0378 37.438 44.987 37.4995C44.4626 38.1439 43.7736 38.5115 42.9646 38.6299C41.7589 38.8052 40.6316 38.6345 39.7273 37.7256C38.743 36.7367 38.5169 35.5602 38.9906 34.2714C39.475 32.9534 40.4885 32.2551 41.8604 32.129C43.0923 32.0168 44.2088 32.3028 45.0162 33.3425C45.0593 33.3978 45.0931 33.4609 45.1346 33.527H45.1331Z" fill="#231F20"/>
<path d="M53.1116 33.5178C53.0454 33.5639 52.9947 33.5947 52.9516 33.6316C52.6748 33.873 52.481 33.8715 52.1919 33.5701C51.4014 32.7442 50.0587 32.5565 48.9914 33.0487C48.0456 33.4855 47.4104 34.4851 47.4889 35.5125C47.5704 36.5906 48.1071 37.4072 49.1237 37.8025C50.2633 38.2454 51.3245 38.047 52.2426 37.2057C52.3687 37.0904 52.4364 36.8428 52.7209 37.035C53.1377 37.318 53.1469 37.2949 52.807 37.6687C51.3737 39.2435 47.7534 39.1574 46.8829 36.4168C46.2201 34.3313 47.7688 32.1798 49.9588 32.1136C51.0061 32.0813 51.9612 32.2905 52.7301 33.0533C52.8701 33.1933 52.9839 33.3594 53.1116 33.5178Z" fill="#231F20"/>
<path d="M67.7376 37.3256C68.0421 37.5855 68.3358 37.8562 68.7495 37.95C69.337 38.0838 69.966 37.8085 70.1967 37.2902C70.4151 36.7996 70.2459 36.3521 69.6938 35.9707C69.2201 35.6431 68.668 35.4478 68.2174 35.0833C67.6776 34.6481 67.4484 34.0959 67.5807 33.4039C67.7083 32.738 68.1205 32.3227 68.7572 32.1628C69.5708 31.9582 70.249 32.272 70.8503 32.8087C71.0272 32.9671 70.8673 33.044 70.7858 33.0948C70.6489 33.1793 70.6012 33.5238 70.329 33.2778C70.0906 33.0625 69.8184 32.9102 69.5077 32.8256C69.031 32.6949 68.5065 32.9133 68.2943 33.3347C68.1021 33.7161 68.2235 34.1421 68.6296 34.4774C69.154 34.9095 69.8169 35.1202 70.3444 35.5539C71.0703 36.1522 71.2025 37.1995 70.6304 37.95C70.0921 38.6575 69.1617 38.8882 68.2528 38.5344C68.119 38.4821 67.9882 38.4191 67.8652 38.3468C67.1731 37.9393 67.1685 37.8824 67.7391 37.3225L67.7376 37.3256Z" fill="#231F20"/>
<path d="M66.0901 32.9226C66.0117 33.0072 65.9271 33.0841 65.861 33.1733C65.701 33.3871 65.5734 33.3855 65.355 33.2056C64.9736 32.8919 64.5399 32.655 64.0093 32.8503C63.2742 33.1195 63.1096 33.8331 63.6617 34.3852C64.0139 34.7374 64.4753 34.9173 64.8952 35.1649C65.3704 35.4448 65.8333 35.7463 66.0163 36.3076C66.227 36.9597 66.1101 37.5564 65.6564 38.0762C65.1351 38.6745 64.4522 38.7652 63.7233 38.6407C63.368 38.5791 63.0435 38.4161 62.7544 38.1931C62.3576 37.884 62.3668 37.8486 62.6944 37.4795C62.8466 37.3073 62.9174 37.358 63.0543 37.4841C63.5018 37.8932 64.0108 38.1424 64.6276 37.9163C65.0259 37.7702 65.3119 37.4949 65.3858 37.0535C65.4581 36.6213 65.2843 36.2845 64.9321 36.0569C64.4507 35.7447 63.9401 35.4802 63.4618 35.1634C62.8236 34.7404 62.5498 34.1314 62.7128 33.3748C62.9374 32.3305 64.0431 31.8107 65.0966 32.2413C65.4719 32.3951 65.8025 32.6242 66.0917 32.9226H66.0901Z" fill="#231F20"/>
</svg>
