<svg width="269" height="94" viewBox="0 0 269 94" fill="none" xmlns="http://www.w3.org/2000/svg">
<rect width="269" height="94" rx="8" fill="white" fill-opacity="0.5"/>
<rect x="0.5" y="0.5" width="268" height="93" rx="7.5" stroke="white" stroke-opacity="0.5"/>
<path fill-rule="evenodd" clip-rule="evenodd" d="M249.233 69.0482C249.482 68.8097 249.878 68.8186 250.116 69.0681L252.241 71.2903C252.472 71.5319 252.472 71.9125 252.241 72.1541L250.116 74.3763C249.878 74.6258 249.482 74.6347 249.233 74.3962C248.983 74.1577 248.974 73.7621 249.213 73.5126L250.924 71.7222L249.213 69.9319C248.974 69.6824 248.983 69.2867 249.233 69.0482Z" fill="#F89721"/>
<path fill-rule="evenodd" clip-rule="evenodd" d="M240.542 71.7222C240.542 71.377 240.822 71.0972 241.167 71.0972H251.789C252.134 71.0972 252.414 71.377 252.414 71.7222C252.414 72.0674 252.134 72.3472 251.789 72.3472H241.167C240.822 72.3472 240.542 72.0674 240.542 71.7222Z" fill="#F89721"/>
<rect x="13" y="13" width="58" height="58" rx="7" fill="white" stroke="#555555" stroke-width="2"/>
<g clip-path="url(#clip0_1002_193512)">
<path d="M35.6667 48.3333V40.4166M42 48.3333V35.6666M48.3334 48.3333V45.1666M51.5 29.3333H32.5C31.6602 29.3333 30.8547 29.6669 30.2609 30.2608C29.667 30.8547 29.3334 31.6601 29.3334 32.5V51.5C29.3334 52.3398 29.667 53.1453 30.2609 53.7391C30.8547 54.333 31.6602 54.6666 32.5 54.6666H51.5C52.3399 54.6666 53.1453 54.333 53.7392 53.7391C54.3331 53.1453 54.6667 52.3398 54.6667 51.5V32.5C54.6667 31.6601 54.3331 30.8547 53.7392 30.2608C53.1453 29.6669 52.3399 29.3333 51.5 29.3333Z" stroke="#555555" stroke-width="2" stroke-linecap="round" stroke-linejoin="round"/>
<rect x="24" y="48" width="12" height="12" rx="6" fill="#F89721"/>
</g>
<path d="M84.0568 47V38.2727H89.3239V39.2102H85.1136V42.1591H89.0511V43.0966H85.1136V46.0625H89.392V47H84.0568ZM92.098 38.2727V47H91.0923V38.2727H92.098ZM96.6843 47.1364C96.0536 47.1364 95.5096 46.9972 95.0522 46.7188C94.5977 46.4375 94.2468 46.0455 93.9996 45.5426C93.7553 45.0369 93.6332 44.4489 93.6332 43.7784C93.6332 43.108 93.7553 42.517 93.9996 42.0057C94.2468 41.4915 94.5906 41.0909 95.0309 40.804C95.4741 40.5142 95.9911 40.3693 96.582 40.3693C96.9229 40.3693 97.2596 40.4261 97.592 40.5398C97.9244 40.6534 98.2269 40.8381 98.4996 41.0938C98.7724 41.3466 98.9897 41.6818 99.1516 42.0994C99.3136 42.517 99.3945 43.0312 99.3945 43.642V44.0682H94.3491V43.1989H98.3718C98.3718 42.8295 98.2979 42.5 98.1502 42.2102C98.0053 41.9205 97.7979 41.6918 97.5281 41.5241C97.261 41.3565 96.9457 41.2727 96.582 41.2727C96.1815 41.2727 95.8349 41.3722 95.5423 41.571C95.2525 41.767 95.0295 42.0227 94.8732 42.3381C94.717 42.6534 94.6388 42.9915 94.6388 43.3523V43.9318C94.6388 44.4261 94.7241 44.8452 94.8945 45.1889C95.0678 45.5298 95.3079 45.7898 95.6147 45.9688C95.9215 46.1449 96.2781 46.233 96.6843 46.233C96.9485 46.233 97.1871 46.196 97.4002 46.1222C97.6161 46.0455 97.8022 45.9318 97.9585 45.7812C98.1147 45.6278 98.2354 45.4375 98.3207 45.2102L99.2923 45.483C99.19 45.8125 99.0181 46.1023 98.7766 46.3523C98.5352 46.5994 98.2369 46.7926 97.8817 46.9318C97.5266 47.0682 97.1275 47.1364 96.6843 47.1364ZM106.077 40.4545L103.657 47H102.634L100.214 40.4545H101.305L103.112 45.6705H103.18L104.987 40.4545H106.077ZM109.132 47.1534C108.717 47.1534 108.341 47.0753 108.002 46.919C107.664 46.7599 107.396 46.5312 107.197 46.233C106.998 45.9318 106.899 45.5682 106.899 45.142C106.899 44.767 106.973 44.4631 107.12 44.2301C107.268 43.9943 107.466 43.8097 107.713 43.6761C107.96 43.5426 108.233 43.4432 108.531 43.3778C108.832 43.3097 109.135 43.2557 109.439 43.2159C109.836 43.1648 110.159 43.1264 110.406 43.1009C110.656 43.0724 110.838 43.0256 110.951 42.9602C111.068 42.8949 111.126 42.7812 111.126 42.6193V42.5852C111.126 42.1648 111.011 41.8381 110.781 41.6051C110.554 41.3722 110.208 41.2557 109.745 41.2557C109.265 41.2557 108.889 41.3608 108.616 41.571C108.343 41.7812 108.152 42.0057 108.041 42.2443L107.086 41.9034C107.257 41.5057 107.484 41.196 107.768 40.9744C108.055 40.75 108.368 40.5937 108.706 40.5057C109.047 40.4148 109.382 40.3693 109.711 40.3693C109.922 40.3693 110.163 40.3949 110.436 40.446C110.711 40.4943 110.977 40.5952 111.233 40.7486C111.491 40.902 111.706 41.1335 111.876 41.4432C112.047 41.7528 112.132 42.1676 112.132 42.6875V47H111.126V46.1136H111.075C111.007 46.2557 110.893 46.4077 110.734 46.5696C110.575 46.7315 110.363 46.8693 110.099 46.983C109.835 47.0966 109.512 47.1534 109.132 47.1534ZM109.285 46.25C109.683 46.25 110.018 46.1719 110.291 46.0156C110.566 45.8594 110.774 45.6577 110.913 45.4105C111.055 45.1634 111.126 44.9034 111.126 44.6307V43.7102C111.083 43.7614 110.99 43.8082 110.845 43.8509C110.703 43.8906 110.538 43.9261 110.35 43.9574C110.166 43.9858 109.985 44.0114 109.809 44.0341C109.636 44.054 109.495 44.071 109.387 44.0852C109.126 44.1193 108.882 44.1747 108.654 44.2514C108.43 44.3253 108.248 44.4375 108.109 44.5881C107.973 44.7358 107.904 44.9375 107.904 45.1932C107.904 45.5426 108.034 45.8068 108.292 45.9858C108.554 46.1619 108.885 46.25 109.285 46.25ZM116.814 40.4545V41.3068H113.422V40.4545H116.814ZM114.411 38.8864H115.416V45.125C115.416 45.4091 115.457 45.6222 115.54 45.7642C115.625 45.9034 115.733 45.9972 115.864 46.0455C115.997 46.0909 116.138 46.1136 116.286 46.1136C116.396 46.1136 116.487 46.108 116.558 46.0966C116.629 46.0824 116.686 46.071 116.729 46.0625L116.933 46.9659C116.865 46.9915 116.77 47.017 116.648 47.0426C116.526 47.071 116.371 47.0852 116.183 47.0852C115.899 47.0852 115.621 47.0241 115.348 46.902C115.078 46.7798 114.854 46.5938 114.675 46.3438C114.499 46.0938 114.411 45.7784 114.411 45.3977V38.8864ZM118.327 47V40.4545H119.332V47H118.327ZM118.838 39.3636C118.642 39.3636 118.473 39.2969 118.331 39.1634C118.192 39.0298 118.122 38.8693 118.122 38.6818C118.122 38.4943 118.192 38.3338 118.331 38.2003C118.473 38.0668 118.642 38 118.838 38C119.034 38 119.202 38.0668 119.341 38.2003C119.483 38.3338 119.554 38.4943 119.554 38.6818C119.554 38.8693 119.483 39.0298 119.341 39.1634C119.202 39.2969 119.034 39.3636 118.838 39.3636ZM122.18 43.0625V47H121.174V40.4545H122.146V41.4773H122.231C122.385 41.1449 122.618 40.8778 122.93 40.6761C123.243 40.4716 123.646 40.3693 124.14 40.3693C124.583 40.3693 124.971 40.4602 125.304 40.642C125.636 40.821 125.895 41.0938 126.079 41.4602C126.264 41.8239 126.356 42.2841 126.356 42.8409V47H125.35V42.9091C125.35 42.3949 125.217 41.9943 124.95 41.7074C124.683 41.4176 124.316 41.2727 123.85 41.2727C123.529 41.2727 123.243 41.3423 122.99 41.4815C122.74 41.6207 122.542 41.8239 122.397 42.0909C122.252 42.358 122.18 42.6818 122.18 43.0625ZM130.836 49.5909C130.35 49.5909 129.933 49.5284 129.583 49.4034C129.234 49.2812 128.942 49.1193 128.71 48.9176C128.479 48.7188 128.296 48.5057 128.16 48.2784L128.961 47.7159C129.052 47.8352 129.167 47.9716 129.306 48.125C129.445 48.2812 129.636 48.4162 129.877 48.5298C130.121 48.6463 130.441 48.7045 130.836 48.7045C131.364 48.7045 131.8 48.5767 132.144 48.321C132.488 48.0653 132.66 47.6648 132.66 47.1193V45.7898H132.575C132.501 45.9091 132.396 46.0568 132.259 46.233C132.126 46.4062 131.933 46.5611 131.68 46.6974C131.43 46.831 131.092 46.8977 130.665 46.8977C130.137 46.8977 129.663 46.7727 129.242 46.5227C128.825 46.2727 128.494 45.9091 128.249 45.4318C128.008 44.9545 127.887 44.375 127.887 43.6932C127.887 43.0227 128.005 42.4389 128.241 41.9418C128.477 41.4418 128.805 41.0554 129.225 40.7827C129.646 40.5071 130.131 40.3693 130.683 40.3693C131.109 40.3693 131.447 40.4403 131.697 40.5824C131.95 40.7216 132.143 40.8807 132.276 41.0597C132.413 41.2358 132.518 41.3807 132.592 41.4943H132.694V40.4545H133.665V47.1875C133.665 47.75 133.538 48.2074 133.282 48.5597C133.029 48.9148 132.688 49.1747 132.259 49.3395C131.833 49.5071 131.359 49.5909 130.836 49.5909ZM130.802 45.9943C131.205 45.9943 131.546 45.902 131.825 45.7173C132.103 45.5327 132.315 45.267 132.46 44.9205C132.604 44.5739 132.677 44.1591 132.677 43.6761C132.677 43.2045 132.606 42.7884 132.464 42.4276C132.322 42.0668 132.112 41.7841 131.833 41.5795C131.555 41.375 131.211 41.2727 130.802 41.2727C130.376 41.2727 130.021 41.3807 129.737 41.5966C129.455 41.8125 129.244 42.1023 129.102 42.4659C128.962 42.8295 128.893 43.233 128.893 43.6761C128.893 44.1307 128.964 44.5327 129.106 44.8821C129.251 45.2287 129.464 45.5014 129.745 45.7003C130.029 45.8963 130.381 45.9943 130.802 45.9943ZM143.518 41.9205L142.614 42.1761C142.558 42.0256 142.474 41.8793 142.363 41.7372C142.255 41.5923 142.107 41.473 141.92 41.3793C141.732 41.2855 141.492 41.2386 141.2 41.2386C140.799 41.2386 140.465 41.331 140.198 41.5156C139.934 41.6974 139.802 41.929 139.802 42.2102C139.802 42.4602 139.893 42.6577 140.075 42.8026C140.256 42.9474 140.54 43.0682 140.927 43.1648L141.898 43.4034C142.484 43.5455 142.92 43.7628 143.207 44.0554C143.494 44.3452 143.637 44.7187 143.637 45.1761C143.637 45.5511 143.529 45.8864 143.313 46.1818C143.1 46.4773 142.802 46.7102 142.418 46.8807C142.035 47.0511 141.589 47.1364 141.08 47.1364C140.413 47.1364 139.86 46.9915 139.423 46.7017C138.985 46.4119 138.708 45.9886 138.592 45.4318L139.546 45.1932C139.637 45.5455 139.809 45.8097 140.062 45.9858C140.317 46.1619 140.651 46.25 141.063 46.25C141.532 46.25 141.904 46.1506 142.18 45.9517C142.458 45.75 142.597 45.5085 142.597 45.2273C142.597 45 142.518 44.8097 142.359 44.6562C142.2 44.5 141.955 44.3835 141.626 44.3068L140.535 44.0511C139.935 43.9091 139.495 43.6889 139.214 43.3906C138.935 43.0895 138.796 42.7131 138.796 42.2614C138.796 41.892 138.9 41.5653 139.107 41.2812C139.317 40.9972 139.603 40.7741 139.964 40.6122C140.327 40.4503 140.739 40.3693 141.2 40.3693C141.847 40.3693 142.356 40.5114 142.725 40.7955C143.097 41.0795 143.362 41.4545 143.518 41.9205ZM147.895 47.1364C147.265 47.1364 146.721 46.9972 146.263 46.7188C145.809 46.4375 145.458 46.0455 145.211 45.5426C144.966 45.0369 144.844 44.4489 144.844 43.7784C144.844 43.108 144.966 42.517 145.211 42.0057C145.458 41.4915 145.801 41.0909 146.242 40.804C146.685 40.5142 147.202 40.3693 147.793 40.3693C148.134 40.3693 148.471 40.4261 148.803 40.5398C149.135 40.6534 149.438 40.8381 149.711 41.0938C149.983 41.3466 150.201 41.6818 150.363 42.0994C150.525 42.517 150.605 43.0312 150.605 43.642V44.0682H145.56V43.1989H149.583C149.583 42.8295 149.509 42.5 149.361 42.2102C149.216 41.9205 149.009 41.6918 148.739 41.5241C148.472 41.3565 148.157 41.2727 147.793 41.2727C147.392 41.2727 147.046 41.3722 146.753 41.571C146.463 41.767 146.24 42.0227 146.084 42.3381C145.928 42.6534 145.85 42.9915 145.85 43.3523V43.9318C145.85 44.4261 145.935 44.8452 146.105 45.1889C146.279 45.5298 146.519 45.7898 146.826 45.9688C147.132 46.1449 147.489 46.233 147.895 46.233C148.159 46.233 148.398 46.196 148.611 46.1222C148.827 46.0455 149.013 45.9318 149.169 45.7812C149.326 45.6278 149.446 45.4375 149.532 45.2102L150.503 45.483C150.401 45.8125 150.229 46.1023 149.988 46.3523C149.746 46.5994 149.448 46.7926 149.093 46.9318C148.738 47.0682 148.338 47.1364 147.895 47.1364ZM154.794 47.1364C154.181 47.1364 153.652 46.9915 153.209 46.7017C152.766 46.4119 152.425 46.0128 152.186 45.5043C151.948 44.9957 151.828 44.4148 151.828 43.7614C151.828 43.0966 151.951 42.5099 152.195 42.0014C152.442 41.4901 152.786 41.0909 153.226 40.804C153.669 40.5142 154.186 40.3693 154.777 40.3693C155.238 40.3693 155.652 40.4545 156.022 40.625C156.391 40.7955 156.694 41.0341 156.929 41.3409C157.165 41.6477 157.311 42.0057 157.368 42.4148H156.363C156.286 42.1165 156.115 41.8523 155.851 41.6222C155.59 41.3892 155.238 41.2727 154.794 41.2727C154.402 41.2727 154.059 41.375 153.763 41.5795C153.471 41.7812 153.242 42.0668 153.077 42.4361C152.915 42.8026 152.834 43.233 152.834 43.7273C152.834 44.233 152.914 44.6733 153.073 45.0483C153.235 45.4233 153.462 45.7145 153.755 45.9219C154.05 46.1293 154.397 46.233 154.794 46.233C155.056 46.233 155.293 46.1875 155.506 46.0966C155.719 46.0057 155.9 45.875 156.047 45.7045C156.195 45.5341 156.3 45.3295 156.363 45.0909H157.368C157.311 45.4773 157.171 45.8253 156.946 46.1349C156.725 46.4418 156.431 46.6861 156.064 46.8679C155.701 47.0469 155.277 47.1364 154.794 47.1364ZM162.963 44.3239V40.4545H163.969V47H162.963V45.892H162.895C162.742 46.2244 162.503 46.5071 162.179 46.7401C161.855 46.9702 161.446 47.0852 160.952 47.0852C160.543 47.0852 160.179 46.9957 159.861 46.8168C159.543 46.6349 159.293 46.3622 159.111 45.9986C158.929 45.6321 158.838 45.1705 158.838 44.6136V40.4545H159.844V44.5455C159.844 45.0227 159.978 45.4034 160.245 45.6875C160.515 45.9716 160.858 46.1136 161.276 46.1136C161.526 46.1136 161.78 46.0497 162.039 45.9219C162.3 45.794 162.519 45.598 162.695 45.3338C162.874 45.0696 162.963 44.733 162.963 44.3239ZM165.811 47V40.4545H166.783V41.4432H166.851C166.97 41.1193 167.186 40.8565 167.499 40.6548C167.811 40.4531 168.163 40.3523 168.555 40.3523C168.629 40.3523 168.722 40.3537 168.832 40.3565C168.943 40.3594 169.027 40.3636 169.084 40.3693V41.392C169.05 41.3835 168.972 41.3707 168.849 41.3537C168.73 41.3338 168.604 41.3239 168.47 41.3239C168.152 41.3239 167.868 41.3906 167.618 41.5241C167.371 41.6548 167.175 41.8366 167.03 42.0696C166.888 42.2997 166.817 42.5625 166.817 42.858V47H165.811ZM170.276 47V40.4545H171.282V47H170.276ZM170.787 39.3636C170.591 39.3636 170.422 39.2969 170.28 39.1634C170.141 39.0298 170.071 38.8693 170.071 38.6818C170.071 38.4943 170.141 38.3338 170.28 38.2003C170.422 38.0668 170.591 38 170.787 38C170.983 38 171.151 38.0668 171.29 38.2003C171.432 38.3338 171.503 38.4943 171.503 38.6818C171.503 38.8693 171.432 39.0298 171.29 39.1634C171.151 39.2969 170.983 39.3636 170.787 39.3636ZM175.97 40.4545V41.3068H172.578V40.4545H175.97ZM173.567 38.8864H174.572V45.125C174.572 45.4091 174.614 45.6222 174.696 45.7642C174.781 45.9034 174.889 45.9972 175.02 46.0455C175.153 46.0909 175.294 46.1136 175.442 46.1136C175.553 46.1136 175.643 46.108 175.714 46.0966C175.786 46.0824 175.842 46.071 175.885 46.0625L176.089 46.9659C176.021 46.9915 175.926 47.017 175.804 47.0426C175.682 47.071 175.527 47.0852 175.339 47.0852C175.055 47.0852 174.777 47.0241 174.504 46.902C174.234 46.7798 174.01 46.5938 173.831 46.3438C173.655 46.0938 173.567 45.7784 173.567 45.3977V38.8864ZM178.131 49.4545C177.96 49.4545 177.808 49.4403 177.675 49.4119C177.541 49.3864 177.449 49.3608 177.398 49.3352L177.653 48.4489C177.898 48.5114 178.114 48.5341 178.301 48.517C178.489 48.5 178.655 48.4162 178.8 48.2656C178.947 48.1179 179.082 47.8778 179.205 47.5455L179.392 47.0341L176.972 40.4545H178.062L179.869 45.6705H179.938L181.744 40.4545H182.835L180.057 47.9545C179.932 48.2926 179.777 48.5724 179.592 48.794C179.408 49.0185 179.193 49.1847 178.949 49.2926C178.707 49.4006 178.435 49.4545 178.131 49.4545ZM192.617 42.7898V43.7273H186.617V42.7898H192.617ZM199.827 40.4545V41.3068H196.299V40.4545H199.827ZM197.356 47V39.5511C197.356 39.1761 197.444 38.8636 197.62 38.6136C197.796 38.3636 198.025 38.1761 198.306 38.0511C198.587 37.9261 198.884 37.8636 199.197 37.8636C199.444 37.8636 199.646 37.8835 199.802 37.9233C199.958 37.9631 200.075 38 200.151 38.0341L199.862 38.9034C199.81 38.8864 199.739 38.8651 199.648 38.8395C199.56 38.8139 199.444 38.8011 199.299 38.8011C198.967 38.8011 198.727 38.8849 198.579 39.0526C198.434 39.2202 198.362 39.4659 198.362 39.7898V47H197.356ZM201.237 47V40.4545H202.208V41.4432H202.277C202.396 41.1193 202.612 40.8565 202.924 40.6548C203.237 40.4531 203.589 40.3523 203.981 40.3523C204.055 40.3523 204.147 40.3537 204.258 40.3565C204.369 40.3594 204.453 40.3636 204.51 40.3693V41.392C204.475 41.3835 204.397 41.3707 204.275 41.3537C204.156 41.3338 204.029 41.3239 203.896 41.3239C203.578 41.3239 203.294 41.3906 203.044 41.5241C202.797 41.6548 202.6 41.8366 202.456 42.0696C202.314 42.2997 202.243 42.5625 202.243 42.858V47H201.237ZM208.162 47.1364C207.571 47.1364 207.052 46.9957 206.606 46.7145C206.163 46.4332 205.816 46.0398 205.566 45.5341C205.319 45.0284 205.196 44.4375 205.196 43.7614C205.196 43.0795 205.319 42.4844 205.566 41.9759C205.816 41.4673 206.163 41.0724 206.606 40.7912C207.052 40.5099 207.571 40.3693 208.162 40.3693C208.752 40.3693 209.27 40.5099 209.713 40.7912C210.159 41.0724 210.505 41.4673 210.752 41.9759C211.002 42.4844 211.127 43.0795 211.127 43.7614C211.127 44.4375 211.002 45.0284 210.752 45.5341C210.505 46.0398 210.159 46.4332 209.713 46.7145C209.27 46.9957 208.752 47.1364 208.162 47.1364ZM208.162 46.233C208.61 46.233 208.98 46.1179 209.27 45.8878C209.559 45.6577 209.774 45.3551 209.913 44.9801C210.052 44.6051 210.122 44.1989 210.122 43.7614C210.122 43.3239 210.052 42.9162 209.913 42.5384C209.774 42.1605 209.559 41.8551 209.27 41.6222C208.98 41.3892 208.61 41.2727 208.162 41.2727C207.713 41.2727 207.343 41.3892 207.054 41.6222C206.764 41.8551 206.549 42.1605 206.41 42.5384C206.271 42.9162 206.201 43.3239 206.201 43.7614C206.201 44.1989 206.271 44.6051 206.41 44.9801C206.549 45.3551 206.764 45.6577 207.054 45.8878C207.343 46.1179 207.713 46.233 208.162 46.233ZM212.663 47V40.4545H213.634V41.4773H213.719C213.856 41.1278 214.076 40.8565 214.38 40.6634C214.684 40.4673 215.049 40.3693 215.475 40.3693C215.907 40.3693 216.266 40.4673 216.553 40.6634C216.843 40.8565 217.069 41.1278 217.231 41.4773H217.299C217.467 41.1392 217.718 40.8707 218.053 40.6719C218.388 40.4702 218.79 40.3693 219.259 40.3693C219.844 40.3693 220.323 40.5526 220.695 40.919C221.067 41.2827 221.254 41.8494 221.254 42.6193V47H220.248V42.6193C220.248 42.1364 220.116 41.7912 219.852 41.5838C219.587 41.3764 219.276 41.2727 218.918 41.2727C218.458 41.2727 218.102 41.4119 217.849 41.6903C217.596 41.9659 217.469 42.3153 217.469 42.7386V47H216.447V42.517C216.447 42.1449 216.326 41.8452 216.085 41.6179C215.843 41.3878 215.532 41.2727 215.151 41.2727C214.89 41.2727 214.646 41.3423 214.418 41.4815C214.194 41.6207 214.012 41.8139 213.873 42.0611C213.737 42.3054 213.668 42.5881 213.668 42.9091V47H212.663ZM83.9205 63V56.4545H84.892V57.4432H84.9602C85.0795 57.1193 85.2955 56.8565 85.608 56.6548C85.9205 56.4531 86.2727 56.3523 86.6648 56.3523C86.7386 56.3523 86.831 56.3537 86.9418 56.3565C87.0526 56.3594 87.1364 56.3636 87.1932 56.3693V57.392C87.1591 57.3835 87.081 57.3707 86.9588 57.3537C86.8395 57.3338 86.7131 57.3239 86.5795 57.3239C86.2614 57.3239 85.9773 57.3906 85.7273 57.5241C85.4801 57.6548 85.2841 57.8366 85.1392 58.0696C84.9972 58.2997 84.9261 58.5625 84.9261 58.858V63H83.9205ZM90.9304 63.1364C90.2997 63.1364 89.7557 62.9972 89.2983 62.7188C88.8438 62.4375 88.4929 62.0455 88.2457 61.5426C88.0014 61.0369 87.8793 60.4489 87.8793 59.7784C87.8793 59.108 88.0014 58.517 88.2457 58.0057C88.4929 57.4915 88.8366 57.0909 89.277 56.804C89.7202 56.5142 90.2372 56.3693 90.8281 56.3693C91.169 56.3693 91.5057 56.4261 91.8381 56.5398C92.1705 56.6534 92.473 56.8381 92.7457 57.0938C93.0185 57.3466 93.2358 57.6818 93.3977 58.0994C93.5597 58.517 93.6406 59.0312 93.6406 59.642V60.0682H88.5952V59.1989H92.6179C92.6179 58.8295 92.544 58.5 92.3963 58.2102C92.2514 57.9205 92.044 57.6918 91.7741 57.5241C91.5071 57.3565 91.1918 57.2727 90.8281 57.2727C90.4276 57.2727 90.081 57.3722 89.7884 57.571C89.4986 57.767 89.2756 58.0227 89.1193 58.3381C88.9631 58.6534 88.8849 58.9915 88.8849 59.3523V59.9318C88.8849 60.4261 88.9702 60.8452 89.1406 61.1889C89.3139 61.5298 89.554 61.7898 89.8608 61.9688C90.1676 62.1449 90.5241 62.233 90.9304 62.233C91.1946 62.233 91.4332 62.196 91.6463 62.1222C91.8622 62.0455 92.0483 61.9318 92.2045 61.7812C92.3608 61.6278 92.4815 61.4375 92.5668 61.2102L93.5384 61.483C93.4361 61.8125 93.2642 62.1023 93.0227 62.3523C92.7813 62.5994 92.483 62.7926 92.1278 62.9318C91.7727 63.0682 91.3736 63.1364 90.9304 63.1364ZM97.0966 63.1534C96.6818 63.1534 96.3054 63.0753 95.9673 62.919C95.6293 62.7599 95.3608 62.5312 95.1619 62.233C94.9631 61.9318 94.8636 61.5682 94.8636 61.142C94.8636 60.767 94.9375 60.4631 95.0852 60.2301C95.233 59.9943 95.4304 59.8097 95.6776 59.6761C95.9247 59.5426 96.1974 59.4432 96.4957 59.3778C96.7969 59.3097 97.0994 59.2557 97.4034 59.2159C97.8011 59.1648 98.1236 59.1264 98.3707 59.1009C98.6207 59.0724 98.8026 59.0256 98.9162 58.9602C99.0327 58.8949 99.0909 58.7812 99.0909 58.6193V58.5852C99.0909 58.1648 98.9759 57.8381 98.7457 57.6051C98.5185 57.3722 98.1733 57.2557 97.7102 57.2557C97.2301 57.2557 96.8537 57.3608 96.581 57.571C96.3082 57.7812 96.1165 58.0057 96.0057 58.2443L95.0511 57.9034C95.2216 57.5057 95.4489 57.196 95.733 56.9744C96.0199 56.75 96.3324 56.5937 96.6705 56.5057C97.0114 56.4148 97.3466 56.3693 97.6761 56.3693C97.8864 56.3693 98.1278 56.3949 98.4006 56.446C98.6761 56.4943 98.9418 56.5952 99.1974 56.7486C99.456 56.902 99.6705 57.1335 99.8409 57.4432C100.011 57.7528 100.097 58.1676 100.097 58.6875V63H99.0909V62.1136H99.0398C98.9716 62.2557 98.858 62.4077 98.6989 62.5696C98.5398 62.7315 98.3281 62.8693 98.0639 62.983C97.7997 63.0966 97.4773 63.1534 97.0966 63.1534ZM97.25 62.25C97.6477 62.25 97.983 62.1719 98.2557 62.0156C98.5313 61.8594 98.7386 61.6577 98.8778 61.4105C99.0199 61.1634 99.0909 60.9034 99.0909 60.6307V59.7102C99.0483 59.7614 98.9545 59.8082 98.8097 59.8509C98.6676 59.8906 98.5028 59.9261 98.3153 59.9574C98.1307 59.9858 97.9503 60.0114 97.7741 60.0341C97.6009 60.054 97.4602 60.071 97.3523 60.0852C97.0909 60.1193 96.8466 60.1747 96.6193 60.2514C96.3949 60.3253 96.2131 60.4375 96.0739 60.5881C95.9375 60.7358 95.8693 60.9375 95.8693 61.1932C95.8693 61.5426 95.9986 61.8068 96.2571 61.9858C96.5185 62.1619 96.8494 62.25 97.25 62.25ZM104.591 63.1364C103.978 63.1364 103.449 62.9915 103.006 62.7017C102.563 62.4119 102.222 62.0128 101.983 61.5043C101.745 60.9957 101.625 60.4148 101.625 59.7614C101.625 59.0966 101.748 58.5099 101.992 58.0014C102.239 57.4901 102.583 57.0909 103.023 56.804C103.466 56.5142 103.983 56.3693 104.574 56.3693C105.034 56.3693 105.449 56.4545 105.819 56.625C106.188 56.7955 106.49 57.0341 106.726 57.3409C106.962 57.6477 107.108 58.0057 107.165 58.4148H106.159C106.083 58.1165 105.912 57.8523 105.648 57.6222C105.387 57.3892 105.034 57.2727 104.591 57.2727C104.199 57.2727 103.855 57.375 103.56 57.5795C103.267 57.7812 103.039 58.0668 102.874 58.4361C102.712 58.8026 102.631 59.233 102.631 59.7273C102.631 60.233 102.711 60.6733 102.87 61.0483C103.032 61.4233 103.259 61.7145 103.551 61.9219C103.847 62.1293 104.194 62.233 104.591 62.233C104.853 62.233 105.09 62.1875 105.303 62.0966C105.516 62.0057 105.696 61.875 105.844 61.7045C105.992 61.5341 106.097 61.3295 106.159 61.0909H107.165C107.108 61.4773 106.968 61.8253 106.743 62.1349C106.522 62.4418 106.228 62.6861 105.861 62.8679C105.498 63.0469 105.074 63.1364 104.591 63.1364ZM111.482 56.4545V57.3068H108.09V56.4545H111.482ZM109.078 54.8864H110.084V61.125C110.084 61.4091 110.125 61.6222 110.208 61.7642C110.293 61.9034 110.401 61.9972 110.532 62.0455C110.665 62.0909 110.806 62.1136 110.953 62.1136C111.064 62.1136 111.155 62.108 111.226 62.0966C111.297 62.0824 111.354 62.071 111.397 62.0625L111.601 62.9659C111.533 62.9915 111.438 63.017 111.316 63.0426C111.194 63.071 111.039 63.0852 110.851 63.0852C110.567 63.0852 110.289 63.0241 110.016 62.902C109.746 62.7798 109.522 62.5938 109.343 62.3438C109.167 62.0938 109.078 61.7784 109.078 61.3977V54.8864ZM112.995 63V56.4545H114V63H112.995ZM113.506 55.3636C113.31 55.3636 113.141 55.2969 112.999 55.1634C112.86 55.0298 112.79 54.8693 112.79 54.6818C112.79 54.4943 112.86 54.3338 112.999 54.2003C113.141 54.0668 113.31 54 113.506 54C113.702 54 113.87 54.0668 114.009 54.2003C114.151 54.3338 114.222 54.4943 114.222 54.6818C114.222 54.8693 114.151 55.0298 114.009 55.1634C113.87 55.2969 113.702 55.3636 113.506 55.3636ZM121.195 56.4545L118.774 63H117.751L115.331 56.4545H116.422L118.229 61.6705H118.297L120.104 56.4545H121.195ZM125.032 63.1364C124.401 63.1364 123.857 62.9972 123.4 62.7188C122.945 62.4375 122.594 62.0455 122.347 61.5426C122.103 61.0369 121.981 60.4489 121.981 59.7784C121.981 59.108 122.103 58.517 122.347 58.0057C122.594 57.4915 122.938 57.0909 123.379 56.804C123.822 56.5142 124.339 56.3693 124.93 56.3693C125.271 56.3693 125.607 56.4261 125.94 56.5398C126.272 56.6534 126.575 56.8381 126.847 57.0938C127.12 57.3466 127.337 57.6818 127.499 58.0994C127.661 58.517 127.742 59.0312 127.742 59.642V60.0682H122.697V59.1989H126.719C126.719 58.8295 126.646 58.5 126.498 58.2102C126.353 57.9205 126.146 57.6918 125.876 57.5241C125.609 57.3565 125.293 57.2727 124.93 57.2727C124.529 57.2727 124.183 57.3722 123.89 57.571C123.6 57.767 123.377 58.0227 123.221 58.3381C123.065 58.6534 122.987 58.9915 122.987 59.3523V59.9318C122.987 60.4261 123.072 60.8452 123.242 61.1889C123.415 61.5298 123.656 61.7898 123.962 61.9688C124.269 62.1449 124.626 62.233 125.032 62.233C125.296 62.233 125.535 62.196 125.748 62.1222C125.964 62.0455 126.15 61.9318 126.306 61.7812C126.462 61.6278 126.583 61.4375 126.668 61.2102L127.64 61.483C127.538 61.8125 127.366 62.1023 127.124 62.3523C126.883 62.5994 126.585 62.7926 126.229 62.9318C125.874 63.0682 125.475 63.1364 125.032 63.1364ZM135.494 56.4545V57.3068H132.102V56.4545H135.494ZM133.09 54.8864H134.096V61.125C134.096 61.4091 134.137 61.6222 134.219 61.7642C134.305 61.9034 134.413 61.9972 134.543 62.0455C134.677 62.0909 134.817 62.1136 134.965 62.1136C135.076 62.1136 135.167 62.108 135.238 62.0966C135.309 62.0824 135.366 62.071 135.408 62.0625L135.613 62.9659C135.545 62.9915 135.45 63.017 135.327 63.0426C135.205 63.071 135.05 63.0852 134.863 63.0852C134.579 63.0852 134.3 63.0241 134.028 62.902C133.758 62.7798 133.533 62.5938 133.354 62.3438C133.178 62.0938 133.09 61.7784 133.09 61.3977V54.8864ZM139.595 63.1364C139.004 63.1364 138.486 62.9957 138.04 62.7145C137.597 62.4332 137.25 62.0398 137 61.5341C136.753 61.0284 136.629 60.4375 136.629 59.7614C136.629 59.0795 136.753 58.4844 137 57.9759C137.25 57.4673 137.597 57.0724 138.04 56.7912C138.486 56.5099 139.004 56.3693 139.595 56.3693C140.186 56.3693 140.703 56.5099 141.146 56.7912C141.592 57.0724 141.939 57.4673 142.186 57.9759C142.436 58.4844 142.561 59.0795 142.561 59.7614C142.561 60.4375 142.436 61.0284 142.186 61.5341C141.939 62.0398 141.592 62.4332 141.146 62.7145C140.703 62.9957 140.186 63.1364 139.595 63.1364ZM139.595 62.233C140.044 62.233 140.413 62.1179 140.703 61.8878C140.993 61.6577 141.207 61.3551 141.347 60.9801C141.486 60.6051 141.555 60.1989 141.555 59.7614C141.555 59.3239 141.486 58.9162 141.347 58.5384C141.207 58.1605 140.993 57.8551 140.703 57.6222C140.413 57.3892 140.044 57.2727 139.595 57.2727C139.146 57.2727 138.777 57.3892 138.487 57.6222C138.197 57.8551 137.983 58.1605 137.844 58.5384C137.705 58.9162 137.635 59.3239 137.635 59.7614C137.635 60.1989 137.705 60.6051 137.844 60.9801C137.983 61.3551 138.197 61.6577 138.487 61.8878C138.777 62.1179 139.146 62.233 139.595 62.233ZM147.471 65.4545V56.4545H148.443V57.4943H148.562C148.636 57.3807 148.738 57.2358 148.869 57.0597C149.002 56.8807 149.193 56.7216 149.44 56.5824C149.69 56.4403 150.028 56.3693 150.454 56.3693C151.005 56.3693 151.491 56.5071 151.912 56.7827C152.332 57.0582 152.66 57.4489 152.896 57.9545C153.132 58.4602 153.25 59.0568 153.25 59.7443C153.25 60.4375 153.132 61.0384 152.896 61.5469C152.66 62.0526 152.333 62.4446 151.916 62.723C151.498 62.9986 151.017 63.1364 150.471 63.1364C150.051 63.1364 149.714 63.0668 149.461 62.9276C149.208 62.7855 149.014 62.625 148.877 62.446C148.741 62.2642 148.636 62.1136 148.562 61.9943H148.477V65.4545H147.471ZM148.46 59.7273C148.46 60.2216 148.532 60.6577 148.677 61.0355C148.822 61.4105 149.034 61.7045 149.312 61.9176C149.591 62.1278 149.931 62.233 150.335 62.233C150.755 62.233 151.106 62.1222 151.387 61.9006C151.672 61.6761 151.885 61.375 152.027 60.9972C152.172 60.6165 152.244 60.1932 152.244 59.7273C152.244 59.267 152.173 58.8523 152.031 58.483C151.892 58.1108 151.68 57.8168 151.396 57.6009C151.115 57.3821 150.761 57.2727 150.335 57.2727C149.926 57.2727 149.582 57.3764 149.304 57.5838C149.025 57.7884 148.815 58.0753 148.673 58.4446C148.531 58.8111 148.46 59.2386 148.46 59.7273ZM154.784 63V56.4545H155.755V57.4432H155.824C155.943 57.1193 156.159 56.8565 156.471 56.6548C156.784 56.4531 157.136 56.3523 157.528 56.3523C157.602 56.3523 157.694 56.3537 157.805 56.3565C157.916 56.3594 158 56.3636 158.056 56.3693V57.392C158.022 57.3835 157.944 57.3707 157.822 57.3537C157.703 57.3338 157.576 57.3239 157.443 57.3239C157.125 57.3239 156.841 57.3906 156.591 57.5241C156.343 57.6548 156.147 57.8366 156.002 58.0696C155.86 58.2997 155.789 58.5625 155.789 58.858V63H154.784ZM161.794 63.1364C161.163 63.1364 160.619 62.9972 160.162 62.7188C159.707 62.4375 159.356 62.0455 159.109 61.5426C158.865 61.0369 158.743 60.4489 158.743 59.7784C158.743 59.108 158.865 58.517 159.109 58.0057C159.356 57.4915 159.7 57.0909 160.14 56.804C160.583 56.5142 161.1 56.3693 161.691 56.3693C162.032 56.3693 162.369 56.4261 162.701 56.5398C163.034 56.6534 163.336 56.8381 163.609 57.0938C163.882 57.3466 164.099 57.6818 164.261 58.0994C164.423 58.517 164.504 59.0312 164.504 59.642V60.0682H159.458V59.1989H163.481C163.481 58.8295 163.407 58.5 163.26 58.2102C163.115 57.9205 162.907 57.6918 162.637 57.5241C162.37 57.3565 162.055 57.2727 161.691 57.2727C161.291 57.2727 160.944 57.3722 160.652 57.571C160.362 57.767 160.139 58.0227 159.983 58.3381C159.826 58.6534 159.748 58.9915 159.748 59.3523V59.9318C159.748 60.4261 159.833 60.8452 160.004 61.1889C160.177 61.5298 160.417 61.7898 160.724 61.9688C161.031 62.1449 161.387 62.233 161.794 62.233C162.058 62.233 162.297 62.196 162.51 62.1222C162.725 62.0455 162.912 61.9318 163.068 61.7812C163.224 61.6278 163.345 61.4375 163.43 61.2102L164.402 61.483C164.299 61.8125 164.127 62.1023 163.886 62.3523C163.645 62.5994 163.346 62.7926 162.991 62.9318C162.636 63.0682 162.237 63.1364 161.794 63.1364ZM169.784 58.7898V59.7273H165.966V58.7898H169.784ZM174.298 63.1364C173.667 63.1364 173.123 62.9972 172.665 62.7188C172.211 62.4375 171.86 62.0455 171.613 61.5426C171.369 61.0369 171.246 60.4489 171.246 59.7784C171.246 59.108 171.369 58.517 171.613 58.0057C171.86 57.4915 172.204 57.0909 172.644 56.804C173.087 56.5142 173.604 56.3693 174.195 56.3693C174.536 56.3693 174.873 56.4261 175.205 56.5398C175.538 56.6534 175.84 56.8381 176.113 57.0938C176.386 57.3466 176.603 57.6818 176.765 58.0994C176.927 58.517 177.008 59.0312 177.008 59.642V60.0682H171.962V59.1989H175.985C175.985 58.8295 175.911 58.5 175.763 58.2102C175.619 57.9205 175.411 57.6918 175.141 57.5241C174.874 57.3565 174.559 57.2727 174.195 57.2727C173.795 57.2727 173.448 57.3722 173.156 57.571C172.866 57.767 172.643 58.0227 172.487 58.3381C172.33 58.6534 172.252 58.9915 172.252 59.3523V59.9318C172.252 60.4261 172.337 60.8452 172.508 61.1889C172.681 61.5298 172.921 61.7898 173.228 61.9688C173.535 62.1449 173.891 62.233 174.298 62.233C174.562 62.233 174.8 62.196 175.013 62.1222C175.229 62.0455 175.415 61.9318 175.572 61.7812C175.728 61.6278 175.849 61.4375 175.934 61.2102L176.906 61.483C176.803 61.8125 176.631 62.1023 176.39 62.3523C176.148 62.5994 175.85 62.7926 175.495 62.9318C175.14 63.0682 174.741 63.1364 174.298 63.1364ZM178.538 63V56.4545H179.509V57.4773H179.594C179.731 57.1278 179.951 56.8565 180.255 56.6634C180.559 56.4673 180.924 56.3693 181.35 56.3693C181.782 56.3693 182.141 56.4673 182.428 56.6634C182.718 56.8565 182.944 57.1278 183.106 57.4773H183.174C183.342 57.1392 183.593 56.8707 183.928 56.6719C184.263 56.4702 184.665 56.3693 185.134 56.3693C185.719 56.3693 186.198 56.5526 186.57 56.919C186.942 57.2827 187.129 57.8494 187.129 58.6193V63H186.123V58.6193C186.123 58.1364 185.991 57.7912 185.727 57.5838C185.462 57.3764 185.151 57.2727 184.793 57.2727C184.333 57.2727 183.977 57.4119 183.724 57.6903C183.471 57.9659 183.344 58.3153 183.344 58.7386V63H182.322V58.517C182.322 58.1449 182.201 57.8452 181.96 57.6179C181.718 57.3878 181.407 57.2727 181.026 57.2727C180.765 57.2727 180.521 57.3423 180.293 57.4815C180.069 57.6207 179.887 57.8139 179.748 58.0611C179.612 58.3054 179.543 58.5881 179.543 58.9091V63H178.538ZM188.967 65.4545V56.4545H189.939V57.4943H190.058C190.132 57.3807 190.234 57.2358 190.365 57.0597C190.499 56.8807 190.689 56.7216 190.936 56.5824C191.186 56.4403 191.524 56.3693 191.95 56.3693C192.501 56.3693 192.987 56.5071 193.408 56.7827C193.828 57.0582 194.156 57.4489 194.392 57.9545C194.628 58.4602 194.746 59.0568 194.746 59.7443C194.746 60.4375 194.628 61.0384 194.392 61.5469C194.156 62.0526 193.83 62.4446 193.412 62.723C192.994 62.9986 192.513 63.1364 191.967 63.1364C191.547 63.1364 191.21 63.0668 190.957 62.9276C190.705 62.7855 190.51 62.625 190.374 62.446C190.237 62.2642 190.132 62.1136 190.058 61.9943H189.973V65.4545H188.967ZM189.956 59.7273C189.956 60.2216 190.028 60.6577 190.173 61.0355C190.318 61.4105 190.53 61.7045 190.808 61.9176C191.087 62.1278 191.428 62.233 191.831 62.233C192.251 62.233 192.602 62.1222 192.884 61.9006C193.168 61.6761 193.381 61.375 193.523 60.9972C193.668 60.6165 193.74 60.1932 193.74 59.7273C193.74 59.267 193.669 58.8523 193.527 58.483C193.388 58.1108 193.176 57.8168 192.892 57.6009C192.611 57.3821 192.257 57.2727 191.831 57.2727C191.422 57.2727 191.078 57.3764 190.8 57.5838C190.521 57.7884 190.311 58.0753 190.169 58.4446C190.027 58.8111 189.956 59.2386 189.956 59.7273ZM199.126 56.4545V57.3068H195.734V56.4545H199.126ZM196.723 54.8864H197.729V61.125C197.729 61.4091 197.77 61.6222 197.852 61.7642C197.938 61.9034 198.045 61.9972 198.176 62.0455C198.31 62.0909 198.45 62.1136 198.598 62.1136C198.709 62.1136 198.8 62.108 198.871 62.0966C198.942 62.0824 198.999 62.071 199.041 62.0625L199.246 62.9659C199.178 62.9915 199.082 63.017 198.96 63.0426C198.838 63.071 198.683 63.0852 198.496 63.0852C198.212 63.0852 197.933 63.0241 197.661 62.902C197.391 62.7798 197.166 62.5938 196.987 62.3438C196.811 62.0938 196.723 61.7784 196.723 61.3977V54.8864ZM200.639 63V56.4545H201.645V63H200.639ZM201.151 55.3636C200.955 55.3636 200.786 55.2969 200.643 55.1634C200.504 55.0298 200.435 54.8693 200.435 54.6818C200.435 54.4943 200.504 54.3338 200.643 54.2003C200.786 54.0668 200.955 54 201.151 54C201.347 54 201.514 54.0668 201.653 54.2003C201.795 54.3338 201.866 54.4943 201.866 54.6818C201.866 54.8693 201.795 55.0298 201.653 55.1634C201.514 55.2969 201.347 55.3636 201.151 55.3636ZM208.839 56.4545L206.419 63H205.396L202.975 56.4545H204.066L205.873 61.6705H205.941L207.748 56.4545H208.839ZM212.676 63.1364C212.046 63.1364 211.502 62.9972 211.044 62.7188C210.59 62.4375 210.239 62.0455 209.992 61.5426C209.748 61.0369 209.625 60.4489 209.625 59.7784C209.625 59.108 209.748 58.517 209.992 58.0057C210.239 57.4915 210.583 57.0909 211.023 56.804C211.466 56.5142 211.983 56.3693 212.574 56.3693C212.915 56.3693 213.252 56.4261 213.584 56.5398C213.917 56.6534 214.219 56.8381 214.492 57.0938C214.765 57.3466 214.982 57.6818 215.144 58.0994C215.306 58.517 215.387 59.0312 215.387 59.642V60.0682H210.341V59.1989H214.364C214.364 58.8295 214.29 58.5 214.142 58.2102C213.998 57.9205 213.79 57.6918 213.52 57.5241C213.253 57.3565 212.938 57.2727 212.574 57.2727C212.174 57.2727 211.827 57.3722 211.534 57.571C211.245 57.767 211.022 58.0227 210.865 58.3381C210.709 58.6534 210.631 58.9915 210.631 59.3523V59.9318C210.631 60.4261 210.716 60.8452 210.887 61.1889C211.06 61.5298 211.3 61.7898 211.607 61.9688C211.914 62.1449 212.27 62.233 212.676 62.233C212.941 62.233 213.179 62.196 213.392 62.1222C213.608 62.0455 213.794 61.9318 213.951 61.7812C214.107 61.6278 214.228 61.4375 214.313 61.2102L215.284 61.483C215.182 61.8125 215.01 62.1023 214.769 62.3523C214.527 62.5994 214.229 62.7926 213.874 62.9318C213.519 63.0682 213.12 63.1364 212.676 63.1364Z" fill="#555555"/>
<path d="M85.2628 27H83.2855L86.2983 18.2727H88.6761L91.6847 27H89.7074L87.5213 20.267H87.4531L85.2628 27ZM85.1392 23.5696H89.8097V25.0099H85.1392V23.5696ZM94.5803 18.2727V27H92.7351V18.2727H94.5803ZM100.142 21.9162V23.3565H96.1623V21.9162H100.142ZM101.723 27V18.2727H105.218C105.86 18.2727 106.395 18.3679 106.824 18.5582C107.253 18.7486 107.576 19.0128 107.792 19.3509C108.007 19.6861 108.115 20.0724 108.115 20.5099C108.115 20.8509 108.047 21.1506 107.911 21.4091C107.775 21.6648 107.587 21.875 107.348 22.0398C107.113 22.2017 106.843 22.3168 106.539 22.3849V22.4702C106.871 22.4844 107.182 22.5781 107.472 22.7514C107.765 22.9247 108.002 23.1676 108.184 23.4801C108.365 23.7898 108.456 24.1591 108.456 24.5881C108.456 25.0511 108.341 25.4645 108.111 25.8281C107.884 26.1889 107.547 26.4744 107.101 26.6847C106.655 26.8949 106.105 27 105.452 27H101.723ZM103.569 25.4915H105.073C105.587 25.4915 105.962 25.3935 106.198 25.1974C106.434 24.9986 106.551 24.7344 106.551 24.4048C106.551 24.1634 106.493 23.9503 106.377 23.7656C106.26 23.581 106.094 23.4361 105.878 23.331C105.665 23.2259 105.411 23.1733 105.115 23.1733H103.569V25.4915ZM103.569 21.9247H104.936C105.189 21.9247 105.414 21.8807 105.61 21.7926C105.809 21.7017 105.965 21.5739 106.078 21.4091C106.195 21.2443 106.253 21.0469 106.253 20.8168C106.253 20.5014 106.141 20.2472 105.917 20.054C105.695 19.8608 105.38 19.7642 104.971 19.7642H103.569V21.9247ZM111.489 27.1236C111.072 27.1236 110.7 27.0511 110.373 26.9062C110.046 26.7585 109.788 26.5412 109.597 26.2543C109.41 25.9645 109.316 25.6037 109.316 25.1719C109.316 24.8082 109.383 24.5028 109.516 24.2557C109.65 24.0085 109.832 23.8097 110.062 23.6591C110.292 23.5085 110.553 23.3949 110.846 23.3182C111.141 23.2415 111.451 23.1875 111.775 23.1562C112.156 23.1165 112.462 23.0795 112.695 23.0455C112.928 23.0085 113.097 22.9545 113.202 22.8835C113.308 22.8125 113.36 22.7074 113.36 22.5682V22.5426C113.36 22.2727 113.275 22.0639 113.104 21.9162C112.937 21.7685 112.698 21.6946 112.388 21.6946C112.062 21.6946 111.802 21.767 111.609 21.9119C111.415 22.054 111.288 22.233 111.225 22.4489L109.546 22.3125C109.631 21.9148 109.799 21.571 110.049 21.2812C110.299 20.9886 110.621 20.7642 111.016 20.608C111.414 20.4489 111.874 20.3693 112.397 20.3693C112.761 20.3693 113.109 20.4119 113.441 20.4972C113.776 20.5824 114.073 20.7145 114.332 20.8935C114.593 21.0724 114.799 21.3026 114.95 21.5838C115.1 21.8622 115.175 22.196 115.175 22.5852V27H113.454V26.0923H113.403C113.298 26.2969 113.157 26.4773 112.981 26.6335C112.805 26.7869 112.593 26.9077 112.346 26.9957C112.099 27.081 111.813 27.1236 111.489 27.1236ZM112.009 25.8707C112.276 25.8707 112.512 25.8182 112.717 25.7131C112.921 25.6051 113.082 25.4602 113.198 25.2784C113.315 25.0966 113.373 24.8906 113.373 24.6605V23.9659C113.316 24.0028 113.238 24.0369 113.138 24.0682C113.042 24.0966 112.933 24.1236 112.81 24.1491C112.688 24.1719 112.566 24.1932 112.444 24.2131C112.322 24.2301 112.211 24.2457 112.112 24.2599C111.898 24.2912 111.712 24.3409 111.553 24.4091C111.394 24.4773 111.271 24.5696 111.183 24.6861C111.094 24.7997 111.05 24.9418 111.05 25.1122C111.05 25.3594 111.14 25.5483 111.319 25.679C111.501 25.8068 111.731 25.8707 112.009 25.8707ZM122.03 22.321L120.368 22.4233C120.339 22.2812 120.278 22.1534 120.185 22.0398C120.091 21.9233 119.967 21.831 119.814 21.7628C119.663 21.6918 119.483 21.6562 119.273 21.6562C118.991 21.6562 118.754 21.7159 118.561 21.8352C118.368 21.9517 118.271 22.108 118.271 22.304C118.271 22.4602 118.334 22.5923 118.459 22.7003C118.584 22.8082 118.798 22.8949 119.102 22.9602L120.287 23.1989C120.923 23.3295 121.398 23.5398 121.71 23.8295C122.023 24.1193 122.179 24.5 122.179 24.9716C122.179 25.4006 122.053 25.777 121.8 26.1009C121.55 26.4247 121.206 26.6776 120.768 26.8594C120.334 27.0384 119.832 27.1278 119.264 27.1278C118.398 27.1278 117.707 26.9474 117.193 26.5866C116.682 26.223 116.382 25.7287 116.294 25.1037L118.08 25.0099C118.134 25.2741 118.264 25.4759 118.472 25.6151C118.679 25.7514 118.945 25.8196 119.268 25.8196C119.587 25.8196 119.842 25.7585 120.036 25.6364C120.232 25.5114 120.331 25.3509 120.334 25.1548C120.331 24.9901 120.261 24.8551 120.125 24.75C119.989 24.642 119.778 24.5597 119.494 24.5028L118.361 24.277C117.722 24.1491 117.246 23.9276 116.933 23.6122C116.624 23.2969 116.469 22.8949 116.469 22.4062C116.469 21.9858 116.582 21.6236 116.81 21.3196C117.04 21.0156 117.362 20.7812 117.777 20.6165C118.195 20.4517 118.683 20.3693 119.243 20.3693C120.07 20.3693 120.72 20.544 121.195 20.8935C121.672 21.2429 121.95 21.7187 122.03 22.321ZM126.305 27.1278C125.632 27.1278 125.052 26.9915 124.566 26.7188C124.083 26.4432 123.711 26.054 123.45 25.5511C123.189 25.0455 123.058 24.4474 123.058 23.7571C123.058 23.0838 123.189 22.4929 123.45 21.9844C123.711 21.4759 124.079 21.0795 124.554 20.7955C125.031 20.5114 125.591 20.3693 126.233 20.3693C126.664 20.3693 127.066 20.4389 127.439 20.5781C127.814 20.7145 128.14 20.9205 128.419 21.196C128.7 21.4716 128.919 21.8182 129.075 22.2358C129.231 22.6506 129.309 23.1364 129.309 23.6932V24.1918H123.782V23.0668H127.6C127.6 22.8054 127.544 22.5739 127.43 22.3722C127.316 22.1705 127.159 22.0128 126.957 21.8991C126.758 21.7827 126.527 21.7244 126.262 21.7244C125.987 21.7244 125.743 21.7884 125.529 21.9162C125.319 22.0412 125.154 22.2102 125.035 22.4233C124.916 22.6335 124.855 22.8679 124.852 23.1264V24.196C124.852 24.5199 124.912 24.7997 125.031 25.0355C125.153 25.2713 125.325 25.4531 125.547 25.581C125.768 25.7088 126.031 25.7727 126.335 25.7727C126.537 25.7727 126.721 25.7443 126.889 25.6875C127.056 25.6307 127.2 25.5455 127.319 25.4318C127.439 25.3182 127.529 25.179 127.592 25.0142L129.271 25.125C129.186 25.5284 129.011 25.8807 128.747 26.1818C128.485 26.4801 128.147 26.7131 127.733 26.8807C127.321 27.0455 126.845 27.1278 126.305 27.1278ZM132.906 27.1065C132.409 27.1065 131.958 26.9787 131.555 26.723C131.154 26.4645 130.836 26.0852 130.6 25.5852C130.368 25.0824 130.251 24.4659 130.251 23.7358C130.251 22.9858 130.372 22.3622 130.613 21.8651C130.855 21.3651 131.176 20.9915 131.576 20.7443C131.98 20.4943 132.422 20.3693 132.902 20.3693C133.268 20.3693 133.574 20.4318 133.818 20.5568C134.065 20.679 134.264 20.8324 134.414 21.017C134.568 21.1989 134.684 21.3778 134.764 21.554H134.819V18.2727H136.63V27H134.841V25.9517H134.764C134.679 26.1335 134.558 26.3139 134.402 26.4929C134.248 26.669 134.048 26.8153 133.801 26.9318C133.556 27.0483 133.258 27.1065 132.906 27.1065ZM133.481 25.6619C133.774 25.6619 134.021 25.5824 134.223 25.4233C134.427 25.2614 134.583 25.0355 134.691 24.7457C134.802 24.456 134.858 24.1165 134.858 23.7273C134.858 23.3381 134.804 23 134.696 22.7131C134.588 22.4261 134.431 22.2045 134.227 22.0483C134.022 21.892 133.774 21.8139 133.481 21.8139C133.183 21.8139 132.931 21.8949 132.727 22.0568C132.522 22.2187 132.368 22.4432 132.262 22.7301C132.157 23.017 132.105 23.3494 132.105 23.7273C132.105 24.108 132.157 24.4446 132.262 24.7372C132.37 25.027 132.525 25.2543 132.727 25.419C132.931 25.581 133.183 25.6619 133.481 25.6619ZM142.439 27H140.461L143.474 18.2727H145.852L148.86 27H146.883L144.697 20.267H144.629L142.439 27ZM142.315 23.5696H146.985V25.0099H142.315V23.5696ZM151.692 23.2159V27H149.877V20.4545H151.607V21.6094H151.684C151.828 21.2287 152.071 20.9276 152.412 20.706C152.753 20.4815 153.167 20.3693 153.652 20.3693C154.107 20.3693 154.503 20.4688 154.841 20.6676C155.179 20.8665 155.442 21.1506 155.63 21.5199C155.817 21.8864 155.911 22.3239 155.911 22.8324V27H154.096V23.1562C154.098 22.7557 153.996 22.4432 153.789 22.2188C153.581 21.9915 153.296 21.8778 152.932 21.8778C152.688 21.8778 152.472 21.9304 152.284 22.0355C152.1 22.1406 151.955 22.294 151.85 22.4957C151.748 22.6946 151.695 22.9347 151.692 23.2159ZM159.208 27.1236C158.79 27.1236 158.418 27.0511 158.092 26.9062C157.765 26.7585 157.506 26.5412 157.316 26.2543C157.129 25.9645 157.035 25.6037 157.035 25.1719C157.035 24.8082 157.102 24.5028 157.235 24.2557C157.369 24.0085 157.55 23.8097 157.781 23.6591C158.011 23.5085 158.272 23.3949 158.565 23.3182C158.86 23.2415 159.17 23.1875 159.494 23.1562C159.874 23.1165 160.181 23.0795 160.414 23.0455C160.647 23.0085 160.816 22.9545 160.921 22.8835C161.026 22.8125 161.079 22.7074 161.079 22.5682V22.5426C161.079 22.2727 160.994 22.0639 160.823 21.9162C160.656 21.7685 160.417 21.6946 160.107 21.6946C159.781 21.6946 159.521 21.767 159.327 21.9119C159.134 22.054 159.006 22.233 158.944 22.4489L157.265 22.3125C157.35 21.9148 157.518 21.571 157.768 21.2812C158.018 20.9886 158.34 20.7642 158.735 20.608C159.133 20.4489 159.593 20.3693 160.116 20.3693C160.479 20.3693 160.827 20.4119 161.16 20.4972C161.495 20.5824 161.792 20.7145 162.05 20.8935C162.312 21.0724 162.518 21.3026 162.668 21.5838C162.819 21.8622 162.894 22.196 162.894 22.5852V27H161.173V26.0923H161.121C161.016 26.2969 160.876 26.4773 160.7 26.6335C160.523 26.7869 160.312 26.9077 160.065 26.9957C159.817 27.081 159.532 27.1236 159.208 27.1236ZM159.728 25.8707C159.995 25.8707 160.231 25.8182 160.435 25.7131C160.64 25.6051 160.8 25.4602 160.917 25.2784C161.033 25.0966 161.092 24.8906 161.092 24.6605V23.9659C161.035 24.0028 160.957 24.0369 160.857 24.0682C160.761 24.0966 160.651 24.1236 160.529 24.1491C160.407 24.1719 160.285 24.1932 160.163 24.2131C160.04 24.2301 159.93 24.2457 159.83 24.2599C159.617 24.2912 159.431 24.3409 159.272 24.4091C159.113 24.4773 158.989 24.5696 158.901 24.6861C158.813 24.7997 158.769 24.9418 158.769 25.1122C158.769 25.3594 158.859 25.5483 159.038 25.679C159.219 25.8068 159.45 25.8707 159.728 25.8707ZM166.118 18.2727V27H164.303V18.2727H166.118ZM168.693 29.4545C168.463 29.4545 168.247 29.4361 168.045 29.3991C167.846 29.3651 167.681 29.321 167.551 29.267L167.96 27.9119C168.173 27.9773 168.365 28.0128 168.535 28.0185C168.708 28.0241 168.858 27.9844 168.983 27.8991C169.11 27.8139 169.214 27.669 169.294 27.4645L169.4 27.1875L167.052 20.4545H168.961L170.316 25.2614H170.385L171.752 20.4545H173.674L171.13 27.7074C171.008 28.0597 170.842 28.3665 170.632 28.6278C170.424 28.892 170.162 29.0952 169.843 29.2372C169.525 29.3821 169.142 29.4545 168.693 29.4545ZM178.085 20.4545V21.8182H174.143V20.4545H178.085ZM175.038 18.8864H176.853V24.9886C176.853 25.1562 176.879 25.2869 176.93 25.3807C176.981 25.4716 177.052 25.5355 177.143 25.5724C177.237 25.6094 177.345 25.6278 177.467 25.6278C177.552 25.6278 177.637 25.6207 177.723 25.6065C177.808 25.5895 177.873 25.5767 177.919 25.5682L178.204 26.919C178.113 26.9474 177.985 26.9801 177.821 27.017C177.656 27.0568 177.456 27.081 177.22 27.0895C176.782 27.1065 176.399 27.0483 176.069 26.9148C175.743 26.7812 175.488 26.5739 175.306 26.2926C175.125 26.0114 175.035 25.6562 175.038 25.2273V18.8864ZM179.267 27V20.4545H181.083V27H179.267ZM180.179 19.6108C179.909 19.6108 179.678 19.5213 179.485 19.3423C179.294 19.1605 179.199 18.9432 179.199 18.6903C179.199 18.4403 179.294 18.2259 179.485 18.0469C179.678 17.8651 179.909 17.7741 180.179 17.7741C180.449 17.7741 180.679 17.8651 180.87 18.0469C181.063 18.2259 181.159 18.4403 181.159 18.6903C181.159 18.9432 181.063 19.1605 180.87 19.3423C180.679 19.5213 180.449 19.6108 180.179 19.6108ZM185.494 27.1278C184.824 27.1278 184.247 26.9858 183.764 26.7017C183.284 26.4148 182.915 26.017 182.656 25.5085C182.401 25 182.273 24.4148 182.273 23.7528C182.273 23.0824 182.402 22.4943 182.661 21.9886C182.922 21.4801 183.293 21.0838 183.773 20.7997C184.253 20.5128 184.824 20.3693 185.486 20.3693C186.057 20.3693 186.557 20.473 186.986 20.6804C187.415 20.8878 187.754 21.179 188.004 21.554C188.254 21.929 188.392 22.3693 188.418 22.875H186.705C186.656 22.5483 186.528 22.2855 186.321 22.0866C186.116 21.8849 185.848 21.7841 185.516 21.7841C185.234 21.7841 184.989 21.8608 184.778 22.0142C184.571 22.1648 184.409 22.3849 184.293 22.6747C184.176 22.9645 184.118 23.3153 184.118 23.7273C184.118 24.1449 184.175 24.5 184.288 24.7926C184.405 25.0852 184.568 25.3082 184.778 25.4616C184.989 25.6151 185.234 25.6918 185.516 25.6918C185.723 25.6918 185.909 25.6491 186.074 25.5639C186.241 25.4787 186.379 25.3551 186.487 25.1932C186.598 25.0284 186.67 24.831 186.705 24.6009H188.418C188.389 25.1009 188.253 25.5412 188.009 25.9219C187.767 26.2997 187.433 26.5952 187.007 26.8082C186.581 27.0213 186.077 27.1278 185.494 27.1278ZM195.485 27H192.391V18.2727H195.511C196.388 18.2727 197.144 18.4474 197.778 18.7969C198.411 19.1435 198.898 19.642 199.239 20.2926C199.583 20.9432 199.755 21.7216 199.755 22.6278C199.755 23.5369 199.583 24.3182 199.239 24.9716C198.898 25.625 198.408 26.1264 197.769 26.4759C197.133 26.8253 196.371 27 195.485 27ZM194.237 25.419H195.408C195.954 25.419 196.413 25.3224 196.785 25.1293C197.16 24.9332 197.441 24.6307 197.629 24.2216C197.819 23.8097 197.914 23.2784 197.914 22.6278C197.914 21.983 197.819 21.456 197.629 21.0469C197.441 20.6378 197.161 20.3366 196.789 20.1435C196.417 19.9503 195.958 19.8537 195.413 19.8537H194.237V25.419ZM202.954 27.1236C202.537 27.1236 202.164 27.0511 201.838 26.9062C201.511 26.7585 201.252 26.5412 201.062 26.2543C200.875 25.9645 200.781 25.6037 200.781 25.1719C200.781 24.8082 200.848 24.5028 200.981 24.2557C201.115 24.0085 201.297 23.8097 201.527 23.6591C201.757 23.5085 202.018 23.3949 202.311 23.3182C202.606 23.2415 202.916 23.1875 203.24 23.1562C203.62 23.1165 203.927 23.0795 204.16 23.0455C204.393 23.0085 204.562 22.9545 204.667 22.8835C204.772 22.8125 204.825 22.7074 204.825 22.5682V22.5426C204.825 22.2727 204.74 22.0639 204.569 21.9162C204.402 21.7685 204.163 21.6946 203.853 21.6946C203.527 21.6946 203.267 21.767 203.074 21.9119C202.88 22.054 202.752 22.233 202.69 22.4489L201.011 22.3125C201.096 21.9148 201.264 21.571 201.514 21.2812C201.764 20.9886 202.086 20.7642 202.481 20.608C202.879 20.4489 203.339 20.3693 203.862 20.3693C204.225 20.3693 204.574 20.4119 204.906 20.4972C205.241 20.5824 205.538 20.7145 205.797 20.8935C206.058 21.0724 206.264 21.3026 206.414 21.5838C206.565 21.8622 206.64 22.196 206.64 22.5852V27H204.919V26.0923H204.868C204.762 26.2969 204.622 26.4773 204.446 26.6335C204.27 26.7869 204.058 26.9077 203.811 26.9957C203.564 27.081 203.278 27.1236 202.954 27.1236ZM203.474 25.8707C203.741 25.8707 203.977 25.8182 204.181 25.7131C204.386 25.6051 204.547 25.4602 204.663 25.2784C204.779 25.0966 204.838 24.8906 204.838 24.6605V23.9659C204.781 24.0028 204.703 24.0369 204.603 24.0682C204.507 24.0966 204.397 24.1236 204.275 24.1491C204.153 24.1719 204.031 24.1932 203.909 24.2131C203.787 24.2301 203.676 24.2457 203.576 24.2599C203.363 24.2912 203.177 24.3409 203.018 24.4091C202.859 24.4773 202.735 24.5696 202.647 24.6861C202.559 24.7997 202.515 24.9418 202.515 25.1122C202.515 25.3594 202.605 25.5483 202.784 25.679C202.966 25.8068 203.196 25.8707 203.474 25.8707ZM213.495 22.321L211.833 22.4233C211.804 22.2812 211.743 22.1534 211.65 22.0398C211.556 21.9233 211.432 21.831 211.279 21.7628C211.128 21.6918 210.948 21.6562 210.738 21.6562C210.456 21.6562 210.219 21.7159 210.026 21.8352C209.833 21.9517 209.736 22.108 209.736 22.304C209.736 22.4602 209.799 22.5923 209.924 22.7003C210.049 22.8082 210.263 22.8949 210.567 22.9602L211.752 23.1989C212.388 23.3295 212.863 23.5398 213.175 23.8295C213.488 24.1193 213.644 24.5 213.644 24.9716C213.644 25.4006 213.517 25.777 213.265 26.1009C213.015 26.4247 212.671 26.6776 212.233 26.8594C211.799 27.0384 211.297 27.1278 210.729 27.1278C209.863 27.1278 209.172 26.9474 208.658 26.5866C208.147 26.223 207.847 25.7287 207.759 25.1037L209.544 25.0099C209.598 25.2741 209.729 25.4759 209.936 25.6151C210.144 25.7514 210.409 25.8196 210.733 25.8196C211.051 25.8196 211.307 25.7585 211.5 25.6364C211.696 25.5114 211.796 25.3509 211.799 25.1548C211.796 24.9901 211.726 24.8551 211.59 24.75C211.453 24.642 211.243 24.5597 210.959 24.5028L209.826 24.277C209.186 24.1491 208.711 23.9276 208.398 23.6122C208.088 23.2969 207.934 22.8949 207.934 22.4062C207.934 21.9858 208.047 21.6236 208.275 21.3196C208.505 21.0156 208.827 20.7812 209.242 20.6165C209.659 20.4517 210.148 20.3693 210.708 20.3693C211.534 20.3693 212.185 20.544 212.659 20.8935C213.137 21.2429 213.415 21.7187 213.495 22.321ZM216.602 23.2159V27H214.787V18.2727H216.551V21.6094H216.628C216.776 21.223 217.014 20.9205 217.344 20.7017C217.673 20.4801 218.087 20.3693 218.584 20.3693C219.038 20.3693 219.435 20.4688 219.773 20.6676C220.114 20.8636 220.378 21.1463 220.565 21.5156C220.756 21.8821 220.849 22.321 220.847 22.8324V27H219.031V23.1562C219.034 22.7528 218.932 22.4389 218.724 22.2145C218.52 21.9901 218.233 21.8778 217.864 21.8778C217.616 21.8778 217.398 21.9304 217.207 22.0355C217.02 22.1406 216.872 22.294 216.764 22.4957C216.659 22.6946 216.605 22.9347 216.602 23.2159ZM222.309 27V18.2727H224.125V21.554H224.18C224.26 21.3778 224.375 21.1989 224.525 21.017C224.679 20.8324 224.877 20.679 225.122 20.5568C225.369 20.4318 225.676 20.3693 226.042 20.3693C226.52 20.3693 226.96 20.4943 227.363 20.7443C227.767 20.9915 228.089 21.3651 228.331 21.8651C228.572 22.3622 228.693 22.9858 228.693 23.7358C228.693 24.4659 228.575 25.0824 228.339 25.5852C228.106 26.0852 227.788 26.4645 227.385 26.723C226.984 26.9787 226.535 27.1065 226.038 27.1065C225.686 27.1065 225.386 27.0483 225.139 26.9318C224.895 26.8153 224.694 26.669 224.538 26.4929C224.382 26.3139 224.262 26.1335 224.18 25.9517H224.099V27H222.309ZM224.086 23.7273C224.086 24.1165 224.14 24.456 224.248 24.7457C224.356 25.0355 224.512 25.2614 224.717 25.4233C224.922 25.5824 225.17 25.6619 225.463 25.6619C225.758 25.6619 226.008 25.581 226.213 25.419C226.417 25.2543 226.572 25.027 226.677 24.7372C226.785 24.4446 226.839 24.108 226.839 23.7273C226.839 23.3494 226.787 23.017 226.681 22.7301C226.576 22.4432 226.422 22.2187 226.217 22.0568C226.012 21.8949 225.761 21.8139 225.463 21.8139C225.167 21.8139 224.917 21.892 224.713 22.0483C224.511 22.2045 224.356 22.4261 224.248 22.7131C224.14 23 224.086 23.3381 224.086 23.7273ZM232.862 27.1278C232.2 27.1278 231.627 26.9872 231.144 26.706C230.664 26.4219 230.293 26.027 230.032 25.5213C229.771 25.0128 229.64 24.4233 229.64 23.7528C229.64 23.0767 229.771 22.4858 230.032 21.9801C230.293 21.4716 230.664 21.0767 231.144 20.7955C231.627 20.5114 232.2 20.3693 232.862 20.3693C233.523 20.3693 234.094 20.5114 234.575 20.7955C235.058 21.0767 235.43 21.4716 235.691 21.9801C235.952 22.4858 236.083 23.0767 236.083 23.7528C236.083 24.4233 235.952 25.0128 235.691 25.5213C235.43 26.027 235.058 26.4219 234.575 26.706C234.094 26.9872 233.523 27.1278 232.862 27.1278ZM232.87 25.7216C233.171 25.7216 233.423 25.6364 233.624 25.4659C233.826 25.2926 233.978 25.0568 234.08 24.7585C234.185 24.4602 234.238 24.1207 234.238 23.7401C234.238 23.3594 234.185 23.0199 234.08 22.7216C233.978 22.4233 233.826 22.1875 233.624 22.0142C233.423 21.8409 233.171 21.7543 232.87 21.7543C232.566 21.7543 232.31 21.8409 232.103 22.0142C231.898 22.1875 231.744 22.4233 231.638 22.7216C231.536 23.0199 231.485 23.3594 231.485 23.7401C231.485 24.1207 231.536 24.4602 231.638 24.7585C231.744 25.0568 231.898 25.2926 232.103 25.4659C232.31 25.6364 232.566 25.7216 232.87 25.7216ZM239.13 27.1236C238.712 27.1236 238.34 27.0511 238.013 26.9062C237.687 26.7585 237.428 26.5412 237.238 26.2543C237.05 25.9645 236.957 25.6037 236.957 25.1719C236.957 24.8082 237.023 24.5028 237.157 24.2557C237.29 24.0085 237.472 23.8097 237.702 23.6591C237.933 23.5085 238.194 23.3949 238.487 23.3182C238.782 23.2415 239.092 23.1875 239.415 23.1562C239.796 23.1165 240.103 23.0795 240.336 23.0455C240.569 23.0085 240.738 22.9545 240.843 22.8835C240.948 22.8125 241.001 22.7074 241.001 22.5682V22.5426C241.001 22.2727 240.915 22.0639 240.745 21.9162C240.577 21.7685 240.339 21.6946 240.029 21.6946C239.702 21.6946 239.442 21.767 239.249 21.9119C239.056 22.054 238.928 22.233 238.866 22.4489L237.187 22.3125C237.272 21.9148 237.44 21.571 237.69 21.2812C237.94 20.9886 238.262 20.7642 238.657 20.608C239.055 20.4489 239.515 20.3693 240.038 20.3693C240.401 20.3693 240.749 20.4119 241.082 20.4972C241.417 20.5824 241.714 20.7145 241.972 20.8935C242.234 21.0724 242.44 21.3026 242.59 21.5838C242.741 21.8622 242.816 22.196 242.816 22.5852V27H241.094V26.0923H241.043C240.938 26.2969 240.798 26.4773 240.621 26.6335C240.445 26.7869 240.234 26.9077 239.987 26.9957C239.739 27.081 239.454 27.1236 239.13 27.1236ZM239.65 25.8707C239.917 25.8707 240.153 25.8182 240.357 25.7131C240.562 25.6051 240.722 25.4602 240.839 25.2784C240.955 25.0966 241.013 24.8906 241.013 24.6605V23.9659C240.957 24.0028 240.879 24.0369 240.779 24.0682C240.683 24.0966 240.573 24.1236 240.451 24.1491C240.329 24.1719 240.207 24.1932 240.085 24.2131C239.962 24.2301 239.852 24.2457 239.752 24.2599C239.539 24.2912 239.353 24.3409 239.194 24.4091C239.035 24.4773 238.911 24.5696 238.823 24.6861C238.735 24.7997 238.691 24.9418 238.691 25.1122C238.691 25.3594 238.781 25.5483 238.96 25.679C239.141 25.8068 239.371 25.8707 239.65 25.8707ZM244.224 27V20.4545H245.984V21.5966H246.053C246.172 21.1903 246.372 20.8835 246.653 20.6761C246.935 20.4659 247.259 20.3608 247.625 20.3608C247.716 20.3608 247.814 20.3665 247.919 20.3778C248.024 20.3892 248.116 20.4048 248.196 20.4247V22.0355C248.111 22.0099 247.993 21.9872 247.842 21.9673C247.692 21.9474 247.554 21.9375 247.429 21.9375C247.162 21.9375 246.923 21.9957 246.713 22.1122C246.506 22.2259 246.341 22.3849 246.219 22.5895C246.099 22.794 246.04 23.0298 246.04 23.2969V27H244.224ZM251.242 27.1065C250.745 27.1065 250.294 26.9787 249.891 26.723C249.49 26.4645 249.172 26.0852 248.936 25.5852C248.703 25.0824 248.587 24.4659 248.587 23.7358C248.587 22.9858 248.708 22.3622 248.949 21.8651C249.191 21.3651 249.512 20.9915 249.912 20.7443C250.316 20.4943 250.757 20.3693 251.238 20.3693C251.604 20.3693 251.909 20.4318 252.154 20.5568C252.401 20.679 252.6 20.8324 252.75 21.017C252.904 21.1989 253.02 21.3778 253.1 21.554H253.155V18.2727H254.966V27H253.176V25.9517H253.1C253.015 26.1335 252.894 26.3139 252.738 26.4929C252.584 26.669 252.384 26.8153 252.137 26.9318C251.892 27.0483 251.594 27.1065 251.242 27.1065ZM251.817 25.6619C252.11 25.6619 252.357 25.5824 252.559 25.4233C252.763 25.2614 252.919 25.0355 253.027 24.7457C253.138 24.456 253.194 24.1165 253.194 23.7273C253.194 23.3381 253.14 23 253.032 22.7131C252.924 22.4261 252.767 22.2045 252.563 22.0483C252.358 21.892 252.11 21.8139 251.817 21.8139C251.519 21.8139 251.267 21.8949 251.063 22.0568C250.858 22.2187 250.703 22.4432 250.598 22.7301C250.493 23.017 250.441 23.3494 250.441 23.7273C250.441 24.108 250.493 24.4446 250.598 24.7372C250.706 25.027 250.861 25.2543 251.063 25.419C251.267 25.581 251.519 25.6619 251.817 25.6619Z" fill="#555555"/>
<defs>
<clipPath id="clip0_1002_193512">
<rect width="38" height="38" fill="white" transform="translate(23 23)"/>
</clipPath>
</defs>
</svg>
