<svg width="270" height="94" viewBox="0 0 270 94" fill="none" xmlns="http://www.w3.org/2000/svg">
<rect width="270" height="94" rx="8" fill="white" fill-opacity="0.5"/>
<rect x="0.5" y="0.5" width="269" height="93" rx="7.5" stroke="white" stroke-opacity="0.5"/>
<path fill-rule="evenodd" clip-rule="evenodd" d="M250.233 69.0482C250.482 68.8097 250.878 68.8186 251.116 69.0681L253.241 71.2903C253.472 71.5319 253.472 71.9125 253.241 72.1541L251.116 74.3763C250.878 74.6258 250.482 74.6347 250.233 74.3962C249.983 74.1577 249.974 73.7621 250.213 73.5126L251.924 71.7222L250.213 69.9319C249.974 69.6824 249.983 69.2867 250.233 69.0482Z" fill="#F89721"/>
<path fill-rule="evenodd" clip-rule="evenodd" d="M241.542 71.7222C241.542 71.377 241.822 71.0972 242.167 71.0972H252.789C253.134 71.0972 253.414 71.377 253.414 71.7222C253.414 72.0674 253.134 72.3472 252.789 72.3472H242.167C241.822 72.3472 241.542 72.0674 241.542 71.7222Z" fill="#F89721"/>
<rect x="13" y="13" width="58" height="58" rx="7" fill="white" stroke="#555555" stroke-width="2"/>
<path d="M50.7922 30.5246C50.669 30.525 50.5479 30.4935 50.4405 30.4331C47.504 28.9244 44.9653 28.2843 41.9065 28.2843C38.8937 28.2843 36.0185 29.0006 33.4032 30.4331C33.0363 30.6312 32.5775 30.4941 32.3634 30.1283C32.1645 29.7626 32.302 29.2901 32.6692 29.092C35.5138 27.5224 38.6338 26.7604 41.9065 26.7604C45.1795 26.7604 48.0241 27.4766 51.1439 29.0463C51.5263 29.2749 51.664 29.7321 51.4651 30.0978C51.3276 30.3722 51.0827 30.5246 50.7922 30.5246ZM28.907 38.5253C28.7489 38.5245 28.5946 38.4768 28.4636 38.3882C28.1422 38.1443 28.0352 37.6719 28.28 37.3214C29.794 35.1879 31.721 33.5115 34.015 32.3381C38.8479 29.8693 44.9653 29.854 49.7828 32.3228C52.0769 33.4963 54.0038 35.1421 55.5179 37.2757C55.7627 37.611 55.6708 38.0986 55.3344 38.3425C54.9827 38.5863 54.5085 38.5101 54.2639 38.1901C52.8873 36.2394 51.1439 34.7307 49.0792 33.6791C44.69 31.4389 39.0773 31.4389 34.7034 33.6944C32.6233 34.7612 30.8798 36.2851 29.5035 38.1901C29.3812 38.4187 29.1516 38.5253 28.907 38.5253ZM38.4656 56.9195C38.2667 56.9195 38.0832 56.8433 37.9302 56.6909C36.5998 55.3651 35.881 54.5117 34.8562 52.6677C33.8009 50.7932 33.2505 48.5073 33.2505 46.0537C33.2505 41.5275 37.135 37.8396 41.9065 37.8396C46.6783 37.8396 50.5628 41.5275 50.5628 46.0537C50.5628 46.2558 50.4823 46.4495 50.3388 46.5924C50.1952 46.7355 50.0008 46.8159 49.7981 46.8159C49.5954 46.8159 49.4009 46.7355 49.2574 46.5924C49.1864 46.5218 49.1302 46.4378 49.0917 46.3454C49.0533 46.2529 49.0335 46.1538 49.0335 46.0537C49.0335 42.3657 45.8372 39.3635 41.9065 39.3635C37.9761 39.3635 34.7796 42.3657 34.7796 46.0537C34.7796 48.2482 35.2692 50.2751 36.202 51.9057C37.1809 53.6735 37.8538 54.4202 39.0314 55.6089C39.1713 55.7543 39.2494 55.9482 39.2494 56.1499C39.2494 56.3516 39.1713 56.5455 39.0314 56.6909C38.8479 56.8433 38.6645 56.9195 38.4656 56.9195ZM49.4311 54.1002C47.6111 54.1002 46.0054 53.643 44.69 52.7439C42.4112 51.2047 41.0502 48.7054 41.0502 46.0537C41.0502 45.8516 41.1307 45.6579 41.2742 45.515C41.4178 45.3719 41.6122 45.2916 41.8149 45.2916C42.0176 45.2916 42.212 45.3719 42.3556 45.515C42.4265 45.5856 42.4828 45.6696 42.5212 45.762C42.5596 45.8545 42.5794 45.9536 42.5795 46.0537C42.5795 48.2025 43.6807 50.2293 45.5464 51.479C46.6324 52.2105 47.9016 52.561 49.4311 52.561C49.7981 52.561 50.4098 52.5153 51.0216 52.4086C51.4346 52.3324 51.8475 52.6067 51.9087 53.0334C51.985 53.4296 51.7097 53.8411 51.2817 53.9173C50.4098 54.0849 49.6453 54.1002 49.4311 54.1002ZM46.3571 57.2395H46.1582C43.7266 56.5385 42.1359 55.6394 40.4691 54.0087C38.3278 51.9057 37.1502 49.0711 37.1502 46.0537C37.1502 43.5849 39.2608 41.5732 41.8606 41.5732C44.4607 41.5732 46.5712 43.5849 46.5712 46.0537C46.5712 47.6843 48.0241 49.0102 49.7522 49.0102C51.511 49.0102 52.9333 47.6843 52.9333 46.0537C52.9333 40.3084 47.9628 35.6451 41.8454 35.6451C37.5021 35.6451 33.4951 38.0529 31.7364 41.7866C31.1399 43.021 30.8339 44.4688 30.8339 46.0537C30.8339 47.2424 30.941 49.1168 31.8587 51.5552C32.0117 51.9514 31.8128 52.3934 31.4152 52.5305C31.0174 52.6677 30.574 52.4696 30.4363 52.0886C29.6717 50.0922 29.32 48.0958 29.32 46.0537C29.32 44.2249 29.6717 42.5638 30.3599 41.1161C32.3939 36.8642 36.9056 34.1059 41.8454 34.1059C48.7887 34.1059 54.4628 39.4549 54.4628 46.0384C54.4628 48.5073 52.3522 50.5189 49.7522 50.5189C47.1523 50.5189 45.0417 48.5073 45.0417 46.0384C45.0417 44.4078 43.6195 43.082 41.8606 43.082C40.1019 43.082 38.6797 44.4078 38.6797 46.0384C38.6797 48.6444 39.6891 51.0828 41.5396 52.9115C42.9925 54.344 44.3843 55.1365 46.5406 55.7156C46.9534 55.8375 47.183 56.2642 47.0759 56.6604C46.9993 57.0109 46.6783 57.2395 46.3571 57.2395Z" fill="#555555"/>
<rect x="48" y="24" width="12" height="12" rx="6" fill="#F89721"/>
<path d="M84.0568 47V38.2727H89.3239V39.2102H85.1136V42.1591H89.0511V43.0966H85.1136V46.0625H89.392V47H84.0568ZM91.0923 47V40.4545H92.0639V41.4773H92.1491C92.2855 41.1278 92.5057 40.8565 92.8097 40.6634C93.1136 40.4673 93.4787 40.3693 93.9048 40.3693C94.3366 40.3693 94.696 40.4673 94.983 40.6634C95.2727 40.8565 95.4986 41.1278 95.6605 41.4773H95.7287C95.8963 41.1392 96.1477 40.8707 96.483 40.6719C96.8182 40.4702 97.2202 40.3693 97.6889 40.3693C98.2741 40.3693 98.7528 40.5526 99.125 40.919C99.4972 41.2827 99.6832 41.8494 99.6832 42.6193V47H98.6776V42.6193C98.6776 42.1364 98.5455 41.7912 98.2812 41.5838C98.017 41.3764 97.706 41.2727 97.348 41.2727C96.8878 41.2727 96.5313 41.4119 96.2784 41.6903C96.0256 41.9659 95.8991 42.3153 95.8991 42.7386V47H94.8764V42.517C94.8764 42.1449 94.7557 41.8452 94.5142 41.6179C94.2727 41.3878 93.9616 41.2727 93.581 41.2727C93.3196 41.2727 93.0753 41.3423 92.848 41.4815C92.6236 41.6207 92.4418 41.8139 92.3026 42.0611C92.1662 42.3054 92.098 42.5881 92.098 42.9091V47H91.0923ZM101.522 49.4545V40.4545H102.494V41.4943H102.613C102.687 41.3807 102.789 41.2358 102.92 41.0597C103.053 40.8807 103.244 40.7216 103.491 40.5824C103.741 40.4403 104.079 40.3693 104.505 40.3693C105.056 40.3693 105.542 40.5071 105.962 40.7827C106.383 41.0582 106.711 41.4489 106.947 41.9545C107.183 42.4602 107.3 43.0568 107.3 43.7443C107.3 44.4375 107.183 45.0384 106.947 45.5469C106.711 46.0526 106.384 46.4446 105.967 46.723C105.549 46.9986 105.067 47.1364 104.522 47.1364C104.102 47.1364 103.765 47.0668 103.512 46.9276C103.259 46.7855 103.065 46.625 102.928 46.446C102.792 46.2642 102.687 46.1136 102.613 45.9943H102.528V49.4545H101.522ZM102.511 43.7273C102.511 44.2216 102.583 44.6577 102.728 45.0355C102.873 45.4105 103.085 45.7045 103.363 45.9176C103.641 46.1278 103.982 46.233 104.386 46.233C104.806 46.233 105.157 46.1222 105.438 45.9006C105.722 45.6761 105.935 45.375 106.077 44.9972C106.222 44.6165 106.295 44.1932 106.295 43.7273C106.295 43.267 106.224 42.8523 106.082 42.483C105.942 42.1108 105.731 41.8168 105.447 41.6009C105.165 41.3821 104.812 41.2727 104.386 41.2727C103.977 41.2727 103.633 41.3764 103.354 41.5838C103.076 41.7884 102.866 42.0753 102.724 42.4446C102.582 42.8111 102.511 43.2386 102.511 43.7273ZM111.494 47.1364C110.903 47.1364 110.384 46.9957 109.938 46.7145C109.495 46.4332 109.148 46.0398 108.898 45.5341C108.651 45.0284 108.528 44.4375 108.528 43.7614C108.528 43.0795 108.651 42.4844 108.898 41.9759C109.148 41.4673 109.495 41.0724 109.938 40.7912C110.384 40.5099 110.903 40.3693 111.494 40.3693C112.085 40.3693 112.602 40.5099 113.045 40.7912C113.491 41.0724 113.837 41.4673 114.085 41.9759C114.335 42.4844 114.46 43.0795 114.46 43.7614C114.46 44.4375 114.335 45.0284 114.085 45.5341C113.837 46.0398 113.491 46.4332 113.045 46.7145C112.602 46.9957 112.085 47.1364 111.494 47.1364ZM111.494 46.233C111.942 46.233 112.312 46.1179 112.602 45.8878C112.891 45.6577 113.106 45.3551 113.245 44.9801C113.384 44.6051 113.454 44.1989 113.454 43.7614C113.454 43.3239 113.384 42.9162 113.245 42.5384C113.106 42.1605 112.891 41.8551 112.602 41.6222C112.312 41.3892 111.942 41.2727 111.494 41.2727C111.045 41.2727 110.675 41.3892 110.386 41.6222C110.096 41.8551 109.881 42.1605 109.742 42.5384C109.603 42.9162 109.533 43.3239 109.533 43.7614C109.533 44.1989 109.603 44.6051 109.742 44.9801C109.881 45.3551 110.096 45.6577 110.386 45.8878C110.675 46.1179 111.045 46.233 111.494 46.233ZM117.255 47L115.261 40.4545H116.317L117.732 45.4659H117.8L119.198 40.4545H120.272L121.653 45.4489H121.721L123.136 40.4545H124.192L122.198 47H121.21L119.778 41.9716H119.675L118.244 47H117.255ZM128.044 47.1364C127.413 47.1364 126.869 46.9972 126.412 46.7188C125.957 46.4375 125.606 46.0455 125.359 45.5426C125.115 45.0369 124.993 44.4489 124.993 43.7784C124.993 43.108 125.115 42.517 125.359 42.0057C125.606 41.4915 125.95 41.0909 126.39 40.804C126.833 40.5142 127.35 40.3693 127.941 40.3693C128.282 40.3693 128.619 40.4261 128.951 40.5398C129.284 40.6534 129.586 40.8381 129.859 41.0938C130.132 41.3466 130.349 41.6818 130.511 42.0994C130.673 42.517 130.754 43.0312 130.754 43.642V44.0682H125.708V43.1989H129.731C129.731 42.8295 129.657 42.5 129.51 42.2102C129.365 41.9205 129.157 41.6918 128.887 41.5241C128.62 41.3565 128.305 41.2727 127.941 41.2727C127.541 41.2727 127.194 41.3722 126.902 41.571C126.612 41.767 126.389 42.0227 126.233 42.3381C126.076 42.6534 125.998 42.9915 125.998 43.3523V43.9318C125.998 44.4261 126.083 44.8452 126.254 45.1889C126.427 45.5298 126.667 45.7898 126.974 45.9688C127.281 46.1449 127.637 46.233 128.044 46.233C128.308 46.233 128.547 46.196 128.76 46.1222C128.975 46.0455 129.162 45.9318 129.318 45.7812C129.474 45.6278 129.595 45.4375 129.68 45.2102L130.652 45.483C130.549 45.8125 130.377 46.1023 130.136 46.3523C129.895 46.5994 129.596 46.7926 129.241 46.9318C128.886 47.0682 128.487 47.1364 128.044 47.1364ZM132.284 47V40.4545H133.255V41.4432H133.324C133.443 41.1193 133.659 40.8565 133.971 40.6548C134.284 40.4531 134.636 40.3523 135.028 40.3523C135.102 40.3523 135.194 40.3537 135.305 40.3565C135.416 40.3594 135.5 40.3636 135.556 40.3693V41.392C135.522 41.3835 135.444 41.3707 135.322 41.3537C135.203 41.3338 135.076 41.3239 134.943 41.3239C134.625 41.3239 134.341 41.3906 134.091 41.5241C133.843 41.6548 133.647 41.8366 133.502 42.0696C133.36 42.2997 133.289 42.5625 133.289 42.858V47H132.284ZM136.749 47V40.4545H137.754V47H136.749ZM137.26 39.3636C137.064 39.3636 136.895 39.2969 136.753 39.1634C136.614 39.0298 136.544 38.8693 136.544 38.6818C136.544 38.4943 136.614 38.3338 136.753 38.2003C136.895 38.0668 137.064 38 137.26 38C137.456 38 137.624 38.0668 137.763 38.2003C137.905 38.3338 137.976 38.4943 137.976 38.6818C137.976 38.8693 137.905 39.0298 137.763 39.1634C137.624 39.2969 137.456 39.3636 137.26 39.3636ZM140.602 43.0625V47H139.596V40.4545H140.568V41.4773H140.653C140.806 41.1449 141.039 40.8778 141.352 40.6761C141.664 40.4716 142.068 40.3693 142.562 40.3693C143.005 40.3693 143.393 40.4602 143.725 40.642C144.058 40.821 144.316 41.0938 144.501 41.4602C144.686 41.8239 144.778 42.2841 144.778 42.8409V47H143.772V42.9091C143.772 42.3949 143.639 41.9943 143.372 41.7074C143.105 41.4176 142.738 41.2727 142.272 41.2727C141.951 41.2727 141.664 41.3423 141.412 41.4815C141.162 41.6207 140.964 41.8239 140.819 42.0909C140.674 42.358 140.602 42.6818 140.602 43.0625ZM149.258 49.5909C148.772 49.5909 148.354 49.5284 148.005 49.4034C147.656 49.2812 147.364 49.1193 147.131 48.9176C146.901 48.7188 146.718 48.5057 146.582 48.2784L147.383 47.7159C147.474 47.8352 147.589 47.9716 147.728 48.125C147.867 48.2812 148.058 48.4162 148.299 48.5298C148.543 48.6463 148.863 48.7045 149.258 48.7045C149.786 48.7045 150.222 48.5767 150.566 48.321C150.91 48.0653 151.082 47.6648 151.082 47.1193V45.7898H150.996C150.923 45.9091 150.817 46.0568 150.681 46.233C150.548 46.4062 150.354 46.5611 150.102 46.6974C149.852 46.831 149.513 46.8977 149.087 46.8977C148.559 46.8977 148.085 46.7727 147.664 46.5227C147.246 46.2727 146.915 45.9091 146.671 45.4318C146.43 44.9545 146.309 44.375 146.309 43.6932C146.309 43.0227 146.427 42.4389 146.663 41.9418C146.898 41.4418 147.227 41.0554 147.647 40.7827C148.067 40.5071 148.553 40.3693 149.104 40.3693C149.531 40.3693 149.869 40.4403 150.119 40.5824C150.371 40.7216 150.565 40.8807 150.698 41.0597C150.835 41.2358 150.94 41.3807 151.013 41.4943H151.116V40.4545H152.087V47.1875C152.087 47.75 151.96 48.2074 151.704 48.5597C151.451 48.9148 151.11 49.1747 150.681 49.3395C150.255 49.5071 149.781 49.5909 149.258 49.5909ZM149.224 45.9943C149.627 45.9943 149.968 45.902 150.246 45.7173C150.525 45.5327 150.737 45.267 150.881 44.9205C151.026 44.5739 151.099 44.1591 151.099 43.6761C151.099 43.2045 151.028 42.7884 150.886 42.4276C150.744 42.0668 150.533 41.7841 150.255 41.5795C149.977 41.375 149.633 41.2727 149.224 41.2727C148.798 41.2727 148.442 41.3807 148.158 41.5966C147.877 41.8125 147.665 42.1023 147.523 42.4659C147.384 42.8295 147.315 43.233 147.315 43.6761C147.315 44.1307 147.386 44.5327 147.528 44.8821C147.673 45.2287 147.886 45.5014 148.167 45.7003C148.451 45.8963 148.803 45.9943 149.224 45.9943ZM159.775 47.1364C159.229 47.1364 158.748 46.9986 158.33 46.723C157.913 46.4446 157.586 46.0526 157.35 45.5469C157.114 45.0384 156.996 44.4375 156.996 43.7443C156.996 43.0568 157.114 42.4602 157.35 41.9545C157.586 41.4489 157.914 41.0582 158.335 40.7827C158.755 40.5071 159.241 40.3693 159.792 40.3693C160.218 40.3693 160.555 40.4403 160.802 40.5824C161.052 40.7216 161.242 40.8807 161.373 41.0597C161.506 41.2358 161.61 41.3807 161.684 41.4943H161.769V38.2727H162.775V47H161.803V45.9943H161.684C161.61 46.1136 161.505 46.2642 161.369 46.446C161.232 46.625 161.038 46.7855 160.785 46.9276C160.532 47.0668 160.195 47.1364 159.775 47.1364ZM159.911 46.233C160.315 46.233 160.656 46.1278 160.934 45.9176C161.212 45.7045 161.424 45.4105 161.569 45.0355C161.714 44.6577 161.786 44.2216 161.786 43.7273C161.786 43.2386 161.715 42.8111 161.573 42.4446C161.431 42.0753 161.221 41.7884 160.942 41.5838C160.664 41.3764 160.32 41.2727 159.911 41.2727C159.485 41.2727 159.13 41.3821 158.846 41.6009C158.565 41.8168 158.353 42.1108 158.211 42.483C158.072 42.8523 158.002 43.267 158.002 43.7273C158.002 44.1932 158.073 44.6165 158.215 44.9972C158.36 45.375 158.573 45.6761 158.854 45.9006C159.138 46.1222 159.491 46.233 159.911 46.233ZM165.404 49.4545C165.234 49.4545 165.082 49.4403 164.948 49.4119C164.815 49.3864 164.722 49.3608 164.671 49.3352L164.927 48.4489C165.171 48.5114 165.387 48.5341 165.575 48.517C165.762 48.5 165.928 48.4162 166.073 48.2656C166.221 48.1179 166.356 47.8778 166.478 47.5455L166.665 47.0341L164.245 40.4545H165.336L167.143 45.6705H167.211L169.018 40.4545H170.109L167.33 47.9545C167.205 48.2926 167.05 48.5724 166.866 48.794C166.681 49.0185 166.467 49.1847 166.222 49.2926C165.981 49.4006 165.708 49.4545 165.404 49.4545ZM172.442 43.0625V47H171.436V40.4545H172.408V41.4773H172.493C172.646 41.1449 172.879 40.8778 173.192 40.6761C173.504 40.4716 173.908 40.3693 174.402 40.3693C174.845 40.3693 175.233 40.4602 175.565 40.642C175.898 40.821 176.156 41.0938 176.341 41.4602C176.526 41.8239 176.618 42.2841 176.618 42.8409V47H175.612V42.9091C175.612 42.3949 175.479 41.9943 175.212 41.7074C174.945 41.4176 174.578 41.2727 174.112 41.2727C173.791 41.2727 173.504 41.3423 173.251 41.4815C173.001 41.6207 172.804 41.8239 172.659 42.0909C172.514 42.358 172.442 42.6818 172.442 43.0625ZM180.382 47.1534C179.967 47.1534 179.591 47.0753 179.252 46.919C178.914 46.7599 178.646 46.5312 178.447 46.233C178.248 45.9318 178.149 45.5682 178.149 45.142C178.149 44.767 178.223 44.4631 178.37 44.2301C178.518 43.9943 178.716 43.8097 178.963 43.6761C179.21 43.5426 179.483 43.4432 179.781 43.3778C180.082 43.3097 180.385 43.2557 180.689 43.2159C181.086 43.1648 181.409 43.1264 181.656 43.1009C181.906 43.0724 182.088 43.0256 182.201 42.9602C182.318 42.8949 182.376 42.7812 182.376 42.6193V42.5852C182.376 42.1648 182.261 41.8381 182.031 41.6051C181.804 41.3722 181.458 41.2557 180.995 41.2557C180.515 41.2557 180.139 41.3608 179.866 41.571C179.593 41.7812 179.402 42.0057 179.291 42.2443L178.336 41.9034C178.507 41.5057 178.734 41.196 179.018 40.9744C179.305 40.75 179.618 40.5937 179.956 40.5057C180.297 40.4148 180.632 40.3693 180.961 40.3693C181.172 40.3693 181.413 40.3949 181.686 40.446C181.961 40.4943 182.227 40.5952 182.483 40.7486C182.741 40.902 182.956 41.1335 183.126 41.4432C183.297 41.7528 183.382 42.1676 183.382 42.6875V47H182.376V46.1136H182.325C182.257 46.2557 182.143 46.4077 181.984 46.5696C181.825 46.7315 181.613 46.8693 181.349 46.983C181.085 47.0966 180.762 47.1534 180.382 47.1534ZM180.535 46.25C180.933 46.25 181.268 46.1719 181.541 46.0156C181.816 45.8594 182.024 45.6577 182.163 45.4105C182.305 45.1634 182.376 44.9034 182.376 44.6307V43.7102C182.333 43.7614 182.24 43.8082 182.095 43.8509C181.953 43.8906 181.788 43.9261 181.6 43.9574C181.416 43.9858 181.235 44.0114 181.059 44.0341C180.886 44.054 180.745 44.071 180.637 44.0852C180.376 44.1193 180.132 44.1747 179.904 44.2514C179.68 44.3253 179.498 44.4375 179.359 44.5881C179.223 44.7358 179.154 44.9375 179.154 45.1932C179.154 45.5426 179.284 45.8068 179.542 45.9858C179.804 46.1619 180.135 46.25 180.535 46.25ZM185.217 47V40.4545H186.189V41.4773H186.274C186.411 41.1278 186.631 40.8565 186.935 40.6634C187.239 40.4673 187.604 40.3693 188.03 40.3693C188.462 40.3693 188.821 40.4673 189.108 40.6634C189.398 40.8565 189.624 41.1278 189.786 41.4773H189.854C190.021 41.1392 190.273 40.8707 190.608 40.6719C190.943 40.4702 191.345 40.3693 191.814 40.3693C192.399 40.3693 192.878 40.5526 193.25 40.919C193.622 41.2827 193.808 41.8494 193.808 42.6193V47H192.803V42.6193C192.803 42.1364 192.67 41.7912 192.406 41.5838C192.142 41.3764 191.831 41.2727 191.473 41.2727C191.013 41.2727 190.656 41.4119 190.403 41.6903C190.151 41.9659 190.024 42.3153 190.024 42.7386V47H189.001V42.517C189.001 42.1449 188.881 41.8452 188.639 41.6179C188.398 41.3878 188.087 41.2727 187.706 41.2727C187.445 41.2727 187.2 41.3423 186.973 41.4815C186.749 41.6207 186.567 41.8139 186.428 42.0611C186.291 42.3054 186.223 42.5881 186.223 42.9091V47H185.217ZM195.647 47V40.4545H196.653V47H195.647ZM196.158 39.3636C195.962 39.3636 195.793 39.2969 195.651 39.1634C195.512 39.0298 195.442 38.8693 195.442 38.6818C195.442 38.4943 195.512 38.3338 195.651 38.2003C195.793 38.0668 195.962 38 196.158 38C196.354 38 196.522 38.0668 196.661 38.2003C196.803 38.3338 196.874 38.4943 196.874 38.6818C196.874 38.8693 196.803 39.0298 196.661 39.1634C196.522 39.2969 196.354 39.3636 196.158 39.3636ZM201.154 47.1364C200.54 47.1364 200.012 46.9915 199.569 46.7017C199.125 46.4119 198.784 46.0128 198.546 45.5043C198.307 44.9957 198.188 44.4148 198.188 43.7614C198.188 43.0966 198.31 42.5099 198.554 42.0014C198.801 41.4901 199.145 41.0909 199.586 40.804C200.029 40.5142 200.546 40.3693 201.137 40.3693C201.597 40.3693 202.012 40.4545 202.381 40.625C202.75 40.7955 203.053 41.0341 203.289 41.3409C203.525 41.6477 203.671 42.0057 203.728 42.4148H202.722C202.645 42.1165 202.475 41.8523 202.211 41.6222C201.949 41.3892 201.597 41.2727 201.154 41.2727C200.762 41.2727 200.418 41.375 200.123 41.5795C199.83 41.7812 199.601 42.0668 199.436 42.4361C199.275 42.8026 199.194 43.233 199.194 43.7273C199.194 44.233 199.273 44.6733 199.432 45.0483C199.594 45.4233 199.821 45.7145 200.114 45.9219C200.409 46.1293 200.756 46.233 201.154 46.233C201.415 46.233 201.652 46.1875 201.865 46.0966C202.078 46.0057 202.259 45.875 202.407 45.7045C202.554 45.5341 202.659 45.3295 202.722 45.0909H203.728C203.671 45.4773 203.53 45.8253 203.306 46.1349C203.084 46.4418 202.79 46.6861 202.424 46.8679C202.06 47.0469 201.637 47.1364 201.154 47.1364ZM210.499 47.1534C210.084 47.1534 209.708 47.0753 209.37 46.919C209.032 46.7599 208.763 46.5312 208.564 46.233C208.365 45.9318 208.266 45.5682 208.266 45.142C208.266 44.767 208.34 44.4631 208.488 44.2301C208.635 43.9943 208.833 43.8097 209.08 43.6761C209.327 43.5426 209.6 43.4432 209.898 43.3778C210.199 43.3097 210.502 43.2557 210.806 43.2159C211.203 43.1648 211.526 43.1264 211.773 43.1009C212.023 43.0724 212.205 43.0256 212.319 42.9602C212.435 42.8949 212.493 42.7812 212.493 42.6193V42.5852C212.493 42.1648 212.378 41.8381 212.148 41.6051C211.921 41.3722 211.576 41.2557 211.113 41.2557C210.632 41.2557 210.256 41.3608 209.983 41.571C209.711 41.7812 209.519 42.0057 209.408 42.2443L208.453 41.9034C208.624 41.5057 208.851 41.196 209.135 40.9744C209.422 40.75 209.735 40.5937 210.073 40.5057C210.414 40.4148 210.749 40.3693 211.078 40.3693C211.289 40.3693 211.53 40.3949 211.803 40.446C212.078 40.4943 212.344 40.5952 212.6 40.7486C212.858 40.902 213.073 41.1335 213.243 41.4432C213.414 41.7528 213.499 42.1676 213.499 42.6875V47H212.493V46.1136H212.442C212.374 46.2557 212.26 46.4077 212.101 46.5696C211.942 46.7315 211.73 46.8693 211.466 46.983C211.202 47.0966 210.88 47.1534 210.499 47.1534ZM210.652 46.25C211.05 46.25 211.385 46.1719 211.658 46.0156C211.934 45.8594 212.141 45.6577 212.28 45.4105C212.422 45.1634 212.493 44.9034 212.493 44.6307V43.7102C212.451 43.7614 212.357 43.8082 212.212 43.8509C212.07 43.8906 211.905 43.9261 211.718 43.9574C211.533 43.9858 211.353 44.0114 211.176 44.0341C211.003 44.054 210.863 44.071 210.755 44.0852C210.493 44.1193 210.249 44.1747 210.022 44.2514C209.797 44.3253 209.615 44.4375 209.476 44.5881C209.34 44.7358 209.272 44.9375 209.272 45.1932C209.272 45.5426 209.401 45.8068 209.659 45.9858C209.921 46.1619 210.252 46.25 210.652 46.25ZM216.34 43.0625V47H215.335V40.4545H216.306V41.4773H216.391C216.545 41.1449 216.778 40.8778 217.09 40.6761C217.403 40.4716 217.806 40.3693 218.3 40.3693C218.744 40.3693 219.131 40.4602 219.464 40.642C219.796 40.821 220.055 41.0938 220.239 41.4602C220.424 41.8239 220.516 42.2841 220.516 42.8409V47H219.511V42.9091C219.511 42.3949 219.377 41.9943 219.11 41.7074C218.843 41.4176 218.477 41.2727 218.011 41.2727C217.69 41.2727 217.403 41.3423 217.15 41.4815C216.9 41.6207 216.702 41.8239 216.558 42.0909C216.413 42.358 216.34 42.6818 216.34 43.0625ZM224.826 47.1364C224.28 47.1364 223.799 46.9986 223.381 46.723C222.963 46.4446 222.637 46.0526 222.401 45.5469C222.165 45.0384 222.047 44.4375 222.047 43.7443C222.047 43.0568 222.165 42.4602 222.401 41.9545C222.637 41.4489 222.965 41.0582 223.385 40.7827C223.806 40.5071 224.292 40.3693 224.843 40.3693C225.269 40.3693 225.605 40.4403 225.853 40.5824C226.103 40.7216 226.293 40.8807 226.424 41.0597C226.557 41.2358 226.661 41.3807 226.735 41.4943H226.82V38.2727H227.826V47H226.854V45.9943H226.735C226.661 46.1136 226.556 46.2642 226.419 46.446C226.283 46.625 226.088 46.7855 225.836 46.9276C225.583 47.0668 225.246 47.1364 224.826 47.1364ZM224.962 46.233C225.365 46.233 225.706 46.1278 225.985 45.9176C226.263 45.7045 226.475 45.4105 226.62 45.0355C226.765 44.6577 226.837 44.2216 226.837 43.7273C226.837 43.2386 226.766 42.8111 226.624 42.4446C226.482 42.0753 226.272 41.7884 225.993 41.5838C225.715 41.3764 225.371 41.2727 224.962 41.2727C224.536 41.2727 224.181 41.3821 223.897 41.6009C223.615 41.8168 223.404 42.1108 223.262 42.483C223.123 42.8523 223.053 43.267 223.053 43.7273C223.053 44.1932 223.124 44.6165 223.266 44.9972C223.411 45.375 223.624 45.6761 223.905 45.9006C224.189 46.1222 224.542 46.233 224.962 46.233ZM85.8466 63.1534C85.4318 63.1534 85.0554 63.0753 84.7173 62.919C84.3793 62.7599 84.1108 62.5312 83.9119 62.233C83.7131 61.9318 83.6136 61.5682 83.6136 61.142C83.6136 60.767 83.6875 60.4631 83.8352 60.2301C83.983 59.9943 84.1804 59.8097 84.4276 59.6761C84.6747 59.5426 84.9474 59.4432 85.2457 59.3778C85.5469 59.3097 85.8494 59.2557 86.1534 59.2159C86.5511 59.1648 86.8736 59.1264 87.1207 59.1009C87.3707 59.0724 87.5526 59.0256 87.6662 58.9602C87.7827 58.8949 87.8409 58.7812 87.8409 58.6193V58.5852C87.8409 58.1648 87.7259 57.8381 87.4957 57.6051C87.2685 57.3722 86.9233 57.2557 86.4602 57.2557C85.9801 57.2557 85.6037 57.3608 85.331 57.571C85.0582 57.7812 84.8665 58.0057 84.7557 58.2443L83.8011 57.9034C83.9716 57.5057 84.1989 57.196 84.483 56.9744C84.7699 56.75 85.0824 56.5937 85.4205 56.5057C85.7614 56.4148 86.0966 56.3693 86.4261 56.3693C86.6364 56.3693 86.8778 56.3949 87.1506 56.446C87.4261 56.4943 87.6918 56.5952 87.9474 56.7486C88.206 56.902 88.4205 57.1335 88.5909 57.4432C88.7614 57.7528 88.8466 58.1676 88.8466 58.6875V63H87.8409V62.1136H87.7898C87.7216 62.2557 87.608 62.4077 87.4489 62.5696C87.2898 62.7315 87.0781 62.8693 86.8139 62.983C86.5497 63.0966 86.2273 63.1534 85.8466 63.1534ZM86 62.25C86.3977 62.25 86.733 62.1719 87.0057 62.0156C87.2813 61.8594 87.4886 61.6577 87.6278 61.4105C87.7699 61.1634 87.8409 60.9034 87.8409 60.6307V59.7102C87.7983 59.7614 87.7045 59.8082 87.5597 59.8509C87.4176 59.8906 87.2528 59.9261 87.0653 59.9574C86.8807 59.9858 86.7003 60.0114 86.5241 60.0341C86.3509 60.054 86.2102 60.071 86.1023 60.0852C85.8409 60.1193 85.5966 60.1747 85.3693 60.2514C85.1449 60.3253 84.9631 60.4375 84.8239 60.5881C84.6875 60.7358 84.6193 60.9375 84.6193 61.1932C84.6193 61.5426 84.7486 61.8068 85.0071 61.9858C85.2685 62.1619 85.5994 62.25 86 62.25ZM93.3242 65.5909C92.8384 65.5909 92.4208 65.5284 92.0714 65.4034C91.7219 65.2812 91.4308 65.1193 91.1978 64.9176C90.9677 64.7188 90.7844 64.5057 90.6481 64.2784L91.4492 63.7159C91.5401 63.8352 91.6552 63.9716 91.7944 64.125C91.9336 64.2812 92.1239 64.4162 92.3654 64.5298C92.6097 64.6463 92.9293 64.7045 93.3242 64.7045C93.8526 64.7045 94.2887 64.5767 94.6325 64.321C94.9762 64.0653 95.1481 63.6648 95.1481 63.1193V61.7898H95.0629C94.989 61.9091 94.8839 62.0568 94.7475 62.233C94.614 62.4062 94.4208 62.5611 94.168 62.6974C93.918 62.831 93.5799 62.8977 93.1538 62.8977C92.6254 62.8977 92.1509 62.7727 91.7305 62.5227C91.3129 62.2727 90.9819 61.9091 90.7376 61.4318C90.4961 60.9545 90.3754 60.375 90.3754 59.6932C90.3754 59.0227 90.4933 58.4389 90.729 57.9418C90.9648 57.4418 91.293 57.0554 91.7134 56.7827C92.1339 56.5071 92.6197 56.3693 93.1708 56.3693C93.5969 56.3693 93.935 56.4403 94.185 56.5824C94.4379 56.7216 94.631 56.8807 94.7646 57.0597C94.9009 57.2358 95.006 57.3807 95.0799 57.4943H95.1822V56.4545H96.1538V63.1875C96.1538 63.75 96.0259 64.2074 95.7702 64.5597C95.5174 64.9148 95.1765 65.1747 94.7475 65.3395C94.3214 65.5071 93.8469 65.5909 93.3242 65.5909ZM93.2901 61.9943C93.6935 61.9943 94.0344 61.902 94.3129 61.7173C94.5913 61.5327 94.8029 61.267 94.9478 60.9205C95.0927 60.5739 95.1651 60.1591 95.1651 59.6761C95.1651 59.2045 95.0941 58.7884 94.9521 58.4276C94.81 58.0668 94.5998 57.7841 94.3214 57.5795C94.043 57.375 93.6992 57.2727 93.2901 57.2727C92.864 57.2727 92.5089 57.3807 92.2248 57.5966C91.9435 57.8125 91.7319 58.1023 91.5898 58.4659C91.4506 58.8295 91.381 59.233 91.381 59.6761C91.381 60.1307 91.4521 60.5327 91.5941 60.8821C91.739 61.2287 91.9521 61.5014 92.2333 61.7003C92.5174 61.8963 92.8697 61.9943 93.2901 61.9943ZM97.9947 63V56.4545H99.0004V63H97.9947ZM98.506 55.3636C98.31 55.3636 98.141 55.2969 97.9989 55.1634C97.8597 55.0298 97.7901 54.8693 97.7901 54.6818C97.7901 54.4943 97.8597 54.3338 97.9989 54.2003C98.141 54.0668 98.31 54 98.506 54C98.7021 54 98.8697 54.0668 99.0089 54.2003C99.1509 54.3338 99.2219 54.4943 99.2219 54.6818C99.2219 54.8693 99.1509 55.0298 99.0089 55.1634C98.8697 55.2969 98.7021 55.3636 98.506 55.3636ZM101.848 54.2727V63H100.842V54.2727H101.848ZM106.434 63.1364C105.804 63.1364 105.26 62.9972 104.802 62.7188C104.348 62.4375 103.997 62.0455 103.75 61.5426C103.505 61.0369 103.383 60.4489 103.383 59.7784C103.383 59.108 103.505 58.517 103.75 58.0057C103.997 57.4915 104.341 57.0909 104.781 56.804C105.224 56.5142 105.741 56.3693 106.332 56.3693C106.673 56.3693 107.01 56.4261 107.342 56.5398C107.674 56.6534 107.977 56.8381 108.25 57.0938C108.522 57.3466 108.74 57.6818 108.902 58.0994C109.064 58.517 109.145 59.0312 109.145 59.642V60.0682H104.099V59.1989H108.122C108.122 58.8295 108.048 58.5 107.9 58.2102C107.755 57.9205 107.548 57.6918 107.278 57.5241C107.011 57.3565 106.696 57.2727 106.332 57.2727C105.931 57.2727 105.585 57.3722 105.292 57.571C105.002 57.767 104.779 58.0227 104.623 58.3381C104.467 58.6534 104.389 58.9915 104.389 59.3523V59.9318C104.389 60.4261 104.474 60.8452 104.645 61.1889C104.818 61.5298 105.058 61.7898 105.365 61.9688C105.672 62.1449 106.028 62.233 106.434 62.233C106.699 62.233 106.937 62.196 107.15 62.1222C107.366 62.0455 107.552 61.9318 107.708 61.7812C107.865 61.6278 107.985 61.4375 108.071 61.2102L109.042 61.483C108.94 61.8125 108.768 62.1023 108.527 62.3523C108.285 62.5994 107.987 62.7926 107.632 62.9318C107.277 63.0682 106.877 63.1364 106.434 63.1364ZM115.532 63L113.538 56.4545H114.595L116.01 61.4659H116.078L117.475 56.4545H118.549L119.93 61.4489H119.998L121.413 56.4545H122.47L120.475 63H119.487L118.055 57.9716H117.953L116.521 63H115.532ZM126.236 63.1364C125.645 63.1364 125.126 62.9957 124.68 62.7145C124.237 62.4332 123.891 62.0398 123.641 61.5341C123.393 61.0284 123.27 60.4375 123.27 59.7614C123.27 59.0795 123.393 58.4844 123.641 57.9759C123.891 57.4673 124.237 57.0724 124.68 56.7912C125.126 56.5099 125.645 56.3693 126.236 56.3693C126.827 56.3693 127.344 56.5099 127.787 56.7912C128.233 57.0724 128.58 57.4673 128.827 57.9759C129.077 58.4844 129.202 59.0795 129.202 59.7614C129.202 60.4375 129.077 61.0284 128.827 61.5341C128.58 62.0398 128.233 62.4332 127.787 62.7145C127.344 62.9957 126.827 63.1364 126.236 63.1364ZM126.236 62.233C126.685 62.233 127.054 62.1179 127.344 61.8878C127.634 61.6577 127.848 61.3551 127.987 60.9801C128.126 60.6051 128.196 60.1989 128.196 59.7614C128.196 59.3239 128.126 58.9162 127.987 58.5384C127.848 58.1605 127.634 57.8551 127.344 57.6222C127.054 57.3892 126.685 57.2727 126.236 57.2727C125.787 57.2727 125.418 57.3892 125.128 57.6222C124.838 57.8551 124.624 58.1605 124.484 58.5384C124.345 58.9162 124.276 59.3239 124.276 59.7614C124.276 60.1989 124.345 60.6051 124.484 60.9801C124.624 61.3551 124.838 61.6577 125.128 61.8878C125.418 62.1179 125.787 62.233 126.236 62.233ZM130.737 63V56.4545H131.708V57.4432H131.777C131.896 57.1193 132.112 56.8565 132.424 56.6548C132.737 56.4531 133.089 56.3523 133.481 56.3523C133.555 56.3523 133.647 56.3537 133.758 56.3565C133.869 56.3594 133.953 56.3636 134.01 56.3693V57.392C133.975 57.3835 133.897 57.3707 133.775 57.3537C133.656 57.3338 133.529 57.3239 133.396 57.3239C133.078 57.3239 132.794 57.3906 132.544 57.5241C132.297 57.6548 132.1 57.8366 131.956 58.0696C131.814 58.2997 131.743 58.5625 131.743 58.858V63H130.737ZM136.139 60.6136L136.122 59.3693H136.327L139.19 56.4545H140.435L137.384 59.5398H137.298L136.139 60.6136ZM135.202 63V54.2727H136.207V63H135.202ZM139.361 63L136.804 59.7614L137.52 59.0625L140.639 63H139.361ZM144.644 56.4545V57.3068H141.115V56.4545H144.644ZM142.172 63V55.5511C142.172 55.1761 142.26 54.8636 142.436 54.6136C142.613 54.3636 142.841 54.1761 143.123 54.0511C143.404 53.9261 143.701 53.8636 144.013 53.8636C144.26 53.8636 144.462 53.8835 144.618 53.9233C144.775 53.9631 144.891 54 144.968 54.0341L144.678 54.9034C144.627 54.8864 144.556 54.8651 144.465 54.8395C144.377 54.8139 144.26 54.8011 144.115 54.8011C143.783 54.8011 143.543 54.8849 143.395 55.0526C143.25 55.2202 143.178 55.4659 143.178 55.7898V63H142.172ZM148.443 63.1364C147.852 63.1364 147.333 62.9957 146.887 62.7145C146.444 62.4332 146.098 62.0398 145.848 61.5341C145.6 61.0284 145.477 60.4375 145.477 59.7614C145.477 59.0795 145.6 58.4844 145.848 57.9759C146.098 57.4673 146.444 57.0724 146.887 56.7912C147.333 56.5099 147.852 56.3693 148.443 56.3693C149.034 56.3693 149.551 56.5099 149.994 56.7912C150.44 57.0724 150.787 57.4673 151.034 57.9759C151.284 58.4844 151.409 59.0795 151.409 59.7614C151.409 60.4375 151.284 61.0284 151.034 61.5341C150.787 62.0398 150.44 62.4332 149.994 62.7145C149.551 62.9957 149.034 63.1364 148.443 63.1364ZM148.443 62.233C148.892 62.233 149.261 62.1179 149.551 61.8878C149.841 61.6577 150.055 61.3551 150.194 60.9801C150.333 60.6051 150.403 60.1989 150.403 59.7614C150.403 59.3239 150.333 58.9162 150.194 58.5384C150.055 58.1605 149.841 57.8551 149.551 57.6222C149.261 57.3892 148.892 57.2727 148.443 57.2727C147.994 57.2727 147.625 57.3892 147.335 57.6222C147.045 57.8551 146.831 58.1605 146.691 58.5384C146.552 58.9162 146.483 59.3239 146.483 59.7614C146.483 60.1989 146.552 60.6051 146.691 60.9801C146.831 61.3551 147.045 61.6577 147.335 61.8878C147.625 62.1179 147.994 62.233 148.443 62.233ZM152.944 63V56.4545H153.915V57.4432H153.984C154.103 57.1193 154.319 56.8565 154.631 56.6548C154.944 56.4531 155.296 56.3523 155.688 56.3523C155.762 56.3523 155.854 56.3537 155.965 56.3565C156.076 56.3594 156.16 56.3636 156.217 56.3693V57.392C156.183 57.3835 156.104 57.3707 155.982 57.3537C155.863 57.3338 155.737 57.3239 155.603 57.3239C155.285 57.3239 155.001 57.3906 154.751 57.5241C154.504 57.6548 154.308 57.8366 154.163 58.0696C154.021 58.2997 153.95 58.5625 153.95 58.858V63H152.944ZM159.869 63.1364C159.255 63.1364 158.727 62.9915 158.283 62.7017C157.84 62.4119 157.499 62.0128 157.261 61.5043C157.022 60.9957 156.903 60.4148 156.903 59.7614C156.903 59.0966 157.025 58.5099 157.269 58.0014C157.516 57.4901 157.86 57.0909 158.3 56.804C158.744 56.5142 159.261 56.3693 159.852 56.3693C160.312 56.3693 160.727 56.4545 161.096 56.625C161.465 56.7955 161.768 57.0341 162.004 57.3409C162.239 57.6477 162.386 58.0057 162.442 58.4148H161.437C161.36 58.1165 161.19 57.8523 160.925 57.6222C160.664 57.3892 160.312 57.2727 159.869 57.2727C159.477 57.2727 159.133 57.375 158.837 57.5795C158.545 57.7812 158.316 58.0668 158.151 58.4361C157.989 58.8026 157.908 59.233 157.908 59.7273C157.908 60.233 157.988 60.6733 158.147 61.0483C158.309 61.4233 158.536 61.7145 158.829 61.9219C159.124 62.1293 159.471 62.233 159.869 62.233C160.13 62.233 160.367 62.1875 160.58 62.0966C160.793 62.0057 160.974 61.875 161.121 61.7045C161.269 61.5341 161.374 61.3295 161.437 61.0909H162.442C162.386 61.4773 162.245 61.8253 162.021 62.1349C161.799 62.4418 161.505 62.6861 161.138 62.8679C160.775 63.0469 160.352 63.1364 159.869 63.1364ZM166.657 63.1364C166.026 63.1364 165.482 62.9972 165.025 62.7188C164.57 62.4375 164.219 62.0455 163.972 61.5426C163.728 61.0369 163.606 60.4489 163.606 59.7784C163.606 59.108 163.728 58.517 163.972 58.0057C164.219 57.4915 164.563 57.0909 165.004 56.804C165.447 56.5142 165.964 56.3693 166.555 56.3693C166.896 56.3693 167.232 56.4261 167.565 56.5398C167.897 56.6534 168.2 56.8381 168.472 57.0938C168.745 57.3466 168.962 57.6818 169.124 58.0994C169.286 58.517 169.367 59.0312 169.367 59.642V60.0682H164.322V59.1989H168.344C168.344 58.8295 168.271 58.5 168.123 58.2102C167.978 57.9205 167.771 57.6918 167.501 57.5241C167.234 57.3565 166.918 57.2727 166.555 57.2727C166.154 57.2727 165.808 57.3722 165.515 57.571C165.225 57.767 165.002 58.0227 164.846 58.3381C164.69 58.6534 164.612 58.9915 164.612 59.3523V59.9318C164.612 60.4261 164.697 60.8452 164.867 61.1889C165.04 61.5298 165.281 61.7898 165.587 61.9688C165.894 62.1449 166.251 62.233 166.657 62.233C166.921 62.233 167.16 62.196 167.373 62.1222C167.589 62.0455 167.775 61.9318 167.931 61.7812C168.087 61.6278 168.208 61.4375 168.293 61.2102L169.265 61.483C169.163 61.8125 168.991 62.1023 168.749 62.3523C168.508 62.5994 168.21 62.7926 167.854 62.9318C167.499 63.0682 167.1 63.1364 166.657 63.1364Z" fill="#555555"/>
<path d="M85.2628 27H83.2855L86.2983 18.2727H88.6761L91.6847 27H89.7074L87.5213 20.267H87.4531L85.2628 27ZM85.1392 23.5696H89.8097V25.0099H85.1392V23.5696ZM95.7724 20.4545V21.8182H91.8306V20.4545H95.7724ZM92.7255 18.8864H94.5408V24.9886C94.5408 25.1562 94.5664 25.2869 94.6175 25.3807C94.6687 25.4716 94.7397 25.5355 94.8306 25.5724C94.9244 25.6094 95.0323 25.6278 95.1545 25.6278C95.2397 25.6278 95.3249 25.6207 95.4102 25.6065C95.4954 25.5895 95.5607 25.5767 95.6062 25.5682L95.8917 26.919C95.8008 26.9474 95.6729 26.9801 95.5082 27.017C95.3434 27.0568 95.1431 27.081 94.9073 27.0895C94.4698 27.1065 94.0863 27.0483 93.7567 26.9148C93.43 26.7812 93.1758 26.5739 92.994 26.2926C92.8121 26.0114 92.7227 25.6562 92.7255 25.2273V18.8864ZM100.436 20.4545V21.8182H96.4947V20.4545H100.436ZM97.3896 18.8864H99.2049V24.9886C99.2049 25.1562 99.2305 25.2869 99.2816 25.3807C99.3327 25.4716 99.4038 25.5355 99.4947 25.5724C99.5884 25.6094 99.6964 25.6278 99.8185 25.6278C99.9038 25.6278 99.989 25.6207 100.074 25.6065C100.159 25.5895 100.225 25.5767 100.27 25.5682L100.556 26.919C100.465 26.9474 100.337 26.9801 100.172 27.017C100.007 27.0568 99.8072 27.081 99.5714 27.0895C99.1339 27.1065 98.7504 27.0483 98.4208 26.9148C98.0941 26.7812 97.8398 26.5739 97.658 26.2926C97.4762 26.0114 97.3867 25.6562 97.3896 25.2273V18.8864ZM104.532 27.1278C103.858 27.1278 103.279 26.9915 102.793 26.7188C102.31 26.4432 101.938 26.054 101.676 25.5511C101.415 25.0455 101.284 24.4474 101.284 23.7571C101.284 23.0838 101.415 22.4929 101.676 21.9844C101.938 21.4759 102.306 21.0795 102.78 20.7955C103.257 20.5114 103.817 20.3693 104.459 20.3693C104.891 20.3693 105.293 20.4389 105.665 20.5781C106.04 20.7145 106.367 20.9205 106.645 21.196C106.926 21.4716 107.145 21.8182 107.301 22.2358C107.458 22.6506 107.536 23.1364 107.536 23.6932V24.1918H102.009V23.0668H105.827C105.827 22.8054 105.77 22.5739 105.657 22.3722C105.543 22.1705 105.385 22.0128 105.184 21.8991C104.985 21.7827 104.753 21.7244 104.489 21.7244C104.213 21.7244 103.969 21.7884 103.756 21.9162C103.546 22.0412 103.381 22.2102 103.262 22.4233C103.142 22.6335 103.081 22.8679 103.078 23.1264V24.196C103.078 24.5199 103.138 24.7997 103.257 25.0355C103.38 25.2713 103.551 25.4531 103.773 25.581C103.995 25.7088 104.257 25.7727 104.561 25.7727C104.763 25.7727 104.948 25.7443 105.115 25.6875C105.283 25.6307 105.426 25.5455 105.546 25.4318C105.665 25.3182 105.756 25.179 105.819 25.0142L107.498 25.125C107.412 25.5284 107.238 25.8807 106.973 26.1818C106.712 26.4801 106.374 26.7131 105.959 26.8807C105.547 27.0455 105.071 27.1278 104.532 27.1278ZM110.536 23.2159V27H108.721V20.4545H110.451V21.6094H110.527C110.672 21.2287 110.915 20.9276 111.256 20.706C111.597 20.4815 112.01 20.3693 112.496 20.3693C112.951 20.3693 113.347 20.4688 113.685 20.6676C114.023 20.8665 114.286 21.1506 114.473 21.5199C114.661 21.8864 114.755 22.3239 114.755 22.8324V27H112.939V23.1562C112.942 22.7557 112.84 22.4432 112.632 22.2188C112.425 21.9915 112.14 21.8778 111.776 21.8778C111.532 21.8778 111.316 21.9304 111.128 22.0355C110.944 22.1406 110.799 22.294 110.694 22.4957C110.591 22.6946 110.539 22.9347 110.536 23.2159ZM118.597 27.1065C118.1 27.1065 117.65 26.9787 117.246 26.723C116.846 26.4645 116.528 26.0852 116.292 25.5852C116.059 25.0824 115.942 24.4659 115.942 23.7358C115.942 22.9858 116.063 22.3622 116.305 21.8651C116.546 21.3651 116.867 20.9915 117.268 20.7443C117.671 20.4943 118.113 20.3693 118.593 20.3693C118.96 20.3693 119.265 20.4318 119.509 20.5568C119.756 20.679 119.955 20.8324 120.106 21.017C120.259 21.1989 120.376 21.3778 120.455 21.554H120.511V18.2727H122.322V27H120.532V25.9517H120.455C120.37 26.1335 120.249 26.3139 120.093 26.4929C119.94 26.669 119.739 26.8153 119.492 26.9318C119.248 27.0483 118.95 27.1065 118.597 27.1065ZM119.173 25.6619C119.465 25.6619 119.712 25.5824 119.914 25.4233C120.119 25.2614 120.275 25.0355 120.383 24.7457C120.494 24.456 120.549 24.1165 120.549 23.7273C120.549 23.3381 120.495 23 120.387 22.7131C120.279 22.4261 120.123 22.2045 119.918 22.0483C119.714 21.892 119.465 21.8139 119.173 21.8139C118.874 21.8139 118.623 21.8949 118.418 22.0568C118.214 22.2187 118.059 22.4432 117.954 22.7301C117.849 23.017 117.796 23.3494 117.796 23.7273C117.796 24.108 117.849 24.4446 117.954 24.7372C118.062 25.027 118.217 25.2543 118.418 25.419C118.623 25.581 118.874 25.6619 119.173 25.6619ZM125.681 27.1236C125.263 27.1236 124.891 27.0511 124.564 26.9062C124.238 26.7585 123.979 26.5412 123.789 26.2543C123.601 25.9645 123.507 25.6037 123.507 25.1719C123.507 24.8082 123.574 24.5028 123.708 24.2557C123.841 24.0085 124.023 23.8097 124.253 23.6591C124.483 23.5085 124.745 23.3949 125.037 23.3182C125.333 23.2415 125.642 23.1875 125.966 23.1562C126.347 23.1165 126.654 23.0795 126.887 23.0455C127.12 23.0085 127.289 22.9545 127.394 22.8835C127.499 22.8125 127.551 22.7074 127.551 22.5682V22.5426C127.551 22.2727 127.466 22.0639 127.296 21.9162C127.128 21.7685 126.89 21.6946 126.58 21.6946C126.253 21.6946 125.993 21.767 125.8 21.9119C125.607 22.054 125.479 22.233 125.417 22.4489L123.738 22.3125C123.823 21.9148 123.99 21.571 124.24 21.2812C124.49 20.9886 124.813 20.7642 125.208 20.608C125.605 20.4489 126.066 20.3693 126.588 20.3693C126.952 20.3693 127.3 20.4119 127.632 20.4972C127.968 20.5824 128.265 20.7145 128.523 20.8935C128.784 21.0724 128.99 21.3026 129.141 21.5838C129.292 21.8622 129.367 22.196 129.367 22.5852V27H127.645V26.0923H127.594C127.489 26.2969 127.348 26.4773 127.172 26.6335C126.996 26.7869 126.784 26.9077 126.537 26.9957C126.29 27.081 126.005 27.1236 125.681 27.1236ZM126.201 25.8707C126.468 25.8707 126.703 25.8182 126.908 25.7131C127.113 25.6051 127.273 25.4602 127.39 25.2784C127.506 25.0966 127.564 24.8906 127.564 24.6605V23.9659C127.507 24.0028 127.429 24.0369 127.33 24.0682C127.233 24.0966 127.124 24.1236 127.002 24.1491C126.88 24.1719 126.757 24.1932 126.635 24.2131C126.513 24.2301 126.402 24.2457 126.303 24.2599C126.09 24.2912 125.904 24.3409 125.745 24.4091C125.586 24.4773 125.462 24.5696 125.374 24.6861C125.286 24.7997 125.242 24.9418 125.242 25.1122C125.242 25.3594 125.331 25.5483 125.51 25.679C125.692 25.8068 125.922 25.8707 126.201 25.8707ZM132.591 23.2159V27H130.775V20.4545H132.505V21.6094H132.582C132.727 21.2287 132.97 20.9276 133.311 20.706C133.652 20.4815 134.065 20.3693 134.551 20.3693C135.005 20.3693 135.402 20.4688 135.74 20.6676C136.078 20.8665 136.341 21.1506 136.528 21.5199C136.716 21.8864 136.809 22.3239 136.809 22.8324V27H134.994V23.1562C134.997 22.7557 134.895 22.4432 134.687 22.2188C134.48 21.9915 134.194 21.8778 133.831 21.8778C133.586 21.8778 133.37 21.9304 133.183 22.0355C132.998 22.1406 132.853 22.294 132.748 22.4957C132.646 22.6946 132.593 22.9347 132.591 23.2159ZM141.197 27.1278C140.527 27.1278 139.95 26.9858 139.467 26.7017C138.987 26.4148 138.618 26.017 138.359 25.5085C138.104 25 137.976 24.4148 137.976 23.7528C137.976 23.0824 138.105 22.4943 138.364 21.9886C138.625 21.4801 138.996 21.0838 139.476 20.7997C139.956 20.5128 140.527 20.3693 141.189 20.3693C141.76 20.3693 142.26 20.473 142.689 20.6804C143.118 20.8878 143.457 21.179 143.707 21.554C143.957 21.929 144.095 22.3693 144.121 22.875H142.408C142.359 22.5483 142.232 22.2855 142.024 22.0866C141.82 21.8849 141.551 21.7841 141.219 21.7841C140.938 21.7841 140.692 21.8608 140.482 22.0142C140.274 22.1648 140.112 22.3849 139.996 22.6747C139.879 22.9645 139.821 23.3153 139.821 23.7273C139.821 24.1449 139.878 24.5 139.991 24.7926C140.108 25.0852 140.271 25.3082 140.482 25.4616C140.692 25.6151 140.938 25.6918 141.219 25.6918C141.426 25.6918 141.612 25.6491 141.777 25.5639C141.945 25.4787 142.082 25.3551 142.19 25.1932C142.301 25.0284 142.374 24.831 142.408 24.6009H144.121C144.092 25.1009 143.956 25.5412 143.712 25.9219C143.47 26.2997 143.136 26.5952 142.71 26.8082C142.284 27.0213 141.78 27.1278 141.197 27.1278ZM148.266 27.1278C147.593 27.1278 147.013 26.9915 146.527 26.7188C146.044 26.4432 145.672 26.054 145.411 25.5511C145.15 25.0455 145.019 24.4474 145.019 23.7571C145.019 23.0838 145.15 22.4929 145.411 21.9844C145.672 21.4759 146.04 21.0795 146.515 20.7955C146.992 20.5114 147.551 20.3693 148.194 20.3693C148.625 20.3693 149.027 20.4389 149.4 20.5781C149.775 20.7145 150.101 20.9205 150.38 21.196C150.661 21.4716 150.88 21.8182 151.036 22.2358C151.192 22.6506 151.27 23.1364 151.27 23.6932V24.1918H145.743V23.0668H149.561C149.561 22.8054 149.505 22.5739 149.391 22.3722C149.277 22.1705 149.12 22.0128 148.918 21.8991C148.719 21.7827 148.488 21.7244 148.223 21.7244C147.948 21.7244 147.703 21.7884 147.49 21.9162C147.28 22.0412 147.115 22.2102 146.996 22.4233C146.877 22.6335 146.816 22.8679 146.813 23.1264V24.196C146.813 24.5199 146.873 24.7997 146.992 25.0355C147.114 25.2713 147.286 25.4531 147.507 25.581C147.729 25.7088 147.992 25.7727 148.296 25.7727C148.498 25.7727 148.682 25.7443 148.85 25.6875C149.017 25.6307 149.161 25.5455 149.28 25.4318C149.4 25.3182 149.49 25.179 149.553 25.0142L151.232 25.125C151.147 25.5284 150.972 25.8807 150.708 26.1818C150.446 26.4801 150.108 26.7131 149.694 26.8807C149.282 27.0455 148.806 27.1278 148.266 27.1278ZM157.908 27.1278C157.306 27.1278 156.786 27.0199 156.349 26.804C155.911 26.5881 155.575 26.2955 155.339 25.9261C155.106 25.554 154.989 25.1392 154.989 24.6818C154.989 24.3409 155.058 24.0384 155.194 23.7741C155.33 23.5099 155.521 23.267 155.765 23.0455C156.009 22.821 156.293 22.598 156.617 22.3764L158.309 21.2642C158.528 21.125 158.688 20.9787 158.79 20.8253C158.893 20.669 158.944 20.5 158.944 20.3182C158.944 20.1449 158.874 19.9844 158.735 19.8366C158.596 19.6889 158.398 19.6165 158.143 19.6193C157.972 19.6193 157.825 19.6577 157.7 19.7344C157.575 19.8082 157.477 19.9062 157.406 20.0284C157.337 20.1477 157.303 20.2812 157.303 20.429C157.303 20.6108 157.354 20.7955 157.457 20.983C157.559 21.1705 157.695 21.3693 157.866 21.5795C158.036 21.7869 158.222 22.0114 158.424 22.2528L162.562 27H160.67L157.218 23.1562C156.991 22.8977 156.763 22.6278 156.536 22.3466C156.312 22.0625 156.124 21.7614 155.974 21.4432C155.823 21.1222 155.748 20.7741 155.748 20.3991C155.748 19.9759 155.846 19.5952 156.042 19.2571C156.241 18.919 156.519 18.652 156.877 18.456C157.235 18.2571 157.653 18.1577 158.13 18.1577C158.596 18.1577 158.998 18.2528 159.336 18.4432C159.677 18.6307 159.938 18.8807 160.12 19.1932C160.305 19.5028 160.397 19.8437 160.397 20.2159C160.397 20.6278 160.295 21.0014 160.09 21.3366C159.888 21.669 159.604 21.9673 159.238 22.2315L157.457 23.5142C157.215 23.6903 157.036 23.8707 156.92 24.0554C156.806 24.2372 156.749 24.4119 156.749 24.5795C156.749 24.7869 156.8 24.973 156.903 25.1378C157.005 25.3026 157.15 25.4332 157.337 25.5298C157.525 25.6236 157.745 25.6705 157.998 25.6705C158.305 25.6705 158.607 25.6009 158.906 25.4616C159.207 25.3196 159.479 25.1193 159.724 24.8608C159.971 24.5994 160.168 24.2898 160.316 23.9318C160.464 23.5739 160.538 23.1776 160.538 22.7429H162.042C162.042 23.277 161.984 23.7585 161.867 24.1875C161.751 24.6136 161.589 24.9858 161.381 25.304C161.174 25.6193 160.937 25.8778 160.67 26.0795C160.585 26.1335 160.502 26.1847 160.423 26.233C160.343 26.2812 160.261 26.3324 160.175 26.3864C159.852 26.6477 159.489 26.8366 159.089 26.9531C158.691 27.0696 158.298 27.1278 157.908 27.1278ZM166.13 27V18.2727H167.975V25.4787H171.716V27H166.13ZM175.887 27.1278C175.214 27.1278 174.634 26.9915 174.148 26.7188C173.665 26.4432 173.293 26.054 173.032 25.5511C172.771 25.0455 172.64 24.4474 172.64 23.7571C172.64 23.0838 172.771 22.4929 173.032 21.9844C173.293 21.4759 173.661 21.0795 174.136 20.7955C174.613 20.5114 175.173 20.3693 175.815 20.3693C176.246 20.3693 176.648 20.4389 177.021 20.5781C177.396 20.7145 177.722 20.9205 178.001 21.196C178.282 21.4716 178.501 21.8182 178.657 22.2358C178.813 22.6506 178.891 23.1364 178.891 23.6932V24.1918H173.364V23.0668H177.183C177.183 22.8054 177.126 22.5739 177.012 22.3722C176.898 22.1705 176.741 22.0128 176.539 21.8991C176.34 21.7827 176.109 21.7244 175.844 21.7244C175.569 21.7244 175.325 21.7884 175.112 21.9162C174.901 22.0412 174.737 22.2102 174.617 22.4233C174.498 22.6335 174.437 22.8679 174.434 23.1264V24.196C174.434 24.5199 174.494 24.7997 174.613 25.0355C174.735 25.2713 174.907 25.4531 175.129 25.581C175.35 25.7088 175.613 25.7727 175.917 25.7727C176.119 25.7727 176.303 25.7443 176.471 25.6875C176.638 25.6307 176.782 25.5455 176.901 25.4318C177.021 25.3182 177.112 25.179 177.174 25.0142L178.853 25.125C178.768 25.5284 178.593 25.8807 178.329 26.1818C178.067 26.4801 177.729 26.7131 177.315 26.8807C176.903 27.0455 176.427 27.1278 175.887 27.1278ZM181.942 27.1236C181.525 27.1236 181.153 27.0511 180.826 26.9062C180.499 26.7585 180.241 26.5412 180.05 26.2543C179.863 25.9645 179.769 25.6037 179.769 25.1719C179.769 24.8082 179.836 24.5028 179.969 24.2557C180.103 24.0085 180.285 23.8097 180.515 23.6591C180.745 23.5085 181.006 23.3949 181.299 23.3182C181.594 23.2415 181.904 23.1875 182.228 23.1562C182.609 23.1165 182.915 23.0795 183.148 23.0455C183.381 23.0085 183.55 22.9545 183.656 22.8835C183.761 22.8125 183.813 22.7074 183.813 22.5682V22.5426C183.813 22.2727 183.728 22.0639 183.558 21.9162C183.39 21.7685 183.151 21.6946 182.842 21.6946C182.515 21.6946 182.255 21.767 182.062 21.9119C181.869 22.054 181.741 22.233 181.678 22.4489L179.999 22.3125C180.085 21.9148 180.252 21.571 180.502 21.2812C180.752 20.9886 181.075 20.7642 181.469 20.608C181.867 20.4489 182.327 20.3693 182.85 20.3693C183.214 20.3693 183.562 20.4119 183.894 20.4972C184.229 20.5824 184.526 20.7145 184.785 20.8935C185.046 21.0724 185.252 21.3026 185.403 21.5838C185.553 21.8622 185.629 22.196 185.629 22.5852V27H183.907V26.0923H183.856C183.751 26.2969 183.61 26.4773 183.434 26.6335C183.258 26.7869 183.046 26.9077 182.799 26.9957C182.552 27.081 182.266 27.1236 181.942 27.1236ZM182.462 25.8707C182.729 25.8707 182.965 25.8182 183.17 25.7131C183.374 25.6051 183.535 25.4602 183.651 25.2784C183.768 25.0966 183.826 24.8906 183.826 24.6605V23.9659C183.769 24.0028 183.691 24.0369 183.592 24.0682C183.495 24.0966 183.386 24.1236 183.263 24.1491C183.141 24.1719 183.019 24.1932 182.897 24.2131C182.775 24.2301 182.664 24.2457 182.565 24.2599C182.352 24.2912 182.165 24.3409 182.006 24.4091C181.847 24.4773 181.724 24.5696 181.636 24.6861C181.548 24.7997 181.504 24.9418 181.504 25.1122C181.504 25.3594 181.593 25.5483 181.772 25.679C181.954 25.8068 182.184 25.8707 182.462 25.8707ZM192.905 20.4545L190.616 27H188.571L186.283 20.4545H188.2L189.56 25.1378H189.628L190.983 20.4545H192.905ZM196.606 27.1278C195.933 27.1278 195.353 26.9915 194.867 26.7188C194.384 26.4432 194.012 26.054 193.751 25.5511C193.489 25.0455 193.359 24.4474 193.359 23.7571C193.359 23.0838 193.489 22.4929 193.751 21.9844C194.012 21.4759 194.38 21.0795 194.854 20.7955C195.332 20.5114 195.891 20.3693 196.533 20.3693C196.965 20.3693 197.367 20.4389 197.739 20.5781C198.114 20.7145 198.441 20.9205 198.719 21.196C199.001 21.4716 199.219 21.8182 199.376 22.2358C199.532 22.6506 199.61 23.1364 199.61 23.6932V24.1918H194.083V23.0668H197.901C197.901 22.8054 197.844 22.5739 197.731 22.3722C197.617 22.1705 197.46 22.0128 197.258 21.8991C197.059 21.7827 196.827 21.7244 196.563 21.7244C196.288 21.7244 196.043 21.7884 195.83 21.9162C195.62 22.0412 195.455 22.2102 195.336 22.4233C195.217 22.6335 195.156 22.8679 195.153 23.1264V24.196C195.153 24.5199 195.212 24.7997 195.332 25.0355C195.454 25.2713 195.626 25.4531 195.847 25.581C196.069 25.7088 196.332 25.7727 196.636 25.7727C196.837 25.7727 197.022 25.7443 197.19 25.6875C197.357 25.6307 197.501 25.5455 197.62 25.4318C197.739 25.3182 197.83 25.179 197.893 25.0142L199.572 25.125C199.487 25.5284 199.312 25.8807 199.048 26.1818C198.786 26.4801 198.448 26.7131 198.033 26.8807C197.621 27.0455 197.146 27.1278 196.606 27.1278ZM203.606 18.2727H205.882L208.285 24.1364H208.387L210.791 18.2727H213.066V27H211.277V21.3196H211.204L208.946 26.9574H207.727L205.468 21.2983H205.396V27H203.606V18.2727ZM217.501 29.5909C216.913 29.5909 216.409 29.5099 215.989 29.348C215.571 29.1889 215.239 28.9716 214.991 28.696C214.744 28.4205 214.584 28.1108 214.51 27.767L216.189 27.5412C216.24 27.6719 216.321 27.794 216.432 27.9077C216.543 28.0213 216.689 28.1122 216.871 28.1804C217.055 28.2514 217.28 28.2869 217.544 28.2869C217.939 28.2869 218.264 28.1903 218.52 27.9972C218.778 27.8068 218.908 27.4872 218.908 27.0384V25.8409H218.831C218.751 26.0227 218.632 26.1946 218.473 26.3565C218.314 26.5185 218.109 26.6506 217.859 26.7528C217.609 26.8551 217.311 26.9062 216.964 26.9062C216.473 26.9062 216.026 26.7926 215.622 26.5653C215.222 26.3352 214.902 25.9844 214.663 25.5128C214.428 25.0384 214.31 24.4389 214.31 23.7145C214.31 22.973 214.43 22.3537 214.672 21.8565C214.913 21.3594 215.234 20.9872 215.635 20.7401C216.038 20.4929 216.48 20.3693 216.96 20.3693C217.327 20.3693 217.634 20.4318 217.881 20.5568C218.128 20.679 218.327 20.8324 218.477 21.017C218.631 21.1989 218.749 21.3778 218.831 21.554H218.899V20.4545H220.702V27.0639C220.702 27.6207 220.565 28.0866 220.293 28.4616C220.02 28.8366 219.642 29.1179 219.159 29.3054C218.679 29.4957 218.126 29.5909 217.501 29.5909ZM217.54 25.5426C217.832 25.5426 218.08 25.4702 218.281 25.3253C218.486 25.1776 218.642 24.9673 218.75 24.6946C218.861 24.419 218.916 24.0895 218.916 23.706C218.916 23.3224 218.862 22.9901 218.754 22.7088C218.646 22.4247 218.49 22.2045 218.286 22.0483C218.081 21.892 217.832 21.8139 217.54 21.8139C217.241 21.8139 216.99 21.8949 216.786 22.0568C216.581 22.2159 216.426 22.4375 216.321 22.7216C216.216 23.0057 216.163 23.3338 216.163 23.706C216.163 24.0838 216.216 24.4105 216.321 24.6861C216.429 24.9588 216.584 25.1705 216.786 25.321C216.99 25.4687 217.241 25.5426 217.54 25.5426ZM222.146 27V20.4545H223.876V21.6094H223.953C224.089 21.2259 224.317 20.9233 224.635 20.7017C224.953 20.4801 225.334 20.3693 225.777 20.3693C226.226 20.3693 226.608 20.4815 226.923 20.706C227.239 20.9276 227.449 21.2287 227.554 21.6094H227.622C227.756 21.2344 227.997 20.9347 228.347 20.7102C228.699 20.483 229.115 20.3693 229.595 20.3693C230.206 20.3693 230.702 20.5639 231.082 20.9531C231.466 21.3395 231.658 21.8878 231.658 22.598V27H229.847V22.956C229.847 22.5923 229.75 22.3196 229.557 22.1378C229.364 21.956 229.122 21.8651 228.832 21.8651C228.503 21.8651 228.246 21.9702 228.061 22.1804C227.876 22.3878 227.784 22.6619 227.784 23.0028V27H226.024V22.9176C226.024 22.5966 225.932 22.3409 225.747 22.1506C225.565 21.9602 225.325 21.8651 225.027 21.8651C224.825 21.8651 224.643 21.9162 224.482 22.0185C224.322 22.1179 224.196 22.2585 224.102 22.4403C224.009 22.6193 223.962 22.8295 223.962 23.071V27H222.146ZM236.573 20.4545V21.8182H232.631V20.4545H236.573ZM233.526 18.8864H235.342V24.9886C235.342 25.1562 235.367 25.2869 235.418 25.3807C235.469 25.4716 235.54 25.5355 235.631 25.5724C235.725 25.6094 235.833 25.6278 235.955 25.6278C236.04 25.6278 236.126 25.6207 236.211 25.6065C236.296 25.5895 236.362 25.5767 236.407 25.5682L236.692 26.919C236.602 26.9474 236.474 26.9801 236.309 27.017C236.144 27.0568 235.944 27.081 235.708 27.0895C235.271 27.1065 234.887 27.0483 234.558 26.9148C234.231 26.7812 233.977 26.5739 233.795 26.2926C233.613 26.0114 233.523 25.6562 233.526 25.2273V18.8864ZM238.817 27.1108C238.536 27.1108 238.294 27.0114 238.092 26.8125C237.893 26.6108 237.794 26.3693 237.794 26.0881C237.794 25.8097 237.893 25.571 238.092 25.3722C238.294 25.1733 238.536 25.0739 238.817 25.0739C239.089 25.0739 239.328 25.1733 239.533 25.3722C239.737 25.571 239.839 25.8097 239.839 26.0881C239.839 26.2756 239.791 26.4474 239.695 26.6037C239.601 26.7571 239.477 26.8807 239.324 26.9744C239.17 27.0653 239.001 27.1108 238.817 27.1108Z" fill="#555555"/>
</svg>
