<svg width="619" height="17" viewBox="0 0 619 17" fill="none" xmlns="http://www.w3.org/2000/svg">
<path d="M61 7.63636C61 7.17045 61.1136 6.74574 61.3409 6.36222C61.5682 5.97869 61.8736 5.6733 62.2571 5.44602C62.6406 5.21875 63.0653 5.10511 63.5312 5.10511C63.9347 5.10511 64.3068 5.19176 64.6477 5.36506C64.9915 5.53835 65.2756 5.77557 65.5 6.0767C65.7244 6.375 65.8636 6.71307 65.9176 7.09091H64.8864C64.8295 6.7983 64.6719 6.55966 64.4134 6.375C64.1548 6.1875 63.8608 6.09375 63.5312 6.09375C63.2472 6.09375 62.9886 6.16335 62.7557 6.30256C62.5227 6.44176 62.3366 6.62784 62.1974 6.8608C62.0582 7.09375 61.9886 7.35227 61.9886 7.63636C61.9886 7.92045 62.0582 8.17898 62.1974 8.41193C62.3366 8.64489 62.5227 8.83097 62.7557 8.97017C62.9886 9.10937 63.2472 9.17898 63.5312 9.17898C63.8608 9.17898 64.1392 9.08665 64.3665 8.90199C64.5966 8.71449 64.7415 8.47443 64.8011 8.18182H65.8324C65.7784 8.55966 65.6463 8.89915 65.4361 9.20028C65.2259 9.49858 64.956 9.73437 64.6264 9.90767C64.2997 10.081 63.9347 10.1676 63.5312 10.1676C63.0653 10.1676 62.6406 10.054 62.2571 9.8267C61.8736 9.59943 61.5682 9.29403 61.3409 8.91051C61.1136 8.52699 61 8.10227 61 7.63636ZM63.4886 12.1364C62.8693 12.1364 62.2869 12.0199 61.7415 11.7869C61.1989 11.554 60.7202 11.2315 60.3054 10.8196C59.8935 10.4048 59.5696 9.92614 59.3338 9.38352C59.1009 8.84091 58.9858 8.25852 58.9886 7.63636C58.9915 7.0142 59.1094 6.43182 59.3423 5.8892C59.5781 5.34659 59.902 4.86932 60.3139 4.45739C60.7259 4.04261 61.2031 3.71875 61.7457 3.4858C62.2884 3.25284 62.8693 3.13636 63.4886 3.13636C64.1108 3.13636 64.6932 3.25284 65.2358 3.4858C65.7813 3.71875 66.2585 4.04261 66.6676 4.45739C67.0795 4.86932 67.402 5.34659 67.6349 5.8892C67.8679 6.43182 67.9858 7.0142 67.9886 7.63636C67.9915 8.25852 67.8764 8.84091 67.6435 9.38352C67.4105 9.92614 67.0881 10.4048 66.6761 10.8196C66.2642 11.2315 65.7855 11.554 65.2401 11.7869C64.6946 12.0199 64.1108 12.1364 63.4886 12.1364ZM63.4886 11.1477C63.9744 11.1477 64.4304 11.0568 64.8565 10.875C65.2827 10.6932 65.6562 10.4418 65.9773 10.1207C66.2983 9.79972 66.5497 9.42756 66.7315 9.00426C66.9134 8.57812 67.0028 8.12358 67 7.64062C66.9972 7.15483 66.9048 6.69886 66.723 6.27273C66.5412 5.84659 66.2898 5.47301 65.9688 5.15199C65.6477 4.83097 65.2756 4.57955 64.8523 4.39773C64.429 4.21591 63.9744 4.125 63.4886 4.125C63.0057 4.125 62.5526 4.21591 62.1293 4.39773C61.706 4.57955 61.3338 4.83239 61.0128 5.15625C60.6918 5.47727 60.4389 5.85085 60.2543 6.27699C60.0724 6.70028 59.9801 7.15483 59.9773 7.64062C59.9744 8.12074 60.0639 8.57386 60.2457 9C60.4276 9.4233 60.679 9.79545 61 10.1165C61.3239 10.4375 61.6974 10.6903 62.1207 10.875C62.5469 11.0568 63.0028 11.1477 63.4886 11.1477ZM73.2589 12V11.233L76.1396 8.07955C76.4776 7.71023 76.756 7.3892 76.9748 7.11648C77.1935 6.84091 77.3555 6.58239 77.4606 6.34091C77.5685 6.09659 77.6225 5.84091 77.6225 5.57386C77.6225 5.26705 77.5487 5.00142 77.4009 4.77699C77.256 4.55256 77.0572 4.37926 76.8043 4.2571C76.5515 4.13494 76.2674 4.07386 75.9521 4.07386C75.6168 4.07386 75.3242 4.14347 75.0742 4.28267C74.8271 4.41903 74.6353 4.6108 74.4989 4.85795C74.3654 5.10511 74.2987 5.39489 74.2987 5.72727H73.293C73.293 5.21591 73.4109 4.76705 73.6467 4.38068C73.8825 3.99432 74.2035 3.69318 74.6097 3.47727C75.0188 3.26136 75.4776 3.15341 75.9862 3.15341C76.4975 3.15341 76.9506 3.26136 77.3455 3.47727C77.7404 3.69318 78.0501 3.98437 78.2745 4.35085C78.4989 4.71733 78.6112 5.125 78.6112 5.57386C78.6112 5.89489 78.5529 6.20881 78.4364 6.51562C78.3228 6.8196 78.1239 7.15909 77.8398 7.53409C77.5586 7.90625 77.168 8.3608 76.668 8.89773L74.7077 10.9943V11.0625H78.7646V12H73.2589ZM83.3711 12.1193C82.729 12.1193 82.1822 11.9446 81.7305 11.5952C81.2788 11.2429 80.9336 10.733 80.695 10.0653C80.4563 9.39489 80.337 8.58523 80.337 7.63636C80.337 6.69318 80.4563 5.88778 80.695 5.22017C80.9364 4.54972 81.283 4.03835 81.7347 3.68608C82.1893 3.33097 82.7347 3.15341 83.3711 3.15341C84.0075 3.15341 84.5515 3.33097 85.0032 3.68608C85.4577 4.03835 85.8043 4.54972 86.043 5.22017C86.2844 5.88778 86.4052 6.69318 86.4052 7.63636C86.4052 8.58523 86.2859 9.39489 86.0472 10.0653C85.8086 10.733 85.4634 11.2429 85.0117 11.5952C84.56 11.9446 84.0131 12.1193 83.3711 12.1193ZM83.3711 11.1818C84.0075 11.1818 84.5018 10.875 84.854 10.2614C85.2063 9.64773 85.3825 8.77273 85.3825 7.63636C85.3825 6.88068 85.3015 6.23722 85.1396 5.70597C84.9805 5.17472 84.7504 4.76989 84.4492 4.49148C84.1509 4.21307 83.7915 4.07386 83.3711 4.07386C82.7404 4.07386 82.2475 4.38494 81.8924 5.0071C81.5373 5.62642 81.3597 6.50284 81.3597 7.63636C81.3597 8.39205 81.4393 9.03409 81.5984 9.5625C81.7575 10.0909 81.9862 10.4929 82.2844 10.7685C82.5856 11.044 82.9478 11.1818 83.3711 11.1818ZM88.0245 12V11.233L90.9052 8.07955C91.2433 7.71023 91.5217 7.3892 91.7404 7.11648C91.9592 6.84091 92.1211 6.58239 92.2262 6.34091C92.3342 6.09659 92.3881 5.84091 92.3881 5.57386C92.3881 5.26705 92.3143 5.00142 92.1665 4.77699C92.0217 4.55256 91.8228 4.37926 91.57 4.2571C91.3171 4.13494 91.033 4.07386 90.7177 4.07386C90.3825 4.07386 90.0898 4.14347 89.8398 4.28267C89.5927 4.41903 89.4009 4.6108 89.2646 4.85795C89.131 5.10511 89.0643 5.39489 89.0643 5.72727H88.0586C88.0586 5.21591 88.1765 4.76705 88.4123 4.38068C88.6481 3.99432 88.9691 3.69318 89.3754 3.47727C89.7844 3.26136 90.2433 3.15341 90.7518 3.15341C91.2631 3.15341 91.7163 3.26136 92.1112 3.47727C92.506 3.69318 92.8157 3.98437 93.0401 4.35085C93.2646 4.71733 93.3768 5.125 93.3768 5.57386C93.3768 5.89489 93.3185 6.20881 93.2021 6.51562C93.0884 6.8196 92.8896 7.15909 92.6055 7.53409C92.3242 7.90625 91.9336 8.3608 91.4336 8.89773L89.4734 10.9943V11.0625H93.5302V12H88.0245ZM94.8981 10.2102V9.34091L98.7333 3.27273H99.364V4.61932H98.9379L96.0401 9.20455V9.27273H101.205V10.2102H94.8981ZM99.006 12V9.94602V9.54119V3.27273H100.012V12H99.006Z" fill="black" fill-opacity="0.5"/>
<path d="M17.5186 12.8062V5.34564H18.7337V12.8062H17.5186Z" fill="#373433"/>
<path d="M20.1184 12.8062V5.34564H22.5165C22.971 5.34564 23.392 5.43071 23.7795 5.60147C24.1669 5.77223 24.5022 6.01687 24.7866 6.33666C25.071 6.65644 25.2908 7.04701 25.4473 7.50899C25.6038 7.97096 25.682 8.49317 25.682 9.07561C25.682 9.65805 25.6038 10.1914 25.4473 10.6528C25.2908 11.1148 25.0704 11.5053 24.7866 11.8251C24.5022 12.1449 24.1669 12.3883 23.7795 12.5553C23.392 12.7224 22.971 12.8056 22.5165 12.8056H20.1184V12.8062ZM21.323 6.53908V11.6121H22.5165C22.822 11.6121 23.0902 11.5519 23.3212 11.4321C23.5522 11.3116 23.7441 11.1421 23.8968 10.9229C24.0496 10.7037 24.1651 10.4367 24.2433 10.1219C24.3215 9.80708 24.3607 9.45873 24.3607 9.07623C24.3607 8.69373 24.3215 8.34539 24.2433 8.03058C24.1651 7.71576 24.0496 7.44876 23.8968 7.22957C23.7441 7.01037 23.5522 6.84024 23.3212 6.7204C23.0902 6.59994 22.822 6.53971 22.5165 6.53971H21.323V6.53908Z" fill="#373433"/>
<path d="M29.4865 12.9552C29.032 12.9552 28.611 12.8627 28.2235 12.6783C27.8361 12.4939 27.502 12.2324 27.222 11.8947C26.9413 11.5575 26.7227 11.1501 26.5663 10.6745C26.4098 10.1983 26.3315 9.66549 26.3315 9.0756C26.3315 8.48571 26.4098 7.95294 26.5663 7.47669C26.7227 7.00043 26.9407 6.59371 27.222 6.25655C27.5026 5.91938 27.8367 5.65796 28.2235 5.47292C28.611 5.2885 29.0314 5.19598 29.4865 5.19598C29.8274 5.19598 30.1596 5.23759 30.4831 5.31955C30.8066 5.40214 31.0854 5.50769 31.3195 5.63685L31.1811 6.82657C30.911 6.71293 30.6464 6.61172 30.3869 6.52293C30.1273 6.43413 29.8274 6.38943 29.4865 6.38943C29.181 6.38943 28.9146 6.45649 28.6874 6.59123C28.4601 6.72597 28.2701 6.9135 28.1174 7.1538C27.9646 7.39472 27.8491 7.67911 27.7709 8.00821C27.6926 8.33731 27.6535 8.6931 27.6535 9.07498C27.6535 9.45686 27.6926 9.81265 27.7709 10.1418C27.8491 10.4708 27.9646 10.7559 28.1174 10.9962C28.2701 11.2371 28.4601 11.4246 28.6874 11.5587C28.9146 11.6935 29.181 11.7605 29.4865 11.7605C29.8274 11.7605 30.1279 11.7177 30.3869 11.6326C30.6464 11.5476 30.911 11.4445 31.1811 11.3234L31.3195 12.5131C31.0848 12.6491 30.806 12.7571 30.4831 12.836C30.1596 12.9149 29.8274 12.954 29.4865 12.954V12.9552Z" fill="#373433"/>
<path d="M34.8793 12.9552C34.4317 12.9552 34.0411 12.877 33.707 12.7205C33.373 12.564 33.096 12.3405 32.8756 12.0493C32.6552 11.7581 32.4918 11.4079 32.385 10.9993C32.2782 10.5907 32.2255 10.1306 32.2255 9.61894V5.34503H33.4295V9.1433C33.4295 9.49786 33.4487 9.83316 33.4878 10.1486C33.5269 10.464 33.5996 10.741 33.7064 10.9788C33.8132 11.2166 33.9604 11.406 34.1485 11.5482C34.3366 11.6904 34.5801 11.7612 34.8787 11.7612C35.1774 11.7612 35.4202 11.6904 35.609 11.5482C35.7971 11.406 35.9449 11.2166 36.0511 10.9788C36.1579 10.741 36.2305 10.4647 36.2696 10.1486C36.3087 9.83316 36.328 9.49786 36.328 9.1433V5.34503H37.5432V9.61894C37.5432 10.1306 37.4898 10.5907 37.383 10.9993C37.2762 11.4079 37.1129 11.7581 36.8924 12.0493C36.672 12.3405 36.3951 12.5647 36.061 12.7205C35.7269 12.877 35.3326 12.9552 34.8781 12.9552H34.8793Z" fill="#373433"/>
<path d="M38.6521 12.8062V5.34564H40.4212C40.7906 5.34564 41.1259 5.36862 41.4283 5.41519C41.7301 5.46176 41.9896 5.55179 42.2064 5.68716C42.4231 5.82252 42.5901 6.01377 42.7074 6.26277C42.8248 6.51176 42.8832 6.83837 42.8832 7.24323C42.8832 7.57729 42.8385 7.86851 42.7497 8.11689C42.6609 8.36588 42.5243 8.59997 42.3392 8.82041C42.7019 8.99799 42.9788 9.22712 43.1707 9.50778C43.3625 9.78845 43.4582 10.1523 43.4582 10.6C43.4582 11.0477 43.3886 11.4134 43.2501 11.6978C43.1117 11.9822 42.9322 12.2076 42.7118 12.3747C42.4914 12.5417 42.2442 12.6553 41.971 12.7155C41.6972 12.7758 41.4258 12.8062 41.1557 12.8062H38.6515H38.6521ZM39.8561 6.4329V8.37271H41.0179C41.0961 8.37271 41.1781 8.36216 41.2631 8.34042C41.3482 8.31869 41.4283 8.27274 41.5028 8.20196C41.5773 8.13117 41.6394 8.03306 41.6891 7.90887C41.7388 7.78468 41.7636 7.61579 41.7636 7.40281C41.7636 7.18983 41.7438 7.02962 41.7053 6.90171C41.6661 6.7738 41.6109 6.67631 41.5401 6.60863C41.4693 6.54095 41.3805 6.495 41.2737 6.47016C41.1669 6.44532 41.0502 6.4329 40.9223 6.4329H39.8567H39.8561ZM39.8561 9.39539V11.7189H41.0495C41.2271 11.7189 41.3886 11.7028 41.5345 11.6711C41.6798 11.6395 41.8027 11.5805 41.9021 11.4954C42.0014 11.4103 42.0797 11.293 42.1368 11.144C42.1933 10.9949 42.2219 10.8068 42.2219 10.5789C42.2219 10.351 42.1914 10.1523 42.1312 10.0033C42.071 9.85427 41.989 9.73319 41.8859 9.64067C41.7829 9.54815 41.6605 9.48419 41.5184 9.44879C41.3762 9.4134 41.2234 9.39539 41.0601 9.39539H39.8561Z" fill="#373433"/>
<path d="M44.6522 12.8062V5.34564H48.7765V6.53908H45.8885V8.31869H48.1264V9.51213H45.8885V11.6115H48.8727V12.805H44.6522V12.8062Z" fill="#373433"/>
<path d="M7.06694 10.7229C8.00555 10.7229 8.76644 9.96203 8.76644 9.02342C8.76644 8.08481 8.00555 7.32391 7.06694 7.32391C6.12833 7.32391 5.36743 8.08481 5.36743 9.02342C5.36743 9.96203 6.12833 10.7229 7.06694 10.7229Z" fill="#F89823"/>
<path d="M1.13321 6.73218C1.75907 6.73218 2.26642 6.22482 2.26642 5.59897C2.26642 4.97311 1.75907 4.46576 1.13321 4.46576C0.507356 4.46576 0 4.97311 0 5.59897C0 6.22482 0.507356 6.73218 1.13321 6.73218Z" fill="#F89823"/>
<path d="M13.0055 6.73218C13.6314 6.73218 14.1387 6.22482 14.1387 5.59897C14.1387 4.97311 13.6314 4.46576 13.0055 4.46576C12.3797 4.46576 11.8723 4.97311 11.8723 5.59897C11.8723 6.22482 12.3797 6.73218 13.0055 6.73218Z" fill="#F89823"/>
<path d="M7.06693 17C7.69278 17 8.20014 16.4926 8.20014 15.8668C8.20014 15.2409 7.69278 14.7336 7.06693 14.7336C6.44107 14.7336 5.93372 15.2409 5.93372 15.8668C5.93372 16.4926 6.44107 17 7.06693 17Z" fill="#F89823"/>
<path d="M3.0407 5.59897C3.0407 5.62878 3.04008 5.65796 3.03822 5.68777C3.03015 5.85045 3.10776 6.00506 3.24872 6.08641L5.00845 7.10226C5.16679 7.19354 5.36425 7.17615 5.50707 7.0619C5.88646 6.75888 6.35464 6.56329 6.86257 6.52355C7.52138 6.47139 8.13239 6.67506 8.60678 7.04451C8.74836 7.15504 8.94271 7.16932 9.09794 7.07929L10.8776 6.05163C11.0173 5.97091 11.1036 5.82002 11.0974 5.65858C11.0967 5.63871 11.0961 5.61946 11.0961 5.59959C11.0961 4.81783 11.5668 4.1466 12.2399 3.85165L7.50586 1.11829C7.23265 0.96057 6.89672 0.96057 6.62351 1.11829L1.89197 3.84979C2.56693 4.14349 3.03884 4.81597 3.03884 5.59897H3.0407Z" fill="#F89823"/>
<path d="M13.0055 7.50709C12.6354 7.50709 12.2895 7.40153 11.9971 7.21897C11.8598 7.13328 11.6866 7.13142 11.5463 7.21214L9.76791 8.23855C9.61268 8.32796 9.52761 8.50245 9.55183 8.67942C9.57604 8.85638 9.58163 9.03956 9.56735 9.22646C9.49222 10.1821 8.86756 10.9949 8.01315 11.3457C7.84673 11.414 7.73621 11.5742 7.73621 11.7543V13.7984C7.73621 13.9623 7.8281 14.1108 7.97216 14.1884C8.56888 14.5106 8.97435 15.1403 8.97435 15.8655V16.0816L13.6916 13.3582C13.9648 13.2005 14.1337 12.9086 14.1337 12.5932V7.13452C13.8177 7.36737 13.4283 7.50646 13.0055 7.50646V7.50709Z" fill="#F89823"/>
<path d="M6.39751 13.8667V11.6717C6.39751 11.5376 6.31245 11.4196 6.1864 11.3724C5.17613 10.9937 4.47509 9.98214 4.56637 8.81975C4.57134 8.75765 4.57879 8.69618 4.5881 8.63595C4.60859 8.50742 4.54464 8.38074 4.43225 8.31555L2.49306 7.196C2.38812 7.13515 2.25897 7.14198 2.15714 7.20717C1.86157 7.39656 1.51012 7.50647 1.13321 7.50647C0.708489 7.50647 0.317299 7.36613 0 7.1308V12.6646C0 12.9359 0.144678 13.1868 0.380013 13.3222L5.15937 16.0816V15.8655C5.15937 15.1161 5.59216 14.469 6.22117 14.1573C6.33108 14.1027 6.39751 13.9878 6.39751 13.8655V13.8667Z" fill="#F89823"/>
<path d="M50.3394 5.98268C49.5986 5.98268 48.9963 5.38037 48.9963 4.6396C48.9963 3.89882 49.5986 3.29651 50.3394 3.29651C51.0802 3.29651 51.6825 3.89882 51.6825 4.6396C51.6825 5.38037 51.0802 5.98268 50.3394 5.98268ZM50.3394 3.55296C49.7402 3.55296 49.2522 4.04039 49.2522 4.64022C49.2522 5.24004 49.7402 5.72748 50.3394 5.72748C50.9386 5.72748 51.4267 5.24004 51.4267 4.64022C51.4267 4.04039 50.9386 3.55296 50.3394 3.55296Z" fill="#373433"/>
<path d="M49.8589 5.27603V3.99255H50.4047C50.5419 3.99255 50.6413 4.00435 50.7034 4.02733C50.7655 4.0503 50.8151 4.09128 50.8524 4.15027C50.8897 4.20926 50.9083 4.27632 50.9083 4.3527C50.9083 4.44894 50.8797 4.52842 50.8232 4.59114C50.7667 4.65385 50.6816 4.69359 50.5692 4.70974C50.6251 4.74265 50.6717 4.77804 50.7083 4.81716C50.745 4.85628 50.794 4.92582 50.8561 5.02579L51.0126 5.27603H50.7027L50.5152 4.99661C50.4488 4.89664 50.4035 4.83392 50.3786 4.80784C50.3544 4.78177 50.3283 4.76438 50.3004 4.75444C50.2731 4.74451 50.2296 4.74016 50.17 4.74016H50.1172V5.27603H49.8583H49.8589ZM50.1178 4.53587H50.3097C50.4339 4.53587 50.5115 4.53091 50.5426 4.52035C50.5736 4.50979 50.5978 4.49179 50.6152 4.46633C50.6326 4.44087 50.6413 4.40858 50.6413 4.37008C50.6413 4.32724 50.6295 4.29185 50.6065 4.26577C50.5835 4.23907 50.5512 4.2223 50.509 4.21547C50.4879 4.21237 50.4252 4.21112 50.3196 4.21112H50.1172V4.5365L50.1178 4.53587Z" fill="#373433"/>
<path d="M528.415 13H527.307L530.511 4.27273H531.602L534.807 13H533.699L531.091 5.65341H531.023L528.415 13ZM528.824 9.59091H533.29V10.5284H528.824V9.59091ZM538.689 13.1364C538.075 13.1364 537.547 12.9915 537.104 12.7017C536.661 12.4119 536.32 12.0128 536.081 11.5043C535.842 10.9957 535.723 10.4148 535.723 9.76136C535.723 9.09659 535.845 8.50994 536.089 8.00142C536.337 7.49006 536.68 7.09091 537.121 6.80398C537.564 6.5142 538.081 6.36932 538.672 6.36932C539.132 6.36932 539.547 6.45455 539.916 6.625C540.286 6.79545 540.588 7.03409 540.824 7.34091C541.06 7.64773 541.206 8.00568 541.263 8.41477H540.257C540.18 8.11648 540.01 7.85227 539.746 7.62216C539.484 7.3892 539.132 7.27273 538.689 7.27273C538.297 7.27273 537.953 7.375 537.658 7.57955C537.365 7.78125 537.136 8.06676 536.972 8.43608C536.81 8.80256 536.729 9.23295 536.729 9.72727C536.729 10.233 536.808 10.6733 536.967 11.0483C537.129 11.4233 537.357 11.7145 537.649 11.9219C537.945 12.1293 538.291 12.233 538.689 12.233C538.95 12.233 539.188 12.1875 539.401 12.0966C539.614 12.0057 539.794 11.875 539.942 11.7045C540.089 11.5341 540.195 11.3295 540.257 11.0909H541.263C541.206 11.4773 541.065 11.8253 540.841 12.1349C540.619 12.4418 540.325 12.6861 539.959 12.8679C539.595 13.0469 539.172 13.1364 538.689 13.1364ZM545.392 13.1364C544.778 13.1364 544.25 12.9915 543.807 12.7017C543.364 12.4119 543.023 12.0128 542.784 11.5043C542.545 10.9957 542.426 10.4148 542.426 9.76136C542.426 9.09659 542.548 8.50994 542.793 8.00142C543.04 7.49006 543.384 7.09091 543.824 6.80398C544.267 6.5142 544.784 6.36932 545.375 6.36932C545.835 6.36932 546.25 6.45455 546.619 6.625C546.989 6.79545 547.291 7.03409 547.527 7.34091C547.763 7.64773 547.909 8.00568 547.966 8.41477H546.96C546.884 8.11648 546.713 7.85227 546.449 7.62216C546.188 7.3892 545.835 7.27273 545.392 7.27273C545 7.27273 544.656 7.375 544.361 7.57955C544.068 7.78125 543.839 8.06676 543.675 8.43608C543.513 8.80256 543.432 9.23295 543.432 9.72727C543.432 10.233 543.511 10.6733 543.67 11.0483C543.832 11.4233 544.06 11.7145 544.352 11.9219C544.648 12.1293 544.994 12.233 545.392 12.233C545.653 12.233 545.891 12.1875 546.104 12.0966C546.317 12.0057 546.497 11.875 546.645 11.7045C546.793 11.5341 546.898 11.3295 546.96 11.0909H547.966C547.909 11.4773 547.768 11.8253 547.544 12.1349C547.322 12.4418 547.028 12.6861 546.662 12.8679C546.298 13.0469 545.875 13.1364 545.392 13.1364ZM552.18 13.1364C551.55 13.1364 551.006 12.9972 550.548 12.7188C550.094 12.4375 549.743 12.0455 549.496 11.5426C549.251 11.0369 549.129 10.4489 549.129 9.77841C549.129 9.10795 549.251 8.51705 549.496 8.00568C549.743 7.49148 550.087 7.09091 550.527 6.80398C550.97 6.5142 551.487 6.36932 552.078 6.36932C552.419 6.36932 552.756 6.42614 553.088 6.53977C553.42 6.65341 553.723 6.83807 553.996 7.09375C554.268 7.34659 554.486 7.68182 554.648 8.09943C554.81 8.51705 554.891 9.03125 554.891 9.64205V10.0682H549.845V9.19886H553.868C553.868 8.82955 553.794 8.5 553.646 8.21023C553.501 7.92045 553.294 7.69176 553.024 7.52415C552.757 7.35653 552.442 7.27273 552.078 7.27273C551.678 7.27273 551.331 7.37216 551.038 7.57102C550.749 7.76705 550.526 8.02273 550.369 8.33807C550.213 8.65341 550.135 8.99148 550.135 9.35227V9.93182C550.135 10.4261 550.22 10.8452 550.391 11.1889C550.564 11.5298 550.804 11.7898 551.111 11.9688C551.418 12.1449 551.774 12.233 552.18 12.233C552.445 12.233 552.683 12.196 552.896 12.1222C553.112 12.0455 553.298 11.9318 553.455 11.7812C553.611 11.6278 553.732 11.4375 553.817 11.2102L554.788 11.483C554.686 11.8125 554.514 12.1023 554.273 12.3523C554.031 12.5994 553.733 12.7926 553.378 12.9318C553.023 13.0682 552.624 13.1364 552.18 13.1364ZM561.057 7.92045L560.153 8.17614C560.097 8.02557 560.013 7.87926 559.902 7.73722C559.794 7.59233 559.646 7.47301 559.459 7.37926C559.271 7.28551 559.031 7.23864 558.739 7.23864C558.338 7.23864 558.004 7.33097 557.737 7.51562C557.473 7.69744 557.341 7.92898 557.341 8.21023C557.341 8.46023 557.432 8.65767 557.614 8.80256C557.795 8.94744 558.08 9.06818 558.466 9.16477L559.438 9.40341C560.023 9.54545 560.459 9.76278 560.746 10.0554C561.033 10.3452 561.176 10.7187 561.176 11.1761C561.176 11.5511 561.068 11.8864 560.852 12.1818C560.639 12.4773 560.341 12.7102 559.957 12.8807C559.574 13.0511 559.128 13.1364 558.619 13.1364C557.952 13.1364 557.399 12.9915 556.962 12.7017C556.524 12.4119 556.247 11.9886 556.131 11.4318L557.085 11.1932C557.176 11.5455 557.348 11.8097 557.601 11.9858C557.857 12.1619 558.19 12.25 558.602 12.25C559.071 12.25 559.443 12.1506 559.719 11.9517C559.997 11.75 560.136 11.5085 560.136 11.2273C560.136 11 560.057 10.8097 559.898 10.6562C559.739 10.5 559.494 10.3835 559.165 10.3068L558.074 10.0511C557.474 9.90909 557.034 9.68892 556.753 9.39062C556.474 9.08949 556.335 8.71307 556.335 8.26136C556.335 7.89205 556.439 7.56534 556.646 7.28125C556.857 6.99716 557.142 6.77415 557.503 6.61222C557.866 6.45028 558.278 6.36932 558.739 6.36932C559.386 6.36932 559.895 6.51136 560.264 6.79545C560.636 7.07955 560.901 7.45455 561.057 7.92045ZM567.326 7.92045L566.423 8.17614C566.366 8.02557 566.282 7.87926 566.172 7.73722C566.064 7.59233 565.916 7.47301 565.728 7.37926C565.541 7.28551 565.301 7.23864 565.008 7.23864C564.608 7.23864 564.274 7.33097 564.007 7.51562C563.743 7.69744 563.61 7.92898 563.61 8.21023C563.61 8.46023 563.701 8.65767 563.883 8.80256C564.065 8.94744 564.349 9.06818 564.735 9.16477L565.707 9.40341C566.292 9.54545 566.728 9.76278 567.015 10.0554C567.302 10.3452 567.446 10.7187 567.446 11.1761C567.446 11.5511 567.338 11.8864 567.122 12.1818C566.909 12.4773 566.61 12.7102 566.227 12.8807C565.843 13.0511 565.397 13.1364 564.889 13.1364C564.221 13.1364 563.669 12.9915 563.231 12.7017C562.794 12.4119 562.517 11.9886 562.4 11.4318L563.355 11.1932C563.446 11.5455 563.618 11.8097 563.87 11.9858C564.126 12.1619 564.46 12.25 564.872 12.25C565.341 12.25 565.713 12.1506 565.988 11.9517C566.267 11.75 566.406 11.5085 566.406 11.2273C566.406 11 566.326 10.8097 566.167 10.6562C566.008 10.5 565.764 10.3835 565.434 10.3068L564.343 10.0511C563.744 9.90909 563.304 9.68892 563.022 9.39062C562.744 9.08949 562.605 8.71307 562.605 8.26136C562.605 7.89205 562.708 7.56534 562.916 7.28125C563.126 6.99716 563.412 6.77415 563.772 6.61222C564.136 6.45028 564.548 6.36932 565.008 6.36932C565.656 6.36932 566.164 6.51136 566.534 6.79545C566.906 7.07955 567.17 7.45455 567.326 7.92045ZM571.891 13.1193C571.329 13.1193 570.827 13.0227 570.387 12.8295C569.95 12.6364 569.602 12.3679 569.343 12.0241C569.087 11.6776 568.948 11.2756 568.925 10.8182H569.999C570.022 11.0994 570.119 11.3423 570.289 11.5469C570.46 11.7486 570.683 11.9048 570.958 12.0156C571.234 12.1264 571.539 12.1818 571.874 12.1818C572.249 12.1818 572.582 12.1165 572.871 11.9858C573.161 11.8551 573.388 11.6733 573.553 11.4403C573.718 11.2074 573.8 10.9375 573.8 10.6307C573.8 10.3097 573.721 10.027 573.562 9.78267C573.403 9.53551 573.17 9.34233 572.863 9.20312C572.556 9.06392 572.181 8.99432 571.738 8.99432H571.039V8.05682H571.738C572.085 8.05682 572.388 7.99432 572.65 7.86932C572.914 7.74432 573.12 7.56818 573.268 7.34091C573.418 7.11364 573.494 6.84659 573.494 6.53977C573.494 6.24432 573.428 5.98722 573.298 5.76847C573.167 5.54972 572.982 5.37926 572.744 5.2571C572.508 5.13494 572.229 5.07386 571.908 5.07386C571.607 5.07386 571.323 5.12926 571.056 5.24006C570.792 5.34801 570.576 5.50568 570.408 5.71307C570.241 5.91761 570.15 6.16477 570.136 6.45455H569.113C569.13 5.99716 569.268 5.59659 569.526 5.25284C569.785 4.90625 570.123 4.63636 570.54 4.44318C570.961 4.25 571.423 4.15341 571.925 4.15341C572.465 4.15341 572.928 4.26278 573.315 4.48153C573.701 4.69744 573.998 4.98295 574.205 5.33807C574.413 5.69318 574.516 6.0767 574.516 6.48864C574.516 6.98011 574.387 7.39915 574.129 7.74574C573.873 8.09233 573.525 8.33239 573.085 8.46591V8.53409C573.636 8.625 574.066 8.85937 574.376 9.23722C574.685 9.61222 574.84 10.0767 574.84 10.6307C574.84 11.1051 574.711 11.5312 574.452 11.9091C574.197 12.2841 573.847 12.5795 573.404 12.7955C572.961 13.0114 572.457 13.1193 571.891 13.1193ZM579.481 13.1193C579.123 13.1136 578.765 13.0455 578.407 12.9148C578.049 12.7841 577.722 12.5639 577.427 12.2543C577.131 11.9418 576.894 11.5199 576.715 10.9886C576.536 10.4545 576.447 9.78409 576.447 8.97727C576.447 8.20455 576.519 7.51989 576.664 6.9233C576.809 6.32386 577.019 5.8196 577.295 5.41051C577.57 4.99858 577.903 4.68608 578.292 4.47301C578.684 4.25994 579.126 4.15341 579.617 4.15341C580.106 4.15341 580.54 4.25142 580.921 4.44744C581.305 4.64062 581.617 4.91051 581.859 5.2571C582.1 5.60369 582.256 6.00284 582.327 6.45455H581.288C581.191 6.0625 581.004 5.73722 580.725 5.47869C580.447 5.22017 580.077 5.09091 579.617 5.09091C578.941 5.09091 578.408 5.38494 578.019 5.97301C577.633 6.56108 577.438 7.38636 577.435 8.44886H577.504C577.663 8.20739 577.852 8.00142 578.07 7.83097C578.292 7.65767 578.536 7.52415 578.803 7.4304C579.07 7.33665 579.353 7.28977 579.651 7.28977C580.151 7.28977 580.609 7.41477 581.023 7.66477C581.438 7.91193 581.771 8.25426 582.021 8.69176C582.271 9.12642 582.396 9.625 582.396 10.1875C582.396 10.7273 582.275 11.2216 582.033 11.6705C581.792 12.1165 581.452 12.4716 581.015 12.7358C580.58 12.9972 580.069 13.125 579.481 13.1193ZM579.481 12.1818C579.839 12.1818 580.16 12.0923 580.444 11.9134C580.731 11.7344 580.957 11.4943 581.121 11.1932C581.289 10.892 581.373 10.5568 581.373 10.1875C581.373 9.8267 581.292 9.49858 581.13 9.20312C580.971 8.90483 580.751 8.66761 580.469 8.49148C580.191 8.31534 579.873 8.22727 579.515 8.22727C579.245 8.22727 578.994 8.28125 578.761 8.3892C578.528 8.49432 578.323 8.6392 578.147 8.82386C577.974 9.00852 577.837 9.22017 577.738 9.45881C577.638 9.6946 577.589 9.94318 577.589 10.2045C577.589 10.5511 577.67 10.875 577.832 11.1761C577.996 11.4773 578.221 11.7202 578.505 11.9048C578.792 12.0895 579.117 12.1818 579.481 12.1818ZM586.918 13.1193C586.276 13.1193 585.729 12.9446 585.277 12.5952C584.826 12.2429 584.48 11.733 584.242 11.0653C584.003 10.3949 583.884 9.58523 583.884 8.63636C583.884 7.69318 584.003 6.88778 584.242 6.22017C584.483 5.54972 584.83 5.03835 585.282 4.68608C585.736 4.33097 586.282 4.15341 586.918 4.15341C587.554 4.15341 588.098 4.33097 588.55 4.68608C589.005 5.03835 589.351 5.54972 589.59 6.22017C589.831 6.88778 589.952 7.69318 589.952 8.63636C589.952 9.58523 589.833 10.3949 589.594 11.0653C589.355 11.733 589.01 12.2429 588.559 12.5952C588.107 12.9446 587.56 13.1193 586.918 13.1193ZM586.918 12.1818C587.554 12.1818 588.049 11.875 588.401 11.2614C588.753 10.6477 588.929 9.77273 588.929 8.63636C588.929 7.88068 588.848 7.23722 588.686 6.70597C588.527 6.17472 588.297 5.76989 587.996 5.49148C587.698 5.21307 587.338 5.07386 586.918 5.07386C586.287 5.07386 585.794 5.38494 585.439 6.0071C585.084 6.62642 584.907 7.50284 584.907 8.63636C584.907 9.39205 584.986 10.0341 585.145 10.5625C585.304 11.0909 585.533 11.4929 585.831 11.7685C586.132 12.044 586.495 12.1818 586.918 12.1818ZM600.316 6.45455L597.895 13H596.873L594.452 6.45455H595.543L597.35 11.6705H597.418L599.225 6.45455H600.316ZM601.626 13V12.233L604.507 9.07955C604.845 8.71023 605.123 8.3892 605.342 8.11648C605.561 7.84091 605.723 7.58239 605.828 7.34091C605.936 7.09659 605.99 6.84091 605.99 6.57386C605.99 6.26705 605.916 6.00142 605.768 5.77699C605.623 5.55256 605.424 5.37926 605.172 5.2571C604.919 5.13494 604.635 5.07386 604.319 5.07386C603.984 5.07386 603.691 5.14347 603.441 5.28267C603.194 5.41903 603.002 5.6108 602.866 5.85795C602.733 6.10511 602.666 6.39489 602.666 6.72727H601.66C601.66 6.21591 601.778 5.76705 602.014 5.38068C602.25 4.99432 602.571 4.69318 602.977 4.47727C603.386 4.26136 603.845 4.15341 604.353 4.15341C604.865 4.15341 605.318 4.26136 605.713 4.47727C606.108 4.69318 606.417 4.98437 606.642 5.35085C606.866 5.71733 606.978 6.125 606.978 6.57386C606.978 6.89489 606.92 7.20881 606.804 7.51562C606.69 7.8196 606.491 8.15909 606.207 8.53409C605.926 8.90625 605.535 9.3608 605.035 9.89773L603.075 11.9943V12.0625H607.132V13H601.626ZM609.642 13.0682C609.431 13.0682 609.251 12.9929 609.1 12.8423C608.95 12.6918 608.875 12.5114 608.875 12.3011C608.875 12.0909 608.95 11.9105 609.1 11.7599C609.251 11.6094 609.431 11.5341 609.642 11.5341C609.852 11.5341 610.032 11.6094 610.183 11.7599C610.333 11.9105 610.409 12.0909 610.409 12.3011C610.409 12.4403 610.373 12.5682 610.302 12.6847C610.234 12.8011 610.142 12.8949 610.025 12.9659C609.912 13.0341 609.784 13.0682 609.642 13.0682ZM614.738 13.1193C614.096 13.1193 613.549 12.9446 613.098 12.5952C612.646 12.2429 612.301 11.733 612.062 11.0653C611.824 10.3949 611.704 9.58523 611.704 8.63636C611.704 7.69318 611.824 6.88778 612.062 6.22017C612.304 5.54972 612.65 5.03835 613.102 4.68608C613.556 4.33097 614.102 4.15341 614.738 4.15341C615.375 4.15341 615.919 4.33097 616.37 4.68608C616.825 5.03835 617.172 5.54972 617.41 6.22017C617.652 6.88778 617.772 7.69318 617.772 8.63636C617.772 9.58523 617.653 10.3949 617.414 11.0653C617.176 11.733 616.831 12.2429 616.379 12.5952C615.927 12.9446 615.38 13.1193 614.738 13.1193ZM614.738 12.1818C615.375 12.1818 615.869 11.875 616.221 11.2614C616.574 10.6477 616.75 9.77273 616.75 8.63636C616.75 7.88068 616.669 7.23722 616.507 6.70597C616.348 6.17472 616.118 5.76989 615.816 5.49148C615.518 5.21307 615.159 5.07386 614.738 5.07386C614.108 5.07386 613.615 5.38494 613.26 6.0071C612.904 6.62642 612.727 7.50284 612.727 8.63636C612.727 9.39205 612.806 10.0341 612.966 10.5625C613.125 11.0909 613.353 11.4929 613.652 11.7685C613.953 12.044 614.315 12.1818 614.738 12.1818Z" fill="black" fill-opacity="0.5"/>
</svg>
