<svg width="270" height="94" viewBox="0 0 270 94" fill="none" xmlns="http://www.w3.org/2000/svg">
<rect width="270" height="94" rx="8" fill="white" fill-opacity="0.5"/>
<rect x="0.5" y="0.5" width="269" height="93" rx="7.5" stroke="white" stroke-opacity="0.5"/>
<rect x="13" y="13" width="58" height="58" rx="7" fill="white" stroke="#555555" stroke-width="2"/>
<g clip-path="url(#clip0_1002_194002)">
<path d="M40.4167 49.9167H43.5833M37.25 56.25H46.75C49.3734 56.25 51.5 54.1234 51.5 51.5V32.5C51.5 29.8767 49.3734 27.75 46.75 27.75H37.25C34.6267 27.75 32.5 29.8767 32.5 32.5V51.5C32.5 54.1234 34.6267 56.25 37.25 56.25Z" stroke="#555555" stroke-width="2" stroke-linecap="round"/>
<rect x="45" y="31" width="12" height="12" rx="6" fill="#F89721"/>
</g>
<path fill-rule="evenodd" clip-rule="evenodd" d="M250.233 69.0482C250.482 68.8097 250.878 68.8186 251.116 69.0681L253.241 71.2903C253.472 71.5319 253.472 71.9125 253.241 72.1541L251.116 74.3763C250.878 74.6258 250.482 74.6347 250.233 74.3962C249.983 74.1577 249.974 73.7621 250.213 73.5126L251.924 71.7222L250.213 69.9319C249.974 69.6824 249.983 69.2867 250.233 69.0482Z" fill="#F89721"/>
<path fill-rule="evenodd" clip-rule="evenodd" d="M241.542 71.7222C241.542 71.377 241.822 71.0972 242.167 71.0972H252.789C253.134 71.0972 253.414 71.377 253.414 71.7222C253.414 72.0674 253.134 72.3472 252.789 72.3472H242.167C241.822 72.3472 241.542 72.0674 241.542 71.7222Z" fill="#F89721"/>
<path d="M86.75 47H84.0568V38.2727H86.8693C87.7159 38.2727 88.4403 38.4474 89.0426 38.7969C89.6449 39.1435 90.1065 39.642 90.4276 40.2926C90.7486 40.9403 90.9091 41.7159 90.9091 42.6193C90.9091 43.5284 90.7472 44.3111 90.4233 44.9673C90.0994 45.6207 89.6278 46.1236 89.0085 46.4759C88.3892 46.8253 87.6364 47 86.75 47ZM85.1136 46.0625H86.6818C87.4034 46.0625 88.0014 45.9233 88.4759 45.6449C88.9503 45.3665 89.304 44.9702 89.5369 44.456C89.7699 43.9418 89.8864 43.3295 89.8864 42.6193C89.8864 41.9148 89.7713 41.3082 89.5412 40.7997C89.3111 40.2884 88.9673 39.8963 88.5099 39.6236C88.0526 39.348 87.483 39.2102 86.8011 39.2102H85.1136V46.0625ZM92.5455 47V40.4545H93.5511V47H92.5455ZM93.0568 39.3636C92.8608 39.3636 92.6918 39.2969 92.5497 39.1634C92.4105 39.0298 92.3409 38.8693 92.3409 38.6818C92.3409 38.4943 92.4105 38.3338 92.5497 38.2003C92.6918 38.0668 92.8608 38 93.0568 38C93.2528 38 93.4205 38.0668 93.5597 38.2003C93.7017 38.3338 93.7727 38.4943 93.7727 38.6818C93.7727 38.8693 93.7017 39.0298 93.5597 39.1634C93.4205 39.2969 93.2528 39.3636 93.0568 39.3636ZM98.0352 49.5909C97.5494 49.5909 97.1317 49.5284 96.7823 49.4034C96.4329 49.2812 96.1417 49.1193 95.9087 48.9176C95.6786 48.7188 95.4954 48.5057 95.359 48.2784L96.1602 47.7159C96.2511 47.8352 96.3661 47.9716 96.5053 48.125C96.6445 48.2812 96.8349 48.4162 97.0763 48.5298C97.3207 48.6463 97.6403 48.7045 98.0352 48.7045C98.5636 48.7045 98.9996 48.5767 99.3434 48.321C99.6871 48.0653 99.859 47.6648 99.859 47.1193V45.7898H99.7738C99.6999 45.9091 99.5948 46.0568 99.4585 46.233C99.3249 46.4062 99.1317 46.5611 98.8789 46.6974C98.6289 46.831 98.2908 46.8977 97.8647 46.8977C97.3363 46.8977 96.8619 46.7727 96.4414 46.5227C96.0238 46.2727 95.6928 45.9091 95.4485 45.4318C95.207 44.9545 95.0863 44.375 95.0863 43.6932C95.0863 43.0227 95.2042 42.4389 95.44 41.9418C95.6758 41.4418 96.0039 41.0554 96.4244 40.7827C96.8448 40.5071 97.3306 40.3693 97.8817 40.3693C98.3079 40.3693 98.646 40.4403 98.896 40.5824C99.1488 40.7216 99.342 40.8807 99.4755 41.0597C99.6119 41.2358 99.717 41.3807 99.7908 41.4943H99.8931V40.4545H100.865V47.1875C100.865 47.75 100.737 48.2074 100.481 48.5597C100.228 48.9148 99.8874 49.1747 99.4585 49.3395C99.0323 49.5071 98.5579 49.5909 98.0352 49.5909ZM98.0011 45.9943C98.4045 45.9943 98.7454 45.902 99.0238 45.7173C99.3022 45.5327 99.5138 45.267 99.6587 44.9205C99.8036 44.5739 99.8761 44.1591 99.8761 43.6761C99.8761 43.2045 99.805 42.7884 99.663 42.4276C99.521 42.0668 99.3107 41.7841 99.0323 41.5795C98.7539 41.375 98.4102 41.2727 98.0011 41.2727C97.5749 41.2727 97.2198 41.3807 96.9357 41.5966C96.6545 41.8125 96.4428 42.1023 96.3008 42.4659C96.1616 42.8295 96.092 43.233 96.092 43.6761C96.092 44.1307 96.163 44.5327 96.305 44.8821C96.4499 45.2287 96.663 45.5014 96.9442 45.7003C97.2283 45.8963 97.5806 45.9943 98.0011 45.9943ZM102.706 47V40.4545H103.711V47H102.706ZM103.217 39.3636C103.021 39.3636 102.852 39.2969 102.71 39.1634C102.571 39.0298 102.501 38.8693 102.501 38.6818C102.501 38.4943 102.571 38.3338 102.71 38.2003C102.852 38.0668 103.021 38 103.217 38C103.413 38 103.581 38.0668 103.72 38.2003C103.862 38.3338 103.933 38.4943 103.933 38.6818C103.933 38.8693 103.862 39.0298 103.72 39.1634C103.581 39.2969 103.413 39.3636 103.217 39.3636ZM108.4 40.4545V41.3068H105.008V40.4545H108.4ZM105.996 38.8864H107.002V45.125C107.002 45.4091 107.043 45.6222 107.126 45.7642C107.211 45.9034 107.319 45.9972 107.45 46.0455C107.583 46.0909 107.724 46.1136 107.871 46.1136C107.982 46.1136 108.073 46.108 108.144 46.0966C108.215 46.0824 108.272 46.071 108.315 46.0625L108.519 46.9659C108.451 46.9915 108.356 47.017 108.234 47.0426C108.112 47.071 107.957 47.0852 107.769 47.0852C107.485 47.0852 107.207 47.0241 106.934 46.902C106.664 46.7798 106.44 46.5938 106.261 46.3438C106.085 46.0938 105.996 45.7784 105.996 45.3977V38.8864ZM109.913 47V40.4545H110.918V47H109.913ZM110.424 39.3636C110.228 39.3636 110.059 39.2969 109.917 39.1634C109.778 39.0298 109.708 38.8693 109.708 38.6818C109.708 38.4943 109.778 38.3338 109.917 38.2003C110.059 38.0668 110.228 38 110.424 38C110.62 38 110.788 38.0668 110.927 38.2003C111.069 38.3338 111.14 38.4943 111.14 38.6818C111.14 38.8693 111.069 39.0298 110.927 39.1634C110.788 39.2969 110.62 39.3636 110.424 39.3636ZM112.573 47V46.233L116.289 41.4602V41.392H112.692V40.4545H117.584V41.2557L113.971 45.9943V46.0625H117.703V47H112.573ZM119.252 47V40.4545H120.258V47H119.252ZM119.764 39.3636C119.568 39.3636 119.399 39.2969 119.257 39.1634C119.118 39.0298 119.048 38.8693 119.048 38.6818C119.048 38.4943 119.118 38.3338 119.257 38.2003C119.399 38.0668 119.568 38 119.764 38C119.96 38 120.127 38.0668 120.267 38.2003C120.409 38.3338 120.48 38.4943 120.48 38.6818C120.48 38.8693 120.409 39.0298 120.267 39.1634C120.127 39.2969 119.96 39.3636 119.764 39.3636ZM123.106 43.0625V47H122.1V40.4545H123.072V41.4773H123.157C123.31 41.1449 123.543 40.8778 123.856 40.6761C124.168 40.4716 124.572 40.3693 125.066 40.3693C125.509 40.3693 125.897 40.4602 126.229 40.642C126.562 40.821 126.82 41.0938 127.005 41.4602C127.19 41.8239 127.282 42.2841 127.282 42.8409V47H126.276V42.9091C126.276 42.3949 126.143 41.9943 125.876 41.7074C125.609 41.4176 125.242 41.2727 124.776 41.2727C124.455 41.2727 124.168 41.3423 123.915 41.4815C123.665 41.6207 123.468 41.8239 123.323 42.0909C123.178 42.358 123.106 42.6818 123.106 43.0625ZM131.762 49.5909C131.276 49.5909 130.858 49.5284 130.509 49.4034C130.159 49.2812 129.868 49.1193 129.635 48.9176C129.405 48.7188 129.222 48.5057 129.086 48.2784L129.887 47.7159C129.978 47.8352 130.093 47.9716 130.232 48.125C130.371 48.2812 130.561 48.4162 130.803 48.5298C131.047 48.6463 131.367 48.7045 131.762 48.7045C132.29 48.7045 132.726 48.5767 133.07 48.321C133.414 48.0653 133.586 47.6648 133.586 47.1193V45.7898H133.5C133.426 45.9091 133.321 46.0568 133.185 46.233C133.051 46.4062 132.858 46.5611 132.605 46.6974C132.355 46.831 132.017 46.8977 131.591 46.8977C131.063 46.8977 130.588 46.7727 130.168 46.5227C129.75 46.2727 129.419 45.9091 129.175 45.4318C128.934 44.9545 128.813 44.375 128.813 43.6932C128.813 43.0227 128.931 42.4389 129.167 41.9418C129.402 41.4418 129.73 41.0554 130.151 40.7827C130.571 40.5071 131.057 40.3693 131.608 40.3693C132.034 40.3693 132.373 40.4403 132.623 40.5824C132.875 40.7216 133.069 40.8807 133.202 41.0597C133.338 41.2358 133.444 41.3807 133.517 41.4943H133.62V40.4545H134.591V47.1875C134.591 47.75 134.463 48.2074 134.208 48.5597C133.955 48.9148 133.614 49.1747 133.185 49.3395C132.759 49.5071 132.284 49.5909 131.762 49.5909ZM131.728 45.9943C132.131 45.9943 132.472 45.902 132.75 45.7173C133.029 45.5327 133.24 45.267 133.385 44.9205C133.53 44.5739 133.603 44.1591 133.603 43.6761C133.603 43.2045 133.532 42.7884 133.39 42.4276C133.248 42.0668 133.037 41.7841 132.759 41.5795C132.48 41.375 132.137 41.2727 131.728 41.2727C131.301 41.2727 130.946 41.3807 130.662 41.5966C130.381 41.8125 130.169 42.1023 130.027 42.4659C129.888 42.8295 129.819 43.233 129.819 43.6761C129.819 44.1307 129.89 44.5327 130.032 44.8821C130.176 45.2287 130.39 45.5014 130.671 45.7003C130.955 45.8963 131.307 45.9943 131.728 45.9943ZM141 38.2727V47H139.944V38.2727H141ZM145.812 47H143.119V38.2727H145.932C146.778 38.2727 147.503 38.4474 148.105 38.7969C148.707 39.1435 149.169 39.642 149.49 40.2926C149.811 40.9403 149.972 41.7159 149.972 42.6193C149.972 43.5284 149.81 44.3111 149.486 44.9673C149.162 45.6207 148.69 46.1236 148.071 46.4759C147.452 46.8253 146.699 47 145.812 47ZM144.176 46.0625H145.744C146.466 46.0625 147.064 45.9233 147.538 45.6449C148.013 45.3665 148.366 44.9702 148.599 44.456C148.832 43.9418 148.949 43.3295 148.949 42.6193C148.949 41.9148 148.834 41.3082 148.604 40.7997C148.374 40.2884 148.03 39.8963 147.572 39.6236C147.115 39.348 146.545 39.2102 145.864 39.2102H144.176V46.0625ZM154.983 47V40.4545H155.955V41.4773H156.04C156.176 41.1278 156.396 40.8565 156.7 40.6634C157.004 40.4673 157.369 40.3693 157.795 40.3693C158.227 40.3693 158.587 40.4673 158.874 40.6634C159.163 40.8565 159.389 41.1278 159.551 41.4773H159.619C159.787 41.1392 160.038 40.8707 160.374 40.6719C160.709 40.4702 161.111 40.3693 161.58 40.3693C162.165 40.3693 162.643 40.5526 163.016 40.919C163.388 41.2827 163.574 41.8494 163.574 42.6193V47H162.568V42.6193C162.568 42.1364 162.436 41.7912 162.172 41.5838C161.908 41.3764 161.597 41.2727 161.239 41.2727C160.778 41.2727 160.422 41.4119 160.169 41.6903C159.916 41.9659 159.79 42.3153 159.79 42.7386V47H158.767V42.517C158.767 42.1449 158.646 41.8452 158.405 41.6179C158.163 41.3878 157.852 41.2727 157.472 41.2727C157.21 41.2727 156.966 41.3423 156.739 41.4815C156.514 41.6207 156.332 41.8139 156.193 42.0611C156.057 42.3054 155.989 42.5881 155.989 42.9091V47H154.983ZM167.339 47.1534C166.924 47.1534 166.548 47.0753 166.21 46.919C165.871 46.7599 165.603 46.5312 165.404 46.233C165.205 45.9318 165.106 45.5682 165.106 45.142C165.106 44.767 165.18 44.4631 165.327 44.2301C165.475 43.9943 165.673 43.8097 165.92 43.6761C166.167 43.5426 166.44 43.4432 166.738 43.3778C167.039 43.3097 167.342 43.2557 167.646 43.2159C168.043 43.1648 168.366 43.1264 168.613 43.1009C168.863 43.0724 169.045 43.0256 169.158 42.9602C169.275 42.8949 169.333 42.7812 169.333 42.6193V42.5852C169.333 42.1648 169.218 41.8381 168.988 41.6051C168.761 41.3722 168.415 41.2557 167.952 41.2557C167.472 41.2557 167.096 41.3608 166.823 41.571C166.55 41.7812 166.359 42.0057 166.248 42.2443L165.293 41.9034C165.464 41.5057 165.691 41.196 165.975 40.9744C166.262 40.75 166.575 40.5937 166.913 40.5057C167.254 40.4148 167.589 40.3693 167.918 40.3693C168.129 40.3693 168.37 40.3949 168.643 40.446C168.918 40.4943 169.184 40.5952 169.44 40.7486C169.698 40.902 169.913 41.1335 170.083 41.4432C170.254 41.7528 170.339 42.1676 170.339 42.6875V47H169.333V46.1136H169.282C169.214 46.2557 169.1 46.4077 168.941 46.5696C168.782 46.7315 168.57 46.8693 168.306 46.983C168.042 47.0966 167.719 47.1534 167.339 47.1534ZM167.492 46.25C167.89 46.25 168.225 46.1719 168.498 46.0156C168.773 45.8594 168.981 45.6577 169.12 45.4105C169.262 45.1634 169.333 44.9034 169.333 44.6307V43.7102C169.29 43.7614 169.197 43.8082 169.052 43.8509C168.91 43.8906 168.745 43.9261 168.558 43.9574C168.373 43.9858 168.192 44.0114 168.016 44.0341C167.843 44.054 167.702 44.071 167.594 44.0852C167.333 44.1193 167.089 44.1747 166.862 44.2514C166.637 44.3253 166.455 44.4375 166.316 44.5881C166.18 44.7358 166.112 44.9375 166.112 45.1932C166.112 45.5426 166.241 45.8068 166.499 45.9858C166.761 46.1619 167.092 46.25 167.492 46.25ZM173.18 43.0625V47H172.174V40.4545H173.146V41.4773H173.231C173.385 41.1449 173.618 40.8778 173.93 40.6761C174.243 40.4716 174.646 40.3693 175.14 40.3693C175.583 40.3693 175.971 40.4602 176.304 40.642C176.636 40.821 176.895 41.0938 177.079 41.4602C177.264 41.8239 177.356 42.2841 177.356 42.8409V47H176.35V42.9091C176.35 42.3949 176.217 41.9943 175.95 41.7074C175.683 41.4176 175.316 41.2727 174.85 41.2727C174.529 41.2727 174.243 41.3423 173.99 41.4815C173.74 41.6207 173.542 41.8239 173.397 42.0909C173.252 42.358 173.18 42.6818 173.18 43.0625ZM181.12 47.1534C180.705 47.1534 180.329 47.0753 179.991 46.919C179.653 46.7599 179.384 46.5312 179.185 46.233C178.987 45.9318 178.887 45.5682 178.887 45.142C178.887 44.767 178.961 44.4631 179.109 44.2301C179.256 43.9943 179.454 43.8097 179.701 43.6761C179.948 43.5426 180.221 43.4432 180.519 43.3778C180.82 43.3097 181.123 43.2557 181.427 43.2159C181.825 43.1648 182.147 43.1264 182.394 43.1009C182.644 43.0724 182.826 43.0256 182.94 42.9602C183.056 42.8949 183.114 42.7812 183.114 42.6193V42.5852C183.114 42.1648 182.999 41.8381 182.769 41.6051C182.542 41.3722 182.197 41.2557 181.734 41.2557C181.254 41.2557 180.877 41.3608 180.604 41.571C180.332 41.7812 180.14 42.0057 180.029 42.2443L179.075 41.9034C179.245 41.5057 179.472 41.196 179.756 40.9744C180.043 40.75 180.356 40.5937 180.694 40.5057C181.035 40.4148 181.37 40.3693 181.7 40.3693C181.91 40.3693 182.151 40.3949 182.424 40.446C182.7 40.4943 182.965 40.5952 183.221 40.7486C183.479 40.902 183.694 41.1335 183.864 41.4432C184.035 41.7528 184.12 42.1676 184.12 42.6875V47H183.114V46.1136H183.063C182.995 46.2557 182.881 46.4077 182.722 46.5696C182.563 46.7315 182.352 46.8693 182.087 46.983C181.823 47.0966 181.501 47.1534 181.12 47.1534ZM181.273 46.25C181.671 46.25 182.006 46.1719 182.279 46.0156C182.555 45.8594 182.762 45.6577 182.901 45.4105C183.043 45.1634 183.114 44.9034 183.114 44.6307V43.7102C183.072 43.7614 182.978 43.8082 182.833 43.8509C182.691 43.8906 182.526 43.9261 182.339 43.9574C182.154 43.9858 181.974 44.0114 181.798 44.0341C181.624 44.054 181.484 44.071 181.376 44.0852C181.114 44.1193 180.87 44.1747 180.643 44.2514C180.418 44.3253 180.237 44.4375 180.097 44.5881C179.961 44.7358 179.893 44.9375 179.893 45.1932C179.893 45.5426 180.022 45.8068 180.281 45.9858C180.542 46.1619 180.873 46.25 181.273 46.25ZM188.598 49.5909C188.112 49.5909 187.694 49.5284 187.345 49.4034C186.995 49.2812 186.704 49.1193 186.471 48.9176C186.241 48.7188 186.058 48.5057 185.922 48.2784L186.723 47.7159C186.814 47.8352 186.929 47.9716 187.068 48.125C187.207 48.2812 187.397 48.4162 187.639 48.5298C187.883 48.6463 188.203 48.7045 188.598 48.7045C189.126 48.7045 189.562 48.5767 189.906 48.321C190.25 48.0653 190.422 47.6648 190.422 47.1193V45.7898H190.336C190.262 45.9091 190.157 46.0568 190.021 46.233C189.887 46.4062 189.694 46.5611 189.441 46.6974C189.191 46.831 188.853 46.8977 188.427 46.8977C187.899 46.8977 187.424 46.7727 187.004 46.5227C186.586 46.2727 186.255 45.9091 186.011 45.4318C185.77 44.9545 185.649 44.375 185.649 43.6932C185.649 43.0227 185.767 42.4389 186.002 41.9418C186.238 41.4418 186.566 41.0554 186.987 40.7827C187.407 40.5071 187.893 40.3693 188.444 40.3693C188.87 40.3693 189.208 40.4403 189.458 40.5824C189.711 40.7216 189.904 40.8807 190.038 41.0597C190.174 41.2358 190.279 41.3807 190.353 41.4943H190.456V40.4545H191.427V47.1875C191.427 47.75 191.299 48.2074 191.044 48.5597C190.791 48.9148 190.45 49.1747 190.021 49.3395C189.595 49.5071 189.12 49.5909 188.598 49.5909ZM188.564 45.9943C188.967 45.9943 189.308 45.902 189.586 45.7173C189.865 45.5327 190.076 45.267 190.221 44.9205C190.366 44.5739 190.439 44.1591 190.439 43.6761C190.439 43.2045 190.368 42.7884 190.225 42.4276C190.083 42.0668 189.873 41.7841 189.595 41.5795C189.316 41.375 188.973 41.2727 188.564 41.2727C188.137 41.2727 187.782 41.3807 187.498 41.5966C187.217 41.8125 187.005 42.1023 186.863 42.4659C186.724 42.8295 186.654 43.233 186.654 43.6761C186.654 44.1307 186.725 44.5327 186.868 44.8821C187.012 45.2287 187.225 45.5014 187.507 45.7003C187.791 45.8963 188.143 45.9943 188.564 45.9943ZM196.012 47.1364C195.382 47.1364 194.838 46.9972 194.38 46.7188C193.926 46.4375 193.575 46.0455 193.328 45.5426C193.083 45.0369 192.961 44.4489 192.961 43.7784C192.961 43.108 193.083 42.517 193.328 42.0057C193.575 41.4915 193.919 41.0909 194.359 40.804C194.802 40.5142 195.319 40.3693 195.91 40.3693C196.251 40.3693 196.588 40.4261 196.92 40.5398C197.252 40.6534 197.555 40.8381 197.828 41.0938C198.1 41.3466 198.318 41.6818 198.48 42.0994C198.642 42.517 198.723 43.0312 198.723 43.642V44.0682H193.677V43.1989H197.7C197.7 42.8295 197.626 42.5 197.478 42.2102C197.333 41.9205 197.126 41.6918 196.856 41.5241C196.589 41.3565 196.274 41.2727 195.91 41.2727C195.51 41.2727 195.163 41.3722 194.87 41.571C194.581 41.767 194.358 42.0227 194.201 42.3381C194.045 42.6534 193.967 42.9915 193.967 43.3523V43.9318C193.967 44.4261 194.052 44.8452 194.223 45.1889C194.396 45.5298 194.636 45.7898 194.943 45.9688C195.25 46.1449 195.606 46.233 196.012 46.233C196.277 46.233 196.515 46.196 196.728 46.1222C196.944 46.0455 197.13 45.9318 197.287 45.7812C197.443 45.6278 197.564 45.4375 197.649 45.2102L198.62 45.483C198.518 45.8125 198.346 46.1023 198.105 46.3523C197.863 46.5994 197.565 46.7926 197.21 46.9318C196.855 47.0682 196.456 47.1364 196.012 47.1364ZM200.252 47V40.4545H201.224V41.4773H201.309C201.446 41.1278 201.666 40.8565 201.97 40.6634C202.274 40.4673 202.639 40.3693 203.065 40.3693C203.497 40.3693 203.856 40.4673 204.143 40.6634C204.433 40.8565 204.659 41.1278 204.821 41.4773H204.889C205.056 41.1392 205.308 40.8707 205.643 40.6719C205.978 40.4702 206.38 40.3693 206.849 40.3693C207.434 40.3693 207.913 40.5526 208.285 40.919C208.657 41.2827 208.843 41.8494 208.843 42.6193V47H207.838V42.6193C207.838 42.1364 207.706 41.7912 207.441 41.5838C207.177 41.3764 206.866 41.2727 206.508 41.2727C206.048 41.2727 205.691 41.4119 205.439 41.6903C205.186 41.9659 205.059 42.3153 205.059 42.7386V47H204.037V42.517C204.037 42.1449 203.916 41.8452 203.674 41.6179C203.433 41.3878 203.122 41.2727 202.741 41.2727C202.48 41.2727 202.235 41.3423 202.008 41.4815C201.784 41.6207 201.602 41.8139 201.463 42.0611C201.326 42.3054 201.258 42.5881 201.258 42.9091V47H200.252ZM213.426 47.1364C212.796 47.1364 212.252 46.9972 211.794 46.7188C211.34 46.4375 210.989 46.0455 210.742 45.5426C210.498 45.0369 210.375 44.4489 210.375 43.7784C210.375 43.108 210.498 42.517 210.742 42.0057C210.989 41.4915 211.333 41.0909 211.773 40.804C212.216 40.5142 212.733 40.3693 213.324 40.3693C213.665 40.3693 214.002 40.4261 214.334 40.5398C214.667 40.6534 214.969 40.8381 215.242 41.0938C215.515 41.3466 215.732 41.6818 215.894 42.0994C216.056 42.517 216.137 43.0312 216.137 43.642V44.0682H211.091V43.1989H215.114C215.114 42.8295 215.04 42.5 214.892 42.2102C214.748 41.9205 214.54 41.6918 214.27 41.5241C214.003 41.3565 213.688 41.2727 213.324 41.2727C212.924 41.2727 212.577 41.3722 212.284 41.571C211.995 41.767 211.772 42.0227 211.615 42.3381C211.459 42.6534 211.381 42.9915 211.381 43.3523V43.9318C211.381 44.4261 211.466 44.8452 211.637 45.1889C211.81 45.5298 212.05 45.7898 212.357 45.9688C212.664 46.1449 213.02 46.233 213.426 46.233C213.691 46.233 213.929 46.196 214.142 46.1222C214.358 46.0455 214.544 45.9318 214.701 45.7812C214.857 45.6278 214.978 45.4375 215.063 45.2102L216.034 45.483C215.932 45.8125 215.76 46.1023 215.519 46.3523C215.277 46.5994 214.979 46.7926 214.624 46.9318C214.269 47.0682 213.87 47.1364 213.426 47.1364ZM218.672 43.0625V47H217.667V40.4545H218.638V41.4773H218.723C218.877 41.1449 219.11 40.8778 219.422 40.6761C219.735 40.4716 220.138 40.3693 220.632 40.3693C221.076 40.3693 221.463 40.4602 221.796 40.642C222.128 40.821 222.387 41.0938 222.571 41.4602C222.756 41.8239 222.848 42.2841 222.848 42.8409V47H221.843V42.9091C221.843 42.3949 221.709 41.9943 221.442 41.7074C221.175 41.4176 220.809 41.2727 220.343 41.2727C220.022 41.2727 219.735 41.3423 219.482 41.4815C219.232 41.6207 219.034 41.8239 218.89 42.0909C218.745 42.358 218.672 42.6818 218.672 43.0625ZM227.533 40.4545V41.3068H224.141V40.4545H227.533ZM225.129 38.8864H226.135V45.125C226.135 45.4091 226.176 45.6222 226.259 45.7642C226.344 45.9034 226.452 45.9972 226.582 46.0455C226.716 46.0909 226.857 46.1136 227.004 46.1136C227.115 46.1136 227.206 46.108 227.277 46.0966C227.348 46.0824 227.405 46.071 227.447 46.0625L227.652 46.9659C227.584 46.9915 227.489 47.017 227.366 47.0426C227.244 47.071 227.089 47.0852 226.902 47.0852C226.618 47.0852 226.339 47.0241 226.067 46.902C225.797 46.7798 225.572 46.5938 225.393 46.3438C225.217 46.0938 225.129 45.7784 225.129 45.3977V38.8864ZM235.335 40.4545V41.3068H231.807V40.4545H235.335ZM232.864 47V39.5511C232.864 39.1761 232.952 38.8636 233.128 38.6136C233.304 38.3636 233.533 38.1761 233.814 38.0511C234.095 37.9261 234.392 37.8636 234.705 37.8636C234.952 37.8636 235.153 37.8835 235.31 37.9233C235.466 37.9631 235.582 38 235.659 38.0341L235.369 38.9034C235.318 38.8864 235.247 38.8651 235.156 38.8395C235.068 38.8139 234.952 38.8011 234.807 38.8011C234.474 38.8011 234.234 38.8849 234.087 39.0526C233.942 39.2202 233.869 39.4659 233.869 39.7898V47H232.864ZM239.134 47.1364C238.543 47.1364 238.025 46.9957 237.579 46.7145C237.136 46.4332 236.789 46.0398 236.539 45.5341C236.292 45.0284 236.168 44.4375 236.168 43.7614C236.168 43.0795 236.292 42.4844 236.539 41.9759C236.789 41.4673 237.136 41.0724 237.579 40.7912C238.025 40.5099 238.543 40.3693 239.134 40.3693C239.725 40.3693 240.242 40.5099 240.685 40.7912C241.131 41.0724 241.478 41.4673 241.725 41.9759C241.975 42.4844 242.1 43.0795 242.1 43.7614C242.1 44.4375 241.975 45.0284 241.725 45.5341C241.478 46.0398 241.131 46.4332 240.685 46.7145C240.242 46.9957 239.725 47.1364 239.134 47.1364ZM239.134 46.233C239.583 46.233 239.952 46.1179 240.242 45.8878C240.532 45.6577 240.746 45.3551 240.886 44.9801C241.025 44.6051 241.094 44.1989 241.094 43.7614C241.094 43.3239 241.025 42.9162 240.886 42.5384C240.746 42.1605 240.532 41.8551 240.242 41.6222C239.952 41.3892 239.583 41.2727 239.134 41.2727C238.685 41.2727 238.316 41.3892 238.026 41.6222C237.737 41.8551 237.522 42.1605 237.383 42.5384C237.244 42.9162 237.174 43.3239 237.174 43.7614C237.174 44.1989 237.244 44.6051 237.383 44.9801C237.522 45.3551 237.737 45.6577 238.026 45.8878C238.316 46.1179 238.685 46.233 239.134 46.233ZM243.635 47V40.4545H244.607V41.4432H244.675C244.794 41.1193 245.01 40.8565 245.323 40.6548C245.635 40.4531 245.988 40.3523 246.38 40.3523C246.453 40.3523 246.546 40.3537 246.657 40.3565C246.767 40.3594 246.851 40.3636 246.908 40.3693V41.392C246.874 41.3835 246.796 41.3707 246.674 41.3537C246.554 41.3338 246.428 41.3239 246.294 41.3239C245.976 41.3239 245.692 41.3906 245.442 41.5241C245.195 41.6548 244.999 41.8366 244.854 42.0696C244.712 42.2997 244.641 42.5625 244.641 42.858V47H243.635ZM88.5568 57.9205L87.6534 58.1761C87.5966 58.0256 87.5128 57.8793 87.402 57.7372C87.294 57.5923 87.1463 57.473 86.9588 57.3793C86.7713 57.2855 86.5312 57.2386 86.2386 57.2386C85.8381 57.2386 85.5043 57.331 85.2372 57.5156C84.973 57.6974 84.8409 57.929 84.8409 58.2102C84.8409 58.4602 84.9318 58.6577 85.1136 58.8026C85.2955 58.9474 85.5795 59.0682 85.9659 59.1648L86.9375 59.4034C87.5227 59.5455 87.9588 59.7628 88.2457 60.0554C88.5327 60.3452 88.6761 60.7187 88.6761 61.1761C88.6761 61.5511 88.5682 61.8864 88.3523 62.1818C88.1392 62.4773 87.8409 62.7102 87.4574 62.8807C87.0739 63.0511 86.6278 63.1364 86.1193 63.1364C85.4517 63.1364 84.8991 62.9915 84.4616 62.7017C84.0241 62.4119 83.7472 61.9886 83.6307 61.4318L84.5852 61.1932C84.6761 61.5455 84.848 61.8097 85.1009 61.9858C85.3565 62.1619 85.6903 62.25 86.1023 62.25C86.571 62.25 86.9432 62.1506 87.2188 61.9517C87.4972 61.75 87.6364 61.5085 87.6364 61.2273C87.6364 61 87.5568 60.8097 87.3977 60.6562C87.2386 60.5 86.9943 60.3835 86.6648 60.3068L85.5739 60.0511C84.9744 59.9091 84.5341 59.6889 84.2528 59.3906C83.9744 59.0895 83.8352 58.7131 83.8352 58.2614C83.8352 57.892 83.9389 57.5653 84.1463 57.2812C84.3565 56.9972 84.642 56.7741 85.0028 56.6122C85.3665 56.4503 85.7784 56.3693 86.2386 56.3693C86.8864 56.3693 87.3949 56.5114 87.7642 56.7955C88.1364 57.0795 88.4006 57.4545 88.5568 57.9205ZM94.315 60.3239V56.4545H95.3207V63H94.315V61.892H94.2468C94.0934 62.2244 93.8548 62.5071 93.5309 62.7401C93.207 62.9702 92.7979 63.0852 92.3036 63.0852C91.8945 63.0852 91.5309 62.9957 91.2127 62.8168C90.8945 62.6349 90.6445 62.3622 90.4627 61.9986C90.2809 61.6321 90.19 61.1705 90.19 60.6136V56.4545H91.1957V60.5455C91.1957 61.0227 91.3292 61.4034 91.5962 61.6875C91.8661 61.9716 92.2099 62.1136 92.6275 62.1136C92.8775 62.1136 93.1317 62.0497 93.3903 61.9219C93.6516 61.794 93.8704 61.598 94.0465 61.3338C94.2255 61.0696 94.315 60.733 94.315 60.3239ZM101.799 57.9205L100.896 58.1761C100.839 58.0256 100.755 57.8793 100.644 57.7372C100.536 57.5923 100.388 57.473 100.201 57.3793C100.013 57.2855 99.7734 57.2386 99.4808 57.2386C99.0803 57.2386 98.7464 57.331 98.4794 57.5156C98.2152 57.6974 98.0831 57.929 98.0831 58.2102C98.0831 58.4602 98.174 58.6577 98.3558 58.8026C98.5376 58.9474 98.8217 59.0682 99.2081 59.1648L100.18 59.4034C100.765 59.5455 101.201 59.7628 101.488 60.0554C101.775 60.3452 101.918 60.7187 101.918 61.1761C101.918 61.5511 101.81 61.8864 101.594 62.1818C101.381 62.4773 101.083 62.7102 100.7 62.8807C100.316 63.0511 99.87 63.1364 99.3615 63.1364C98.6939 63.1364 98.1413 62.9915 97.7038 62.7017C97.2663 62.4119 96.9893 61.9886 96.8729 61.4318L97.8274 61.1932C97.9183 61.5455 98.0902 61.8097 98.343 61.9858C98.5987 62.1619 98.9325 62.25 99.3445 62.25C99.8132 62.25 100.185 62.1506 100.461 61.9517C100.739 61.75 100.879 61.5085 100.879 61.2273C100.879 61 100.799 60.8097 100.64 60.6562C100.481 60.5 100.237 60.3835 99.907 60.3068L98.8161 60.0511C98.2166 59.9091 97.7763 59.6889 97.495 59.3906C97.2166 59.0895 97.0774 58.7131 97.0774 58.2614C97.0774 57.892 97.1811 57.5653 97.3885 57.2812C97.5987 56.9972 97.8842 56.7741 98.245 56.6122C98.6087 56.4503 99.0206 56.3693 99.4808 56.3693C100.129 56.3693 100.637 56.5114 101.006 56.7955C101.379 57.0795 101.643 57.4545 101.799 57.9205ZM106.279 56.4545V57.3068H102.887V56.4545H106.279ZM103.875 54.8864H104.881V61.125C104.881 61.4091 104.922 61.6222 105.005 61.7642C105.09 61.9034 105.198 61.9972 105.328 62.0455C105.462 62.0909 105.603 62.1136 105.75 62.1136C105.861 62.1136 105.952 62.108 106.023 62.0966C106.094 62.0824 106.151 62.071 106.194 62.0625L106.398 62.9659C106.33 62.9915 106.235 63.017 106.113 63.0426C105.99 63.071 105.836 63.0852 105.648 63.0852C105.364 63.0852 105.086 63.0241 104.813 62.902C104.543 62.7798 104.319 62.5938 104.14 62.3438C103.963 62.0938 103.875 61.7784 103.875 61.3977V54.8864ZM109.718 63.1534C109.303 63.1534 108.926 63.0753 108.588 62.919C108.25 62.7599 107.982 62.5312 107.783 62.233C107.584 61.9318 107.485 61.5682 107.485 61.142C107.485 60.767 107.559 60.4631 107.706 60.2301C107.854 59.9943 108.051 59.8097 108.299 59.6761C108.546 59.5426 108.819 59.4432 109.117 59.3778C109.418 59.3097 109.721 59.2557 110.025 59.2159C110.422 59.1648 110.745 59.1264 110.992 59.1009C111.242 59.0724 111.424 59.0256 111.537 58.9602C111.654 58.8949 111.712 58.7812 111.712 58.6193V58.5852C111.712 58.1648 111.597 57.8381 111.367 57.6051C111.14 57.3722 110.794 57.2557 110.331 57.2557C109.851 57.2557 109.475 57.3608 109.202 57.571C108.929 57.7812 108.738 58.0057 108.627 58.2443L107.672 57.9034C107.843 57.5057 108.07 57.196 108.354 56.9744C108.641 56.75 108.953 56.5937 109.292 56.5057C109.632 56.4148 109.968 56.3693 110.297 56.3693C110.507 56.3693 110.749 56.3949 111.022 56.446C111.297 56.4943 111.563 56.5952 111.819 56.7486C112.077 56.902 112.292 57.1335 112.462 57.4432C112.632 57.7528 112.718 58.1676 112.718 58.6875V63H111.712V62.1136H111.661C111.593 62.2557 111.479 62.4077 111.32 62.5696C111.161 62.7315 110.949 62.8693 110.685 62.983C110.421 63.0966 110.098 63.1534 109.718 63.1534ZM109.871 62.25C110.269 62.25 110.604 62.1719 110.877 62.0156C111.152 61.8594 111.36 61.6577 111.499 61.4105C111.641 61.1634 111.712 60.9034 111.712 60.6307V59.7102C111.669 59.7614 111.576 59.8082 111.431 59.8509C111.289 59.8906 111.124 59.9261 110.936 59.9574C110.752 59.9858 110.571 60.0114 110.395 60.0341C110.222 60.054 110.081 60.071 109.973 60.0852C109.712 60.1193 109.468 60.1747 109.24 60.2514C109.016 60.3253 108.834 60.4375 108.695 60.5881C108.559 60.7358 108.49 60.9375 108.49 61.1932C108.49 61.5426 108.62 61.8068 108.878 61.9858C109.14 62.1619 109.471 62.25 109.871 62.25ZM114.553 63V56.4545H115.559V63H114.553ZM115.065 55.3636C114.869 55.3636 114.7 55.2969 114.558 55.1634C114.418 55.0298 114.349 54.8693 114.349 54.6818C114.349 54.4943 114.418 54.3338 114.558 54.2003C114.7 54.0668 114.869 54 115.065 54C115.261 54 115.428 54.0668 115.567 54.2003C115.71 54.3338 115.781 54.4943 115.781 54.6818C115.781 54.8693 115.71 55.0298 115.567 55.1634C115.428 55.2969 115.261 55.3636 115.065 55.3636ZM118.407 59.0625V63H117.401V56.4545H118.373V57.4773H118.458C118.611 57.1449 118.844 56.8778 119.157 56.6761C119.469 56.4716 119.873 56.3693 120.367 56.3693C120.81 56.3693 121.198 56.4602 121.53 56.642C121.863 56.821 122.121 57.0938 122.306 57.4602C122.49 57.8239 122.583 58.2841 122.583 58.8409V63H121.577V58.9091C121.577 58.3949 121.444 57.9943 121.176 57.7074C120.909 57.4176 120.543 57.2727 120.077 57.2727C119.756 57.2727 119.469 57.3423 119.216 57.4815C118.966 57.6207 118.769 57.8239 118.624 58.0909C118.479 58.358 118.407 58.6818 118.407 59.0625ZM126.347 63.1534C125.932 63.1534 125.555 63.0753 125.217 62.919C124.879 62.7599 124.611 62.5312 124.412 62.233C124.213 61.9318 124.114 61.5682 124.114 61.142C124.114 60.767 124.188 60.4631 124.335 60.2301C124.483 59.9943 124.68 59.8097 124.928 59.6761C125.175 59.5426 125.447 59.4432 125.746 59.3778C126.047 59.3097 126.349 59.2557 126.653 59.2159C127.051 59.1648 127.374 59.1264 127.621 59.1009C127.871 59.0724 128.053 59.0256 128.166 58.9602C128.283 58.8949 128.341 58.7812 128.341 58.6193V58.5852C128.341 58.1648 128.226 57.8381 127.996 57.6051C127.768 57.3722 127.423 57.2557 126.96 57.2557C126.48 57.2557 126.104 57.3608 125.831 57.571C125.558 57.7812 125.366 58.0057 125.256 58.2443L124.301 57.9034C124.472 57.5057 124.699 57.196 124.983 56.9744C125.27 56.75 125.582 56.5937 125.92 56.5057C126.261 56.4148 126.597 56.3693 126.926 56.3693C127.136 56.3693 127.378 56.3949 127.651 56.446C127.926 56.4943 128.192 56.5952 128.447 56.7486C128.706 56.902 128.92 57.1335 129.091 57.4432C129.261 57.7528 129.347 58.1676 129.347 58.6875V63H128.341V62.1136H128.29C128.222 62.2557 128.108 62.4077 127.949 62.5696C127.79 62.7315 127.578 62.8693 127.314 62.983C127.05 63.0966 126.727 63.1534 126.347 63.1534ZM126.5 62.25C126.898 62.25 127.233 62.1719 127.506 62.0156C127.781 61.8594 127.989 61.6577 128.128 61.4105C128.27 61.1634 128.341 60.9034 128.341 60.6307V59.7102C128.298 59.7614 128.205 59.8082 128.06 59.8509C127.918 59.8906 127.753 59.9261 127.565 59.9574C127.381 59.9858 127.2 60.0114 127.024 60.0341C126.851 60.054 126.71 60.071 126.602 60.0852C126.341 60.1193 126.097 60.1747 125.869 60.2514C125.645 60.3253 125.463 60.4375 125.324 60.5881C125.188 60.7358 125.119 60.9375 125.119 61.1932C125.119 61.5426 125.249 61.8068 125.507 61.9858C125.768 62.1619 126.099 62.25 126.5 62.25ZM131.319 63V54.2727H132.324V57.4943H132.409C132.483 57.3807 132.586 57.2358 132.716 57.0597C132.85 56.8807 133.04 56.7216 133.287 56.5824C133.537 56.4403 133.875 56.3693 134.301 56.3693C134.853 56.3693 135.338 56.5071 135.759 56.7827C136.179 57.0582 136.507 57.4489 136.743 57.9545C136.979 58.4602 137.097 59.0568 137.097 59.7443C137.097 60.4375 136.979 61.0384 136.743 61.5469C136.507 62.0526 136.181 62.4446 135.763 62.723C135.346 62.9986 134.864 63.1364 134.319 63.1364C133.898 63.1364 133.561 63.0668 133.309 62.9276C133.056 62.7855 132.861 62.625 132.725 62.446C132.588 62.2642 132.483 62.1136 132.409 61.9943H132.29V63H131.319ZM132.307 59.7273C132.307 60.2216 132.38 60.6577 132.525 61.0355C132.669 61.4105 132.881 61.7045 133.159 61.9176C133.438 62.1278 133.779 62.233 134.182 62.233C134.603 62.233 134.953 62.1222 135.235 61.9006C135.519 61.6761 135.732 61.375 135.874 60.9972C136.019 60.6165 136.091 60.1932 136.091 59.7273C136.091 59.267 136.02 58.8523 135.878 58.483C135.739 58.1108 135.527 57.8168 135.243 57.6009C134.962 57.3821 134.608 57.2727 134.182 57.2727C133.773 57.2727 133.429 57.3764 133.151 57.5838C132.873 57.7884 132.662 58.0753 132.52 58.4446C132.378 58.8111 132.307 59.2386 132.307 59.7273ZM139.641 54.2727V63H138.635V54.2727H139.641ZM144.227 63.1364C143.597 63.1364 143.053 62.9972 142.595 62.7188C142.141 62.4375 141.79 62.0455 141.543 61.5426C141.298 61.0369 141.176 60.4489 141.176 59.7784C141.176 59.108 141.298 58.517 141.543 58.0057C141.79 57.4915 142.134 57.0909 142.574 56.804C143.017 56.5142 143.534 56.3693 144.125 56.3693C144.466 56.3693 144.803 56.4261 145.135 56.5398C145.467 56.6534 145.77 56.8381 146.043 57.0938C146.315 57.3466 146.533 57.6818 146.695 58.0994C146.857 58.517 146.938 59.0312 146.938 59.642V60.0682H141.892V59.1989H145.915C145.915 58.8295 145.841 58.5 145.693 58.2102C145.548 57.9205 145.341 57.6918 145.071 57.5241C144.804 57.3565 144.489 57.2727 144.125 57.2727C143.724 57.2727 143.378 57.3722 143.085 57.571C142.795 57.767 142.572 58.0227 142.416 58.3381C142.26 58.6534 142.182 58.9915 142.182 59.3523V59.9318C142.182 60.4261 142.267 60.8452 142.438 61.1889C142.611 61.5298 142.851 61.7898 143.158 61.9688C143.464 62.1449 143.821 62.233 144.227 62.233C144.491 62.233 144.73 62.196 144.943 62.1222C145.159 62.0455 145.345 61.9318 145.501 61.7812C145.658 61.6278 145.778 61.4375 145.864 61.2102L146.835 61.483C146.733 61.8125 146.561 62.1023 146.32 62.3523C146.078 62.5994 145.78 62.7926 145.425 62.9318C145.07 63.0682 144.67 63.1364 144.227 63.1364ZM154.757 56.4545V57.3068H151.229V56.4545H154.757ZM152.286 63V55.5511C152.286 55.1761 152.374 54.8636 152.55 54.6136C152.726 54.3636 152.955 54.1761 153.236 54.0511C153.517 53.9261 153.814 53.8636 154.126 53.8636C154.374 53.8636 154.575 53.8835 154.732 53.9233C154.888 53.9631 155.004 54 155.081 54.0341L154.791 54.9034C154.74 54.8864 154.669 54.8651 154.578 54.8395C154.49 54.8139 154.374 54.8011 154.229 54.8011C153.896 54.8011 153.656 54.8849 153.509 55.0526C153.364 55.2202 153.291 55.4659 153.291 55.7898V63H152.286ZM160.292 60.3239V56.4545H161.297V63H160.292V61.892H160.223C160.07 62.2244 159.831 62.5071 159.507 62.7401C159.184 62.9702 158.775 63.0852 158.28 63.0852C157.871 63.0852 157.507 62.9957 157.189 62.8168C156.871 62.6349 156.621 62.3622 156.439 61.9986C156.257 61.6321 156.167 61.1705 156.167 60.6136V56.4545H157.172V60.5455C157.172 61.0227 157.306 61.4034 157.573 61.6875C157.843 61.9716 158.186 62.1136 158.604 62.1136C158.854 62.1136 159.108 62.0497 159.367 61.9219C159.628 61.794 159.847 61.598 160.023 61.3338C160.202 61.0696 160.292 60.733 160.292 60.3239ZM165.986 56.4545V57.3068H162.594V56.4545H165.986ZM163.582 54.8864H164.588V61.125C164.588 61.4091 164.629 61.6222 164.712 61.7642C164.797 61.9034 164.905 61.9972 165.036 62.0455C165.169 62.0909 165.31 62.1136 165.457 62.1136C165.568 62.1136 165.659 62.108 165.73 62.0966C165.801 62.0824 165.858 62.071 165.901 62.0625L166.105 62.9659C166.037 62.9915 165.942 63.017 165.82 63.0426C165.697 63.071 165.543 63.0852 165.355 63.0852C165.071 63.0852 164.793 63.0241 164.52 62.902C164.25 62.7798 164.026 62.5938 163.847 62.3438C163.67 62.0938 163.582 61.7784 163.582 61.3977V54.8864ZM171.624 60.3239V56.4545H172.629V63H171.624V61.892H171.555C171.402 62.2244 171.163 62.5071 170.839 62.7401C170.516 62.9702 170.107 63.0852 169.612 63.0852C169.203 63.0852 168.839 62.9957 168.521 62.8168C168.203 62.6349 167.953 62.3622 167.771 61.9986C167.589 61.6321 167.499 61.1705 167.499 60.6136V56.4545H168.504V60.5455C168.504 61.0227 168.638 61.4034 168.905 61.6875C169.175 61.9716 169.518 62.1136 169.936 62.1136C170.186 62.1136 170.44 62.0497 170.699 61.9219C170.96 61.794 171.179 61.598 171.355 61.3338C171.534 61.0696 171.624 60.733 171.624 60.3239ZM174.471 63V56.4545H175.443V57.4432H175.511C175.63 57.1193 175.846 56.8565 176.159 56.6548C176.471 56.4531 176.824 56.3523 177.216 56.3523C177.289 56.3523 177.382 56.3537 177.493 56.3565C177.603 56.3594 177.687 56.3636 177.744 56.3693V57.392C177.71 57.3835 177.632 57.3707 177.51 57.3537C177.39 57.3338 177.264 57.3239 177.13 57.3239C176.812 57.3239 176.528 57.3906 176.278 57.5241C176.031 57.6548 175.835 57.8366 175.69 58.0696C175.548 58.2997 175.477 58.5625 175.477 58.858V63H174.471ZM181.481 63.1364C180.85 63.1364 180.306 62.9972 179.849 62.7188C179.395 62.4375 179.044 62.0455 178.797 61.5426C178.552 61.0369 178.43 60.4489 178.43 59.7784C178.43 59.108 178.552 58.517 178.797 58.0057C179.044 57.4915 179.387 57.0909 179.828 56.804C180.271 56.5142 180.788 56.3693 181.379 56.3693C181.72 56.3693 182.056 56.4261 182.389 56.5398C182.721 56.6534 183.024 56.8381 183.297 57.0938C183.569 57.3466 183.787 57.6818 183.949 58.0994C184.11 58.517 184.191 59.0312 184.191 59.642V60.0682H179.146V59.1989H183.169C183.169 58.8295 183.095 58.5 182.947 58.2102C182.802 57.9205 182.595 57.6918 182.325 57.5241C182.058 57.3565 181.743 57.2727 181.379 57.2727C180.978 57.2727 180.632 57.3722 180.339 57.571C180.049 57.767 179.826 58.0227 179.67 58.3381C179.514 58.6534 179.436 58.9915 179.436 59.3523V59.9318C179.436 60.4261 179.521 60.8452 179.691 61.1889C179.865 61.5298 180.105 61.7898 180.412 61.9688C180.718 62.1449 181.075 62.233 181.481 62.233C181.745 62.233 181.984 62.196 182.197 62.1222C182.413 62.0455 182.599 61.9318 182.755 61.7812C182.912 61.6278 183.032 61.4375 183.118 61.2102L184.089 61.483C183.987 61.8125 183.815 62.1023 183.574 62.3523C183.332 62.5994 183.034 62.7926 182.679 62.9318C182.324 63.0682 181.924 63.1364 181.481 63.1364Z" fill="#555555"/>
<path d="M83.7585 18.2727H86.0341L88.4375 24.1364H88.5398L90.9432 18.2727H93.2188V27H91.429V21.3196H91.3565L89.098 26.9574H87.8793L85.6207 21.2983H85.5483V27H83.7585V18.2727ZM97.6623 27.1278C97.0004 27.1278 96.4279 26.9872 95.945 26.706C95.4648 26.4219 95.0941 26.027 94.8327 25.5213C94.5714 25.0128 94.4407 24.4233 94.4407 23.7528C94.4407 23.0767 94.5714 22.4858 94.8327 21.9801C95.0941 21.4716 95.4648 21.0767 95.945 20.7955C96.4279 20.5114 97.0004 20.3693 97.6623 20.3693C98.3242 20.3693 98.8952 20.5114 99.3754 20.7955C99.8583 21.0767 100.23 21.4716 100.492 21.9801C100.753 22.4858 100.884 23.0767 100.884 23.7528C100.884 24.4233 100.753 25.0128 100.492 25.5213C100.23 26.027 99.8583 26.4219 99.3754 26.706C98.8952 26.9872 98.3242 27.1278 97.6623 27.1278ZM97.6708 25.7216C97.9719 25.7216 98.2234 25.6364 98.4251 25.4659C98.6268 25.2926 98.7788 25.0568 98.881 24.7585C98.9862 24.4602 99.0387 24.1207 99.0387 23.7401C99.0387 23.3594 98.9862 23.0199 98.881 22.7216C98.7788 22.4233 98.6268 22.1875 98.4251 22.0142C98.2234 21.8409 97.9719 21.7543 97.6708 21.7543C97.3668 21.7543 97.1112 21.8409 96.9038 22.0142C96.6992 22.1875 96.5444 22.4233 96.4393 22.7216C96.337 23.0199 96.2859 23.3594 96.2859 23.7401C96.2859 24.1207 96.337 24.4602 96.4393 24.7585C96.5444 25.0568 96.6992 25.2926 96.9038 25.4659C97.1112 25.6364 97.3668 25.7216 97.6708 25.7216ZM102.098 27V18.2727H103.914V21.554H103.969C104.049 21.3778 104.164 21.1989 104.314 21.017C104.468 20.8324 104.667 20.679 104.911 20.5568C105.158 20.4318 105.465 20.3693 105.831 20.3693C106.309 20.3693 106.749 20.4943 107.152 20.7443C107.556 20.9915 107.878 21.3651 108.12 21.8651C108.361 22.3622 108.482 22.9858 108.482 23.7358C108.482 24.4659 108.364 25.0824 108.128 25.5852C107.895 26.0852 107.577 26.4645 107.174 26.723C106.773 26.9787 106.324 27.1065 105.827 27.1065C105.475 27.1065 105.175 27.0483 104.928 26.9318C104.684 26.8153 104.483 26.669 104.327 26.4929C104.171 26.3139 104.051 26.1335 103.969 25.9517H103.888V27H102.098ZM103.875 23.7273C103.875 24.1165 103.929 24.456 104.037 24.7457C104.145 25.0355 104.301 25.2614 104.506 25.4233C104.711 25.5824 104.959 25.6619 105.252 25.6619C105.547 25.6619 105.797 25.581 106.002 25.419C106.206 25.2543 106.361 25.027 106.466 24.7372C106.574 24.4446 106.628 24.108 106.628 23.7273C106.628 23.3494 106.576 23.017 106.471 22.7301C106.365 22.4432 106.211 22.2187 106.006 22.0568C105.801 21.8949 105.55 21.8139 105.252 21.8139C104.956 21.8139 104.706 21.892 104.502 22.0483C104.3 22.2045 104.145 22.4261 104.037 22.7131C103.929 23 103.875 23.3381 103.875 23.7273ZM109.693 27V20.4545H111.509V27H109.693ZM110.605 19.6108C110.335 19.6108 110.104 19.5213 109.911 19.3423C109.72 19.1605 109.625 18.9432 109.625 18.6903C109.625 18.4403 109.72 18.2259 109.911 18.0469C110.104 17.8651 110.335 17.7741 110.605 17.7741C110.875 17.7741 111.105 17.8651 111.295 18.0469C111.489 18.2259 111.585 18.4403 111.585 18.6903C111.585 18.9432 111.489 19.1605 111.295 19.3423C111.105 19.5213 110.875 19.6108 110.605 19.6108ZM114.778 18.2727V27H112.963V18.2727H114.778ZM119.215 27.1278C118.542 27.1278 117.962 26.9915 117.477 26.7188C116.994 26.4432 116.621 26.054 116.36 25.5511C116.099 25.0455 115.968 24.4474 115.968 23.7571C115.968 23.0838 116.099 22.4929 116.36 21.9844C116.621 21.4759 116.989 21.0795 117.464 20.7955C117.941 20.5114 118.501 20.3693 119.143 20.3693C119.575 20.3693 119.977 20.4389 120.349 20.5781C120.724 20.7145 121.05 20.9205 121.329 21.196C121.61 21.4716 121.829 21.8182 121.985 22.2358C122.141 22.6506 122.219 23.1364 122.219 23.6932V24.1918H116.692V23.0668H120.511C120.511 22.8054 120.454 22.5739 120.34 22.3722C120.227 22.1705 120.069 22.0128 119.867 21.8991C119.668 21.7827 119.437 21.7244 119.173 21.7244C118.897 21.7244 118.653 21.7884 118.44 21.9162C118.229 22.0412 118.065 22.2102 117.945 22.4233C117.826 22.6335 117.765 22.8679 117.762 23.1264V24.196C117.762 24.5199 117.822 24.7997 117.941 25.0355C118.063 25.2713 118.235 25.4531 118.457 25.581C118.678 25.7088 118.941 25.7727 119.245 25.7727C119.447 25.7727 119.631 25.7443 119.799 25.6875C119.967 25.6307 120.11 25.5455 120.229 25.4318C120.349 25.3182 120.44 25.179 120.502 25.0142L122.181 25.125C122.096 25.5284 121.921 25.8807 121.657 26.1818C121.396 26.4801 121.058 26.7131 120.643 26.8807C120.231 27.0455 119.755 27.1278 119.215 27.1278ZM127.72 27H125.743L128.755 18.2727H131.133L134.142 27H132.164L129.978 20.267H129.91L127.72 27ZM127.596 23.5696H132.267V25.0099H127.596V23.5696ZM135.158 29.4545V20.4545H136.948V21.554H137.029C137.108 21.3778 137.223 21.1989 137.374 21.017C137.527 20.8324 137.726 20.679 137.971 20.5568C138.218 20.4318 138.525 20.3693 138.891 20.3693C139.368 20.3693 139.809 20.4943 140.212 20.7443C140.615 20.9915 140.938 21.3651 141.179 21.8651C141.421 22.3622 141.542 22.9858 141.542 23.7358C141.542 24.4659 141.424 25.0824 141.188 25.5852C140.955 26.0852 140.637 26.4645 140.233 26.723C139.833 26.9787 139.384 27.1065 138.887 27.1065C138.534 27.1065 138.235 27.0483 137.988 26.9318C137.743 26.8153 137.543 26.669 137.387 26.4929C137.23 26.3139 137.111 26.1335 137.029 25.9517H136.973V29.4545H135.158ZM136.935 23.7273C136.935 24.1165 136.989 24.456 137.097 24.7457C137.205 25.0355 137.361 25.2614 137.566 25.4233C137.77 25.5824 138.019 25.6619 138.311 25.6619C138.607 25.6619 138.857 25.581 139.061 25.419C139.266 25.2543 139.421 25.027 139.526 24.7372C139.634 24.4446 139.688 24.108 139.688 23.7273C139.688 23.3494 139.635 23.017 139.53 22.7301C139.425 22.4432 139.27 22.2187 139.066 22.0568C138.861 21.8949 138.61 21.8139 138.311 21.8139C138.016 21.8139 137.766 21.892 137.561 22.0483C137.36 22.2045 137.205 22.4261 137.097 22.7131C136.989 23 136.935 23.3381 136.935 23.7273ZM142.752 29.4545V20.4545H144.542V21.554H144.623C144.702 21.3778 144.817 21.1989 144.968 21.017C145.121 20.8324 145.32 20.679 145.564 20.5568C145.811 20.4318 146.118 20.3693 146.485 20.3693C146.962 20.3693 147.402 20.4943 147.806 20.7443C148.209 20.9915 148.532 21.3651 148.773 21.8651C149.015 22.3622 149.135 22.9858 149.135 23.7358C149.135 24.4659 149.017 25.0824 148.782 25.5852C148.549 26.0852 148.23 26.4645 147.827 26.723C147.426 26.9787 146.978 27.1065 146.48 27.1065C146.128 27.1065 145.828 27.0483 145.581 26.9318C145.337 26.8153 145.137 26.669 144.98 26.4929C144.824 26.3139 144.705 26.1335 144.623 25.9517H144.567V29.4545H142.752ZM144.529 23.7273C144.529 24.1165 144.583 24.456 144.691 24.7457C144.799 25.0355 144.955 25.2614 145.159 25.4233C145.364 25.5824 145.613 25.6619 145.905 25.6619C146.201 25.6619 146.451 25.581 146.655 25.419C146.86 25.2543 147.015 25.027 147.12 24.7372C147.228 24.4446 147.282 24.108 147.282 23.7273C147.282 23.3494 147.229 23.017 147.124 22.7301C147.019 22.4432 146.864 22.2187 146.659 22.0568C146.455 21.8949 146.203 21.8139 145.905 21.8139C145.61 21.8139 145.36 21.892 145.155 22.0483C144.953 22.2045 144.799 22.4261 144.691 22.7131C144.583 23 144.529 23.3381 144.529 23.7273Z" fill="#555555"/>
<defs>
<clipPath id="clip0_1002_194002">
<rect width="38" height="38" fill="white" transform="translate(23 23)"/>
</clipPath>
</defs>
</svg>
