<svg width="270" height="94" viewBox="0 0 270 94" fill="none" xmlns="http://www.w3.org/2000/svg">
<rect width="270" height="94" rx="8" fill="white" fill-opacity="0.5"/>
<rect x="0.5" y="0.5" width="269" height="93" rx="7.5" stroke="white" stroke-opacity="0.5"/>
<path fill-rule="evenodd" clip-rule="evenodd" d="M250.233 69.0482C250.482 68.8097 250.878 68.8186 251.116 69.0681L253.241 71.2903C253.472 71.5319 253.472 71.9125 253.241 72.1541L251.116 74.3763C250.878 74.6258 250.482 74.6347 250.233 74.3962C249.983 74.1577 249.974 73.7621 250.213 73.5126L251.924 71.7222L250.213 69.9319C249.974 69.6824 249.983 69.2867 250.233 69.0482Z" fill="#F89721"/>
<path fill-rule="evenodd" clip-rule="evenodd" d="M241.542 71.7222C241.542 71.377 241.822 71.0972 242.167 71.0972H252.789C253.134 71.0972 253.414 71.377 253.414 71.7222C253.414 72.0674 253.134 72.3472 252.789 72.3472H242.167C241.822 72.3472 241.542 72.0674 241.542 71.7222Z" fill="#F89721"/>
<rect x="13" y="13" width="58" height="58" rx="7" fill="white" stroke="#555555" stroke-width="2"/>
<g clip-path="url(#clip0_1002_193325)">
<path d="M32.5 51.5C32.6008 51.5 32.7047 51.5 32.8118 51.5H42M32.5 51.5C30.9352 51.4987 30.1145 51.4791 29.4787 51.1552C28.8828 50.8516 28.3987 50.3659 28.0952 49.7701C27.75 49.0927 27.75 48.2071 27.75 46.4337V37.567C27.75 35.7935 27.75 34.9061 28.0952 34.2287C28.3987 33.6328 28.8828 33.1487 29.4787 32.8452C30.1561 32.5 31.0435 32.5 32.817 32.5H51.1836C52.9571 32.5 53.8427 32.5 54.5201 32.8452C55.1159 33.1487 55.6016 33.6328 55.9052 34.2287C56.25 34.9054 56.25 35.7917 56.25 37.5618V46.4382C56.25 48.2082 56.25 49.0933 55.9052 49.7701C55.6016 50.3659 55.1159 50.8516 54.5201 51.1552C53.8433 51.5 52.9583 51.5 51.1882 51.5H42M32.5 51.5C32.5001 49.7511 34.6267 48.3333 37.25 48.3333C39.8734 48.3333 42 49.7511 42 51.5M51.5 45.1667H45.1667M51.5 40.4167H46.75M37.25 43.5833C35.5011 43.5833 34.0833 42.1656 34.0833 40.4167C34.0833 38.6678 35.5011 37.25 37.25 37.25C38.999 37.25 40.4167 38.6678 40.4167 40.4167C40.4167 42.1656 38.999 43.5833 37.25 43.5833Z" stroke="#555555" stroke-width="2" stroke-linecap="round" stroke-linejoin="round"/>
<rect x="36" y="25" width="12" height="12" rx="6" fill="#F89721"/>
</g>
<path d="M91.0795 41H90.0227C89.9602 40.696 89.8509 40.429 89.6946 40.1989C89.5412 39.9688 89.3537 39.7756 89.1321 39.6193C88.9134 39.4602 88.6705 39.3409 88.4034 39.2614C88.1364 39.1818 87.858 39.142 87.5682 39.142C87.0398 39.142 86.5611 39.2756 86.1321 39.5426C85.706 39.8097 85.3665 40.2031 85.1136 40.723C84.8636 41.2429 84.7386 41.8807 84.7386 42.6364C84.7386 43.392 84.8636 44.0298 85.1136 44.5497C85.3665 45.0696 85.706 45.4631 86.1321 45.7301C86.5611 45.9972 87.0398 46.1307 87.5682 46.1307C87.858 46.1307 88.1364 46.0909 88.4034 46.0114C88.6705 45.9318 88.9134 45.8139 89.1321 45.6577C89.3537 45.4986 89.5412 45.304 89.6946 45.0739C89.8509 44.8409 89.9602 44.5739 90.0227 44.2727H91.0795C91 44.7187 90.8551 45.1179 90.6449 45.4702C90.4347 45.8224 90.1733 46.1222 89.8608 46.3693C89.5483 46.6136 89.1974 46.7997 88.8082 46.9276C88.4219 47.0554 88.0085 47.1193 87.5682 47.1193C86.8239 47.1193 86.1619 46.9375 85.5824 46.5739C85.0028 46.2102 84.5469 45.6932 84.2145 45.0227C83.8821 44.3523 83.7159 43.5568 83.7159 42.6364C83.7159 41.7159 83.8821 40.9205 84.2145 40.25C84.5469 39.5795 85.0028 39.0625 85.5824 38.6989C86.1619 38.3352 86.8239 38.1534 87.5682 38.1534C88.0085 38.1534 88.4219 38.2173 88.8082 38.3452C89.1974 38.473 89.5483 38.6605 89.8608 38.9077C90.1733 39.152 90.4347 39.4503 90.6449 39.8026C90.8551 40.152 91 40.5511 91.0795 41ZM92.6509 47V40.4545H93.6225V41.4432H93.6907C93.81 41.1193 94.0259 40.8565 94.3384 40.6548C94.6509 40.4531 95.0032 40.3523 95.3952 40.3523C95.4691 40.3523 95.5614 40.3537 95.6722 40.3565C95.783 40.3594 95.8668 40.3636 95.9237 40.3693V41.392C95.8896 41.3835 95.8114 41.3707 95.6893 41.3537C95.57 41.3338 95.4435 41.3239 95.31 41.3239C94.9918 41.3239 94.7077 41.3906 94.4577 41.5241C94.2106 41.6548 94.0146 41.8366 93.8697 42.0696C93.7276 42.2997 93.6566 42.5625 93.6566 42.858V47H92.6509ZM99.0419 47.1534C98.6271 47.1534 98.2507 47.0753 97.9126 46.919C97.5746 46.7599 97.3061 46.5312 97.1072 46.233C96.9084 45.9318 96.8089 45.5682 96.8089 45.142C96.8089 44.767 96.8828 44.4631 97.0305 44.2301C97.1783 43.9943 97.3757 43.8097 97.6229 43.6761C97.87 43.5426 98.1428 43.4432 98.4411 43.3778C98.7422 43.3097 99.0447 43.2557 99.3487 43.2159C99.7464 43.1648 100.069 43.1264 100.316 43.1009C100.566 43.0724 100.748 43.0256 100.862 42.9602C100.978 42.8949 101.036 42.7812 101.036 42.6193V42.5852C101.036 42.1648 100.921 41.8381 100.691 41.6051C100.464 41.3722 100.119 41.2557 99.6555 41.2557C99.1754 41.2557 98.799 41.3608 98.5263 41.571C98.2536 41.7812 98.0618 42.0057 97.951 42.2443L96.9964 41.9034C97.1669 41.5057 97.3942 41.196 97.6783 40.9744C97.9652 40.75 98.2777 40.5937 98.6158 40.5057C98.9567 40.4148 99.2919 40.3693 99.6214 40.3693C99.8317 40.3693 100.073 40.3949 100.346 40.446C100.621 40.4943 100.887 40.5952 101.143 40.7486C101.401 40.902 101.616 41.1335 101.786 41.4432C101.957 41.7528 102.042 42.1676 102.042 42.6875V47H101.036V46.1136H100.985C100.917 46.2557 100.803 46.4077 100.644 46.5696C100.485 46.7315 100.273 46.8693 100.009 46.983C99.745 47.0966 99.4226 47.1534 99.0419 47.1534ZM99.1953 46.25C99.593 46.25 99.9283 46.1719 100.201 46.0156C100.477 45.8594 100.684 45.6577 100.823 45.4105C100.965 45.1634 101.036 44.9034 101.036 44.6307V43.7102C100.994 43.7614 100.9 43.8082 100.755 43.8509C100.613 43.8906 100.448 43.9261 100.261 43.9574C100.076 43.9858 99.8956 44.0114 99.7195 44.0341C99.5462 44.054 99.4055 44.071 99.2976 44.0852C99.0362 44.1193 98.7919 44.1747 98.5646 44.2514C98.3402 44.3253 98.1584 44.4375 98.0192 44.5881C97.8828 44.7358 97.8146 44.9375 97.8146 45.1932C97.8146 45.5426 97.9439 45.8068 98.2024 45.9858C98.4638 46.1619 98.7947 46.25 99.1953 46.25ZM106.792 40.4545V41.3068H103.264V40.4545H106.792ZM104.321 47V39.5511C104.321 39.1761 104.409 38.8636 104.585 38.6136C104.761 38.3636 104.99 38.1761 105.271 38.0511C105.552 37.9261 105.849 37.8636 106.162 37.8636C106.409 37.8636 106.61 37.8835 106.767 37.9233C106.923 37.9631 107.039 38 107.116 38.0341L106.826 38.9034C106.775 38.8864 106.704 38.8651 106.613 38.8395C106.525 38.8139 106.409 38.8011 106.264 38.8011C105.931 38.8011 105.691 38.8849 105.544 39.0526C105.399 39.2202 105.326 39.4659 105.326 39.7898V47H104.321ZM111.048 40.4545V41.3068H107.656V40.4545H111.048ZM108.645 38.8864H109.651V45.125C109.651 45.4091 109.692 45.6222 109.774 45.7642C109.859 45.9034 109.967 45.9972 110.098 46.0455C110.232 46.0909 110.372 46.1136 110.52 46.1136C110.631 46.1136 110.722 46.108 110.793 46.0966C110.864 46.0824 110.92 46.071 110.963 46.0625L111.168 46.9659C111.099 46.9915 111.004 47.017 110.882 47.0426C110.76 47.071 110.605 47.0852 110.418 47.0852C110.134 47.0852 109.855 47.0241 109.582 46.902C109.313 46.7798 109.088 46.5938 108.909 46.3438C108.733 46.0938 108.645 45.7784 108.645 45.3977V38.8864ZM118.783 40.4545V41.3068H115.391V40.4545H118.783ZM116.379 38.8864H117.385V45.125C117.385 45.4091 117.426 45.6222 117.509 45.7642C117.594 45.9034 117.702 45.9972 117.832 46.0455C117.966 46.0909 118.107 46.1136 118.254 46.1136C118.365 46.1136 118.456 46.108 118.527 46.0966C118.598 46.0824 118.655 46.071 118.697 46.0625L118.902 46.9659C118.834 46.9915 118.739 47.017 118.616 47.0426C118.494 47.071 118.339 47.0852 118.152 47.0852C117.868 47.0852 117.589 47.0241 117.317 46.902C117.047 46.7798 116.822 46.5938 116.643 46.3438C116.467 46.0938 116.379 45.7784 116.379 45.3977V38.8864ZM122.222 47.1534C121.807 47.1534 121.43 47.0753 121.092 46.919C120.754 46.7599 120.486 46.5312 120.287 46.233C120.088 45.9318 119.989 45.5682 119.989 45.142C119.989 44.767 120.063 44.4631 120.21 44.2301C120.358 43.9943 120.555 43.8097 120.803 43.6761C121.05 43.5426 121.322 43.4432 121.621 43.3778C121.922 43.3097 122.224 43.2557 122.528 43.2159C122.926 43.1648 123.249 43.1264 123.496 43.1009C123.746 43.0724 123.928 43.0256 124.041 42.9602C124.158 42.8949 124.216 42.7812 124.216 42.6193V42.5852C124.216 42.1648 124.101 41.8381 123.871 41.6051C123.643 41.3722 123.298 41.2557 122.835 41.2557C122.355 41.2557 121.979 41.3608 121.706 41.571C121.433 41.7812 121.241 42.0057 121.131 42.2443L120.176 41.9034C120.347 41.5057 120.574 41.196 120.858 40.9744C121.145 40.75 121.457 40.5937 121.795 40.5057C122.136 40.4148 122.472 40.3693 122.801 40.3693C123.011 40.3693 123.253 40.3949 123.526 40.446C123.801 40.4943 124.067 40.5952 124.322 40.7486C124.581 40.902 124.795 41.1335 124.966 41.4432C125.136 41.7528 125.222 42.1676 125.222 42.6875V47H124.216V46.1136H124.165C124.097 46.2557 123.983 46.4077 123.824 46.5696C123.665 46.7315 123.453 46.8693 123.189 46.983C122.925 47.0966 122.602 47.1534 122.222 47.1534ZM122.375 46.25C122.773 46.25 123.108 46.1719 123.381 46.0156C123.656 45.8594 123.864 45.6577 124.003 45.4105C124.145 45.1634 124.216 44.9034 124.216 44.6307V43.7102C124.173 43.7614 124.08 43.8082 123.935 43.8509C123.793 43.8906 123.628 43.9261 123.44 43.9574C123.256 43.9858 123.075 44.0114 122.899 44.0341C122.726 44.054 122.585 44.071 122.477 44.0852C122.216 44.1193 121.972 44.1747 121.744 44.2514C121.52 44.3253 121.338 44.4375 121.199 44.5881C121.063 44.7358 120.994 44.9375 120.994 45.1932C120.994 45.5426 121.124 45.8068 121.382 45.9858C121.643 46.1619 121.974 46.25 122.375 46.25ZM127.057 47V40.4545H128.063V47H127.057ZM127.569 39.3636C127.373 39.3636 127.203 39.2969 127.061 39.1634C126.922 39.0298 126.853 38.8693 126.853 38.6818C126.853 38.4943 126.922 38.3338 127.061 38.2003C127.203 38.0668 127.373 38 127.569 38C127.765 38 127.932 38.0668 128.071 38.2003C128.213 38.3338 128.284 38.4943 128.284 38.6818C128.284 38.8693 128.213 39.0298 128.071 39.1634C127.932 39.2969 127.765 39.3636 127.569 39.3636ZM130.911 38.2727V47H129.905V38.2727H130.911ZM135.412 47.1364C134.821 47.1364 134.302 46.9957 133.856 46.7145C133.413 46.4332 133.066 46.0398 132.816 45.5341C132.569 45.0284 132.446 44.4375 132.446 43.7614C132.446 43.0795 132.569 42.4844 132.816 41.9759C133.066 41.4673 133.413 41.0724 133.856 40.7912C134.302 40.5099 134.821 40.3693 135.412 40.3693C136.002 40.3693 136.52 40.5099 136.963 40.7912C137.409 41.0724 137.755 41.4673 138.002 41.9759C138.252 42.4844 138.377 43.0795 138.377 43.7614C138.377 44.4375 138.252 45.0284 138.002 45.5341C137.755 46.0398 137.409 46.4332 136.963 46.7145C136.52 46.9957 136.002 47.1364 135.412 47.1364ZM135.412 46.233C135.86 46.233 136.23 46.1179 136.52 45.8878C136.809 45.6577 137.024 45.3551 137.163 44.9801C137.302 44.6051 137.372 44.1989 137.372 43.7614C137.372 43.3239 137.302 42.9162 137.163 42.5384C137.024 42.1605 136.809 41.8551 136.52 41.6222C136.23 41.3892 135.86 41.2727 135.412 41.2727C134.963 41.2727 134.593 41.3892 134.304 41.6222C134.014 41.8551 133.799 42.1605 133.66 42.5384C133.521 42.9162 133.451 43.3239 133.451 43.7614C133.451 44.1989 133.521 44.6051 133.66 44.9801C133.799 45.3551 134.014 45.6577 134.304 45.8878C134.593 46.1179 134.963 46.233 135.412 46.233ZM139.913 47V40.4545H140.884V41.4432H140.952C141.072 41.1193 141.288 40.8565 141.6 40.6548C141.913 40.4531 142.265 40.3523 142.657 40.3523C142.731 40.3523 142.823 40.3537 142.934 40.3565C143.045 40.3594 143.129 40.3636 143.185 40.3693V41.392C143.151 41.3835 143.073 41.3707 142.951 41.3537C142.832 41.3338 142.705 41.3239 142.572 41.3239C142.254 41.3239 141.969 41.3906 141.719 41.5241C141.472 41.6548 141.276 41.8366 141.131 42.0696C140.989 42.2997 140.918 42.5625 140.918 42.858V47H139.913ZM147.647 42.7898V43.7273H143.829V42.7898H147.647ZM149.417 47V40.4545H150.388V41.4773H150.473C150.61 41.1278 150.83 40.8565 151.134 40.6634C151.438 40.4673 151.803 40.3693 152.229 40.3693C152.661 40.3693 153.02 40.4673 153.307 40.6634C153.597 40.8565 153.823 41.1278 153.985 41.4773H154.053C154.221 41.1392 154.472 40.8707 154.807 40.6719C155.142 40.4702 155.544 40.3693 156.013 40.3693C156.598 40.3693 157.077 40.5526 157.449 40.919C157.821 41.2827 158.007 41.8494 158.007 42.6193V47H157.002V42.6193C157.002 42.1364 156.87 41.7912 156.605 41.5838C156.341 41.3764 156.03 41.2727 155.672 41.2727C155.212 41.2727 154.855 41.4119 154.603 41.6903C154.35 41.9659 154.223 42.3153 154.223 42.7386V47H153.201V42.517C153.201 42.1449 153.08 41.8452 152.838 41.6179C152.597 41.3878 152.286 41.2727 151.905 41.2727C151.644 41.2727 151.4 41.3423 151.172 41.4815C150.948 41.6207 150.766 41.8139 150.627 42.0611C150.49 42.3054 150.422 42.5881 150.422 42.9091V47H149.417ZM161.772 47.1534C161.358 47.1534 160.981 47.0753 160.643 46.919C160.305 46.7599 160.037 46.5312 159.838 46.233C159.639 45.9318 159.539 45.5682 159.539 45.142C159.539 44.767 159.613 44.4631 159.761 44.2301C159.909 43.9943 160.106 43.8097 160.353 43.6761C160.6 43.5426 160.873 43.4432 161.172 43.3778C161.473 43.3097 161.775 43.2557 162.079 43.2159C162.477 43.1648 162.799 43.1264 163.047 43.1009C163.297 43.0724 163.478 43.0256 163.592 42.9602C163.708 42.8949 163.767 42.7812 163.767 42.6193V42.5852C163.767 42.1648 163.652 41.8381 163.422 41.6051C163.194 41.3722 162.849 41.2557 162.386 41.2557C161.906 41.2557 161.529 41.3608 161.257 41.571C160.984 41.7812 160.792 42.0057 160.681 42.2443L159.727 41.9034C159.897 41.5057 160.125 41.196 160.409 40.9744C160.696 40.75 161.008 40.5937 161.346 40.5057C161.687 40.4148 162.022 40.3693 162.352 40.3693C162.562 40.3693 162.804 40.3949 163.076 40.446C163.352 40.4943 163.618 40.5952 163.873 40.7486C164.132 40.902 164.346 41.1335 164.517 41.4432C164.687 41.7528 164.772 42.1676 164.772 42.6875V47H163.767V46.1136H163.716C163.647 46.2557 163.534 46.4077 163.375 46.5696C163.216 46.7315 163.004 46.8693 162.74 46.983C162.475 47.0966 162.153 47.1534 161.772 47.1534ZM161.926 46.25C162.324 46.25 162.659 46.1719 162.931 46.0156C163.207 45.8594 163.414 45.6577 163.554 45.4105C163.696 45.1634 163.767 44.9034 163.767 44.6307V43.7102C163.724 43.7614 163.63 43.8082 163.485 43.8509C163.343 43.8906 163.179 43.9261 162.991 43.9574C162.806 43.9858 162.626 44.0114 162.45 44.0341C162.277 44.054 162.136 44.071 162.028 44.0852C161.767 44.1193 161.522 44.1747 161.295 44.2514C161.071 44.3253 160.889 44.4375 160.75 44.5881C160.613 44.7358 160.545 44.9375 160.545 45.1932C160.545 45.5426 160.674 45.8068 160.933 45.9858C161.194 46.1619 161.525 46.25 161.926 46.25ZM169.08 47.1364C168.534 47.1364 168.053 46.9986 167.635 46.723C167.217 46.4446 166.891 46.0526 166.655 45.5469C166.419 45.0384 166.301 44.4375 166.301 43.7443C166.301 43.0568 166.419 42.4602 166.655 41.9545C166.891 41.4489 167.219 41.0582 167.639 40.7827C168.06 40.5071 168.545 40.3693 169.097 40.3693C169.523 40.3693 169.859 40.4403 170.107 40.5824C170.357 40.7216 170.547 40.8807 170.678 41.0597C170.811 41.2358 170.915 41.3807 170.989 41.4943H171.074V38.2727H172.08V47H171.108V45.9943H170.989C170.915 46.1136 170.81 46.2642 170.673 46.446C170.537 46.625 170.342 46.7855 170.089 46.9276C169.837 47.0668 169.5 47.1364 169.08 47.1364ZM169.216 46.233C169.619 46.233 169.96 46.1278 170.239 45.9176C170.517 45.7045 170.729 45.4105 170.874 45.0355C171.018 44.6577 171.091 44.2216 171.091 43.7273C171.091 43.2386 171.02 42.8111 170.878 42.4446C170.736 42.0753 170.526 41.7884 170.247 41.5838C169.969 41.3764 169.625 41.2727 169.216 41.2727C168.79 41.2727 168.435 41.3821 168.151 41.6009C167.869 41.8168 167.658 42.1108 167.516 42.483C167.376 42.8523 167.307 43.267 167.307 43.7273C167.307 44.1932 167.378 44.6165 167.52 44.9972C167.665 45.375 167.878 45.6761 168.159 45.9006C168.443 46.1222 168.795 46.233 169.216 46.233ZM176.805 47.1364C176.175 47.1364 175.631 46.9972 175.173 46.7188C174.719 46.4375 174.368 46.0455 174.121 45.5426C173.876 45.0369 173.754 44.4489 173.754 43.7784C173.754 43.108 173.876 42.517 174.121 42.0057C174.368 41.4915 174.712 41.0909 175.152 40.804C175.595 40.5142 176.112 40.3693 176.703 40.3693C177.044 40.3693 177.381 40.4261 177.713 40.5398C178.045 40.6534 178.348 40.8381 178.621 41.0938C178.893 41.3466 179.111 41.6818 179.273 42.0994C179.435 42.517 179.516 43.0312 179.516 43.642V44.0682H174.47V43.1989H178.493C178.493 42.8295 178.419 42.5 178.271 42.2102C178.126 41.9205 177.919 41.6918 177.649 41.5241C177.382 41.3565 177.067 41.2727 176.703 41.2727C176.303 41.2727 175.956 41.3722 175.663 41.571C175.374 41.767 175.151 42.0227 174.994 42.3381C174.838 42.6534 174.76 42.9915 174.76 43.3523V43.9318C174.76 44.4261 174.845 44.8452 175.016 45.1889C175.189 45.5298 175.429 45.7898 175.736 45.9688C176.043 46.1449 176.399 46.233 176.805 46.233C177.07 46.233 177.308 46.196 177.521 46.1222C177.737 46.0455 177.923 45.9318 178.08 45.7812C178.236 45.6278 178.357 45.4375 178.442 45.2102L179.413 45.483C179.311 45.8125 179.139 46.1023 178.898 46.3523C178.656 46.5994 178.358 46.7926 178.003 46.9318C177.648 47.0682 177.249 47.1364 176.805 47.1364ZM189.773 40.4545L187.352 47H186.33L183.909 40.4545H185L186.807 45.6705H186.875L188.682 40.4545H189.773ZM191.1 47V40.4545H192.106V47H191.1ZM191.612 39.3636C191.415 39.3636 191.246 39.2969 191.104 39.1634C190.965 39.0298 190.896 38.8693 190.896 38.6818C190.896 38.4943 190.965 38.3338 191.104 38.2003C191.246 38.0668 191.415 38 191.612 38C191.808 38 191.975 38.0668 192.114 38.2003C192.256 38.3338 192.327 38.4943 192.327 38.6818C192.327 38.8693 192.256 39.0298 192.114 39.1634C191.975 39.2969 191.808 39.3636 191.612 39.3636ZM198.584 41.9205L197.681 42.1761C197.624 42.0256 197.54 41.8793 197.429 41.7372C197.321 41.5923 197.174 41.473 196.986 41.3793C196.799 41.2855 196.559 41.2386 196.266 41.2386C195.865 41.2386 195.532 41.331 195.265 41.5156C195 41.6974 194.868 41.929 194.868 42.2102C194.868 42.4602 194.959 42.6577 195.141 42.8026C195.323 42.9474 195.607 43.0682 195.993 43.1648L196.965 43.4034C197.55 43.5455 197.986 43.7628 198.273 44.0554C198.56 44.3452 198.703 44.7187 198.703 45.1761C198.703 45.5511 198.596 45.8864 198.38 46.1818C198.167 46.4773 197.868 46.7102 197.485 46.8807C197.101 47.0511 196.655 47.1364 196.147 47.1364C195.479 47.1364 194.926 46.9915 194.489 46.7017C194.051 46.4119 193.775 45.9886 193.658 45.4318L194.613 45.1932C194.703 45.5455 194.875 45.8097 195.128 45.9858C195.384 46.1619 195.718 46.25 196.13 46.25C196.598 46.25 196.971 46.1506 197.246 45.9517C197.525 45.75 197.664 45.5085 197.664 45.2273C197.664 45 197.584 44.8097 197.425 44.6562C197.266 44.5 197.022 44.3835 196.692 44.3068L195.601 44.0511C195.002 43.9091 194.561 43.6889 194.28 43.3906C194.002 43.0895 193.863 42.7131 193.863 42.2614C193.863 41.892 193.966 41.5653 194.174 41.2812C194.384 40.9972 194.669 40.7741 195.03 40.6122C195.394 40.4503 195.806 40.3693 196.266 40.3693C196.914 40.3693 197.422 40.5114 197.792 40.7955C198.164 41.0795 198.428 41.4545 198.584 41.9205ZM200.217 47V40.4545H201.223V47H200.217ZM200.729 39.3636C200.533 39.3636 200.364 39.2969 200.222 39.1634C200.082 39.0298 200.013 38.8693 200.013 38.6818C200.013 38.4943 200.082 38.3338 200.222 38.2003C200.364 38.0668 200.533 38 200.729 38C200.925 38 201.092 38.0668 201.232 38.2003C201.374 38.3338 201.445 38.4943 201.445 38.6818C201.445 38.8693 201.374 39.0298 201.232 39.1634C201.092 39.2969 200.925 39.3636 200.729 39.3636ZM205.912 40.4545V41.3068H202.52V40.4545H205.912ZM203.508 38.8864H204.514V45.125C204.514 45.4091 204.555 45.6222 204.637 45.7642C204.723 45.9034 204.831 45.9972 204.961 46.0455C205.095 46.0909 205.235 46.1136 205.383 46.1136C205.494 46.1136 205.585 46.108 205.656 46.0966C205.727 46.0824 205.784 46.071 205.826 46.0625L206.031 46.9659C205.963 46.9915 205.868 47.017 205.745 47.0426C205.623 47.071 205.468 47.0852 205.281 47.0852C204.997 47.0852 204.718 47.0241 204.446 46.902C204.176 46.7798 203.951 46.5938 203.772 46.3438C203.596 46.0938 203.508 45.7784 203.508 45.3977V38.8864ZM210.013 47.1364C209.422 47.1364 208.904 46.9957 208.458 46.7145C208.015 46.4332 207.668 46.0398 207.418 45.5341C207.171 45.0284 207.047 44.4375 207.047 43.7614C207.047 43.0795 207.171 42.4844 207.418 41.9759C207.668 41.4673 208.015 41.0724 208.458 40.7912C208.904 40.5099 209.422 40.3693 210.013 40.3693C210.604 40.3693 211.121 40.5099 211.564 40.7912C212.01 41.0724 212.357 41.4673 212.604 41.9759C212.854 42.4844 212.979 43.0795 212.979 43.7614C212.979 44.4375 212.854 45.0284 212.604 45.5341C212.357 46.0398 212.01 46.4332 211.564 46.7145C211.121 46.9957 210.604 47.1364 210.013 47.1364ZM210.013 46.233C210.462 46.233 210.831 46.1179 211.121 45.8878C211.411 45.6577 211.625 45.3551 211.765 44.9801C211.904 44.6051 211.973 44.1989 211.973 43.7614C211.973 43.3239 211.904 42.9162 211.765 42.5384C211.625 42.1605 211.411 41.8551 211.121 41.6222C210.831 41.3892 210.462 41.2727 210.013 41.2727C209.564 41.2727 209.195 41.3892 208.905 41.6222C208.615 41.8551 208.401 42.1605 208.262 42.5384C208.123 42.9162 208.053 43.3239 208.053 43.7614C208.053 44.1989 208.123 44.6051 208.262 44.9801C208.401 45.3551 208.615 45.6577 208.905 45.8878C209.195 46.1179 209.564 46.233 210.013 46.233ZM214.514 47V40.4545H215.486V41.4432H215.554C215.673 41.1193 215.889 40.8565 216.202 40.6548C216.514 40.4531 216.866 40.3523 217.259 40.3523C217.332 40.3523 217.425 40.3537 217.536 40.3565C217.646 40.3594 217.73 40.3636 217.787 40.3693V41.392C217.753 41.3835 217.675 41.3707 217.553 41.3537C217.433 41.3338 217.307 41.3239 217.173 41.3239C216.855 41.3239 216.571 41.3906 216.321 41.5241C216.074 41.6548 215.878 41.8366 215.733 42.0696C215.591 42.2997 215.52 42.5625 215.52 42.858V47H214.514ZM86.6648 63.1364C86.0341 63.1364 85.4901 62.9972 85.0327 62.7188C84.5781 62.4375 84.2273 62.0455 83.9801 61.5426C83.7358 61.0369 83.6136 60.4489 83.6136 59.7784C83.6136 59.108 83.7358 58.517 83.9801 58.0057C84.2273 57.4915 84.571 57.0909 85.0114 56.804C85.4545 56.5142 85.9716 56.3693 86.5625 56.3693C86.9034 56.3693 87.2401 56.4261 87.5724 56.5398C87.9048 56.6534 88.2074 56.8381 88.4801 57.0938C88.7528 57.3466 88.9702 57.6818 89.1321 58.0994C89.294 58.517 89.375 59.0312 89.375 59.642V60.0682H84.3295V59.1989H88.3523C88.3523 58.8295 88.2784 58.5 88.1307 58.2102C87.9858 57.9205 87.7784 57.6918 87.5085 57.5241C87.2415 57.3565 86.9261 57.2727 86.5625 57.2727C86.1619 57.2727 85.8153 57.3722 85.5227 57.571C85.233 57.767 85.0099 58.0227 84.8537 58.3381C84.6974 58.6534 84.6193 58.9915 84.6193 59.3523V59.9318C84.6193 60.4261 84.7045 60.8452 84.875 61.1889C85.0483 61.5298 85.2884 61.7898 85.5952 61.9688C85.902 62.1449 86.2585 62.233 86.6648 62.233C86.929 62.233 87.1676 62.196 87.3807 62.1222C87.5966 62.0455 87.7827 61.9318 87.9389 61.7812C88.0952 61.6278 88.2159 61.4375 88.3011 61.2102L89.2727 61.483C89.1705 61.8125 88.9986 62.1023 88.7571 62.3523C88.5156 62.5994 88.2173 62.7926 87.8622 62.9318C87.5071 63.0682 87.108 63.1364 86.6648 63.1364ZM91.479 56.4545L93.0472 59.1307L94.6154 56.4545H95.7745L93.6609 59.7273L95.7745 63H94.6154L93.0472 60.4602L91.479 63H90.32L92.3995 59.7273L90.32 56.4545H91.479ZM97.2095 65.4545V56.4545H98.1811V57.4943H98.3004C98.3743 57.3807 98.4766 57.2358 98.6072 57.0597C98.7408 56.8807 98.9311 56.7216 99.1783 56.5824C99.4283 56.4403 99.7663 56.3693 100.192 56.3693C100.744 56.3693 101.229 56.5071 101.65 56.7827C102.07 57.0582 102.398 57.4489 102.634 57.9545C102.87 58.4602 102.988 59.0568 102.988 59.7443C102.988 60.4375 102.87 61.0384 102.634 61.5469C102.398 62.0526 102.072 62.4446 101.654 62.723C101.237 62.9986 100.755 63.1364 100.21 63.1364C99.7891 63.1364 99.4524 63.0668 99.1996 62.9276C98.9467 62.7855 98.7521 62.625 98.6158 62.446C98.4794 62.2642 98.3743 62.1136 98.3004 61.9943H98.2152V65.4545H97.2095ZM98.1982 59.7273C98.1982 60.2216 98.2706 60.6577 98.4155 61.0355C98.5604 61.4105 98.772 61.7045 99.0504 61.9176C99.3288 62.1278 99.6697 62.233 100.073 62.233C100.494 62.233 100.844 62.1222 101.126 61.9006C101.41 61.6761 101.623 61.375 101.765 60.9972C101.91 60.6165 101.982 60.1932 101.982 59.7273C101.982 59.267 101.911 58.8523 101.769 58.483C101.63 58.1108 101.418 57.8168 101.134 57.6009C100.853 57.3821 100.499 57.2727 100.073 57.2727C99.6641 57.2727 99.3203 57.3764 99.0419 57.5838C98.7635 57.7884 98.5533 58.0753 98.4112 58.4446C98.2692 58.8111 98.1982 59.2386 98.1982 59.7273ZM107.266 63.1364C106.636 63.1364 106.092 62.9972 105.634 62.7188C105.18 62.4375 104.829 62.0455 104.582 61.5426C104.337 61.0369 104.215 60.4489 104.215 59.7784C104.215 59.108 104.337 58.517 104.582 58.0057C104.829 57.4915 105.173 57.0909 105.613 56.804C106.056 56.5142 106.573 56.3693 107.164 56.3693C107.505 56.3693 107.842 56.4261 108.174 56.5398C108.506 56.6534 108.809 56.8381 109.082 57.0938C109.354 57.3466 109.572 57.6818 109.734 58.0994C109.896 58.517 109.977 59.0312 109.977 59.642V60.0682H104.931V59.1989H108.954C108.954 58.8295 108.88 58.5 108.732 58.2102C108.587 57.9205 108.38 57.6918 108.11 57.5241C107.843 57.3565 107.528 57.2727 107.164 57.2727C106.763 57.2727 106.417 57.3722 106.124 57.571C105.835 57.767 105.612 58.0227 105.455 58.3381C105.299 58.6534 105.221 58.9915 105.221 59.3523V59.9318C105.221 60.4261 105.306 60.8452 105.477 61.1889C105.65 61.5298 105.89 61.7898 106.197 61.9688C106.504 62.1449 106.86 62.233 107.266 62.233C107.531 62.233 107.769 62.196 107.982 62.1222C108.198 62.0455 108.384 61.9318 108.54 61.7812C108.697 61.6278 108.817 61.4375 108.903 61.2102L109.874 61.483C109.772 61.8125 109.6 62.1023 109.359 62.3523C109.117 62.5994 108.819 62.7926 108.464 62.9318C108.109 63.0682 107.71 63.1364 107.266 63.1364ZM111.506 63V56.4545H112.478V57.4432H112.546C112.665 57.1193 112.881 56.8565 113.194 56.6548C113.506 56.4531 113.859 56.3523 114.251 56.3523C114.325 56.3523 114.417 56.3537 114.528 56.3565C114.638 56.3594 114.722 56.3636 114.779 56.3693V57.392C114.745 57.3835 114.667 57.3707 114.545 57.3537C114.425 57.3338 114.299 57.3239 114.165 57.3239C113.847 57.3239 113.563 57.3906 113.313 57.5241C113.066 57.6548 112.87 57.8366 112.725 58.0696C112.583 58.2997 112.512 58.5625 112.512 58.858V63H111.506ZM115.971 63V56.4545H116.977V63H115.971ZM116.483 55.3636C116.287 55.3636 116.118 55.2969 115.975 55.1634C115.836 55.0298 115.767 54.8693 115.767 54.6818C115.767 54.4943 115.836 54.3338 115.975 54.2003C116.118 54.0668 116.287 54 116.483 54C116.679 54 116.846 54.0668 116.985 54.2003C117.127 54.3338 117.199 54.4943 117.199 54.6818C117.199 54.8693 117.127 55.0298 116.985 55.1634C116.846 55.2969 116.679 55.3636 116.483 55.3636ZM121.563 63.1364C120.933 63.1364 120.388 62.9972 119.931 62.7188C119.477 62.4375 119.126 62.0455 118.879 61.5426C118.634 61.0369 118.512 60.4489 118.512 59.7784C118.512 59.108 118.634 58.517 118.879 58.0057C119.126 57.4915 119.469 57.0909 119.91 56.804C120.353 56.5142 120.87 56.3693 121.461 56.3693C121.802 56.3693 122.138 56.4261 122.471 56.5398C122.803 56.6534 123.106 56.8381 123.379 57.0938C123.651 57.3466 123.869 57.6818 124.031 58.0994C124.192 58.517 124.273 59.0312 124.273 59.642V60.0682H119.228V59.1989H123.251C123.251 58.8295 123.177 58.5 123.029 58.2102C122.884 57.9205 122.677 57.6918 122.407 57.5241C122.14 57.3565 121.825 57.2727 121.461 57.2727C121.06 57.2727 120.714 57.3722 120.421 57.571C120.131 57.767 119.908 58.0227 119.752 58.3381C119.596 58.6534 119.518 58.9915 119.518 59.3523V59.9318C119.518 60.4261 119.603 60.8452 119.773 61.1889C119.947 61.5298 120.187 61.7898 120.494 61.9688C120.8 62.1449 121.157 62.233 121.563 62.233C121.827 62.233 122.066 62.196 122.279 62.1222C122.495 62.0455 122.681 61.9318 122.837 61.7812C122.994 61.6278 123.114 61.4375 123.2 61.2102L124.171 61.483C124.069 61.8125 123.897 62.1023 123.656 62.3523C123.414 62.5994 123.116 62.7926 122.761 62.9318C122.406 63.0682 122.006 63.1364 121.563 63.1364ZM126.809 59.0625V63H125.803V56.4545H126.775V57.4773H126.86C127.013 57.1449 127.246 56.8778 127.559 56.6761C127.871 56.4716 128.275 56.3693 128.769 56.3693C129.212 56.3693 129.6 56.4602 129.933 56.642C130.265 56.821 130.523 57.0938 130.708 57.4602C130.893 57.8239 130.985 58.2841 130.985 58.8409V63H129.979V58.9091C129.979 58.3949 129.846 57.9943 129.579 57.7074C129.312 57.4176 128.945 57.2727 128.479 57.2727C128.158 57.2727 127.871 57.3423 127.619 57.4815C127.369 57.6207 127.171 57.8239 127.026 58.0909C126.881 58.358 126.809 58.6818 126.809 59.0625ZM135.482 63.1364C134.868 63.1364 134.34 62.9915 133.897 62.7017C133.453 62.4119 133.113 62.0128 132.874 61.5043C132.635 60.9957 132.516 60.4148 132.516 59.7614C132.516 59.0966 132.638 58.5099 132.882 58.0014C133.13 57.4901 133.473 57.0909 133.914 56.804C134.357 56.5142 134.874 56.3693 135.465 56.3693C135.925 56.3693 136.34 56.4545 136.709 56.625C137.078 56.7955 137.381 57.0341 137.617 57.3409C137.853 57.6477 137.999 58.0057 138.056 58.4148H137.05C136.973 58.1165 136.803 57.8523 136.539 57.6222C136.277 57.3892 135.925 57.2727 135.482 57.2727C135.09 57.2727 134.746 57.375 134.451 57.5795C134.158 57.7812 133.929 58.0668 133.765 58.4361C133.603 58.8026 133.522 59.233 133.522 59.7273C133.522 60.233 133.601 60.6733 133.76 61.0483C133.922 61.4233 134.15 61.7145 134.442 61.9219C134.738 62.1293 135.084 62.233 135.482 62.233C135.743 62.233 135.98 62.1875 136.194 62.0966C136.407 62.0057 136.587 61.875 136.735 61.7045C136.882 61.5341 136.988 61.3295 137.05 61.0909H138.056C137.999 61.4773 137.858 61.8253 137.634 62.1349C137.412 62.4418 137.118 62.6861 136.752 62.8679C136.388 63.0469 135.965 63.1364 135.482 63.1364ZM142.27 63.1364C141.64 63.1364 141.096 62.9972 140.638 62.7188C140.184 62.4375 139.833 62.0455 139.586 61.5426C139.341 61.0369 139.219 60.4489 139.219 59.7784C139.219 59.108 139.341 58.517 139.586 58.0057C139.833 57.4915 140.176 57.0909 140.617 56.804C141.06 56.5142 141.577 56.3693 142.168 56.3693C142.509 56.3693 142.846 56.4261 143.178 56.5398C143.51 56.6534 143.813 56.8381 144.086 57.0938C144.358 57.3466 144.576 57.6818 144.738 58.0994C144.9 58.517 144.98 59.0312 144.98 59.642V60.0682H139.935V59.1989H143.958C143.958 58.8295 143.884 58.5 143.736 58.2102C143.591 57.9205 143.384 57.6918 143.114 57.5241C142.847 57.3565 142.532 57.2727 142.168 57.2727C141.767 57.2727 141.421 57.3722 141.128 57.571C140.838 57.767 140.615 58.0227 140.459 58.3381C140.303 58.6534 140.225 58.9915 140.225 59.3523V59.9318C140.225 60.4261 140.31 60.8452 140.48 61.1889C140.654 61.5298 140.894 61.7898 141.201 61.9688C141.507 62.1449 141.864 62.233 142.27 62.233C142.534 62.233 142.773 62.196 142.986 62.1222C143.202 62.0455 143.388 61.9318 143.544 61.7812C143.701 61.6278 143.821 61.4375 143.907 61.2102L144.878 61.483C144.776 61.8125 144.604 62.1023 144.363 62.3523C144.121 62.5994 143.823 62.7926 143.468 62.9318C143.113 63.0682 142.713 63.1364 142.27 63.1364ZM151.147 57.9205L150.243 58.1761C150.186 58.0256 150.103 57.8793 149.992 57.7372C149.884 57.5923 149.736 57.473 149.549 57.3793C149.361 57.2855 149.121 57.2386 148.828 57.2386C148.428 57.2386 148.094 57.331 147.827 57.5156C147.563 57.6974 147.431 57.929 147.431 58.2102C147.431 58.4602 147.522 58.6577 147.703 58.8026C147.885 58.9474 148.169 59.0682 148.556 59.1648L149.527 59.4034C150.113 59.5455 150.549 59.7628 150.836 60.0554C151.123 60.3452 151.266 60.7187 151.266 61.1761C151.266 61.5511 151.158 61.8864 150.942 62.1818C150.729 62.4773 150.431 62.7102 150.047 62.8807C149.664 63.0511 149.218 63.1364 148.709 63.1364C148.042 63.1364 147.489 62.9915 147.051 62.7017C146.614 62.4119 146.337 61.9886 146.221 61.4318L147.175 61.1932C147.266 61.5455 147.438 61.8097 147.691 61.9858C147.946 62.1619 148.28 62.25 148.692 62.25C149.161 62.25 149.533 62.1506 149.809 61.9517C150.087 61.75 150.226 61.5085 150.226 61.2273C150.226 61 150.147 60.8097 149.988 60.6562C149.828 60.5 149.584 60.3835 149.255 60.3068L148.164 60.0511C147.564 59.9091 147.124 59.6889 146.843 59.3906C146.564 59.0895 146.425 58.7131 146.425 58.2614C146.425 57.892 146.529 57.5653 146.736 57.2812C146.946 56.9972 147.232 56.7741 147.593 56.6122C147.956 56.4503 148.368 56.3693 148.828 56.3693C149.476 56.3693 149.985 56.5114 150.354 56.7955C150.726 57.0795 150.99 57.4545 151.147 57.9205Z" fill="#555555"/>
<path d="M85.3352 18.2727L87.4446 24.9034H87.5256L89.6392 18.2727H91.6847L88.6761 27H86.2983L83.2855 18.2727H85.3352ZM92.701 27V20.4545H94.5163V27H92.701ZM93.6129 19.6108C93.343 19.6108 93.1115 19.5213 92.9183 19.3423C92.728 19.1605 92.6328 18.9432 92.6328 18.6903C92.6328 18.4403 92.728 18.2259 92.9183 18.0469C93.1115 17.8651 93.343 17.7741 93.6129 17.7741C93.8828 17.7741 94.1129 17.8651 94.3033 18.0469C94.4964 18.2259 94.593 18.4403 94.593 18.6903C94.593 18.9432 94.4964 19.1605 94.3033 19.3423C94.1129 19.5213 93.8828 19.6108 93.6129 19.6108ZM101.417 22.321L99.7546 22.4233C99.7262 22.2812 99.6651 22.1534 99.5714 22.0398C99.4776 21.9233 99.354 21.831 99.2006 21.7628C99.0501 21.6918 98.8697 21.6562 98.6594 21.6562C98.3782 21.6562 98.141 21.7159 97.9478 21.8352C97.7546 21.9517 97.658 22.108 97.658 22.304C97.658 22.4602 97.7205 22.5923 97.8455 22.7003C97.9705 22.8082 98.185 22.8949 98.489 22.9602L99.6737 23.1989C100.31 23.3295 100.784 23.5398 101.097 23.8295C101.409 24.1193 101.566 24.5 101.566 24.9716C101.566 25.4006 101.439 25.777 101.186 26.1009C100.936 26.4247 100.593 26.6776 100.155 26.8594C99.7205 27.0384 99.2191 27.1278 98.6509 27.1278C97.7844 27.1278 97.0941 26.9474 96.5799 26.5866C96.0685 26.223 95.7688 25.7287 95.6808 25.1037L97.4663 25.0099C97.5202 25.2741 97.6509 25.4759 97.8583 25.6151C98.0657 25.7514 98.3313 25.8196 98.6552 25.8196C98.9734 25.8196 99.229 25.7585 99.4222 25.6364C99.6183 25.5114 99.7177 25.3509 99.7205 25.1548C99.7177 24.9901 99.6481 24.8551 99.5117 24.75C99.3754 24.642 99.1651 24.5597 98.881 24.5028L97.7475 24.277C97.1083 24.1491 96.6325 23.9276 96.32 23.6122C96.0103 23.2969 95.8555 22.8949 95.8555 22.4062C95.8555 21.9858 95.9691 21.6236 96.1964 21.3196C96.4265 21.0156 96.7489 20.7812 97.1637 20.6165C97.5813 20.4517 98.07 20.3693 98.6296 20.3693C99.4563 20.3693 100.107 20.544 100.581 20.8935C101.059 21.2429 101.337 21.7187 101.417 22.321ZM102.709 27V20.4545H104.524V27H102.709ZM103.621 19.6108C103.351 19.6108 103.119 19.5213 102.926 19.3423C102.736 19.1605 102.641 18.9432 102.641 18.6903C102.641 18.4403 102.736 18.2259 102.926 18.0469C103.119 17.8651 103.351 17.7741 103.621 17.7741C103.891 17.7741 104.121 17.8651 104.311 18.0469C104.504 18.2259 104.601 18.4403 104.601 18.6903C104.601 18.9432 104.504 19.1605 104.311 19.3423C104.121 19.5213 103.891 19.6108 103.621 19.6108ZM109.46 20.4545V21.8182H105.518V20.4545H109.46ZM106.413 18.8864H108.228V24.9886C108.228 25.1562 108.254 25.2869 108.305 25.3807C108.356 25.4716 108.427 25.5355 108.518 25.5724C108.612 25.6094 108.72 25.6278 108.842 25.6278C108.927 25.6278 109.012 25.6207 109.098 25.6065C109.183 25.5895 109.248 25.5767 109.294 25.5682L109.579 26.919C109.488 26.9474 109.36 26.9801 109.196 27.017C109.031 27.0568 108.831 27.081 108.595 27.0895C108.157 27.1065 107.774 27.0483 107.444 26.9148C107.118 26.7812 106.863 26.5739 106.681 26.2926C106.5 26.0114 106.41 25.6562 106.413 25.2273V18.8864ZM113.529 27.1278C112.868 27.1278 112.295 26.9872 111.812 26.706C111.332 26.4219 110.961 26.027 110.7 25.5213C110.439 25.0128 110.308 24.4233 110.308 23.7528C110.308 23.0767 110.439 22.4858 110.7 21.9801C110.961 21.4716 111.332 21.0767 111.812 20.7955C112.295 20.5114 112.868 20.3693 113.529 20.3693C114.191 20.3693 114.762 20.5114 115.243 20.7955C115.725 21.0767 116.098 21.4716 116.359 21.9801C116.62 22.4858 116.751 23.0767 116.751 23.7528C116.751 24.4233 116.62 25.0128 116.359 25.5213C116.098 26.027 115.725 26.4219 115.243 26.706C114.762 26.9872 114.191 27.1278 113.529 27.1278ZM113.538 25.7216C113.839 25.7216 114.091 25.6364 114.292 25.4659C114.494 25.2926 114.646 25.0568 114.748 24.7585C114.853 24.4602 114.906 24.1207 114.906 23.7401C114.906 23.3594 114.853 23.0199 114.748 22.7216C114.646 22.4233 114.494 22.1875 114.292 22.0142C114.091 21.8409 113.839 21.7543 113.538 21.7543C113.234 21.7543 112.978 21.8409 112.771 22.0142C112.566 22.1875 112.412 22.4233 112.306 22.7216C112.204 23.0199 112.153 23.3594 112.153 23.7401C112.153 24.1207 112.204 24.4602 112.306 24.7585C112.412 25.0568 112.566 25.2926 112.771 25.4659C112.978 25.6364 113.234 25.7216 113.538 25.7216ZM117.931 27V20.4545H119.691V21.5966H119.76C119.879 21.1903 120.079 20.8835 120.36 20.6761C120.642 20.4659 120.966 20.3608 121.332 20.3608C121.423 20.3608 121.521 20.3665 121.626 20.3778C121.731 20.3892 121.824 20.4048 121.903 20.4247V22.0355C121.818 22.0099 121.7 21.9872 121.549 21.9673C121.399 21.9474 121.261 21.9375 121.136 21.9375C120.869 21.9375 120.63 21.9957 120.42 22.1122C120.213 22.2259 120.048 22.3849 119.926 22.5895C119.806 22.794 119.747 23.0298 119.747 23.2969V27H117.931ZM125.653 18.2727H127.929L130.332 24.1364H130.434L132.838 18.2727H135.113V27H133.324V21.3196H133.251L130.993 26.9574H129.774L127.515 21.2983H127.443V27H125.653V18.2727ZM139.548 29.5909C138.96 29.5909 138.456 29.5099 138.036 29.348C137.618 29.1889 137.286 28.9716 137.038 28.696C136.791 28.4205 136.631 28.1108 136.557 27.767L138.236 27.5412C138.287 27.6719 138.368 27.794 138.479 27.9077C138.589 28.0213 138.736 28.1122 138.918 28.1804C139.102 28.2514 139.327 28.2869 139.591 28.2869C139.986 28.2869 140.311 28.1903 140.567 27.9972C140.825 27.8068 140.955 27.4872 140.955 27.0384V25.8409H140.878C140.798 26.0227 140.679 26.1946 140.52 26.3565C140.361 26.5185 140.156 26.6506 139.906 26.7528C139.656 26.8551 139.358 26.9062 139.011 26.9062C138.52 26.9062 138.072 26.7926 137.669 26.5653C137.268 26.3352 136.949 25.9844 136.71 25.5128C136.474 25.0384 136.357 24.4389 136.357 23.7145C136.357 22.973 136.477 22.3537 136.719 21.8565C136.96 21.3594 137.281 20.9872 137.682 20.7401C138.085 20.4929 138.527 20.3693 139.007 20.3693C139.374 20.3693 139.68 20.4318 139.928 20.5568C140.175 20.679 140.374 20.8324 140.524 21.017C140.678 21.1989 140.795 21.3778 140.878 21.554H140.946V20.4545H142.749V27.0639C142.749 27.6207 142.612 28.0866 142.339 28.4616C142.067 28.8366 141.689 29.1179 141.206 29.3054C140.726 29.4957 140.173 29.5909 139.548 29.5909ZM139.587 25.5426C139.879 25.5426 140.126 25.4702 140.328 25.3253C140.533 25.1776 140.689 24.9673 140.797 24.6946C140.908 24.419 140.963 24.0895 140.963 23.706C140.963 23.3224 140.909 22.9901 140.801 22.7088C140.693 22.4247 140.537 22.2045 140.332 22.0483C140.128 21.892 139.879 21.8139 139.587 21.8139C139.288 21.8139 139.037 21.8949 138.832 22.0568C138.628 22.2159 138.473 22.4375 138.368 22.7216C138.263 23.0057 138.21 23.3338 138.21 23.706C138.21 24.0838 138.263 24.4105 138.368 24.6861C138.476 24.9588 138.631 25.1705 138.832 25.321C139.037 25.4687 139.288 25.5426 139.587 25.5426ZM144.193 27V20.4545H145.923V21.6094H146C146.136 21.2259 146.364 20.9233 146.682 20.7017C147 20.4801 147.381 20.3693 147.824 20.3693C148.273 20.3693 148.655 20.4815 148.97 20.706C149.286 20.9276 149.496 21.2287 149.601 21.6094H149.669C149.803 21.2344 150.044 20.9347 150.393 20.7102C150.746 20.483 151.162 20.3693 151.642 20.3693C152.253 20.3693 152.749 20.5639 153.129 20.9531C153.513 21.3395 153.705 21.8878 153.705 22.598V27H151.893V22.956C151.893 22.5923 151.797 22.3196 151.604 22.1378C151.411 21.956 151.169 21.8651 150.879 21.8651C150.55 21.8651 150.293 21.9702 150.108 22.1804C149.923 22.3878 149.831 22.6619 149.831 23.0028V27H148.071V22.9176C148.071 22.5966 147.979 22.3409 147.794 22.1506C147.612 21.9602 147.372 21.8651 147.074 21.8651C146.872 21.8651 146.69 21.9162 146.528 22.0185C146.369 22.1179 146.243 22.2585 146.149 22.4403C146.055 22.6193 146.009 22.8295 146.009 23.071V27H144.193ZM158.62 20.4545V21.8182H154.678V20.4545H158.62ZM155.573 18.8864H157.388V24.9886C157.388 25.1562 157.414 25.2869 157.465 25.3807C157.516 25.4716 157.587 25.5355 157.678 25.5724C157.772 25.6094 157.88 25.6278 158.002 25.6278C158.087 25.6278 158.173 25.6207 158.258 25.6065C158.343 25.5895 158.408 25.5767 158.454 25.5682L158.739 26.919C158.648 26.9474 158.521 26.9801 158.356 27.017C158.191 27.0568 157.991 27.081 157.755 27.0895C157.317 27.1065 156.934 27.0483 156.604 26.9148C156.278 26.7812 156.023 26.5739 155.842 26.2926C155.66 26.0114 155.57 25.6562 155.573 25.2273V18.8864ZM160.864 27.1108C160.582 27.1108 160.341 27.0114 160.139 26.8125C159.94 26.6108 159.841 26.3693 159.841 26.0881C159.841 25.8097 159.94 25.571 160.139 25.3722C160.341 25.1733 160.582 25.0739 160.864 25.0739C161.136 25.0739 161.375 25.1733 161.58 25.3722C161.784 25.571 161.886 25.8097 161.886 26.0881C161.886 26.2756 161.838 26.4474 161.741 26.6037C161.648 26.7571 161.524 26.8807 161.371 26.9744C161.217 27.0653 161.048 27.1108 160.864 27.1108ZM170.512 20.7827C170.478 20.4389 170.332 20.1719 170.074 19.9815C169.815 19.7912 169.464 19.696 169.021 19.696C168.72 19.696 168.466 19.7386 168.258 19.8239C168.051 19.9062 167.892 20.0213 167.781 20.169C167.673 20.3168 167.619 20.4844 167.619 20.6719C167.613 20.8281 167.646 20.9645 167.717 21.081C167.791 21.1974 167.892 21.2983 168.02 21.3835C168.147 21.4659 168.295 21.5384 168.463 21.6009C168.63 21.6605 168.809 21.7116 169 21.7543L169.784 21.9418C170.164 22.027 170.514 22.1406 170.832 22.2827C171.15 22.4247 171.426 22.5994 171.659 22.8068C171.892 23.0142 172.072 23.2585 172.2 23.5398C172.331 23.821 172.397 24.1435 172.4 24.5071C172.397 25.0412 172.261 25.5043 171.991 25.8963C171.724 26.2855 171.338 26.5881 170.832 26.804C170.329 27.017 169.723 27.1236 169.012 27.1236C168.308 27.1236 167.694 27.0156 167.172 26.7997C166.652 26.5838 166.245 26.2642 165.953 25.8409C165.663 25.4148 165.511 24.8878 165.497 24.2599H167.282C167.302 24.5526 167.386 24.7969 167.534 24.9929C167.684 25.1861 167.885 25.3324 168.135 25.4318C168.387 25.5284 168.673 25.5767 168.991 25.5767C169.304 25.5767 169.575 25.5312 169.805 25.4403C170.038 25.3494 170.218 25.223 170.346 25.0611C170.474 24.8991 170.538 24.7131 170.538 24.5028C170.538 24.3068 170.48 24.142 170.363 24.0085C170.25 23.875 170.082 23.7614 169.86 23.6676C169.642 23.5739 169.373 23.4886 169.055 23.4119L168.105 23.1733C167.369 22.9943 166.788 22.7145 166.362 22.3338C165.936 21.9531 165.724 21.4403 165.727 20.7955C165.724 20.267 165.865 19.8054 166.149 19.4105C166.436 19.0156 166.829 18.7074 167.329 18.4858C167.829 18.2642 168.397 18.1534 169.034 18.1534C169.681 18.1534 170.247 18.2642 170.73 18.4858C171.216 18.7074 171.593 19.0156 171.863 19.4105C172.133 19.8054 172.272 20.2628 172.281 20.7827H170.512ZM174.728 29.4545C174.498 29.4545 174.282 29.4361 174.08 29.3991C173.881 29.3651 173.717 29.321 173.586 29.267L173.995 27.9119C174.208 27.9773 174.4 28.0128 174.57 28.0185C174.744 28.0241 174.893 27.9844 175.018 27.8991C175.146 27.8139 175.249 27.669 175.329 27.4645L175.435 27.1875L173.087 20.4545H174.996L176.352 25.2614H176.42L177.788 20.4545H179.71L177.165 27.7074C177.043 28.0597 176.877 28.3665 176.667 28.6278C176.46 28.892 176.197 29.0952 175.879 29.2372C175.56 29.3821 175.177 29.4545 174.728 29.4545ZM186.085 22.321L184.423 22.4233C184.394 22.2812 184.333 22.1534 184.239 22.0398C184.146 21.9233 184.022 21.831 183.869 21.7628C183.718 21.6918 183.538 21.6562 183.327 21.6562C183.046 21.6562 182.809 21.7159 182.616 21.8352C182.423 21.9517 182.326 22.108 182.326 22.304C182.326 22.4602 182.388 22.5923 182.513 22.7003C182.638 22.8082 182.853 22.8949 183.157 22.9602L184.342 23.1989C184.978 23.3295 185.452 23.5398 185.765 23.8295C186.077 24.1193 186.234 24.5 186.234 24.9716C186.234 25.4006 186.107 25.777 185.854 26.1009C185.604 26.4247 185.261 26.6776 184.823 26.8594C184.388 27.0384 183.887 27.1278 183.319 27.1278C182.452 27.1278 181.762 26.9474 181.248 26.5866C180.737 26.223 180.437 25.7287 180.349 25.1037L182.134 25.0099C182.188 25.2741 182.319 25.4759 182.526 25.6151C182.734 25.7514 182.999 25.8196 183.323 25.8196C183.641 25.8196 183.897 25.7585 184.09 25.6364C184.286 25.5114 184.386 25.3509 184.388 25.1548C184.386 24.9901 184.316 24.8551 184.18 24.75C184.043 24.642 183.833 24.5597 183.549 24.5028L182.415 24.277C181.776 24.1491 181.3 23.9276 180.988 23.6122C180.678 23.2969 180.523 22.8949 180.523 22.4062C180.523 21.9858 180.637 21.6236 180.864 21.3196C181.094 21.0156 181.417 20.7812 181.832 20.6165C182.249 20.4517 182.738 20.3693 183.298 20.3693C184.124 20.3693 184.775 20.544 185.249 20.8935C185.727 21.2429 186.005 21.7187 186.085 22.321ZM190.858 20.4545V21.8182H186.917V20.4545H190.858ZM187.811 18.8864H189.627V24.9886C189.627 25.1562 189.652 25.2869 189.703 25.3807C189.755 25.4716 189.826 25.5355 189.917 25.5724C190.01 25.6094 190.118 25.6278 190.24 25.6278C190.326 25.6278 190.411 25.6207 190.496 25.6065C190.581 25.5895 190.647 25.5767 190.692 25.5682L190.978 26.919C190.887 26.9474 190.759 26.9801 190.594 27.017C190.429 27.0568 190.229 27.081 189.993 27.0895C189.556 27.1065 189.172 27.0483 188.843 26.9148C188.516 26.7812 188.262 26.5739 188.08 26.2926C187.898 26.0114 187.809 25.6562 187.811 25.2273V18.8864ZM194.953 27.1278C194.28 27.1278 193.701 26.9915 193.215 26.7188C192.732 26.4432 192.36 26.054 192.098 25.5511C191.837 25.0455 191.706 24.4474 191.706 23.7571C191.706 23.0838 191.837 22.4929 192.098 21.9844C192.36 21.4759 192.728 21.0795 193.202 20.7955C193.679 20.5114 194.239 20.3693 194.881 20.3693C195.313 20.3693 195.715 20.4389 196.087 20.5781C196.462 20.7145 196.789 20.9205 197.067 21.196C197.348 21.4716 197.567 21.8182 197.723 22.2358C197.88 22.6506 197.958 23.1364 197.958 23.6932V24.1918H192.431V23.0668H196.249C196.249 22.8054 196.192 22.5739 196.078 22.3722C195.965 22.1705 195.807 22.0128 195.605 21.8991C195.407 21.7827 195.175 21.7244 194.911 21.7244C194.635 21.7244 194.391 21.7884 194.178 21.9162C193.968 22.0412 193.803 22.2102 193.684 22.4233C193.564 22.6335 193.503 22.8679 193.5 23.1264V24.196C193.5 24.5199 193.56 24.7997 193.679 25.0355C193.801 25.2713 193.973 25.4531 194.195 25.581C194.417 25.7088 194.679 25.7727 194.983 25.7727C195.185 25.7727 195.37 25.7443 195.537 25.6875C195.705 25.6307 195.848 25.5455 195.968 25.4318C196.087 25.3182 196.178 25.179 196.24 25.0142L197.919 25.125C197.834 25.5284 197.659 25.8807 197.395 26.1818C197.134 26.4801 196.796 26.7131 196.381 26.8807C195.969 27.0455 195.493 27.1278 194.953 27.1278ZM199.142 27V20.4545H200.873V21.6094H200.949C201.086 21.2259 201.313 20.9233 201.631 20.7017C201.949 20.4801 202.33 20.3693 202.773 20.3693C203.222 20.3693 203.604 20.4815 203.919 20.706C204.235 20.9276 204.445 21.2287 204.55 21.6094H204.618C204.752 21.2344 204.993 20.9347 205.343 20.7102C205.695 20.483 206.111 20.3693 206.591 20.3693C207.202 20.3693 207.698 20.5639 208.078 20.9531C208.462 21.3395 208.654 21.8878 208.654 22.598V27H206.843V22.956C206.843 22.5923 206.746 22.3196 206.553 22.1378C206.36 21.956 206.118 21.8651 205.828 21.8651C205.499 21.8651 205.242 21.9702 205.057 22.1804C204.873 22.3878 204.78 22.6619 204.78 23.0028V27H203.02V22.9176C203.02 22.5966 202.928 22.3409 202.743 22.1506C202.561 21.9602 202.321 21.8651 202.023 21.8651C201.821 21.8651 201.64 21.9162 201.478 22.0185C201.319 22.1179 201.192 22.2585 201.098 22.4403C201.005 22.6193 200.958 22.8295 200.958 23.071V27H199.142Z" fill="#555555"/>
<defs>
<clipPath id="clip0_1002_193325">
<rect width="38" height="38" fill="white" transform="translate(23 23)"/>
</clipPath>
</defs>
</svg>
