<svg width="34" height="34" viewBox="0 0 34 34" fill="none" xmlns="http://www.w3.org/2000/svg">
<g clip-path="url(#clip0_1927_111488)">
<path fill-rule="evenodd" clip-rule="evenodd" d="M24.8155 11.5852C24.9451 11.6837 25.0212 11.8371 25.0212 11.9998V21.9998C25.0212 22.1578 24.9495 22.3073 24.8262 22.4061C24.703 22.505 24.5416 22.5425 24.3873 22.5083L9.38734 19.1749C9.14904 19.122 8.97949 18.9106 8.97949 18.6665V16.1665C8.97949 15.9325 9.1355 15.7273 9.36093 15.6647L24.3609 11.498C24.5177 11.4544 24.6859 11.4867 24.8155 11.5852ZM10.0212 16.5624V18.2487L23.9795 21.3506V12.6851L10.0212 16.5624Z" fill="#808080"/>
<path fill-rule="evenodd" clip-rule="evenodd" d="M11.9722 19.1644C12.2495 19.2409 12.4122 19.5277 12.3357 19.805C12.2664 20.0564 12.2472 20.3191 12.2794 20.5779C12.3115 20.8367 12.3943 21.0867 12.523 21.3135C12.6518 21.5404 12.8239 21.7396 13.0297 21.8999C13.2354 22.0602 13.4707 22.1784 13.7222 22.2478C13.9736 22.3171 14.2362 22.3363 14.495 22.3041C14.7539 22.272 15.0038 22.1892 15.2307 22.0605C15.4575 21.9317 15.6568 21.7596 15.8171 21.5538C15.9774 21.3481 16.0956 21.1128 16.1649 20.8613C16.2414 20.584 16.5282 20.4213 16.8055 20.4978C17.0828 20.5743 17.2456 20.8611 17.1691 21.1383C17.0633 21.5216 16.8831 21.8804 16.6388 22.194C16.3944 22.5077 16.0906 22.7701 15.7448 22.9664C15.3991 23.1626 15.018 23.2889 14.6234 23.3379C14.2288 23.3869 13.8284 23.3577 13.4452 23.2519C13.0619 23.1462 12.7031 22.966 12.3895 22.7216C12.0758 22.4773 11.8134 22.1735 11.6171 21.8277C11.4209 21.4819 11.2946 21.1008 11.2456 20.7062C11.1966 20.3117 11.2258 19.9113 11.3316 19.528C11.4081 19.2507 11.6949 19.0879 11.9722 19.1644Z" fill="#808080"/>
</g>
<defs>
<clipPath id="clip0_1927_111488">
<rect width="20" height="20" fill="white" transform="translate(7 7)"/>
</clipPath>
</defs>
</svg>
