<svg width="34" height="34" viewBox="0 0 34 34" fill="none" xmlns="http://www.w3.org/2000/svg">
<path fill-rule="evenodd" clip-rule="evenodd" d="M10.8994 23.2821C10.3389 23.2821 9.88445 22.8276 9.88445 22.2671V10.8996C9.88445 10.339 10.3389 9.88461 10.8994 9.88461H22.2669C22.8275 9.88461 23.2819 10.339 23.2819 10.8996V22.2671C23.2819 22.8276 22.8275 23.2821 22.2669 23.2821H10.8994ZM8.6665 22.2671C8.6665 23.5003 9.66621 24.5 10.8994 24.5H22.2669C23.5001 24.5 24.4998 23.5003 24.4998 22.2671V10.8996C24.4998 9.66637 23.5001 8.66667 22.2669 8.66667H10.8994C9.66621 8.66667 8.6665 9.66637 8.6665 10.8996V22.2671Z" fill="#808080"/>
<path fill-rule="evenodd" clip-rule="evenodd" d="M13.3353 21.2521C13.6716 21.2521 13.9443 20.9795 13.9443 20.6432V14.9594C13.9443 14.6231 13.6716 14.3504 13.3353 14.3504C12.999 14.3504 12.7263 14.6231 12.7263 14.9594V20.6432C12.7263 20.9795 12.999 21.2521 13.3353 21.2521Z" fill="#808080"/>
<path fill-rule="evenodd" clip-rule="evenodd" d="M16.5832 21.2521C16.9195 21.2521 17.1921 20.9795 17.1921 20.6432V17.3953C17.1921 17.059 16.9195 16.7863 16.5832 16.7863C16.2468 16.7863 15.9742 17.059 15.9742 17.3953V20.6432C15.9742 20.9795 16.2468 21.2521 16.5832 21.2521Z" fill="#808080"/>
<path fill-rule="evenodd" clip-rule="evenodd" d="M19.831 21.2521C20.1674 21.2521 20.44 20.9795 20.44 20.6432V13.3355C20.44 12.9991 20.1674 12.7265 19.831 12.7265C19.4947 12.7265 19.2221 12.9991 19.2221 13.3355V20.6432C19.2221 20.9795 19.4947 21.2521 19.831 21.2521Z" fill="#808080"/>
</svg>
