<svg width="34" height="34" viewBox="0 0 34 34" fill="none" xmlns="http://www.w3.org/2000/svg">
<g clip-path="url(#clip0_1927_111507)">
<path fill-rule="evenodd" clip-rule="evenodd" d="M18.979 9.49984C18.979 9.21219 19.2122 8.979 19.4998 8.979H24.4998C24.7875 8.979 25.0207 9.21219 25.0207 9.49984V14.4998C25.0207 14.7875 24.7875 15.0207 24.4998 15.0207C24.2122 15.0207 23.979 14.7875 23.979 14.4998V10.0207H19.4998C19.2122 10.0207 18.979 9.78749 18.979 9.49984Z" fill="#808080"/>
<path fill-rule="evenodd" clip-rule="evenodd" d="M9.49984 18.979C9.78749 18.979 10.0207 19.2122 10.0207 19.4998V23.979H14.4998C14.7875 23.979 15.0207 24.2122 15.0207 24.4998C15.0207 24.7875 14.7875 25.0207 14.4998 25.0207H9.49984C9.21219 25.0207 8.979 24.7875 8.979 24.4998V19.4998C8.979 19.2122 9.21219 18.979 9.49984 18.979Z" fill="#808080"/>
<path fill-rule="evenodd" clip-rule="evenodd" d="M24.8681 9.13155C25.0715 9.33495 25.0715 9.66472 24.8681 9.86812L19.0348 15.7015C18.8314 15.9049 18.5016 15.9049 18.2982 15.7015C18.0948 15.4981 18.0948 15.1683 18.2982 14.9649L24.1316 9.13155C24.335 8.92815 24.6647 8.92815 24.8681 9.13155Z" fill="#808080"/>
<path fill-rule="evenodd" clip-rule="evenodd" d="M15.7015 18.2982C15.9049 18.5016 15.9049 18.8314 15.7015 19.0348L9.86812 24.8681C9.66472 25.0715 9.33495 25.0715 9.13155 24.8681C8.92815 24.6647 8.92815 24.335 9.13155 24.1316L14.9649 18.2982C15.1683 18.0948 15.4981 18.0948 15.7015 18.2982Z" fill="#808080"/>
</g>
<defs>
<clipPath id="clip0_1927_111507">
<rect width="20" height="20" fill="white" transform="translate(7 7)"/>
</clipPath>
</defs>
</svg>
