<svg width="34" height="34" viewBox="0 0 34 34" fill="none" xmlns="http://www.w3.org/2000/svg">
<g clip-path="url(#clip0_1927_111500)">
<path d="M24.4169 14.5455C22.7585 14.5455 22.0805 13.4154 22.9051 12.0293C23.3816 11.2259 23.0975 10.2017 22.2638 9.74264L20.6787 8.86859C19.9549 8.45364 19.0204 8.70085 18.5898 9.39832L18.489 9.56606C17.6644 10.9522 16.3084 10.9522 15.4747 9.56606L15.3739 9.39832C14.9616 8.70085 14.0271 8.45364 13.3033 8.86859L11.7182 9.74264C10.8845 10.2017 10.6004 11.2347 11.0769 12.0381C11.9106 13.4154 11.2326 14.5455 9.57429 14.5455C8.62144 14.5455 7.8335 15.2959 7.8335 16.2229V17.7768C7.8335 18.695 8.61227 19.4542 9.57429 19.4542C11.2326 19.4542 11.9106 20.5843 11.0769 21.9704C10.6004 22.7738 10.8845 23.7979 11.7182 24.257L13.3033 25.1311C14.0271 25.546 14.9616 25.2988 15.3922 24.6014L15.493 24.4336C16.3176 23.0475 17.6736 23.0475 18.5073 24.4336L18.6081 24.6014C19.0387 25.2988 19.9733 25.546 20.6971 25.1311L22.2821 24.257C23.1159 23.7979 23.3999 22.765 22.9234 21.9704C22.0897 20.5843 22.7677 19.4542 24.426 19.4542C25.3789 19.4542 26.1668 18.7038 26.1668 17.7768V16.2229C26.1577 15.3047 25.3789 14.5455 24.4169 14.5455ZM16.9956 19.8692C15.3556 19.8692 14.0179 18.5802 14.0179 16.9998C14.0179 15.4195 15.3556 14.1305 16.9956 14.1305C18.6356 14.1305 19.9733 15.4195 19.9733 16.9998C19.9733 18.5802 18.6356 19.8692 16.9956 19.8692Z" fill="#808080"/>
</g>
<defs>
<clipPath id="clip0_1927_111500">
<rect width="20" height="20" fill="white" transform="translate(7 7)"/>
</clipPath>
</defs>
</svg>
