<svg width="34" height="34" viewBox="0 0 34 34" fill="none" xmlns="http://www.w3.org/2000/svg">
<path fill-rule="evenodd" clip-rule="evenodd" d="M17.0625 10.1127C13.2242 10.1127 10.1127 13.2242 10.1127 17.0625C10.1127 20.9008 13.2242 24.0123 17.0625 24.0123C20.9008 24.0123 24.0123 20.9008 24.0123 17.0625C24.0123 13.2242 20.9008 10.1127 17.0625 10.1127ZM8.75 17.0625C8.75 12.4716 12.4716 8.75 17.0625 8.75C21.6534 8.75 25.375 12.4716 25.375 17.0625C25.375 21.6534 21.6534 25.375 17.0625 25.375C12.4716 25.375 8.75 21.6534 8.75 17.0625Z" fill="#808080"/>
<path fill-rule="evenodd" clip-rule="evenodd" d="M17.2732 13.9482C16.8989 13.884 16.514 13.9544 16.1866 14.1468C15.8592 14.3392 15.6105 14.6413 15.4845 14.9995C15.3596 15.3545 14.9706 15.541 14.6156 15.4161C14.2606 15.2912 14.0741 14.9023 14.199 14.5473C14.4318 13.8855 14.8913 13.3274 15.4961 12.9719C16.101 12.6165 16.8121 12.4865 17.5036 12.6051C18.195 12.7237 18.8222 13.0832 19.274 13.62C19.7257 14.1566 19.973 14.8358 19.972 15.5372C19.9717 16.6616 19.1373 17.4115 18.524 17.8204C18.1965 18.0387 17.8738 18.1996 17.6358 18.3054C17.5158 18.3587 17.4148 18.3991 17.3423 18.4268C17.3059 18.4406 17.2766 18.4513 17.2553 18.4589L17.2296 18.4679L17.2215 18.4706L17.2187 18.4716L17.2177 18.4719C17.2177 18.4719 17.2168 18.4722 17.0065 17.8412L17.2177 18.4719C16.8607 18.5909 16.4739 18.3983 16.3549 18.0413C16.2361 17.6847 16.4284 17.2994 16.7846 17.1799L16.7862 17.1793L16.7988 17.1749C16.8111 17.1705 16.8309 17.1634 16.8571 17.1534C16.9098 17.1333 16.9877 17.1022 17.0823 17.0601C17.2735 16.9752 17.5232 16.8498 17.7681 16.6866C18.2992 16.3325 18.6093 15.9379 18.6093 15.5365C18.6099 15.1568 18.476 14.788 18.2315 14.4975C17.9869 14.207 17.6475 14.0124 17.2732 13.9482Z" fill="#808080"/>
<path fill-rule="evenodd" clip-rule="evenodd" d="M16.3811 20.8781C16.3811 20.5018 16.6862 20.1967 17.0625 20.1967H17.0701C17.4464 20.1967 17.7515 20.5018 17.7515 20.8781C17.7515 21.2544 17.4464 21.5594 17.0701 21.5594H17.0625C16.6862 21.5594 16.3811 21.2544 16.3811 20.8781Z" fill="#808080"/>
</svg>
